<svg width="76" height="76" viewBox="0 0 76 76" fill="none" xmlns="http://www.w3.org/2000/svg">
<g filter="url(#filter0_d_2594_3356)">
<path d="M37.5172 6.00375C54.6656 5.74177 68.6619 19.2386 68.9941 36.3859C69.0427 38.9032 68.7911 41.3539 68.2726 43.7042C67.3948 47.684 66.8729 51.734 66.8729 55.8097V63.6876C66.8729 64.8945 65.8945 65.873 64.6875 65.873H56.8096C52.7341 65.873 48.6841 66.3949 44.7042 67.2727C42.3539 67.7911 39.9033 68.0428 37.386 67.994C20.2391 67.662 6.74235 53.6661 7.00373 36.5179C7.25909 19.78 20.7795 6.25926 37.5172 6.00375Z" fill="#223468"/>
<path d="M70.634 36.3542L70.634 36.3541C70.2843 18.3021 55.5421 4.08797 37.4921 4.36373C19.8682 4.63277 5.63259 18.8688 5.36371 36.4929C5.08859 54.5426 19.3027 69.2844 37.3543 69.6339C40.0019 69.6853 42.5817 69.4205 45.0575 68.8744C48.9435 68.0173 52.8736 67.5132 56.8096 67.5132H64.6875C66.8005 67.5132 68.5131 65.8003 68.5131 63.6876V55.8097C68.5131 51.8735 69.0172 47.9434 69.8743 44.0576L70.634 36.3542ZM70.634 36.3542C70.6851 39.0017 70.4205 41.5816 69.8743 44.0575L70.634 36.3542Z" stroke="white" stroke-width="3.28042"/>
</g>
<g filter="url(#filter1_d_2594_3356)">
<ellipse cx="38.7978" cy="36.9835" rx="19.497" ry="18.9972" fill="white"/>
</g>
<ellipse cx="38.6763" cy="37.0001" rx="13.733" ry="13.4415" fill="#FDC535"/>
<path d="M44.9884 39.4502C45.3074 38.6954 45.4806 37.8873 45.4806 36.9992C45.4806 36.3599 45.3803 35.7471 45.2072 35.1788C44.6148 35.312 43.995 35.383 43.3479 35.383C42.0227 35.3844 40.7166 35.0753 39.5397 34.4819C38.3628 33.8884 37.3496 33.028 36.5854 31.973C35.768 33.9002 34.2259 35.4503 32.2745 36.3066C32.2381 36.5286 32.2381 36.7683 32.2381 36.9992C32.2381 37.847 32.4095 38.6865 32.7425 39.4698C33.0754 40.2531 33.5635 40.9648 34.1787 41.5643C35.4213 42.775 37.1066 43.4552 38.8639 43.4552C39.8209 43.4552 40.7414 43.2509 41.5707 42.8868C42.0902 43.8548 42.3272 44.3343 42.3089 44.3343C40.8143 44.8227 39.6568 45.0625 38.8639 45.0625C36.6583 45.0625 34.553 44.2189 33.0037 42.7004C32.0613 41.785 31.3608 40.6606 30.9621 39.4235H29.75V35.383H30.7434C31.0444 33.9555 31.7364 32.6341 32.7459 31.5588C33.7555 30.4836 35.0449 29.6947 36.4774 29.2759C37.91 28.857 39.4322 28.8239 40.8825 29.1799C42.3328 29.536 43.6572 30.2679 44.715 31.2981C45.8636 32.4128 46.647 33.8344 46.9662 35.383H47.9778V39.4235H47.9231L44.6786 42.3274L39.8482 41.7946V40.3116H44.2502L44.9884 39.4502ZM36.3758 36.795C36.6492 36.795 36.9135 36.9016 37.1049 37.0969C37.2973 37.2859 37.4052 37.5412 37.4052 37.8073C37.4052 38.0735 37.2973 38.3288 37.1049 38.5178C36.9135 38.7042 36.6492 38.8108 36.3758 38.8108C35.8016 38.8108 35.3368 38.3668 35.3368 37.8073C35.3368 37.2479 35.8016 36.795 36.3758 36.795ZM41.3429 36.795C41.9171 36.795 42.3727 37.2479 42.3727 37.8073C42.3727 38.3668 41.9171 38.8108 41.3429 38.8108C40.7687 38.8108 40.3039 38.3668 40.3039 37.8073C40.3039 37.5388 40.4134 37.2814 40.6082 37.0915C40.8031 36.9016 41.0673 36.795 41.3429 36.795Z" fill="#223468"/>
<defs>
<filter id="filter0_d_2594_3356" x="0.438327" y="0.751228" width="75.1233" height="75.1219" filterUnits="userSpaceOnUse" color-interpolation-filters="sRGB">
<feFlood flood-opacity="0" result="BackgroundImageFix"/>
<feColorMatrix in="SourceAlpha" type="matrix" values="0 0 0 0 0 0 0 0 0 0 0 0 0 0 0 0 0 0 127 0" result="hardAlpha"/>
<feOffset dy="1.31217"/>
<feGaussianBlur stdDeviation="1.64021"/>
<feColorMatrix type="matrix" values="0 0 0 0 0 0 0 0 0 0 0 0 0 0 0 0 0 0 0.15 0"/>
<feBlend mode="normal" in2="BackgroundImageFix" result="effect1_dropShadow_2594_3356"/>
<feBlend mode="normal" in="SourceGraphic" in2="effect1_dropShadow_2594_3356" result="shape"/>
</filter>
<filter id="filter1_d_2594_3356" x="16.0204" y="15.69" width="45.555" height="44.5552" filterUnits="userSpaceOnUse" color-interpolation-filters="sRGB">
<feFlood flood-opacity="0" result="BackgroundImageFix"/>
<feColorMatrix in="SourceAlpha" type="matrix" values="0 0 0 0 0 0 0 0 0 0 0 0 0 0 0 0 0 0 127 0" result="hardAlpha"/>
<feOffset dy="0.984127"/>
<feGaussianBlur stdDeviation="1.64021"/>
<feColorMatrix type="matrix" values="0 0 0 0 0 0 0 0 0 0 0 0 0 0 0 0 0 0 0.1 0"/>
<feBlend mode="normal" in2="BackgroundImageFix" result="effect1_dropShadow_2594_3356"/>
<feBlend mode="normal" in="SourceGraphic" in2="effect1_dropShadow_2594_3356" result="shape"/>
</filter>
</defs>
</svg>
