<svg width="54" height="54" viewBox="0 0 54 54" fill="none" xmlns="http://www.w3.org/2000/svg">
<circle cx="27" cy="27" r="25.5" fill="#FDC535" stroke="white" stroke-width="3"/>
<path d="M38.0294 31.3746C38.5869 30.0269 38.8895 28.584 38.8895 26.9984C38.8895 25.8568 38.7143 24.7627 38.4116 23.748C37.3764 23.9858 36.2933 24.1126 35.1624 24.1126C32.8465 24.1151 30.5639 23.5633 28.5071 22.5036C26.4503 21.444 24.6796 19.9076 23.3441 18.024C21.9156 21.465 19.2207 24.2328 15.8104 25.7617C15.7467 26.1581 15.7467 26.5862 15.7467 26.9984C15.7467 28.5122 16.0462 30.0111 16.6281 31.4097C17.21 32.8082 18.0629 34.079 19.1382 35.1494C21.3097 37.3111 24.255 38.5256 27.326 38.5256C28.9984 38.5256 30.6071 38.1609 32.0565 37.5108C32.9644 39.2391 33.3785 40.0953 33.3467 40.0953C30.7345 40.9674 28.7117 41.3955 27.326 41.3955C23.4716 41.3955 19.7923 39.8892 17.0846 37.1779C15.4377 35.5434 14.2134 33.5358 13.5168 31.3271H11.3984V24.1126H13.1345C13.6605 21.5638 14.8698 19.2043 16.6341 17.2845C18.3984 15.3646 20.6519 13.956 23.1554 13.2082C25.659 12.4604 28.3192 12.4012 30.8538 13.0369C33.3884 13.6726 35.7028 14.9795 37.5516 16.819C39.5588 18.8093 40.9279 21.3475 41.4857 24.1126H43.2536V31.3271H43.1581L37.4878 36.5119L29.0462 35.5606V32.9126H36.7393L38.0294 31.3746ZM22.9778 26.6337C23.4556 26.6337 23.9175 26.824 24.252 27.1728C24.5882 27.5102 24.7768 27.9661 24.7768 28.4413C24.7768 28.9165 24.5882 29.3724 24.252 29.7098C23.9175 30.0427 23.4556 30.233 22.9778 30.233C21.9744 30.233 21.1621 29.4402 21.1621 28.4413C21.1621 27.4424 21.9744 26.6337 22.9778 26.6337ZM31.6583 26.6337C32.6618 26.6337 33.4582 27.4424 33.4582 28.4413C33.4582 29.4402 32.6618 30.233 31.6583 30.233C30.6549 30.233 29.8426 29.4402 29.8426 28.4413C29.8426 27.9619 30.0339 27.5021 30.3744 27.1631C30.7149 26.8242 31.1768 26.6337 31.6583 26.6337Z" fill="#204D84"/>
</svg>
