<svg width="16" height="15" viewBox="0 0 16 15" fill="none" xmlns="http://www.w3.org/2000/svg">
<path fill-rule="evenodd" clip-rule="evenodd" d="M7.99967 1.65942C7.15682 1.65942 6.35699 1.83521 5.63329 2.15141C5.25372 2.31725 4.81158 2.14399 4.64574 1.76443C4.4799 1.38486 4.65316 0.942723 5.03273 0.776884C5.94226 0.379495 6.94625 0.159424 7.99967 0.159424C12.0958 0.159424 15.4163 3.47998 15.4163 7.57609C15.4163 11.6722 12.0958 14.9928 7.99967 14.9928C7.16545 14.9928 6.42727 14.8734 5.73125 14.6244C5.44386 14.5216 5.23358 14.4464 5.08117 14.3935C5.00509 14.3671 4.94757 14.3477 4.90461 14.3339C4.8662 14.3216 4.84892 14.3169 4.84542 14.3159L4.8454 14.3159C4.84467 14.3157 4.84455 14.3157 4.84498 14.3158C4.5657 14.2501 4.38903 14.2987 4.13424 14.4198C4.09075 14.4405 4.03876 14.4674 3.97928 14.4983C3.71539 14.6351 3.30427 14.8484 2.83603 14.9264L2.71277 14.1866L2.83603 14.9264C1.92573 15.078 1.11576 14.3328 1.1913 13.413C1.21829 13.0844 1.34146 12.798 1.42649 12.6099C1.4518 12.5539 1.4741 12.5056 1.49381 12.4628C1.55449 12.3312 1.59072 12.2527 1.61521 12.1674L2.33604 12.3746L1.61521 12.1674C1.74214 11.7257 1.60368 11.4169 1.26675 10.6895L1.93475 10.3801L1.26675 10.6895C0.827782 9.74195 0.583008 8.68659 0.583008 7.57609C0.583008 5.90698 1.13527 4.36469 2.06672 3.12493C2.31553 2.79377 2.78569 2.72701 3.11685 2.97582C3.44801 3.22463 3.51477 3.69479 3.26596 4.02595C2.52299 5.01484 2.08301 6.243 2.08301 7.57609C2.08301 8.46426 2.27843 9.30486 2.6278 10.059C2.64673 10.0999 2.66639 10.1417 2.68651 10.1846L2.68652 10.1846L2.68657 10.1847C2.96989 10.7876 3.34377 11.5833 3.05686 12.5817C2.99712 12.7896 2.8974 13.0037 2.83004 13.1483C2.81623 13.1779 2.80378 13.2046 2.79332 13.2278C2.75597 13.3104 2.73102 13.3723 2.71463 13.4198C2.86637 13.3792 2.99307 13.3145 3.17391 13.2222L3.17398 13.2221L3.17412 13.2221C3.26324 13.1766 3.36551 13.1244 3.49039 13.065C3.91652 12.8625 4.45573 12.6833 5.18838 12.8556L5.18839 12.8556C5.3407 12.8914 5.65294 13.0032 6.12714 13.1729L6.23646 13.212C6.75013 13.3958 7.31475 13.4928 7.99967 13.4928C11.2674 13.4928 13.9163 10.8438 13.9163 7.57609C13.9163 4.30841 11.2674 1.65942 7.99967 1.65942ZM4.84498 14.3158L5.01669 13.5857L4.84499 14.3158L4.84498 14.3158ZM4.58301 6.24276C4.58301 5.82854 4.91879 5.49276 5.33301 5.49276H10.6663C11.0806 5.49276 11.4163 5.82854 11.4163 6.24276C11.4163 6.65697 11.0806 6.99276 10.6663 6.99276H5.33301C4.91879 6.99276 4.58301 6.65697 4.58301 6.24276ZM5.33301 8.15942C4.91879 8.15942 4.58301 8.49521 4.58301 8.90942C4.58301 9.32364 4.91879 9.65942 5.33301 9.65942H7.99967C8.41389 9.65942 8.74967 9.32364 8.74967 8.90942C8.74967 8.49521 8.41389 8.15942 7.99967 8.15942H5.33301Z" fill="#032248"/>
</svg>
