<svg width="24" height="24" viewBox="0 0 24 24" fill="none" xmlns="http://www.w3.org/2000/svg">
<path d="M9.1697 7.00005C8.98345 7.18741 8.87891 7.44087 8.87891 7.70505C8.87891 7.96924 8.98345 8.22269 9.1697 8.41005L12.7097 12.0001L9.1697 15.5401C8.98345 15.7274 8.87891 15.9809 8.87891 16.2451C8.87891 16.5092 8.98345 16.7627 9.1697 16.9501C9.26266 17.0438 9.37326 17.1182 9.49512 17.1689C9.61698 17.2197 9.74769 17.2458 9.8797 17.2458C10.0117 17.2458 10.1424 17.2197 10.2643 17.1689C10.3861 17.1182 10.4967 17.0438 10.5897 16.9501L14.8297 12.7101C14.9234 12.6171 14.9978 12.5065 15.0486 12.3846C15.0994 12.2628 15.1255 12.1321 15.1255 12.0001C15.1255 11.868 15.0994 11.7373 15.0486 11.6155C14.9978 11.4936 14.9234 11.383 14.8297 11.2901L10.5897 7.00005C10.4967 6.90632 10.3861 6.83193 10.2643 6.78116C10.1424 6.73039 10.0117 6.70425 9.8797 6.70425C9.74769 6.70425 9.61698 6.73039 9.49512 6.78116C9.37326 6.83193 9.26266 6.90632 9.1697 7.00005Z" fill="white"/>
</svg>
