<svg width="44" height="102" viewBox="0 0 44 102" fill="none" xmlns="http://www.w3.org/2000/svg">
<circle cx="5.638" cy="1.53448" r="1.53448" fill="#204D84"/>
<circle cx="5.638" cy="13.8103" r="1.53448" fill="#204D84"/>
<circle cx="5.638" cy="26.0862" r="1.53448" fill="#204D84"/>
<circle cx="5.638" cy="38.3621" r="1.53448" fill="#204D84"/>
<circle cx="5.638" cy="50.6379" r="1.53448" fill="#204D84"/>
<circle cx="5.638" cy="62.9138" r="1.53448" fill="#204D84"/>
<circle cx="5.638" cy="75.1897" r="1.53448" fill="#204D84"/>
<circle cx="5.638" cy="87.4655" r="1.53448" fill="#204D84"/>
<circle cx="5.638" cy="99.7414" r="1.53448" fill="#204D84"/>
<circle cx="17.9134" cy="1.53448" r="1.53448" fill="#204D84"/>
<circle cx="17.9134" cy="13.8103" r="1.53448" fill="#204D84"/>
<circle cx="17.9134" cy="26.0862" r="1.53448" fill="#204D84"/>
<circle cx="17.9134" cy="38.3621" r="1.53448" fill="#204D84"/>
<circle cx="17.9134" cy="50.6379" r="1.53448" fill="#204D84"/>
<circle cx="17.9134" cy="62.9138" r="1.53448" fill="#204D84"/>
<circle cx="17.9134" cy="75.1897" r="1.53448" fill="#204D84"/>
<circle cx="17.9134" cy="87.4655" r="1.53448" fill="#204D84"/>
<circle cx="17.9134" cy="99.7414" r="1.53448" fill="#204D84"/>
<circle cx="30.1888" cy="1.53448" r="1.53448" fill="#204D84"/>
<circle cx="30.1888" cy="13.8103" r="1.53448" fill="#204D84"/>
<circle cx="30.1888" cy="26.0862" r="1.53448" fill="#204D84"/>
<circle cx="30.1888" cy="38.3621" r="1.53448" fill="#204D84"/>
<circle cx="30.1888" cy="50.6379" r="1.53448" fill="#204D84"/>
<circle cx="30.1888" cy="62.9138" r="1.53448" fill="#204D84"/>
<circle cx="30.1888" cy="75.1897" r="1.53448" fill="#204D84"/>
<circle cx="30.1888" cy="87.4655" r="1.53448" fill="#204D84"/>
<circle cx="30.1888" cy="99.7414" r="1.53448" fill="#204D84"/>
<circle cx="42.4661" cy="1.53448" r="1.53448" fill="#204D84"/>
<circle cx="42.4661" cy="13.8103" r="1.53448" fill="#204D84"/>
<circle cx="42.4661" cy="26.0862" r="1.53448" fill="#204D84"/>
<circle cx="42.4661" cy="38.3621" r="1.53448" fill="#204D84"/>
<circle cx="42.4661" cy="50.6379" r="1.53448" fill="#204D84"/>
<circle cx="42.4661" cy="62.9138" r="1.53448" fill="#204D84"/>
<circle cx="42.4661" cy="75.1897" r="1.53448" fill="#204D84"/>
<circle cx="42.4661" cy="87.4655" r="1.53448" fill="#204D84"/>
<circle cx="42.4661" cy="99.7414" r="1.53448" fill="#204D84"/>
</svg>
