<svg width="76" height="107" viewBox="0 0 76 107" fill="none" xmlns="http://www.w3.org/2000/svg">
<g opacity="0.3">
<mask id="mask0_3399_4624" style="mask-type:alpha" maskUnits="userSpaceOnUse" x="0" y="0" width="10" height="10">
<path d="M4.86467 9.69975C7.55135 9.69975 9.72934 7.52834 9.72934 4.84984C9.72934 2.17134 7.55135 0 4.86467 0C2.17798 0 0 2.17134 0 4.84984C0 7.52834 2.17798 9.69975 4.86467 9.69975Z" fill="url(#paint0_linear_3399_4624)"/>
</mask>
<g mask="url(#mask0_3399_4624)">
<path d="M4.86467 9.69975C7.55135 9.69975 9.72934 7.52834 9.72934 4.84984C9.72934 2.17134 7.55135 0 4.86467 0C2.17798 0 0 2.17134 0 4.84984C0 7.52834 2.17798 9.69975 4.86467 9.69975Z" fill="url(#paint1_linear_3399_4624)"/>
</g>
<mask id="mask1_3399_4624" style="mask-type:alpha" maskUnits="userSpaceOnUse" x="28" y="0" width="10" height="10">
<path d="M33.0385 9.69975C35.7252 9.69975 37.9032 7.52834 37.9032 4.84984C37.9032 2.17134 35.7252 0 33.0385 0C30.3518 0 28.1738 2.17134 28.1738 4.84984C28.1738 7.52834 30.3518 9.69975 33.0385 9.69975Z" fill="url(#paint2_linear_3399_4624)"/>
</mask>
<g mask="url(#mask1_3399_4624)">
<path d="M33.0385 9.69975C35.7252 9.69975 37.9032 7.52834 37.9032 4.84984C37.9032 2.17134 35.7252 0 33.0385 0C30.3518 0 28.1738 2.17134 28.1738 4.84984C28.1738 7.52834 30.3518 9.69975 33.0385 9.69975Z" fill="url(#paint3_linear_3399_4624)"/>
</g>
<mask id="mask2_3399_4624" style="mask-type:alpha" maskUnits="userSpaceOnUse" x="56" y="0" width="11" height="10">
<path d="M61.2143 9.69975C63.901 9.69975 66.079 7.52834 66.079 4.84984C66.079 2.17134 63.901 0 61.2143 0C58.5276 0 56.3496 2.17134 56.3496 4.84984C56.3496 7.52834 58.5276 9.69975 61.2143 9.69975Z" fill="url(#paint4_linear_3399_4624)"/>
</mask>
<g mask="url(#mask2_3399_4624)">
<path d="M61.2143 9.69975C63.901 9.69975 66.079 7.52834 66.079 4.84984C66.079 2.17134 63.901 0 61.2143 0C58.5276 0 56.3496 2.17134 56.3496 4.84984C56.3496 7.52834 58.5276 9.69975 61.2143 9.69975Z" fill="url(#paint5_linear_3399_4624)"/>
</g>
<mask id="mask3_3399_4624" style="mask-type:alpha" maskUnits="userSpaceOnUse" x="0" y="24" width="10" height="11">
<path d="M4.86467 34.0497C7.55135 34.0497 9.72934 31.8784 9.72934 29.1999C9.72934 26.5214 7.55135 24.3501 4.86467 24.3501C2.17798 24.3501 0 26.5214 0 29.1999C0 31.8784 2.17798 34.0497 4.86467 34.0497Z" fill="url(#paint6_linear_3399_4624)"/>
</mask>
<g mask="url(#mask3_3399_4624)">
<path d="M4.86467 34.0497C7.55135 34.0497 9.72934 31.8784 9.72934 29.1999C9.72934 26.5214 7.55135 24.3501 4.86467 24.3501C2.17798 24.3501 0 26.5214 0 29.1999C0 31.8784 2.17798 34.0497 4.86467 34.0497Z" fill="url(#paint7_linear_3399_4624)"/>
</g>
<mask id="mask4_3399_4624" style="mask-type:alpha" maskUnits="userSpaceOnUse" x="28" y="24" width="10" height="11">
<path d="M33.0385 34.0497C35.7252 34.0497 37.9032 31.8784 37.9032 29.1999C37.9032 26.5214 35.7252 24.3501 33.0385 24.3501C30.3518 24.3501 28.1738 26.5214 28.1738 29.1999C28.1738 31.8784 30.3518 34.0497 33.0385 34.0497Z" fill="url(#paint8_linear_3399_4624)"/>
</mask>
<g mask="url(#mask4_3399_4624)">
<path d="M33.0385 34.0497C35.7252 34.0497 37.9032 31.8784 37.9032 29.1999C37.9032 26.5214 35.7252 24.3501 33.0385 24.3501C30.3518 24.3501 28.1738 26.5214 28.1738 29.1999C28.1738 31.8784 30.3518 34.0497 33.0385 34.0497Z" fill="url(#paint9_linear_3399_4624)"/>
</g>
<mask id="mask5_3399_4624" style="mask-type:alpha" maskUnits="userSpaceOnUse" x="56" y="24" width="11" height="11">
<path d="M61.2143 34.0497C63.901 34.0497 66.079 31.8784 66.079 29.1999C66.079 26.5214 63.901 24.3501 61.2143 24.3501C58.5276 24.3501 56.3496 26.5214 56.3496 29.1999C56.3496 31.8784 58.5276 34.0497 61.2143 34.0497Z" fill="url(#paint10_linear_3399_4624)"/>
</mask>
<g mask="url(#mask5_3399_4624)">
<path d="M61.2143 34.0497C63.901 34.0497 66.079 31.8784 66.079 29.1999C66.079 26.5214 63.901 24.3501 61.2143 24.3501C58.5276 24.3501 56.3496 26.5214 56.3496 29.1999C56.3496 31.8784 58.5276 34.0497 61.2143 34.0497Z" fill="url(#paint11_linear_3399_4624)"/>
</g>
<mask id="mask6_3399_4624" style="mask-type:alpha" maskUnits="userSpaceOnUse" x="0" y="48" width="10" height="11">
<path d="M4.86467 58.3501C7.55135 58.3501 9.72934 56.1788 9.72934 53.5003C9.72934 50.8217 7.55135 48.6504 4.86467 48.6504C2.17798 48.6504 0 50.8217 0 53.5003C0 56.1788 2.17798 58.3501 4.86467 58.3501Z" fill="url(#paint12_linear_3399_4624)"/>
</mask>
<g mask="url(#mask6_3399_4624)">
<path d="M4.86467 58.3501C7.55135 58.3501 9.72934 56.1788 9.72934 53.5003C9.72934 50.8217 7.55135 48.6504 4.86467 48.6504C2.17798 48.6504 0 50.8217 0 53.5003C0 56.1788 2.17798 58.3501 4.86467 58.3501Z" fill="url(#paint13_linear_3399_4624)"/>
</g>
<mask id="mask7_3399_4624" style="mask-type:alpha" maskUnits="userSpaceOnUse" x="28" y="48" width="10" height="11">
<path d="M33.0385 58.3501C35.7252 58.3501 37.9032 56.1788 37.9032 53.5003C37.9032 50.8217 35.7252 48.6504 33.0385 48.6504C30.3518 48.6504 28.1738 50.8217 28.1738 53.5003C28.1738 56.1788 30.3518 58.3501 33.0385 58.3501Z" fill="url(#paint14_linear_3399_4624)"/>
</mask>
<g mask="url(#mask7_3399_4624)">
<path d="M33.0385 58.3501C35.7252 58.3501 37.9032 56.1788 37.9032 53.5003C37.9032 50.8217 35.7252 48.6504 33.0385 48.6504C30.3518 48.6504 28.1738 50.8217 28.1738 53.5003C28.1738 56.1788 30.3518 58.3501 33.0385 58.3501Z" fill="url(#paint15_linear_3399_4624)"/>
</g>
<mask id="mask8_3399_4624" style="mask-type:alpha" maskUnits="userSpaceOnUse" x="56" y="48" width="11" height="11">
<path d="M61.2143 58.3501C63.901 58.3501 66.079 56.1788 66.079 53.5003C66.079 50.8217 63.901 48.6504 61.2143 48.6504C58.5276 48.6504 56.3496 50.8217 56.3496 53.5003C56.3496 56.1788 58.5276 58.3501 61.2143 58.3501Z" fill="url(#paint16_linear_3399_4624)"/>
</mask>
<g mask="url(#mask8_3399_4624)">
<path d="M61.2143 58.3501C63.901 58.3501 66.079 56.1788 66.079 53.5003C66.079 50.8217 63.901 48.6504 61.2143 48.6504C58.5276 48.6504 56.3496 50.8217 56.3496 53.5003C56.3496 56.1788 58.5276 58.3501 61.2143 58.3501Z" fill="url(#paint17_linear_3399_4624)"/>
</g>
<mask id="mask9_3399_4624" style="mask-type:alpha" maskUnits="userSpaceOnUse" x="0" y="73" width="10" height="10">
<path d="M4.86467 82.7002C7.55135 82.7002 9.72934 80.5288 9.72934 77.8503C9.72934 75.1718 7.55135 73.0005 4.86467 73.0005C2.17798 73.0005 0 75.1718 0 77.8503C0 80.5288 2.17798 82.7002 4.86467 82.7002Z" fill="url(#paint18_linear_3399_4624)"/>
</mask>
<g mask="url(#mask9_3399_4624)">
<path d="M4.86467 82.7002C7.55135 82.7002 9.72934 80.5288 9.72934 77.8503C9.72934 75.1718 7.55135 73.0005 4.86467 73.0005C2.17798 73.0005 0 75.1718 0 77.8503C0 80.5288 2.17798 82.7002 4.86467 82.7002Z" fill="url(#paint19_linear_3399_4624)"/>
</g>
<mask id="mask10_3399_4624" style="mask-type:alpha" maskUnits="userSpaceOnUse" x="28" y="73" width="10" height="10">
<path d="M33.0385 82.7002C35.7252 82.7002 37.9032 80.5288 37.9032 77.8503C37.9032 75.1718 35.7252 73.0005 33.0385 73.0005C30.3518 73.0005 28.1738 75.1718 28.1738 77.8503C28.1738 80.5288 30.3518 82.7002 33.0385 82.7002Z" fill="url(#paint20_linear_3399_4624)"/>
</mask>
<g mask="url(#mask10_3399_4624)">
<path d="M33.0385 82.7002C35.7252 82.7002 37.9032 80.5288 37.9032 77.8503C37.9032 75.1718 35.7252 73.0005 33.0385 73.0005C30.3518 73.0005 28.1738 75.1718 28.1738 77.8503C28.1738 80.5288 30.3518 82.7002 33.0385 82.7002Z" fill="url(#paint21_linear_3399_4624)"/>
</g>
<mask id="mask11_3399_4624" style="mask-type:alpha" maskUnits="userSpaceOnUse" x="56" y="73" width="11" height="10">
<path d="M61.2143 82.7002C63.901 82.7002 66.079 80.5288 66.079 77.8503C66.079 75.1718 63.901 73.0005 61.2143 73.0005C58.5276 73.0005 56.3496 75.1718 56.3496 77.8503C56.3496 80.5288 58.5276 82.7002 61.2143 82.7002Z" fill="url(#paint22_linear_3399_4624)"/>
</mask>
<g mask="url(#mask11_3399_4624)">
<path d="M61.2143 82.7002C63.901 82.7002 66.079 80.5288 66.079 77.8503C66.079 75.1718 63.901 73.0005 61.2143 73.0005C58.5276 73.0005 56.3496 75.1718 56.3496 77.8503C56.3496 80.5288 58.5276 82.7002 61.2143 82.7002Z" fill="url(#paint23_linear_3399_4624)"/>
</g>
<mask id="mask12_3399_4624" style="mask-type:alpha" maskUnits="userSpaceOnUse" x="0" y="97" width="10" height="10">
<path d="M4.86467 107C7.55135 107 9.72934 104.829 9.72934 102.15C9.72934 99.4717 7.55135 97.3003 4.86467 97.3003C2.17798 97.3003 0 99.4717 0 102.15C0 104.829 2.17798 107 4.86467 107Z" fill="url(#paint24_linear_3399_4624)"/>
</mask>
<g mask="url(#mask12_3399_4624)">
<path d="M4.86467 107C7.55135 107 9.72934 104.829 9.72934 102.15C9.72934 99.4717 7.55135 97.3003 4.86467 97.3003C2.17798 97.3003 0 99.4717 0 102.15C0 104.829 2.17798 107 4.86467 107Z" fill="url(#paint25_linear_3399_4624)"/>
</g>
<mask id="mask13_3399_4624" style="mask-type:alpha" maskUnits="userSpaceOnUse" x="28" y="97" width="10" height="10">
<path d="M33.0385 107C35.7252 107 37.9032 104.829 37.9032 102.15C37.9032 99.4717 35.7252 97.3003 33.0385 97.3003C30.3518 97.3003 28.1738 99.4717 28.1738 102.15C28.1738 104.829 30.3518 107 33.0385 107Z" fill="url(#paint26_linear_3399_4624)"/>
</mask>
<g mask="url(#mask13_3399_4624)">
<path d="M33.0385 107C35.7252 107 37.9032 104.829 37.9032 102.15C37.9032 99.4717 35.7252 97.3003 33.0385 97.3003C30.3518 97.3003 28.1738 99.4717 28.1738 102.15C28.1738 104.829 30.3518 107 33.0385 107Z" fill="url(#paint27_linear_3399_4624)"/>
</g>
<mask id="mask14_3399_4624" style="mask-type:alpha" maskUnits="userSpaceOnUse" x="56" y="97" width="11" height="10">
<path d="M61.2143 107C63.901 107 66.079 104.829 66.079 102.15C66.079 99.4717 63.901 97.3003 61.2143 97.3003C58.5276 97.3003 56.3496 99.4717 56.3496 102.15C56.3496 104.829 58.5276 107 61.2143 107Z" fill="url(#paint28_linear_3399_4624)"/>
</mask>
<g mask="url(#mask14_3399_4624)">
<path d="M61.2143 107C63.901 107 66.079 104.829 66.079 102.15C66.079 99.4717 63.901 97.3003 61.2143 97.3003C58.5276 97.3003 56.3496 99.4717 56.3496 102.15C56.3496 104.829 58.5276 107 61.2143 107Z" fill="url(#paint29_linear_3399_4624)"/>
</g>
</g>
<defs>
<linearGradient id="paint0_linear_3399_4624" x1="51.1702" y1="122.011" x2="-15.2644" y2="-47.1451" gradientUnits="userSpaceOnUse">
<stop/>
<stop offset="1" stop-color="white"/>
</linearGradient>
<linearGradient id="paint1_linear_3399_4624" x1="51.1702" y1="122.011" x2="-15.2644" y2="-47.1451" gradientUnits="userSpaceOnUse">
<stop stop-color="#97C3F9"/>
<stop offset="1" stop-color="#93C1F9"/>
</linearGradient>
<linearGradient id="paint2_linear_3399_4624" x1="75.5511" y1="112.436" x2="9.11649" y2="-56.7205" gradientUnits="userSpaceOnUse">
<stop/>
<stop offset="1" stop-color="white"/>
</linearGradient>
<linearGradient id="paint3_linear_3399_4624" x1="75.5511" y1="112.436" x2="9.11649" y2="-56.7205" gradientUnits="userSpaceOnUse">
<stop stop-color="#97C3F9"/>
<stop offset="1" stop-color="#93C1F9"/>
</linearGradient>
<linearGradient id="paint4_linear_3399_4624" x1="99.9338" y1="102.861" x2="33.4992" y2="-66.2959" gradientUnits="userSpaceOnUse">
<stop/>
<stop offset="1" stop-color="white"/>
</linearGradient>
<linearGradient id="paint5_linear_3399_4624" x1="99.9338" y1="102.861" x2="33.4992" y2="-66.2959" gradientUnits="userSpaceOnUse">
<stop stop-color="#97C3F9"/>
<stop offset="1" stop-color="#93C1F9"/>
</linearGradient>
<linearGradient id="paint6_linear_3399_4624" x1="42.8501" y1="125.278" x2="-23.5834" y2="-43.8769" gradientUnits="userSpaceOnUse">
<stop/>
<stop offset="1" stop-color="white"/>
</linearGradient>
<linearGradient id="paint7_linear_3399_4624" x1="42.8501" y1="125.278" x2="-23.5834" y2="-43.8769" gradientUnits="userSpaceOnUse">
<stop stop-color="#97C3F9"/>
<stop offset="1" stop-color="#93C1F9"/>
</linearGradient>
<linearGradient id="paint8_linear_3399_4624" x1="67.2307" y1="115.703" x2="0.797309" y2="-53.4528" gradientUnits="userSpaceOnUse">
<stop/>
<stop offset="1" stop-color="white"/>
</linearGradient>
<linearGradient id="paint9_linear_3399_4624" x1="67.2307" y1="115.703" x2="0.797309" y2="-53.4528" gradientUnits="userSpaceOnUse">
<stop stop-color="#97C3F9"/>
<stop offset="1" stop-color="#93C1F9"/>
</linearGradient>
<linearGradient id="paint10_linear_3399_4624" x1="91.6133" y1="106.127" x2="25.18" y2="-63.0283" gradientUnits="userSpaceOnUse">
<stop/>
<stop offset="1" stop-color="white"/>
</linearGradient>
<linearGradient id="paint11_linear_3399_4624" x1="91.6133" y1="106.127" x2="25.18" y2="-63.0283" gradientUnits="userSpaceOnUse">
<stop stop-color="#97C3F9"/>
<stop offset="1" stop-color="#93C1F9"/>
</linearGradient>
<linearGradient id="paint12_linear_3399_4624" x1="34.5297" y1="128.547" x2="-31.9049" y2="-40.6093" gradientUnits="userSpaceOnUse">
<stop/>
<stop offset="1" stop-color="white"/>
</linearGradient>
<linearGradient id="paint13_linear_3399_4624" x1="34.5297" y1="128.547" x2="-31.9049" y2="-40.6093" gradientUnits="userSpaceOnUse">
<stop stop-color="#97C3F9"/>
<stop offset="1" stop-color="#93C1F9"/>
</linearGradient>
<linearGradient id="paint14_linear_3399_4624" x1="58.9104" y1="118.972" x2="-7.52414" y2="-50.185" gradientUnits="userSpaceOnUse">
<stop/>
<stop offset="1" stop-color="white"/>
</linearGradient>
<linearGradient id="paint15_linear_3399_4624" x1="58.9104" y1="118.972" x2="-7.52414" y2="-50.185" gradientUnits="userSpaceOnUse">
<stop stop-color="#97C3F9"/>
<stop offset="1" stop-color="#93C1F9"/>
</linearGradient>
<linearGradient id="paint16_linear_3399_4624" x1="83.2931" y1="109.396" x2="16.8586" y2="-59.7605" gradientUnits="userSpaceOnUse">
<stop/>
<stop offset="1" stop-color="white"/>
</linearGradient>
<linearGradient id="paint17_linear_3399_4624" x1="83.2931" y1="109.396" x2="16.8586" y2="-59.7605" gradientUnits="userSpaceOnUse">
<stop stop-color="#97C3F9"/>
<stop offset="1" stop-color="#93C1F9"/>
</linearGradient>
<linearGradient id="paint18_linear_3399_4624" x1="26.2094" y1="131.815" x2="-40.2253" y2="-37.3419" gradientUnits="userSpaceOnUse">
<stop/>
<stop offset="1" stop-color="white"/>
</linearGradient>
<linearGradient id="paint19_linear_3399_4624" x1="26.2094" y1="131.815" x2="-40.2253" y2="-37.3419" gradientUnits="userSpaceOnUse">
<stop stop-color="#97C3F9"/>
<stop offset="1" stop-color="#93C1F9"/>
</linearGradient>
<linearGradient id="paint20_linear_3399_4624" x1="50.5902" y1="122.239" x2="-15.8445" y2="-46.9175" gradientUnits="userSpaceOnUse">
<stop/>
<stop offset="1" stop-color="white"/>
</linearGradient>
<linearGradient id="paint21_linear_3399_4624" x1="50.5902" y1="122.239" x2="-15.8445" y2="-46.9175" gradientUnits="userSpaceOnUse">
<stop stop-color="#97C3F9"/>
<stop offset="1" stop-color="#93C1F9"/>
</linearGradient>
<linearGradient id="paint22_linear_3399_4624" x1="74.9728" y1="112.663" x2="8.53824" y2="-56.493" gradientUnits="userSpaceOnUse">
<stop/>
<stop offset="1" stop-color="white"/>
</linearGradient>
<linearGradient id="paint23_linear_3399_4624" x1="74.9728" y1="112.663" x2="8.53824" y2="-56.493" gradientUnits="userSpaceOnUse">
<stop stop-color="#97C3F9"/>
<stop offset="1" stop-color="#93C1F9"/>
</linearGradient>
<linearGradient id="paint24_linear_3399_4624" x1="17.8891" y1="135.082" x2="-48.5455" y2="-34.0742" gradientUnits="userSpaceOnUse">
<stop/>
<stop offset="1" stop-color="white"/>
</linearGradient>
<linearGradient id="paint25_linear_3399_4624" x1="17.8891" y1="135.082" x2="-48.5455" y2="-34.0742" gradientUnits="userSpaceOnUse">
<stop stop-color="#97C3F9"/>
<stop offset="1" stop-color="#93C1F9"/>
</linearGradient>
<linearGradient id="paint26_linear_3399_4624" x1="42.2698" y1="125.507" x2="-24.1647" y2="-43.6498" gradientUnits="userSpaceOnUse">
<stop/>
<stop offset="1" stop-color="white"/>
</linearGradient>
<linearGradient id="paint27_linear_3399_4624" x1="42.2698" y1="125.507" x2="-24.1647" y2="-43.6498" gradientUnits="userSpaceOnUse">
<stop stop-color="#97C3F9"/>
<stop offset="1" stop-color="#93C1F9"/>
</linearGradient>
<linearGradient id="paint28_linear_3399_4624" x1="66.6525" y1="115.931" x2="0.217968" y2="-53.2252" gradientUnits="userSpaceOnUse">
<stop/>
<stop offset="1" stop-color="white"/>
</linearGradient>
<linearGradient id="paint29_linear_3399_4624" x1="66.6525" y1="115.931" x2="0.217968" y2="-53.2252" gradientUnits="userSpaceOnUse">
<stop stop-color="#97C3F9"/>
<stop offset="1" stop-color="#93C1F9"/>
</linearGradient>
</defs>
</svg>
