<svg width="40" height="40" viewBox="0 0 40 40" fill="none" xmlns="http://www.w3.org/2000/svg">
<circle cx="20" cy="20" r="19.5" fill="#46C1F3" stroke="#46C1F3"/>
<path d="M12.6698 17.3278C12.6254 16.263 12.7682 15.2812 12.9351 14.5342C13.6703 15.3648 14.5335 16.0601 15.4919 16.5859C16.8913 17.3534 18.4475 17.7341 20.0212 17.6897L20.75 17.6691V16.9399V16.0483H20.7501L20.7499 16.039C20.7416 15.3602 20.9251 14.6997 21.269 14.1476C21.6126 13.596 22.0962 13.1838 22.6461 12.9551C23.1948 12.7268 23.791 12.6885 24.3575 12.843C24.9251 12.9978 25.4463 13.3418 25.8447 13.841L26.1697 14.2483L26.6648 14.0858C26.9499 13.9923 27.2303 13.8847 27.5052 13.7635C27.287 14.1269 27.0337 14.4646 26.7491 14.7705L26.495 15.0436L26.5595 15.411C26.5948 15.6124 26.6129 15.8172 26.6136 16.0226C26.6133 20.9184 24.4758 24.3298 21.5669 26.0172C19.3048 27.3293 16.5133 27.6374 13.7584 26.7315C14.9735 26.4181 16.1319 25.8658 17.1733 25.0954L18.1701 24.358L17.0542 23.8175C13.6753 22.1808 12.7633 19.5699 12.6698 17.3278Z" stroke="white" stroke-width="1.5" stroke-linecap="round"/>
</svg>
