<svg width="40" height="40" viewBox="0 0 40 40" fill="none" xmlns="http://www.w3.org/2000/svg">
<circle cx="20" cy="20" r="19.5" stroke="#F33E47"/>
<path d="M28.6232 15.1915C28.526 14.7617 28.3281 14.3679 28.0494 14.0499C27.7707 13.7319 27.4211 13.5009 27.036 13.3803C25.6288 13 20 13 20 13C20 13 14.3712 13 12.964 13.4166C12.5789 13.5372 12.2293 13.7681 11.9506 14.0861C11.6719 14.4041 11.474 14.7979 11.3768 15.2277C11.1193 16.8084 10.9933 18.4119 11.0005 20.0181C10.9913 21.6364 11.1173 23.2521 11.3768 24.8448C11.484 25.2612 11.6863 25.64 11.9644 25.9445C12.2424 26.2491 12.5867 26.4692 12.964 26.5834C14.3712 27 20 27 20 27C20 27 25.6288 27 27.036 26.5834C27.4211 26.4628 27.7707 26.2319 28.0494 25.9139C28.3281 25.5959 28.526 25.2021 28.6232 24.7723C28.8787 23.2035 29.0047 21.6122 28.9995 20.0181C29.0087 18.3998 28.8827 16.7841 28.6232 15.1915V15.1915Z" stroke="#F33E47" stroke-width="1.5" stroke-linecap="round" stroke-linejoin="round"/>
<path d="M19 22L22 20L19 18V22Z" stroke="#F33E47" stroke-width="1.5" stroke-linecap="round" stroke-linejoin="round"/>
</svg>
