<svg width="24" height="24" viewBox="0 0 24 24" fill="none" xmlns="http://www.w3.org/2000/svg">
<path fill-rule="evenodd" clip-rule="evenodd" d="M11.9993 4.604C10.9458 4.604 9.946 4.82374 9.04136 5.21899C8.56691 5.42629 8.01423 5.20972 7.80693 4.73526C7.59964 4.2608 7.81621 3.70813 8.29067 3.50083C9.42758 3.00409 10.6826 2.729 11.9993 2.729C17.1195 2.729 21.2702 6.8797 21.2702 11.9998C21.2702 17.12 17.1195 21.2707 11.9993 21.2707C10.9566 21.2707 10.0338 21.1214 9.16382 20.8102L9.44242 20.0314L9.16382 20.8102C8.80459 20.6817 8.54173 20.5877 8.35122 20.5216C8.25612 20.4886 8.18422 20.4644 8.13052 20.4471C8.0825 20.4317 8.06091 20.4258 8.05653 20.4246C8.05559 20.4244 8.05544 20.4243 8.056 20.4244C7.70688 20.3423 7.48605 20.4031 7.16756 20.5545C7.11321 20.5803 7.04822 20.614 6.97389 20.6525L6.97386 20.6526C6.644 20.8236 6.1301 21.0902 5.5448 21.1877L5.39072 20.2629L5.54479 21.1877C4.40692 21.3773 3.39445 20.4457 3.48888 19.296C3.52262 18.8852 3.67657 18.5272 3.78287 18.2921C3.81451 18.2221 3.84238 18.1617 3.86702 18.1082C3.94287 17.9438 3.98816 17.8455 4.01877 17.739C4.17744 17.1869 4.00435 16.8008 3.58319 15.8916C3.03448 14.7072 2.72852 13.388 2.72852 11.9998C2.72852 9.91345 3.41884 7.98559 4.58316 6.43589C4.89417 6.02194 5.48186 5.93849 5.89581 6.2495C6.30977 6.56051 6.39322 7.14821 6.08221 7.56216C5.15349 8.79827 4.60352 10.3335 4.60352 11.9998C4.60352 13.1101 4.84779 14.1608 5.2845 15.1035C5.30819 15.1546 5.33278 15.207 5.35794 15.2605L5.35797 15.2606C5.71212 16.0143 6.17947 17.0089 5.82084 18.2569C5.74615 18.5168 5.62151 18.7843 5.5373 18.9651L5.5373 18.9651L5.53729 18.9651C5.52004 19.0021 5.50448 19.0355 5.4914 19.0645C5.44472 19.1677 5.41353 19.2451 5.39304 19.3045C5.58271 19.2537 5.7411 19.1728 5.96715 19.0574L5.96716 19.0574C6.07862 19.0005 6.20652 18.9352 6.36274 18.861C6.89541 18.6078 7.56942 18.3839 8.48523 18.5992L8.48524 18.5992C8.67562 18.644 9.0659 18.7837 9.6586 18.9958L9.79534 19.0448C10.4374 19.2745 11.1432 19.3957 11.9993 19.3957C16.084 19.3957 19.3952 16.0844 19.3952 11.9998C19.3952 7.91523 16.084 4.604 11.9993 4.604ZM7.72852 10.3334C7.72852 9.81561 8.14825 9.39587 8.66602 9.39587H15.3327C15.8504 9.39587 16.2702 9.81561 16.2702 10.3334C16.2702 10.8511 15.8504 11.2709 15.3327 11.2709H8.66602C8.14825 11.2709 7.72852 10.8511 7.72852 10.3334ZM8.66602 12.729C8.14825 12.729 7.72852 13.1487 7.72852 13.6665C7.72852 14.1843 8.14825 14.604 8.66602 14.604H11.9993C12.5171 14.604 12.9368 14.1843 12.9368 13.6665C12.9368 13.1487 12.5171 12.729 11.9993 12.729H8.66602Z" fill="#032248"/>
</svg>
