<svg width="40" height="40" viewBox="0 0 40 40" fill="none" xmlns="http://www.w3.org/2000/svg">
<circle cx="20" cy="20" r="19.5" stroke="#D53477"/>
<path d="M24.45 14.55C24.2522 14.55 24.0589 14.6086 23.8945 14.7185C23.73 14.8284 23.6018 14.9845 23.5261 15.1673C23.4505 15.35 23.4306 15.5511 23.4692 15.745C23.5078 15.939 23.6031 16.1172 23.7429 16.2571C23.8828 16.3969 24.061 16.4922 24.2549 16.5307C24.4489 16.5693 24.65 16.5495 24.8327 16.4738C25.0154 16.3982 25.1716 16.27 25.2815 16.1055C25.3914 15.9411 25.45 15.7477 25.45 15.55C25.45 15.2847 25.3447 15.0304 25.1571 14.8429C24.9696 14.6553 24.7152 14.55 24.45 14.55ZM28.2834 16.5666C28.2671 15.8752 28.1377 15.1911 27.9 14.5416C27.6881 13.9859 27.3583 13.4827 26.9334 13.0666C26.5207 12.6395 26.0163 12.3118 25.4584 12.1083C24.8106 11.8634 24.1257 11.731 23.4334 11.7166C22.55 11.6666 22.2667 11.6666 20 11.6666C17.7334 11.6666 17.45 11.6666 16.5667 11.7166C15.8743 11.731 15.1895 11.8634 14.5417 12.1083C13.9848 12.3138 13.4808 12.6413 13.0667 13.0666C12.6395 13.4793 12.3118 13.9837 12.1084 14.5416C11.8635 15.1894 11.731 15.8743 11.7167 16.5666C11.6667 17.45 11.6667 17.7333 11.6667 20C11.6667 22.2666 11.6667 22.55 11.7167 23.4333C11.731 24.1257 11.8635 24.8105 12.1084 25.4583C12.3118 26.0163 12.6395 26.5206 13.0667 26.9333C13.4808 27.3587 13.9848 27.6861 14.5417 27.8916C15.1895 28.1365 15.8743 28.269 16.5667 28.2833C17.45 28.3333 17.7334 28.3333 20 28.3333C22.2667 28.3333 22.55 28.3333 23.4334 28.2833C24.1257 28.269 24.8106 28.1365 25.4584 27.8916C26.0163 27.6881 26.5207 27.3604 26.9334 26.9333C27.3602 26.5188 27.6903 26.0151 27.9 25.4583C28.1377 24.8088 28.2671 24.1247 28.2834 23.4333C28.2834 22.55 28.3334 22.2666 28.3334 20C28.3334 17.7333 28.3334 17.45 28.2834 16.5666ZM26.7834 23.3333C26.7773 23.8623 26.6815 24.3864 26.5 24.8833C26.367 25.246 26.1533 25.5736 25.875 25.8416C25.6047 26.117 25.2777 26.3303 24.9167 26.4666C24.4198 26.6481 23.8957 26.7439 23.3667 26.75C22.5334 26.7916 22.225 26.8 20.0334 26.8C17.8417 26.8 17.5334 26.8 16.7 26.75C16.1508 26.7602 15.6038 26.6757 15.0834 26.5C14.7382 26.3567 14.4262 26.1439 14.1667 25.875C13.8901 25.6072 13.6791 25.2793 13.55 24.9166C13.3466 24.4126 13.2337 23.8766 13.2167 23.3333C13.2167 22.5 13.1667 22.1916 13.1667 20C13.1667 17.8083 13.1667 17.5 13.2167 16.6666C13.2204 16.1258 13.3191 15.5899 13.5084 15.0833C13.6551 14.7316 13.8802 14.418 14.1667 14.1666C14.4199 13.8801 14.7328 13.6525 15.0834 13.5C15.5913 13.3167 16.1267 13.2209 16.6667 13.2166C17.5 13.2166 17.8084 13.1666 20 13.1666C22.1917 13.1666 22.5 13.1666 23.3334 13.2166C23.8623 13.2227 24.3864 13.3185 24.8834 13.5C25.262 13.6405 25.6019 13.869 25.875 14.1666C26.1481 14.4226 26.3615 14.7356 26.5 15.0833C26.6852 15.5907 26.7811 16.1264 26.7834 16.6666C26.825 17.5 26.8334 17.8083 26.8334 20C26.8334 22.1916 26.825 22.5 26.7834 23.3333ZM20 15.725C19.1549 15.7266 18.3292 15.9787 17.6272 16.4495C16.9253 16.9202 16.3787 17.5885 16.0564 18.3698C15.7341 19.1511 15.6506 20.0103 15.8165 20.8391C15.9824 21.6678 16.3902 22.4287 16.9884 23.0258C17.5866 23.6228 18.3484 24.0291 19.1774 24.1934C20.0064 24.3577 20.8656 24.2725 21.6462 23.9487C22.4269 23.6249 23.0941 23.077 23.5635 22.3742C24.0328 21.6713 24.2834 20.8451 24.2834 20C24.2845 19.4375 24.1744 18.8805 23.9594 18.3608C23.7444 17.841 23.4288 17.369 23.0307 16.9717C22.6327 16.5744 22.16 16.2597 21.6399 16.0457C21.1197 15.8318 20.5624 15.7228 20 15.725ZM20 22.775C19.4512 22.775 18.9147 22.6122 18.4583 22.3073C18.002 22.0024 17.6463 21.569 17.4363 21.0619C17.2262 20.5548 17.1713 19.9969 17.2783 19.4586C17.3854 18.9203 17.6497 18.4258 18.0378 18.0377C18.4259 17.6496 18.9203 17.3854 19.4586 17.2783C19.9969 17.1712 20.5549 17.2262 21.062 17.4362C21.569 17.6462 22.0024 18.0019 22.3073 18.4583C22.6123 18.9146 22.775 19.4511 22.775 20C22.775 20.3644 22.7032 20.7252 22.5638 21.0619C22.4243 21.3986 22.2199 21.7045 21.9622 21.9622C21.7046 22.2199 21.3986 22.4243 21.062 22.5637C20.7253 22.7032 20.3644 22.775 20 22.775Z" fill="#D53477"/>
</svg>
