<svg width="16" height="16" viewBox="0 0 16 16" fill="none" xmlns="http://www.w3.org/2000/svg">
<path d="M10.7421 8.72174C11.4191 8.14752 11.906 7.37471 12.1364 6.50849C12.3669 5.64228 12.3298 4.72475 12.0301 3.88081C11.7304 3.03687 11.1827 2.30752 10.4616 1.79204C9.74045 1.27656 8.88093 1 8 1C7.11907 1 6.25955 1.27656 5.53842 1.79204C4.8173 2.30752 4.26961 3.03687 3.96992 3.88081C3.67022 4.72475 3.63308 5.64228 3.86355 6.50849C4.09402 7.37471 4.5809 8.14752 5.25791 8.72174C4.28034 9.23138 3.45928 10.0052 2.88464 10.9586C2.31 11.9119 2.00395 13.008 2 14.1268C1.99993 14.2415 2.02206 14.355 2.06511 14.461C2.10816 14.567 2.17129 14.6633 2.2509 14.7444C2.33051 14.8255 2.42503 14.8898 2.52905 14.9337C2.63307 14.9775 2.74456 15.0001 2.85714 15L13.1429 15C13.2554 15.0001 13.3669 14.9775 13.471 14.9337C13.575 14.8898 13.6695 14.8255 13.7491 14.7444C13.8287 14.6633 13.8918 14.567 13.9349 14.461C13.9779 14.355 14.0001 14.2415 14 14.1268C13.9961 13.008 13.69 11.9119 13.1154 10.9586C12.5407 10.0052 11.7197 9.23138 10.7421 8.72174ZM5.42857 5.39435C5.42857 4.87621 5.57938 4.36972 5.86194 3.9389C6.14449 3.50809 6.54609 3.17232 7.01596 2.97404C7.48583 2.77576 8.00285 2.72388 8.50166 2.82496C9.00047 2.92604 9.45865 3.17555 9.81827 3.54192C10.1779 3.9083 10.4228 4.37509 10.522 4.88326C10.6212 5.39144 10.5703 5.91818 10.3757 6.39687C10.1811 6.87556 9.85148 7.28471 9.42861 7.57257C9.00574 7.86042 8.50858 8.01407 8 8.01407C7.31824 8.01331 6.66463 7.73706 6.18255 7.24593C5.70048 6.7548 5.42932 6.08891 5.42857 5.39435ZM3.80052 13.2535C3.99816 12.2674 4.52409 11.3812 5.28932 10.7447C6.05455 10.1082 7.01211 9.7605 8 9.7605C8.98789 9.7605 9.94545 10.1082 10.7107 10.7447C11.4759 11.3812 12.0018 12.2674 12.1995 13.2535L3.80052 13.2535Z" fill="#C18C02"/>
</svg>
