<svg width="48" height="48" viewBox="0 0 48 48" fill="none" xmlns="http://www.w3.org/2000/svg">
<path fill-rule="evenodd" clip-rule="evenodd" d="M26.2351 0.0460771C31.699 0.0450767 37.1629 0.0460769 42.6268 0.0430756C44.1851 0.0420752 45.7435 0.0460771 47.2999 0.00105819C47.8324 -0.0149485 47.9495 0.14812 47.9485 0.662336C47.9375 8.4496 47.9485 16.2369 47.9555 24.0251C47.9575 26.7653 47.9675 29.5054 47.9735 32.2456C47.4911 32.5907 46.9416 32.4096 46.4231 32.4287C45.5434 32.4607 45.5914 32.4437 45.5163 33.321C45.19 37.1336 43.2613 39.9008 39.8022 41.4604C33.917 44.1146 27.1319 40.2749 26.3242 33.8493C26.2621 33.358 26.2261 32.8698 26.2261 32.3766C26.2271 27.1114 26.3302 21.8452 26.198 16.584C26.0679 11.3788 26.176 6.17665 26.111 0.973466C26.107 0.658334 26.0649 0.336199 26.2351 0.0460771Z" fill="#FCB717"/>
<path fill-rule="evenodd" clip-rule="evenodd" d="M26.2352 0.0461426C26.2563 2.01697 26.2843 3.98779 26.2953 5.95962C26.3123 8.93687 26.2903 11.9151 26.3313 14.8924C26.4144 20.8669 26.3944 26.8404 26.4214 32.8149C26.4424 37.5219 30.3069 41.6846 34.879 42.0888C40.503 42.586 44.5917 38.5563 45.2533 34.2035C45.3343 33.6742 45.3774 33.146 45.3734 32.6158C45.3714 32.3057 45.4815 32.2026 45.7877 32.2136C46.5174 32.2376 47.2471 32.2356 47.9757 32.2446C47.9797 37.3288 47.9787 42.4119 47.9997 47.496C48.0017 47.9522 47.7505 47.8852 47.4803 47.8862C41.8422 47.8962 36.2052 47.9052 30.5681 47.9202C29.2289 47.9232 27.8897 47.9522 26.5495 47.9692C26.3133 47.7781 26.2673 47.511 26.2513 47.2289C26.0481 43.5934 24.4346 40.6912 21.544 38.5373C17.2122 35.3079 11.4991 35.439 7.32332 38.7644C4.56185 40.9633 3.08152 43.8915 2.87033 47.435C2.85832 47.6291 2.87934 47.8352 2.70018 47.9772C1.99054 47.9812 1.28091 47.9682 0.573276 47.9982C0.195938 48.0152 0.0608173 47.9152 0.0708263 47.513C0.0968496 46.3125 0.0798342 45.11 0.0798342 43.9085C0.0798342 39.8508 0.0798341 35.7921 0.080835 31.7344C0.080835 31.5183 0.0958488 31.3022 0.102855 31.0862C0.349075 30.8531 0.659353 30.9181 0.948612 30.9171C3.29671 30.9121 5.64582 30.9361 7.99492 30.9101C11.5481 30.8701 14.6649 29.6866 17.3363 27.3186C20.1468 24.8275 21.7292 21.6922 22.0515 17.9957C22.3928 14.074 21.2698 10.5515 18.6715 7.53328C16.4745 4.98121 13.71 3.43256 10.4171 2.8053C9.77851 2.68325 9.13093 2.60922 8.47835 2.58621C7.89783 2.5652 7.76471 2.45315 7.77772 1.87891C7.79174 1.27866 7.62158 0.658399 7.91685 0.0791564C14.0233 0.0671514 20.1298 0.0561468 26.2352 0.0461426Z" fill="#223468"/>
<path fill-rule="evenodd" clip-rule="evenodd" d="M7.91635 0.0759014C7.91535 0.706166 7.93337 1.33743 7.90634 1.96769C7.89133 2.31484 7.9724 2.42589 8.35274 2.43889C14.6284 2.64198 19.9461 6.76771 21.7007 12.7732C24.1289 21.0857 18.5088 29.7914 9.97319 30.9418C8.34373 31.1609 6.70527 31.0559 5.07081 31.0709C3.41432 31.0879 1.75784 31.0809 0.102358 31.0839C0.0883453 30.0004 0.0633229 28.916 0.0633229 27.8315C0.0593193 22.5643 0.100356 17.2981 0.0483096 12.0319C0.0102755 8.26533 0.0453065 4.49876 0.000266231 0.732177C-0.00573914 0.234968 0.086343 0.0578932 0.635835 0.0648962C3.06201 0.09791 5.48918 0.0769018 7.91635 0.0759014Z" fill="#FBB717"/>
<path fill-rule="evenodd" clip-rule="evenodd" d="M2.69922 47.9743C2.84235 43.3224 4.90319 39.7839 8.95682 37.4949C15.9411 33.5503 25.0953 38.0582 26.3003 45.9815C26.4014 46.6428 26.3284 47.3221 26.5476 47.9663C26.2723 47.9553 25.9971 47.9343 25.7218 47.9333C20.0988 47.9323 14.4748 47.9083 8.85273 47.9443C6.80089 47.9583 4.75005 47.9753 2.69922 47.9743Z" fill="#FCB717"/>
</svg>
