<svg width="158" height="8" viewBox="0 0 158 8" fill="none" xmlns="http://www.w3.org/2000/svg">
<path d="M157.354 4.35355C157.549 4.15829 157.549 3.84171 157.354 3.64645L154.172 0.464466C153.976 0.269204 153.66 0.269204 153.464 0.464466C153.269 0.659728 153.269 0.976311 153.464 1.17157L156.293 4L153.464 6.82843C153.269 7.02369 153.269 7.34027 153.464 7.53553C153.66 7.7308 153.976 7.7308 154.172 7.53553L157.354 4.35355ZM0 4.5H1.00641V3.5H0V4.5ZM3.01923 4.5H5.03205V3.5H3.01923V4.5ZM7.04487 4.5H9.05769V3.5H7.04487V4.5ZM11.0705 4.5H13.0833V3.5H11.0705V4.5ZM15.0962 4.5H17.109V3.5H15.0962V4.5ZM19.1218 4.5H21.1346V3.5H19.1218V4.5ZM23.1474 4.5H25.1603V3.5H23.1474V4.5ZM27.1731 4.5H29.1859V3.5H27.1731V4.5ZM31.1987 4.5H33.2115V3.5H31.1987V4.5ZM35.2244 4.5H37.2372V3.5H35.2244V4.5ZM39.25 4.5H41.2628V3.5H39.25V4.5ZM43.2756 4.5H45.2885V3.5H43.2756V4.5ZM47.3013 4.5H49.3141V3.5H47.3013V4.5ZM51.3269 4.5H53.3398V3.5H51.3269V4.5ZM55.3526 4.5H57.3654V3.5H55.3526V4.5ZM59.3782 4.5H61.391V3.5H59.3782V4.5ZM63.4039 4.5H65.4167V3.5H63.4039V4.5ZM67.4295 4.5H69.4423V3.5H67.4295V4.5ZM71.4551 4.5H73.4679V3.5H71.4551V4.5ZM75.4808 4.5H77.4936V3.5H75.4808V4.5ZM79.5064 4.5H81.5192V3.5H79.5064V4.5ZM83.532 4.5H85.5449V3.5H83.532V4.5ZM87.5577 4.5H89.5705V3.5H87.5577V4.5ZM91.5833 4.5H93.5961V3.5H91.5833V4.5ZM95.6089 4.5H97.6218V3.5H95.6089V4.5ZM99.6346 4.5H101.647V3.5H99.6346V4.5ZM103.66 4.5H105.673V3.5H103.66V4.5ZM107.686 4.5H109.699V3.5H107.686V4.5ZM111.711 4.5H113.724V3.5H111.711V4.5ZM115.737 4.5H117.75V3.5H115.737V4.5ZM119.763 4.5H121.776V3.5H119.763V4.5ZM123.788 4.5H125.801V3.5H123.788V4.5ZM127.814 4.5H129.827V3.5H127.814V4.5ZM131.84 4.5H133.852V3.5H131.84V4.5ZM135.865 4.5H137.878V3.5H135.865V4.5ZM139.891 4.5H141.904V3.5H139.891V4.5ZM143.917 4.5H145.929V3.5H143.917V4.5ZM147.942 4.5H149.955V3.5H147.942V4.5ZM151.968 4.5H153.981V3.5H151.968V4.5ZM155.993 4.5H157V3.5H155.993V4.5Z" fill="#D6D6D6"/>
</svg>
