<svg width="40" height="40" viewBox="0 0 40 40" fill="none" xmlns="http://www.w3.org/2000/svg">
<circle cx="20" cy="20" r="19.5" fill="#010101" stroke="#010101"/>
<path d="M27.5 16.5975V19.9592C25.9884 19.8092 24.547 19.2468 23.3333 18.3333V22.0833C23.3331 23.1009 23.0462 24.0979 22.5056 24.96C21.9649 25.8221 21.1924 26.5145 20.2764 26.9578C19.3604 27.4011 18.3381 27.5774 17.3265 27.4666C16.315 27.3557 15.3551 26.9621 14.5569 26.3309C13.7587 25.6998 13.1544 24.8565 12.8134 23.8978C12.4723 22.939 12.4081 21.9036 12.6283 20.9101C12.8485 19.9166 13.3441 19.0052 14.0583 18.2803C14.7726 17.5555 15.6765 17.0465 16.6667 16.8117V20.4167C16.3826 20.6297 16.1577 20.9119 16.0133 21.2363C15.8689 21.5608 15.8099 21.9167 15.8418 22.2704C15.8736 22.6241 15.9954 22.9638 16.1955 23.2572C16.3956 23.5505 16.6673 23.7879 16.985 23.9467C17.3026 24.1055 17.6556 24.1805 18.0103 24.1646C18.3651 24.1486 18.7099 24.0422 19.0119 23.8555C19.314 23.6688 19.5634 23.408 19.7363 23.0978C19.9092 22.7877 20 22.4385 20 22.0833V12.5H23.4025C23.576 13.5237 24.0636 14.468 24.7978 15.2022C25.532 15.9364 26.4763 16.424 27.5 16.5975Z" stroke="white" stroke-width="1.5" stroke-linecap="round" stroke-linejoin="round"/>
</svg>
