<svg width="20" height="20" viewBox="0 0 20 20" fill="none" xmlns="http://www.w3.org/2000/svg">
<path d="M17.0497 8.02505C16.9327 6.80748 16.5023 5.64096 15.8006 4.63907C15.0989 3.63718 14.1497 2.83408 13.0455 2.30796C11.9412 1.78185 10.7196 1.55065 9.49942 1.63689C8.27928 1.72313 7.10227 2.12385 6.08299 2.80005C5.20732 3.38559 4.4722 4.1578 3.93044 5.06121C3.38869 5.96462 3.05374 6.97681 2.94966 8.02505C2.84756 9.06643 2.97855 10.1175 3.33313 11.1019C3.68771 12.0864 4.25699 12.9796 4.99966 13.7167L9.41632 18.1417C9.49379 18.2198 9.58596 18.2818 9.68751 18.3241C9.78906 18.3664 9.89798 18.3882 10.008 18.3882C10.118 18.3882 10.2269 18.3664 10.3285 18.3241C10.43 18.2818 10.5222 18.2198 10.5997 18.1417L14.9997 13.7167C15.7423 12.9796 16.3116 12.0864 16.6662 11.1019C17.0208 10.1175 17.1518 9.06643 17.0497 8.02505ZM13.833 12.5417L9.99966 16.3751L6.16632 12.5417C5.6014 11.9768 5.16866 11.2937 4.89921 10.5415C4.62977 9.78938 4.53031 8.98688 4.60799 8.19172C4.68617 7.38431 4.94279 6.60435 5.3593 5.90826C5.7758 5.21216 6.34179 4.61731 7.01632 4.16672C7.90044 3.57942 8.93825 3.26613 9.99966 3.26613C11.0611 3.26613 12.0989 3.57942 12.983 4.16672C13.6555 4.61557 14.2202 5.20779 14.6366 5.90084C15.053 6.59388 15.3108 7.37056 15.3913 8.17505C15.4715 8.97291 15.3733 9.77862 15.1038 10.5338C14.8343 11.2891 14.4002 11.9749 13.833 12.5417ZM9.99966 5.00005C9.25798 5.00005 8.53295 5.21999 7.91627 5.63204C7.29958 6.0441 6.81894 6.62977 6.53511 7.31499C6.25128 8.00021 6.17702 8.75421 6.32171 9.48164C6.46641 10.2091 6.82356 10.8773 7.34801 11.4017C7.87245 11.9262 8.54064 12.2833 9.26807 12.428C9.9955 12.5727 10.7495 12.4984 11.4347 12.2146C12.1199 11.9308 12.7056 11.4501 13.1177 10.8334C13.5297 10.2168 13.7497 9.49173 13.7497 8.75005C13.7475 7.75617 13.3517 6.80362 12.6489 6.10083C11.9461 5.39805 10.9935 5.00226 9.99966 5.00005ZM9.99966 10.8334C9.58761 10.8334 9.18482 10.7112 8.84222 10.4823C8.49962 10.2534 8.23259 9.92799 8.07491 9.54731C7.91723 9.16663 7.87597 8.74774 7.95635 8.34362C8.03674 7.93949 8.23516 7.56827 8.52652 7.27691C8.81788 6.98556 9.18909 6.78714 9.59322 6.70675C9.99735 6.62637 10.4162 6.66762 10.7969 6.8253C11.1776 6.98299 11.503 7.25001 11.7319 7.59262C11.9608 7.93522 12.083 8.33801 12.083 8.75005C12.083 9.30259 11.8635 9.83249 11.4728 10.2232C11.0821 10.6139 10.5522 10.8334 9.99966 10.8334Z" fill="#C4C4C4"/>
</svg>
