<svg width="40" height="40" viewBox="0 0 40 40" fill="none" xmlns="http://www.w3.org/2000/svg">
<circle cx="20" cy="20" r="19.5" stroke="#61BE78"/>
<g clip-path="url(#clip0_511_30)">
<path d="M24.582 21.9817C24.3338 21.8577 23.1099 21.2577 22.8818 21.1757C22.6537 21.0927 22.4879 21.0517 22.3221 21.2997C22.1564 21.5467 21.6791 22.1057 21.5334 22.2707C21.3887 22.4357 21.243 22.4557 20.9948 22.3317C20.2613 22.0411 19.5843 21.6255 18.9942 21.1037C18.4499 20.603 17.9833 20.0247 17.6095 19.3877C17.4648 19.1397 17.5945 19.0057 17.7191 18.8827C17.8306 18.7717 17.9682 18.5937 18.0918 18.4487C18.1942 18.3235 18.2781 18.1844 18.341 18.0357C18.3741 17.9673 18.3896 17.8918 18.3859 17.816C18.3822 17.7402 18.3595 17.6665 18.3199 17.6017C18.2576 17.4777 17.7602 16.2587 17.5533 15.7627C17.3513 15.2807 17.1463 15.3457 16.9926 15.3377C16.8479 15.3307 16.6821 15.3287 16.5163 15.3287C16.3902 15.3322 16.2661 15.3616 16.152 15.4151C16.0379 15.4686 15.9361 15.5451 15.8531 15.6397C15.5718 15.9048 15.349 16.2253 15.199 16.5809C15.049 16.9364 14.9751 17.3191 14.9819 17.7047C15.0626 18.6389 15.4157 19.5293 15.9978 20.2667C17.0648 21.8587 18.5296 23.1472 20.2482 24.0057C20.7118 24.2039 21.1853 24.3781 21.667 24.5277C22.1748 24.6811 22.7116 24.7143 23.2345 24.6247C23.5809 24.5548 23.9089 24.4143 24.1979 24.2118C24.4869 24.0094 24.7306 23.7496 24.9136 23.4487C25.0768 23.0786 25.1271 22.6689 25.0583 22.2707C24.997 22.1667 24.8312 22.1057 24.582 21.9817V21.9817ZM27.086 12.9027C25.3778 11.203 23.1071 10.1791 20.6967 10.0215C18.2864 9.86386 15.9006 10.5833 13.9836 12.0459C12.0666 13.5085 10.749 15.6146 10.276 17.972C9.80308 20.3294 10.2071 22.7776 11.4128 24.8607L10 29.9956L15.2793 28.6186C16.7395 29.4099 18.3756 29.8245 20.0382 29.8246H20.0422C22.0118 29.8236 23.9368 29.2417 25.5742 28.1524C27.2115 27.063 28.4877 25.5151 29.2415 23.7042C29.9953 21.8934 30.1928 19.9008 29.8092 17.9782C29.4255 16.0557 28.4779 14.2894 27.086 12.9026V12.9027ZM24.4403 26.8916C23.1221 27.7139 21.5979 28.1502 20.0422 28.1506H20.0382C18.556 28.1506 17.1011 27.7537 15.826 27.0016L15.5235 26.8236L12.3905 27.6416L13.2265 24.6016L13.0305 24.2896C12.1609 22.9095 11.722 21.3037 11.7694 19.6753C11.8168 18.0469 12.3483 16.4691 13.2967 15.1413C14.2452 13.8136 15.5679 12.7955 17.0977 12.2159C18.6275 11.6362 20.2957 11.5211 21.8912 11.885C23.4868 12.2488 24.9381 13.0754 26.0617 14.2601C27.1852 15.4448 27.9305 16.9345 28.2034 18.5408C28.4762 20.1471 28.2644 21.7978 27.5945 23.2842C26.9247 24.7707 25.827 26.026 24.4403 26.8916" fill="#61BE78"/>
</g>
<defs>
<clipPath id="clip0_511_30">
<rect width="20" height="19.9956" fill="white" transform="translate(10 10)"/>
</clipPath>
</defs>
</svg>
