<svg width="24" height="24" viewBox="0 0 24 24" fill="none" xmlns="http://www.w3.org/2000/svg">
<path d="M17.4315 10.6392L9.28921 2.49696C9.11069 2.31697 8.8983 2.17411 8.66429 2.07661C8.43028 1.97912 8.17928 1.92892 7.92577 1.92892C7.67226 1.92892 7.42126 1.97912 7.18725 2.07661C6.95324 2.17411 6.74085 2.31697 6.56233 2.49696C6.20466 2.85676 6.00391 3.34347 6.00391 3.8508C6.00391 4.35813 6.20466 4.84484 6.56233 5.20464L13.3603 12.0027L6.56233 18.8007C6.20466 19.1605 6.00391 19.6472 6.00391 20.1545C6.00391 20.6618 6.20466 21.1486 6.56233 21.5084C6.74176 21.6863 6.95457 21.8271 7.18854 21.9227C7.42251 22.0183 7.67304 22.0667 7.92577 22.0653C8.1785 22.0667 8.42903 22.0183 8.663 21.9227C8.89697 21.8271 9.10978 21.6863 9.28921 21.5084L17.4315 13.3661C17.6115 13.1876 17.7543 12.9752 17.8518 12.7412C17.9493 12.5072 17.9995 12.2562 17.9995 12.0027C17.9995 11.7491 17.9493 11.4981 17.8518 11.2641C17.7543 11.0301 17.6115 10.8177 17.4315 10.6392Z" fill="#B1B1B1"/>
</svg>
