<svg width="270" height="192" viewBox="0 0 270 192" fill="none" xmlns="http://www.w3.org/2000/svg">
<path d="M0.173978 91.3231C0.895153 102.562 3.92369 113.531 9.07035 123.545L22.77 150.143C28.853 161.957 37.5339 171.69 47.8071 178.786C58.0247 185.844 69.8255 190.298 82.2211 191.601C87.3122 192.134 92.445 192.13 97.5353 191.591L119.005 189.322L124.605 188.731L133.475 187.794L180.79 182.793L186.061 182.235L194.499 181.344C199.449 180.82 204.334 179.795 209.077 178.283C228.617 172.055 245.171 157.798 254.655 138.431L261.66 124.124C274.925 97.0367 272.204 64.4284 254.656 40.1398L248.512 31.6368C228.987 4.61141 195.198 -6.54839 164.324 3.8396L162.807 4.35718C154.624 7.11307 146.019 8.40061 137.388 8.1605L78.2231 6.49939C54.8249 5.84204 32.4342 16.4468 17.5044 35.2578C4.79717 51.2621 -1.11789 71.4091 0.173978 91.3231Z" fill="#D8EBFD"/>
<path d="M0.173978 91.3231C0.895153 102.562 3.92369 113.531 9.07035 123.545L22.77 150.143C28.853 161.957 37.5339 171.69 47.8071 178.786C58.0247 185.844 69.8255 190.298 82.2211 191.601C87.3122 192.134 92.445 192.13 97.5353 191.591L119.005 189.322L124.605 188.731L133.475 187.794L180.79 182.793L186.061 182.235L194.499 181.344C199.449 180.82 204.334 179.795 209.077 178.283C228.617 172.055 245.171 157.798 254.655 138.431L261.66 124.124C274.925 97.0367 272.204 64.4284 254.656 40.1398L248.512 31.6368C228.987 4.61141 195.198 -6.54839 164.324 3.8396L162.807 4.35718C154.624 7.11307 146.019 8.40061 137.388 8.1605L78.2231 6.49939C54.8249 5.84204 32.4342 16.4468 17.5044 35.2578C4.79717 51.2621 -1.11789 71.4091 0.173978 91.3231Z" fill="#D8EBFD"/>
<mask id="mask0_2271_3499" style="mask-type:alpha" maskUnits="userSpaceOnUse" x="0" y="0" width="270" height="193">
<path d="M0.173978 91.3253C0.895153 102.564 3.92369 113.533 9.07035 123.547L22.77 150.146C28.853 161.959 37.5339 171.692 47.8071 178.789C58.0247 185.846 69.8255 190.3 82.2211 191.603C87.3122 192.136 92.445 192.132 97.5353 191.593L119.005 189.324L124.605 188.733L133.475 187.796L180.79 182.796L186.061 182.237L194.499 181.346C199.449 180.822 204.334 179.797 209.077 178.285C228.617 172.057 245.171 157.8 254.655 138.433L261.66 124.126C274.925 97.0389 272.204 64.4306 254.656 40.142L248.512 31.639C228.987 4.61361 195.198 -6.54619 164.324 3.8418L162.807 4.35937C154.624 7.11527 146.019 8.40281 137.388 8.16269L78.2231 6.50159C54.8249 5.84424 32.4342 16.449 17.5044 35.26C4.79717 51.2643 -1.11789 71.4113 0.173978 91.3253Z" fill="#D8EBFD"/>
<path d="M0.173978 91.3253C0.895153 102.564 3.92369 113.533 9.07035 123.547L22.77 150.146C28.853 161.959 37.5339 171.692 47.8071 178.789C58.0247 185.846 69.8255 190.3 82.2211 191.603C87.3122 192.136 92.445 192.132 97.5353 191.593L119.005 189.324L124.605 188.733L133.475 187.796L180.79 182.796L186.061 182.237L194.499 181.346C199.449 180.822 204.334 179.797 209.077 178.285C228.617 172.057 245.171 157.8 254.655 138.433L261.66 124.126C274.925 97.0389 272.204 64.4306 254.656 40.142L248.512 31.639C228.987 4.61361 195.198 -6.54619 164.324 3.8418L162.807 4.35937C154.624 7.11527 146.019 8.40281 137.388 8.16269L78.2231 6.50159C54.8249 5.84424 32.4342 16.449 17.5044 35.26C4.79717 51.2643 -1.11789 71.4113 0.173978 91.3253Z" fill="#D8EBFD"/>
</mask>
<g mask="url(#mask0_2271_3499)">
<g opacity="0.45">
<path d="M12.0466 68.0667H-9.20501C-10.212 68.0667 -11.0283 68.884 -11.0283 69.8922V77.4846C-11.0283 78.4928 -10.212 79.3101 -9.20501 79.3101H12.0466C13.0536 79.3101 13.8699 78.4928 13.8699 77.4846V69.8922C13.8699 68.884 13.0536 68.0667 12.0466 68.0667Z" fill="#1F65BC"/>
<path d="M38.8728 68.0667H17.6212C16.6142 68.0667 15.7979 68.884 15.7979 69.8922V77.4846C15.7979 78.4928 16.6142 79.3101 17.6212 79.3101H38.8728C39.8798 79.3101 40.6961 78.4928 40.6961 77.4846V69.8922C40.6961 68.884 39.8798 68.0667 38.8728 68.0667Z" fill="#1F65BC"/>
<path d="M25.5212 81.3402H4.2696C3.26262 81.3402 2.44629 82.1575 2.44629 83.1657V90.7582C2.44629 91.7664 3.26262 92.5837 4.2696 92.5837H25.5212C26.5282 92.5837 27.3445 91.7664 27.3445 90.7582V83.1657C27.3445 82.1575 26.5282 81.3402 25.5212 81.3402Z" fill="#1F65BC"/>
</g>
<path d="M190 28H182V200H190V28Z" fill="white"/>
<path d="M154.701 120.189C146.42 120.189 139.933 115.673 139.933 109.909C139.933 104.145 146.42 99.6312 154.701 99.6312C162.983 99.6312 169.468 104.147 169.468 109.91C169.468 115.674 162.983 120.189 154.701 120.189ZM154.701 103.231C148.657 103.231 143.55 106.289 143.55 109.906C143.55 113.523 148.657 116.582 154.701 116.582C160.746 116.582 165.853 113.523 165.853 109.906C165.853 106.289 160.747 103.233 154.701 103.233V103.231Z" fill="#382E1C"/>
<path d="M128.328 200.794C128.091 200.794 127.857 200.748 127.638 200.658C127.418 200.568 127.219 200.436 127.051 200.269C126.883 200.102 126.75 199.903 126.659 199.684C126.567 199.465 126.52 199.231 126.52 198.994V184.296C126.52 183.816 126.71 183.355 127.049 183.016C127.388 182.676 127.848 182.486 128.328 182.486C128.808 182.486 129.268 182.676 129.607 183.016C129.946 183.355 130.137 183.816 130.137 184.296V198.993C130.136 199.23 130.089 199.465 129.998 199.684C129.906 199.903 129.773 200.101 129.605 200.269C129.437 200.436 129.238 200.568 129.019 200.658C128.8 200.748 128.565 200.794 128.328 200.794Z" fill="#F68636"/>
<path d="M159.674 200.794C159.437 200.794 159.202 200.748 158.983 200.658C158.764 200.568 158.565 200.436 158.397 200.269C158.229 200.102 158.096 199.903 158.004 199.684C157.913 199.465 157.866 199.231 157.865 198.994V184.296C157.865 183.816 158.056 183.355 158.395 183.016C158.734 182.676 159.194 182.486 159.674 182.486C160.153 182.486 160.613 182.676 160.953 183.016C161.292 183.355 161.482 183.816 161.482 184.296V198.993C161.482 199.23 161.434 199.465 161.343 199.684C161.252 199.903 161.119 200.101 160.951 200.269C160.783 200.436 160.584 200.568 160.364 200.658C160.145 200.748 159.911 200.794 159.674 200.794Z" fill="#F68636"/>
<path d="M181.074 200.794C180.837 200.794 180.603 200.748 180.384 200.658C180.165 200.568 179.965 200.436 179.797 200.269C179.629 200.102 179.496 199.903 179.405 199.684C179.314 199.465 179.266 199.231 179.266 198.994V184.296C179.266 183.816 179.456 183.355 179.795 183.016C180.134 182.676 180.594 182.486 181.074 182.486C181.554 182.486 182.014 182.676 182.353 183.016C182.692 183.355 182.883 183.816 182.883 184.296V198.993C182.882 199.23 182.835 199.465 182.744 199.684C182.652 199.903 182.519 200.101 182.351 200.269C182.183 200.436 181.984 200.568 181.765 200.658C181.546 200.748 181.311 200.794 181.074 200.794Z" fill="#F68636"/>
<path d="M183.635 114.26H125.767V187.445H183.635V114.26Z" fill="#FDB138"/>
<path d="M186.047 173.348L123.784 175.582L123.356 189.245H186.047V173.348Z" fill="#F26522"/>
<path d="M180.135 109.911H129.271C126.005 109.911 123.354 112.546 123.354 115.797V128.956L186.045 124.908V115.797C186.047 112.546 183.399 109.911 180.135 109.911Z" fill="#F68636"/>
<path d="M179.265 162.888C179.265 166.429 177.14 169.299 174.515 169.299C171.89 169.299 169.769 166.429 169.769 162.888C169.769 159.346 171.894 156.477 174.515 156.477C177.136 156.477 179.265 159.347 179.265 162.888Z" fill="#F68636"/>
<path d="M179.009 162.887C179.009 165.307 177.555 167.274 175.759 167.274C173.963 167.274 172.509 165.311 172.509 162.887C172.509 160.464 173.963 158.501 175.759 158.501C177.555 158.501 179.009 160.465 179.009 162.887Z" fill="#F26522"/>
<path d="M183.636 143.205H125.768V145.004H183.636V143.205Z" fill="#F68636"/>
<path d="M-26.4372 135.435C-25.4671 138.597 -23.8944 141.537 -22.6968 144.62C-19.5207 152.791 -20.1499 160.827 -20.1966 169.361C-20.1966 170.196 -20.1816 171.061 -20.1399 171.958C-19.9924 175.007 -19.5983 178.039 -18.9615 181.025C-18.7781 181.881 -18.5723 182.736 -18.3439 183.585C-17.023 188.485 -14.937 193.157 -11.8892 196.435C-11.5375 196.812 -11.173 197.171 -10.7958 197.511C-8.86643 199.244 -7.0046 201.022 -5.14277 202.816L3.25131 204.363C2.80683 203.564 2.37651 202.757 1.96036 201.944C1.41198 200.874 0.891381 199.793 0.398559 198.702C0.324386 198.535 0.251047 198.374 0.180207 198.21C-1.14794 195.235 -2.21755 192.151 -3.01674 188.993C-3.01674 188.993 -3.01674 188.993 -3.01674 188.988C-4.04683 184.842 -4.52854 180.592 -4.27602 176.27C-3.96266 170.894 -2.5142 165.637 -2.13083 160.264C-1.57161 152.415 -3.33011 144.62 -6.06535 137.304C-7.47714 133.531 -9.14896 128.481 -12.0517 124.954C-13.7535 122.885 -15.8762 121.338 -18.6165 120.877C-21.8751 120.329 -25.1337 122.678 -26.4355 125.717C-27.7373 128.756 -27.4081 132.272 -26.4372 135.435Z" fill="#3ECAA1"/>
<path d="M1.55785 144.34C1.322 145.878 1.63119 147.439 1.86371 148.977C2.85231 155.538 2.47608 162.233 0.758612 168.642C-0.28398 172.52 -1.81162 176.265 -2.62669 180.198C-3.22757 183.103 -3.32008 186.052 -3.01422 188.987C-3.01422 188.987 -3.01422 188.987 -3.01422 188.992C-2.68086 192.206 -1.86245 195.401 -0.711515 198.496C0.00267024 200.407 0.830044 202.274 1.7662 204.087L4.82898 204.652C4.60979 203.024 4.45895 201.473 4.3006 200.266C4.26171 199.97 4.22225 199.681 4.18225 199.396C3.64054 195.538 3.07298 192.578 4.62812 188.705C6.37828 184.346 9.09352 180.444 11.1179 176.208C13.9273 170.312 15.3616 163.853 15.3124 157.321C15.2607 151.169 13.3372 144.294 7.92175 141.388C6.77748 140.774 5.42153 140.369 4.18475 140.773C2.70796 141.257 1.79371 142.802 1.55785 144.34Z" fill="#009184"/>
<path d="M7.10722 145.728C9.31491 152.958 9.45243 160.858 7.49559 167.979C6.64468 171.076 5.3829 174.138 4.16196 177.1C2.07844 182.155 -0.0742516 187.38 -0.246767 192.932C-0.297974 194.701 -0.15375 196.471 0.183274 198.208C0.212443 198.364 0.244113 198.521 0.27745 198.677C0.675503 200.552 1.26187 202.381 2.0276 204.137L2.91101 204.3C2.55821 203.521 2.24262 202.736 1.96427 201.945C1.60369 200.924 1.30507 199.883 1.07002 198.826C0.634232 196.902 0.441595 194.93 0.496636 192.958C0.663318 187.541 2.79267 182.378 4.85036 177.385C6.07963 174.403 7.35058 171.319 8.21315 168.178C10.2067 160.925 10.0667 152.875 7.81979 145.513C7.79105 145.419 7.726 145.339 7.63894 145.293C7.55189 145.246 7.44995 145.237 7.35557 145.265C7.26119 145.294 7.18209 145.359 7.13567 145.446C7.08925 145.534 7.07932 145.636 7.10805 145.73L7.10722 145.728Z" fill="#007F84"/>
<path d="M83.0182 143.956H3.54201C2.94549 143.956 2.46191 144.44 2.46191 145.038V200.842C2.46191 201.439 2.94549 201.923 3.54201 201.923H83.0182C83.6148 201.923 84.0983 201.439 84.0983 200.842V145.038C84.0983 144.44 83.6148 143.956 83.0182 143.956Z" fill="white"/>
<path d="M76.5194 198.865H10.0427C8.95253 198.863 7.90738 198.429 7.13651 197.657C6.36564 196.886 5.93199 195.839 5.93066 194.748V151.134C5.93199 150.042 6.36564 148.996 7.13651 148.224C7.90738 147.452 8.95253 147.018 10.0427 147.016H76.5194C77.6096 147.018 78.6548 147.452 79.4256 148.224C80.1965 148.996 80.6302 150.042 80.6315 151.134V194.747C80.6302 195.838 80.1965 196.885 79.4257 197.657C78.6548 198.429 77.6097 198.863 76.5194 198.865ZM10.0427 147.586C9.10335 147.587 8.20286 147.961 7.53872 148.626C6.87457 149.291 6.50099 150.193 6.49989 151.134V194.748C6.50099 195.688 6.87457 196.59 7.53872 197.255C8.20286 197.92 9.10335 198.294 10.0427 198.296H76.5194C77.459 198.294 78.3597 197.92 79.024 197.255C79.6883 196.59 80.062 195.688 80.0631 194.747V151.134C80.0618 150.193 79.688 149.291 79.0237 148.626C78.3594 147.961 77.4589 147.587 76.5194 147.586H10.0427Z" fill="#E6E6FE"/>
<path d="M28.8947 190.914C38.7598 190.914 46.7571 182.907 46.7571 173.03C46.7571 163.153 38.7598 155.146 28.8947 155.146C19.0295 155.146 11.0322 163.153 11.0322 173.03C11.0322 182.907 19.0295 190.914 28.8947 190.914Z" fill="#69CBD2"/>
<path d="M28.6521 173.098C28.3379 173.261 25.0401 165.794 26.456 161.965C27.872 158.136 33.3267 157.922 35.5935 160.83C37.8604 163.738 36.727 168.919 28.6521 173.098Z" fill="#4B5DB3"/>
<path d="M28.6518 173.099C28.9501 173.29 24.1397 179.883 20.1193 180.569C16.099 181.256 13.187 176.633 14.5688 173.214C15.9506 169.795 20.9952 168.189 28.6518 173.099Z" fill="#4B5DB3"/>
<path d="M28.6519 173.098C28.6686 172.744 36.776 173.618 39.3804 176.761C41.9848 179.905 39.4412 184.739 35.7967 185.251C32.1522 185.762 28.2335 182.192 28.6519 173.098Z" fill="#4B5DB3"/>
<path d="M25.4023 172.784C25.4022 172.147 25.5907 171.524 25.9441 170.994C26.2975 170.465 26.7998 170.052 27.3876 169.808C27.9755 169.564 28.6223 169.5 29.2464 169.624C29.8705 169.748 30.4437 170.055 30.8937 170.505C31.3437 170.956 31.6502 171.53 31.7744 172.154C31.8986 172.779 31.8349 173.427 31.5915 174.015C31.348 174.604 30.9357 175.107 30.4066 175.461C29.8776 175.815 29.2556 176.004 28.6193 176.004C27.7663 176.004 26.9481 175.665 26.3449 175.061C25.7416 174.457 25.4026 173.638 25.4023 172.784Z" fill="#4B5DB3"/>
<path d="M49.2798 157.678H9.79297V158.247H49.2798V157.678Z" fill="white"/>
<path d="M49.2798 161.958H9.79297V162.527H49.2798V161.958Z" fill="white"/>
<path d="M49.2798 166.237H9.79297V166.806H49.2798V166.237Z" fill="white"/>
<path d="M49.2798 170.516H9.79297V171.085H49.2798V170.516Z" fill="white"/>
<path d="M49.2798 174.795H9.79297V175.364H49.2798V174.795Z" fill="white"/>
<path d="M49.2798 179.075H9.79297V179.644H49.2798V179.075Z" fill="white"/>
<path d="M49.2798 183.354H9.79297V183.923H49.2798V183.354Z" fill="white"/>
<path d="M49.2798 187.632H9.79297V188.201H49.2798V187.632Z" fill="white"/>
<path d="M44.7793 153.173H44.2109V192.707H44.7793V153.173Z" fill="white"/>
<path d="M40.5069 153.173H39.9385V192.707H40.5069V153.173Z" fill="white"/>
<path d="M36.2324 153.173H35.6641V192.707H36.2324V153.173Z" fill="white"/>
<path d="M31.958 153.173H31.3896V192.707H31.958V153.173Z" fill="white"/>
<path d="M27.6846 153.173H27.1162V192.707H27.6846V153.173Z" fill="white"/>
<path d="M23.4102 153.173H22.8418V192.707H23.4102V153.173Z" fill="white"/>
<path d="M19.1377 153.173H18.5693V192.707H19.1377V153.173Z" fill="white"/>
<path d="M14.8623 153.173H14.2939V192.707H14.8623V153.173Z" fill="white"/>
<path d="M73.0225 159.275H52.6582C52.4232 159.274 52.198 159.18 52.0319 159.014C51.8658 158.847 51.7721 158.622 51.7715 158.386C51.7721 158.151 51.8658 157.926 52.0319 157.759C52.1981 157.593 52.4233 157.499 52.6582 157.499H73.0225C73.2576 157.499 73.4828 157.593 73.6491 157.759C73.8154 157.926 73.9092 158.151 73.9101 158.386C73.9095 158.622 73.8157 158.848 73.6494 159.014C73.4831 159.181 73.2577 159.274 73.0225 159.275Z" fill="#E6E6FE"/>
<path d="M73.0225 164.955H52.6582C52.4232 164.954 52.198 164.86 52.0319 164.693C51.8658 164.527 51.7721 164.301 51.7715 164.066C51.7721 163.831 51.8658 163.605 52.0319 163.439C52.1981 163.273 52.4233 163.179 52.6582 163.178H73.0225C73.2576 163.179 73.4828 163.272 73.6491 163.439C73.8154 163.605 73.9092 163.831 73.9101 164.066C73.9095 164.301 73.8157 164.527 73.6494 164.694C73.4831 164.86 73.2577 164.954 73.0225 164.955Z" fill="#E6E6FE"/>
<path d="M73.0225 170.633H52.6582C52.4233 170.632 52.1981 170.538 52.0319 170.372C51.8658 170.206 51.7721 169.98 51.7715 169.745C51.7721 169.51 51.8658 169.284 52.0319 169.118C52.198 168.951 52.4232 168.857 52.6582 168.856H73.0225C73.2577 168.857 73.4831 168.951 73.6494 169.117C73.8157 169.284 73.9095 169.509 73.9101 169.745C73.9092 169.98 73.8154 170.206 73.6491 170.372C73.4828 170.538 73.2576 170.632 73.0225 170.633Z" fill="#E6E6FE"/>
<path d="M73.0225 176.312H52.6582C52.4232 176.311 52.198 176.217 52.0319 176.05C51.8658 175.884 51.7721 175.658 51.7715 175.423C51.7721 175.188 51.8658 174.962 52.0319 174.796C52.1981 174.63 52.4233 174.536 52.6582 174.535H73.0225C73.2576 174.536 73.4828 174.63 73.6491 174.796C73.8154 174.962 73.9092 175.188 73.9101 175.423C73.9095 175.658 73.8157 175.884 73.6494 176.051C73.4831 176.217 73.2577 176.311 73.0225 176.312Z" fill="#E6E6FE"/>
<path d="M73.0225 181.99H52.6582C52.4233 181.989 52.1981 181.896 52.0319 181.729C51.8658 181.563 51.7721 181.337 51.7715 181.102C51.7721 180.867 51.8658 180.641 52.0319 180.475C52.198 180.308 52.4232 180.214 52.6582 180.214H73.0225C73.2577 180.214 73.4831 180.308 73.6494 180.475C73.8157 180.641 73.9095 180.867 73.9101 181.102C73.9092 181.337 73.8154 181.563 73.6491 181.729C73.4828 181.896 73.2576 181.989 73.0225 181.99Z" fill="#E6E6FE"/>
<path d="M73.0225 187.67H52.6582C52.4232 187.669 52.198 187.575 52.0319 187.408C51.8658 187.242 51.7721 187.016 51.7715 186.781C51.7721 186.546 51.8658 186.32 52.0319 186.154C52.1981 185.987 52.4233 185.894 52.6582 185.893H73.0225C73.2576 185.894 73.4828 185.987 73.6491 186.154C73.8154 186.32 73.9092 186.546 73.9101 186.781C73.9095 187.016 73.8157 187.242 73.6494 187.409C73.4831 187.575 73.2577 187.669 73.0225 187.67Z" fill="#E6E6FE"/>
<path d="M85.2746 194.178L84.0986 194.446V181.99L85.2746 182.258C86.5664 182.551 87.4698 183.588 87.4698 184.776V191.66C87.4698 192.848 86.5664 193.885 85.2746 194.178Z" fill="#E6E6FE"/>
<path d="M85.2746 161.611L84.0986 161.756V155.018L85.2746 155.163C86.5664 155.322 87.4698 155.883 87.4698 156.525V160.249C87.4698 160.892 86.5664 161.452 85.2746 161.611Z" fill="#E6E6FE"/>
<path d="M14.9462 177H8V44.6581C8 33.267 17.2616 24 28.6301 24H261.991V30.9546H28.6359C25.006 30.9588 21.5259 32.4046 18.9594 34.9748C16.393 37.545 14.9496 41.0295 14.9462 44.6639V177Z" fill="white"/>
<path d="M199.884 1.36151C199.884 0.204764 199.425 -0.904601 198.608 -1.72254C197.791 -2.54048 196.683 -3 195.528 -3H55.3579C54.7857 -3.00022 54.219 -2.88757 53.6903 -2.66848C53.1616 -2.44939 52.6812 -2.12816 52.2765 -1.72313C51.8718 -1.31811 51.5508 -0.837225 51.3318 -0.307954C51.1127 0.221317 51 0.788606 51 1.36151V2.44625H199.884V1.36151Z" fill="#93C1F2"/>
<path d="M51 2.44519V31.0441C50.9998 32.7519 51.3695 34.4395 52.0834 35.9905H198.799C199.513 34.4396 199.883 32.7519 199.882 31.0441V2.44519H51Z" fill="#76ACDE"/>
<path d="M54.014 40.1729C54.5208 41.273 55.3317 42.2047 56.3508 42.8579C57.3699 43.5111 58.5545 43.8583 59.7645 43.8585H191.119C192.329 43.8583 193.513 43.5111 194.532 42.8579C195.552 42.2047 196.362 41.273 196.869 40.1729L198.797 35.9924H52.083L54.014 40.1729Z" fill="#417EC8"/>
<path d="M188.952 39.925H61.9327L59.8242 35.9924H191.06L188.952 39.925Z" fill="#93C1F2"/>
<path d="M179.91 22.5753H67.5249C67.3634 22.5753 67.2324 22.7064 67.2324 22.8682V31.4978C67.2324 31.6595 67.3634 31.7906 67.5249 31.7906H179.91C180.072 31.7906 180.202 31.6595 180.202 31.4978V22.8682C180.202 22.7064 180.072 22.5753 179.91 22.5753Z" fill="#1F65BC"/>
<path d="M140.143 24.1576H110.743C110.67 24.1576 110.61 24.217 110.61 24.2903V30.0753C110.61 30.1486 110.67 30.208 110.743 30.208H140.143C140.216 30.208 140.275 30.1486 140.275 30.0753V24.2903C140.275 24.217 140.216 24.1576 140.143 24.1576Z" fill="#93C1F2"/>
<path d="M190.197 6.49885H60.6858C60.4573 6.49819 60.2382 6.40699 60.0766 6.24517C59.915 6.08335 59.8239 5.86407 59.8232 5.63523C59.8239 5.40638 59.915 5.1871 60.0766 5.02528C60.2382 4.86347 60.4573 4.77227 60.6858 4.77161H190.197C190.426 4.77227 190.645 4.86347 190.807 5.02528C190.968 5.1871 191.059 5.40638 191.06 5.63523C191.059 5.86407 190.968 6.08335 190.807 6.24517C190.645 6.40699 190.426 6.49819 190.197 6.49885Z" fill="#1F65BC"/>
<path d="M190.197 10.3146H60.6858C60.4572 10.3138 60.2382 10.2224 60.0766 10.0604C59.915 9.89846 59.8239 9.67909 59.8232 9.45017C59.8239 9.22133 59.915 9.00205 60.0766 8.84023C60.2382 8.67841 60.4573 8.58721 60.6858 8.58655H190.197C190.426 8.58721 190.645 8.67841 190.807 8.84023C190.968 9.00205 191.059 9.22133 191.06 9.45017C191.059 9.67909 190.968 9.89846 190.807 10.0604C190.645 10.2224 190.426 10.3138 190.197 10.3146Z" fill="#1F65BC"/>
<path d="M190.197 14.1296H60.6858C60.4573 14.1289 60.2382 14.0377 60.0766 13.8759C59.915 13.7141 59.8239 13.4948 59.8232 13.2659C59.8239 13.037 59.915 12.8177 60.0766 12.6557C60.2382 12.4938 60.4572 12.4024 60.6858 12.4015H190.197C190.426 12.4024 190.645 12.4938 190.807 12.6557C190.968 12.8177 191.059 13.037 191.06 13.2659C191.059 13.4948 190.968 13.7141 190.807 13.8759C190.645 14.0377 190.426 14.1289 190.197 14.1296Z" fill="#1F65BC"/>
<path d="M175.74 -0.277541C175.74 -0.0147384 175.662 0.242209 175.516 0.46079C175.371 0.679372 175.163 0.849764 174.921 0.950411C174.678 1.05106 174.412 1.07743 174.154 1.0262C173.897 0.974973 173.66 0.848439 173.475 0.662609C173.289 0.476779 173.163 0.240006 173.111 -0.0177553C173.06 -0.275516 173.087 -0.542681 173.187 -0.785447C173.288 -1.02821 173.458 -1.23567 173.676 -1.38158C173.894 -1.52748 174.151 -1.60527 174.414 -1.6051C174.765 -1.6051 175.102 -1.46523 175.351 -1.21627C175.6 -0.967302 175.74 -0.629632 175.74 -0.277541Z" fill="white"/>
<path d="M181.936 1.05002C182.669 1.05002 183.262 0.45565 183.262 -0.277542C183.262 -1.01073 182.669 -1.6051 181.936 -1.6051C181.204 -1.6051 180.61 -1.01073 180.61 -0.277542C180.61 0.45565 181.204 1.05002 181.936 1.05002Z" fill="white"/>
<path d="M189.462 1.05002C190.194 1.05002 190.788 0.45565 190.788 -0.277542C190.788 -1.01073 190.194 -1.6051 189.462 -1.6051C188.729 -1.6051 188.136 -1.01073 188.136 -0.277542C188.136 0.45565 188.729 1.05002 189.462 1.05002Z" fill="white"/>
<path d="M61.9258 190.291L63.6359 198.012L65.5403 201.795L71.9992 198.93L71.0724 191.125L61.9258 190.291Z" fill="#FABA97"/>
<path d="M136.07 199.515L143.809 198.006L147.625 196.215L144.919 189.77L137.115 190.502L136.07 199.515Z" fill="#FABA97"/>
<path d="M148.775 188.64C148.775 188.64 149.959 188.176 150.678 188.344C151.397 188.512 151.803 189.827 151.992 193.625C152.182 197.422 153.055 208.152 152.737 209.828C152.418 211.505 152.017 212.71 150.227 211.612C150.382 205.449 148.775 188.64 148.775 188.64Z" fill="white"/>
<path d="M142.231 189.854C142.034 189.064 144.682 188.789 148.825 188.625C149.031 189.507 149.65 193.943 149.962 196.114C150.273 198.286 151.304 201.84 151.384 204.266C151.464 206.692 151.6 211.059 150.658 211.754C149.716 211.638 149.164 211.179 149.084 210.373C149.004 209.567 147.878 206.586 146.334 204.272C144.789 201.958 142.525 198.87 142.129 198.282C141.769 197.747 146.74 194.804 143.59 191.397L142.231 189.854Z" fill="#231F20"/>
<path d="M91.4043 97.6109C91.4043 97.6109 85.5221 105.847 81.1609 105.788C76.7997 105.73 77.1897 103.316 77.1897 103.316C77.7939 102.899 77.8906 99.3323 78.0031 98.5872C78.0439 98.3062 78.0514 98.0213 78.0256 97.7385C77.8289 95.257 75.6087 92.0103 75.5254 91.8976C75.5254 91.8976 78.9474 73.1065 82.6327 83.7295C84.5945 89.3793 86.9506 92.949 88.7266 95.0492C90.2942 96.895 91.4043 97.6109 91.4043 97.6109Z" fill="#FABA97"/>
<path d="M88.7291 95.0478C86.8481 95.0478 83.1252 95.4333 78.0256 97.7355C77.8289 95.2539 75.6087 92.0072 75.5254 91.8946C75.5254 91.8946 78.9474 73.1035 82.6327 83.7264C84.597 89.378 86.9531 92.9476 88.7291 95.0478Z" fill="#F5927E"/>
<path d="M68.7862 80.8182C68.9371 84.6106 71.6198 96.839 74.8151 97.2295C78.0104 97.62 83.3233 94.6662 84.3259 92.0261C85.196 89.7356 83.5067 79.4097 80.1772 77.7926C76.8478 76.1755 68.5745 75.5004 68.7862 80.8182Z" fill="#FABA97"/>
<path d="M80.6713 85.3105C80.8196 84.582 81.053 83.7409 81.688 83.4748C82.0164 83.3396 82.3881 83.4013 82.7048 83.5582C84.3308 84.3701 85.14 86.6514 84.1924 88.266C83.7966 88.9411 83.0998 89.4092 82.3731 88.8685L80.7063 85.7753C80.6104 85.6534 80.6388 85.469 80.6713 85.3105Z" fill="#FABA97"/>
<path d="M70.4096 87.4469C70.4096 87.4469 68.897 92.1605 69.7337 92.8498C70.5705 93.539 71.9256 92.5527 71.9256 92.5527L70.4096 87.4469Z" fill="#FABA97"/>
<path d="M71.7634 88.4103C71.9009 88.7332 72.2351 88.9001 72.5135 88.7833C72.7918 88.6664 72.9002 88.3085 72.7635 87.9855C72.6268 87.6626 72.2918 87.4957 72.0134 87.6134C71.7351 87.731 71.6259 88.0873 71.7634 88.4103Z" fill="#0F1231"/>
<path d="M73.973 85.8845C73.973 85.8845 72.6129 85.7484 71.4253 86.1957C70.2377 86.6429 70.4535 85.4923 71.1361 85.0275C71.8186 84.5627 73.6521 85.06 73.973 85.8845Z" fill="#0E0D0B"/>
<path d="M74.4602 91.0473C74.9828 91.9118 76.2671 92.0912 77.3297 91.4487C78.3923 90.8062 78.8298 89.5838 78.3081 88.7193C77.7864 87.8549 76.5021 87.6746 75.4395 88.3171C74.3769 88.9596 73.936 90.182 74.4602 91.0473Z" fill="#F08372"/>
<path d="M71.156 93.1952C70.6784 93.3529 70.0984 93.4055 69.635 93.0283C69.0958 92.5844 69.2333 90.9264 70.0434 88.1052C70.0576 88.0554 70.0911 88.0134 70.1363 87.9882C70.1816 87.9631 70.2349 87.957 70.2846 87.9713C70.3344 87.9856 70.3764 88.0191 70.4015 88.0644C70.4266 88.1097 70.4327 88.1631 70.4184 88.2129C69.5692 91.1742 69.5992 92.4976 69.8834 92.7312C70.5951 93.3153 71.8235 92.4359 71.836 92.4275C71.8566 92.411 71.8803 92.3987 71.9058 92.3916C71.9312 92.3845 71.9578 92.3826 71.984 92.3861C72.0101 92.3896 72.0353 92.3984 72.058 92.4119C72.0807 92.4254 72.1004 92.4434 72.116 92.4648C72.1315 92.4862 72.1425 92.5105 72.1484 92.5363C72.1543 92.562 72.1549 92.5887 72.1501 92.6148C72.1454 92.6408 72.1354 92.6655 72.1208 92.6876C72.1062 92.7096 72.0873 92.7284 72.0652 92.7429C71.7848 92.9357 71.4788 93.0879 71.156 93.1952Z" fill="#DE7360"/>
<path d="M65.4684 83.391C65.3307 82.9829 65.2724 82.552 65.2967 82.1219C65.3168 81.6271 65.3809 81.135 65.4884 80.6517C65.6772 79.7197 65.9903 78.8174 66.4193 77.969C66.7815 77.2763 67.244 76.6411 67.7919 76.084C68.3549 75.5126 68.9822 75.0086 69.6613 74.5821C70.3577 74.1394 71.0947 73.7642 71.8623 73.4615C72.6429 73.1518 73.4476 72.907 74.2683 72.7297C75.0613 72.5567 75.8672 72.4496 76.6777 72.4093C77.4356 72.3675 78.1957 72.3977 78.9479 72.4994C79.6229 72.5867 80.2844 72.7577 80.9173 73.0084C81.4741 73.2253 81.9859 73.5439 82.4266 73.9479C82.4749 73.9938 82.5224 74.0405 82.5682 74.0889C82.6141 74.1373 82.6583 74.1857 82.6941 74.2283C82.7187 74.2628 82.7554 74.2866 82.7969 74.295C82.8384 74.3034 82.8815 74.2956 82.9174 74.2733C82.9354 74.2614 82.9507 74.2459 82.9626 74.2279C82.9745 74.2099 82.9827 74.1896 82.9866 74.1684C82.9906 74.1472 82.9903 74.1254 82.9857 74.1043C82.9811 74.0832 82.9724 74.0632 82.9599 74.0456C82.5572 73.5796 82.066 73.1984 81.5148 72.9241C80.8972 72.6179 80.2404 72.3983 79.563 72.2716C78.8078 72.1264 78.04 72.0571 77.2711 72.0646C76.4481 72.0705 75.6271 72.1456 74.8167 72.2891C73.9699 72.4366 73.1365 72.6532 72.3248 72.9366C71.5099 73.2205 70.7227 73.5786 69.973 74.0063C69.2477 74.4204 68.5718 74.9159 67.9586 75.4833C67.3621 76.0312 66.8459 76.6607 66.4251 77.3532C65.9526 78.1384 65.6384 79.022 65.4109 79.9057C65.1684 80.8536 65.0092 81.8766 65.1992 82.8487C65.2361 83.0457 65.2948 83.238 65.3742 83.4219C65.4 83.482 65.4967 83.4528 65.4726 83.3894L65.4684 83.391Z" fill="#5B332A"/>
<path d="M86.6133 88.8656C87.1493 88.3196 87.5739 87.6743 87.8634 86.9657C88.1765 86.2419 88.3628 85.4697 88.4143 84.6827C88.4273 84.3019 88.4013 83.9209 88.3368 83.5454C88.1604 82.3519 87.7988 81.1934 87.265 80.1118C86.6169 78.779 85.7405 77.5703 84.6756 76.5404C83.7922 75.6877 82.7588 74.9342 81.602 74.4995C80.7386 74.1749 79.7102 73.9921 78.8393 74.3926C78.7401 74.4381 78.6438 74.4897 78.5509 74.547C78.3759 74.658 78.5509 74.9267 78.7293 74.8157C78.7693 74.7907 78.8126 74.7665 78.8518 74.7439L78.9201 74.7081C78.8826 74.7272 78.9526 74.693 78.9635 74.688C79.0548 74.6479 79.1486 74.6136 79.2443 74.5854C79.291 74.5712 79.3377 74.5595 79.3852 74.5487L79.4502 74.5345C79.4568 74.5345 79.501 74.5253 79.461 74.5345L79.5143 74.5253C79.6187 74.5089 79.7239 74.4983 79.8294 74.4936C79.9343 74.4882 80.0395 74.4882 80.1444 74.4936C80.2499 74.4991 80.355 74.51 80.4594 74.5262C80.7018 74.5629 80.9409 74.6187 81.1745 74.693C81.6879 74.8611 82.1801 75.0882 82.6413 75.3698C83.1688 75.6903 83.6652 76.0596 84.1239 76.4729C85.7444 77.9307 86.9518 79.791 87.6242 81.8657C87.8704 82.6059 88.0331 83.3714 88.1093 84.1478C88.1743 84.8821 88.0484 85.6273 87.8343 86.3282C87.7171 86.7029 87.5739 87.069 87.4059 87.4238C87.2503 87.7674 87.0634 88.0959 86.8475 88.405C86.7515 88.5413 86.6486 88.6725 86.5391 88.7981C86.4941 88.849 86.57 88.914 86.6175 88.8673L86.6133 88.8656Z" fill="#5B332A"/>
<path d="M82.0646 86.0796C80.177 84.7504 79.8144 83.9101 79.2236 81.6998C78.4935 82.3473 77.3184 83.3786 76.3458 83.4646C75.3732 83.5505 74.6531 82.3448 74.8973 81.3985C74.2781 82.5267 72.8446 84.6895 71.5904 84.9765C70.3361 85.2636 69.2968 83.3711 69.1577 82.0911C69.226 82.7587 68.1117 84.2005 67.2558 84.3941C64.1264 85.1025 65.1673 81.4953 65.3298 80.7869C65.6157 79.5403 68.0542 76.1142 69.0801 75.3465C69.6752 74.8993 72.608 73.0869 75.0865 72.6121C78.5593 71.9446 83.7173 73.2797 85.9108 76.1234C88.051 78.8945 89.5878 86.1689 85.6316 89.6409L82.0646 86.0796Z" fill="#212237"/>
<path d="M81.9918 85.8893C82.556 87.3745 83.8603 88.2557 84.9037 87.8577C85.9471 87.4597 86.3363 85.9335 85.7721 84.4491C85.2079 82.9646 83.9036 82.0827 82.8552 82.4807C81.8068 82.8787 81.4267 84.4048 81.9918 85.8893Z" fill="#F5927E"/>
<path d="M81.9924 85.8889C81.7598 85.2956 81.6876 84.6515 81.7832 84.0214C82.8808 83.8404 84.1376 84.7841 84.7101 86.291C84.8965 86.7744 84.9942 87.2874 84.9985 87.8055C84.966 87.8205 84.9385 87.8447 84.9043 87.8573C83.8609 88.2553 82.5566 87.3741 81.9924 85.8889Z" fill="#FABA97"/>
<path d="M68.2925 79.3902C68.5966 78.7811 69.0057 78.2306 69.5009 77.7639C69.7424 77.5325 70.0009 77.3197 70.2743 77.1272C70.8359 76.7364 71.4624 76.4485 72.1245 76.277C72.5179 76.1735 72.9062 76.1101 73.3046 76.0383C74.033 75.909 74.7697 75.7596 75.409 75.3708C75.9365 75.047 76.3932 74.5647 76.5582 73.9523C76.5696 73.9138 76.5777 73.8745 76.5824 73.8346C76.5842 73.7925 76.5823 73.7504 76.5766 73.7086C76.5741 73.6782 76.5622 73.6494 76.5424 73.6262C76.5227 73.603 76.4961 73.5865 76.4666 73.5793C76.4365 73.5733 76.4053 73.5772 76.3777 73.5904C76.35 73.6037 76.3274 73.6255 76.3132 73.6527C76.2999 73.6844 76.2849 73.7153 76.2724 73.747C76.2562 73.7936 76.2434 73.8413 76.234 73.8897C76.2249 73.9239 76.2149 73.9573 76.204 73.9907C76.204 73.999 76.1982 74.0073 76.1957 74.0157C76.2074 73.9848 76.1957 74.0099 76.1957 74.0157L76.174 74.0708C76.1463 74.1371 76.1151 74.202 76.0807 74.2652C76.0632 74.2952 76.0457 74.3261 76.0274 74.3553L75.999 74.3995C75.999 74.4054 75.9807 74.4246 75.999 74.3995C75.9923 74.4087 75.9865 74.4179 75.9798 74.4262C75.8931 74.5465 75.7952 74.6583 75.6873 74.76C75.6615 74.785 75.6348 74.8092 75.604 74.8334C75.629 74.8101 75.5898 74.8451 75.5831 74.8501L75.5365 74.8893C75.4773 74.9369 75.4173 74.9819 75.3556 75.0245C75.2306 75.1102 75.1003 75.188 74.9656 75.2573L74.9156 75.2815L74.8914 75.2932C74.8536 75.311 74.8161 75.3277 74.7789 75.3433C74.7097 75.3733 74.6406 75.4 74.5697 75.4267C74.1845 75.5565 73.79 75.6567 73.3896 75.7263C72.9979 75.8014 72.5854 75.8698 72.1895 75.9674C71.8429 76.0514 71.5047 76.1673 71.1794 76.3137C70.5501 76.6018 69.9737 76.9939 69.4743 77.4735C68.9879 77.9469 68.5904 78.504 68.3008 79.1182C68.2642 79.1941 68.23 79.2709 68.1967 79.3485C68.1725 79.4069 68.2575 79.4519 68.2867 79.3935L68.2925 79.3902Z" fill="#77463D"/>
<path d="M72.5075 78.2593C72.8145 77.9281 73.1824 77.6592 73.591 77.4674C73.7801 77.3732 73.9977 77.2805 74.2043 77.1971C74.411 77.1136 74.6411 77.0302 74.8594 76.9468C75.3038 76.7857 75.7322 76.5832 76.1387 76.3418C76.5456 76.0887 76.8975 75.7565 77.1738 75.3647C77.4527 74.9517 77.6855 74.5093 77.868 74.0455C77.8914 73.9896 77.9138 73.9337 77.9372 73.8786C77.9548 73.8435 77.9577 73.8029 77.9453 73.7657C77.933 73.7284 77.9064 73.6976 77.8713 73.68C77.8363 73.6624 77.7957 73.6595 77.7585 73.6718C77.7213 73.6842 77.6906 73.7109 77.673 73.7459C77.5022 74.2039 77.2887 74.6447 77.0354 75.0626L76.9896 75.1319L76.9779 75.1494C76.9904 75.1311 76.9779 75.1494 76.9779 75.1536L76.9496 75.1936C76.9154 75.2429 76.8796 75.2913 76.8429 75.3388C76.7693 75.4343 76.6906 75.5256 76.6071 75.6125C76.5662 75.6559 76.5237 75.696 76.4787 75.7394C76.4579 75.7585 76.437 75.7777 76.4154 75.7961C76.4329 75.7811 76.4095 75.8019 76.4037 75.8069L76.3687 75.8362C76.2795 75.9096 76.1862 75.978 76.0912 76.0431C75.9014 76.1695 75.7031 76.2827 75.4978 76.3819C75.4911 76.3819 75.4628 76.3994 75.4836 76.3894L75.4411 76.4094L75.3628 76.4461L75.2053 76.5179C75.0994 76.5663 74.9928 76.613 74.8861 76.6581C74.4535 76.8433 74.0143 77.0144 73.5943 77.228C73.1836 77.4258 72.8103 77.6935 72.4909 78.019C72.4514 78.0607 72.4139 78.1033 72.3784 78.1467C72.3634 78.1645 72.356 78.1874 72.3577 78.2106C72.3593 78.2338 72.37 78.2555 72.3874 78.2709C72.4048 78.2864 72.4275 78.2944 72.4507 78.2933C72.4739 78.2922 72.4958 78.2821 72.5117 78.2651L72.5075 78.2593Z" fill="#77463D"/>
<path d="M80.9227 83.7428C80.6194 83.1429 80.3177 82.5379 80.1126 81.8962C80.0111 81.5877 79.9402 81.2699 79.901 80.9475C79.8831 80.7812 79.8745 80.6141 79.8751 80.4468C79.8751 80.3634 79.8751 80.28 79.8835 80.2015V80.1723C79.8835 80.179 79.8835 80.1965 79.8835 80.1665C79.8835 80.1498 79.8835 80.1323 79.8876 80.1147C79.8876 80.0755 79.8968 80.0363 79.9018 79.9979C79.9458 79.6929 80.0178 79.3927 80.1168 79.1009C80.1285 79.0634 80.1418 79.0258 80.1543 78.9883L80.1643 78.9599L80.1868 78.8973C80.2135 78.8247 80.241 78.7521 80.2702 78.6804C80.3257 78.5346 80.3854 78.3892 80.4493 78.244C80.6994 77.6599 80.9635 77.0758 81.1252 76.4592C81.2869 75.8425 81.3477 75.1817 81.1752 74.5592C81.1547 74.4858 81.1305 74.4132 81.1027 74.3414C81.0958 74.3203 81.0847 74.3007 81.0702 74.2838C81.0557 74.2669 81.038 74.2531 81.0182 74.243C80.9781 74.2228 80.9316 74.2193 80.889 74.2333C80.8463 74.2474 80.811 74.2778 80.7907 74.318C80.7705 74.3581 80.767 74.4047 80.781 74.4474C80.8095 74.5212 80.8343 74.5964 80.8552 74.6727C80.8652 74.7077 80.8744 74.7436 80.8827 74.7795C80.8869 74.7962 80.8902 74.8129 80.8935 74.8295C80.8969 74.8462 80.8935 74.8487 80.8994 74.8579C80.9069 74.8904 80.8994 74.8429 80.8994 74.8637C80.925 75.0155 80.9395 75.1688 80.9427 75.3227C80.9427 75.3994 80.9427 75.4754 80.9377 75.5521C80.9377 75.5713 80.9377 75.5914 80.9377 75.6106C80.9377 75.6156 80.9377 75.6464 80.9377 75.6264C80.9377 75.6064 80.9377 75.6322 80.9377 75.6339C80.9377 75.6765 80.9294 75.7174 80.9244 75.7607C80.9049 75.9176 80.8771 76.0733 80.841 76.2272C80.8069 76.3807 80.7652 76.5318 80.7185 76.6819C80.6944 76.7595 80.6685 76.8363 80.6419 76.9131L80.6319 76.9415C80.6235 76.9631 80.6185 76.9798 80.611 76.999C80.5977 77.0366 80.5835 77.0741 80.5694 77.1125C80.4585 77.4071 80.3343 77.6966 80.2135 77.9861C79.971 78.5702 79.7334 79.1593 79.6301 79.7827C79.5743 80.1095 79.5625 80.4423 79.5951 80.7723C79.6321 81.1105 79.7048 81.4439 79.8118 81.7669C80.021 82.4136 80.3368 83.0185 80.6627 83.6151L80.7827 83.8338C80.795 83.8517 80.8139 83.8641 80.8352 83.8683C80.8565 83.8725 80.8787 83.8682 80.8969 83.8563C80.9149 83.8441 80.9275 83.8252 80.9318 83.8039C80.9362 83.7825 80.932 83.7603 80.9202 83.742L80.9227 83.7428Z" fill="#77463D"/>
<path d="M79.1536 79.5375C79.0702 78.9183 79.2969 78.3276 79.5428 77.7735C79.682 77.4769 79.8053 77.173 79.912 76.8632C80.0207 76.5401 80.0803 76.2026 80.0887 75.8619C80.0913 75.6753 80.0677 75.4894 80.0186 75.3095C79.979 75.1728 79.923 75.0414 79.852 74.9181C79.8173 74.8697 79.7727 74.8293 79.7211 74.7996C79.6995 74.7889 79.6751 74.785 79.6512 74.7882C79.6273 74.7915 79.6049 74.8019 79.5869 74.818C79.5693 74.8338 79.5565 74.8542 79.55 74.8769C79.5436 74.8997 79.5436 74.9238 79.5503 74.9465C79.5601 74.9928 79.5764 75.0374 79.5986 75.0792C79.6178 75.1125 79.6369 75.1459 79.6553 75.1801C79.6736 75.2143 79.6478 75.1626 79.6553 75.1868L79.6661 75.2118C79.6736 75.2285 79.6803 75.2452 79.687 75.2619C79.702 75.2995 79.7153 75.337 79.727 75.3762C79.7386 75.4154 79.7486 75.4496 79.757 75.4872C79.7611 75.5047 79.7645 75.5222 79.7678 75.5398C79.7678 75.5339 79.7678 75.5114 79.7678 75.5398L79.7728 75.574C79.785 75.653 79.7923 75.7327 79.7945 75.8126C79.7945 75.8919 79.7945 75.9712 79.7886 76.0496C79.7886 76.0538 79.7886 76.0771 79.7886 76.0546V76.083C79.7886 76.1022 79.7886 76.1214 79.7828 76.1397C79.7778 76.1823 79.7711 76.2232 79.7645 76.2674C79.7378 76.4316 79.7002 76.5938 79.652 76.753C79.6075 76.9032 79.5555 77.0511 79.4961 77.1961C79.4394 77.3388 79.3853 77.4823 79.3294 77.6258C79.2131 77.9173 79.116 78.2161 79.0386 78.5203C78.9516 78.8536 78.9348 79.2015 78.9894 79.5416C78.9911 79.5626 79.0006 79.5821 79.016 79.5964C79.0315 79.6106 79.0517 79.6185 79.0727 79.6184C79.0937 79.6167 79.1132 79.6072 79.1274 79.5917C79.1416 79.5763 79.1495 79.556 79.1494 79.535L79.1536 79.5375Z" fill="#77463D"/>
<path d="M82.7932 81.9767C82.7008 81.5828 82.6334 81.1834 82.5916 80.781C82.5735 80.5826 82.5704 80.3832 82.5824 80.1844C82.5824 80.1485 82.5882 80.1009 82.5916 80.0725C82.5966 80.0191 82.6024 79.9657 82.6107 79.9132C82.6256 79.8156 82.6459 79.7189 82.6716 79.6236C82.6849 79.5761 82.6991 79.5285 82.7149 79.4818C82.7249 79.4551 82.7149 79.4776 82.7149 79.4818C82.7191 79.4684 82.7241 79.4551 82.7291 79.4417C82.7399 79.415 82.7499 79.3883 82.7616 79.3583C82.8028 79.2614 82.849 79.1667 82.8999 79.0746C83.0016 78.8893 83.1183 78.7133 83.2283 78.5322C83.3403 78.3537 83.4422 78.169 83.5333 77.979C83.6242 77.784 83.7016 77.583 83.765 77.3774C83.9019 76.93 83.9691 76.4642 83.9642 75.9964C83.961 75.9544 83.9421 75.915 83.9111 75.8864C83.8802 75.8578 83.8396 75.8419 83.7975 75.842C83.7546 75.845 83.7145 75.8645 83.6857 75.8964C83.6568 75.9283 83.6413 75.9701 83.6425 76.0131C83.6425 76.1188 83.64 76.2248 83.635 76.331L83.63 76.4003C83.63 76.3669 83.63 76.4003 83.63 76.4069C83.63 76.4136 83.63 76.4295 83.63 76.4412C83.6242 76.4962 83.6183 76.5513 83.6108 76.608C83.5832 76.8095 83.5417 77.0089 83.4866 77.2046C83.4733 77.2539 83.4583 77.3023 83.4433 77.3507C83.4358 77.3732 83.4291 77.3949 83.4216 77.4166C83.4141 77.4383 83.4125 77.4433 83.4083 77.4566C83.3933 77.5 83.4191 77.4266 83.4033 77.47C83.3683 77.5651 83.3308 77.6602 83.2899 77.7529C83.203 77.9461 83.1039 78.1337 82.9933 78.3144C82.7724 78.6832 82.5416 79.0504 82.4207 79.4668C82.3154 79.8591 82.2918 80.269 82.3515 80.6708C82.4204 81.1288 82.5246 81.5807 82.6632 82.0226C82.6658 82.032 82.6702 82.0408 82.6762 82.0485C82.6823 82.0562 82.6899 82.0625 82.6984 82.0672C82.707 82.0718 82.7165 82.0746 82.7262 82.0755C82.7359 82.0763 82.7457 82.0752 82.755 82.0721C82.7643 82.069 82.7728 82.0641 82.7801 82.0576C82.7874 82.0511 82.7933 82.0432 82.7974 82.0343C82.8015 82.0255 82.8038 82.0159 82.8041 82.0061C82.8044 81.9963 82.8027 81.9866 82.7991 81.9775L82.7932 81.9767Z" fill="#77463D"/>
<path d="M82.2107 78.1698C82.4674 77.6139 82.6765 77.0372 82.8358 76.4459C82.8857 76.2821 82.923 76.1148 82.9475 75.9453C82.9532 75.9251 82.9548 75.9039 82.9521 75.883C82.9493 75.8622 82.9423 75.8421 82.9315 75.8241C82.9207 75.806 82.9063 75.7904 82.8892 75.7782C82.8722 75.7659 82.8527 75.7573 82.8322 75.7529C82.8117 75.7485 82.7904 75.7484 82.7698 75.7525C82.7492 75.7567 82.7297 75.765 82.7125 75.777C82.6952 75.789 82.6806 75.8044 82.6696 75.8223C82.6585 75.8402 82.6513 75.8602 82.6483 75.881C82.6058 76.0229 82.5816 76.1714 82.5491 76.3166C82.5166 76.4618 82.4799 76.6053 82.4416 76.7488C82.4032 76.8923 82.3582 77.04 82.3132 77.1836C82.2916 77.2536 82.2682 77.3229 82.2449 77.3922C82.2216 77.4614 82.2024 77.514 82.1757 77.5874C82.1174 77.7468 82.0549 77.9037 81.9899 78.0597C81.9825 78.0742 81.9781 78.09 81.9769 78.1063C81.9757 78.1225 81.9777 78.1388 81.9827 78.1542C81.9878 78.1697 81.9959 78.184 82.0065 78.1964C82.0171 78.2087 82.03 78.2188 82.0445 78.2262C82.059 78.2335 82.0748 78.2379 82.091 78.2391C82.1072 78.2404 82.1235 78.2384 82.1389 78.2333C82.1543 78.2282 82.1686 78.2202 82.181 78.2096C82.1933 78.199 82.2034 78.186 82.2107 78.1715V78.1698Z" fill="#77463D"/>
<path d="M73.3589 95.2248C73.4426 95.2835 73.5313 95.3349 73.6239 95.3783C73.9548 95.5233 74.3143 95.5911 74.6752 95.5766C75.0362 95.5622 75.3891 95.4658 75.7074 95.2949C75.9849 95.1432 76.2265 94.9335 76.4158 94.6799C76.7075 94.2794 76.8542 93.7996 76.7858 93.3524C76.7475 93.0962 76.59 92.8142 76.2975 92.8016C76.2298 92.8025 76.1627 92.8134 76.0983 92.8342C75.9828 92.8848 75.8713 92.9442 75.7649 93.0119C75.179 93.3676 74.5297 93.6062 73.8531 93.7145C73.6291 93.7393 73.4112 93.8037 73.2097 93.9047C73.0338 93.999 72.9147 94.1267 72.8855 94.3061C72.8255 94.6691 73.0572 95.0037 73.3589 95.2248Z" fill="#383939"/>
<path d="M73.209 93.9044C73.263 94.064 73.3724 94.199 73.5173 94.2849C73.684 94.3683 73.8707 94.3558 74.0491 94.3249C74.7 94.2282 75.3213 93.9873 75.8676 93.6198C75.9967 93.5364 76.1301 93.4271 76.1759 93.2786C76.2217 93.13 76.1692 92.9773 76.0926 92.8372C75.9771 92.8878 75.8656 92.9472 75.7592 93.0149C75.1733 93.3706 74.524 93.6092 73.8474 93.7175C73.6253 93.7418 73.4092 93.8051 73.209 93.9044Z" fill="white"/>
<path d="M73.626 95.3776C73.9569 95.5226 74.3164 95.5904 74.6773 95.5759C75.0383 95.5615 75.3912 95.4652 75.7095 95.2942C75.987 95.1426 76.2286 94.9328 76.4179 94.6792C76.0679 94.4606 75.597 94.4347 75.1778 94.5123C74.5764 94.6133 74.0283 94.9189 73.626 95.3776Z" fill="#F08372"/>
<path d="M86.14 121.774C86.14 121.774 65.5998 119.01 62.1787 118.696C58.7576 118.381 61.5386 117.706 58.7 117.674C55.8615 117.643 58.1475 121.211 58.1475 121.211L57.7308 123.157L69.6485 128.696C69.6485 128.696 79.8511 132.097 79.9978 132.169C80.1444 132.241 86.14 121.774 86.14 121.774Z" fill="#F7AA89"/>
<path d="M81.4947 96.241C81.4947 96.241 86.7626 94.1407 94.6625 98.3671C102.562 102.593 114.483 124.548 116.488 140.045C97.6119 150.964 84.0449 133.001 84.0449 133.001C84.0449 133.001 74.394 121.113 75.4866 109.017C74.8132 105.586 79.3286 96.9594 81.4947 96.241Z" fill="#FDC535"/>
<path d="M95.1016 154.247C95.1016 168.688 94.3707 201.169 98.2052 207.316C102.04 213.463 140.402 208.336 140.402 208.336C140.402 208.336 139.56 193.965 138.115 189.294C133.751 189.999 114.132 190.296 114.132 190.296C114.132 190.296 121.471 156.562 120.528 147.407C119.585 138.251 95.1016 154.247 95.1016 154.247Z" fill="#062E5C"/>
<path d="M86.468 125.123C86.468 125.123 78.959 146.223 76.9897 148.417C75.0203 150.61 51.0465 144.262 51.0465 144.262C51.0465 144.262 49.3622 145.819 44.9093 146.897C42.3733 149.714 40.5156 150.433 39.808 150.197C38.8638 151.137 38.3913 149.787 38.8638 149.023C37.2712 149.551 37.9629 148.439 38.6788 147.321C39.3947 146.203 38.5696 145.152 42.6983 142.038C46.827 138.925 50.3073 138.927 50.3073 138.927L70.1774 139.495L75.102 121.608C75.102 121.608 78.2498 124.37 86.468 125.123Z" fill="#FABA97"/>
<path d="M81.3553 104.548C84.7664 99.6632 94.549 97.5387 105.717 117.579C111.615 128.302 113.425 133.582 113.267 134.62C113.11 135.658 96.9867 138.477 85.504 127.754C84.6706 129.945 83.7588 132.584 83.7588 132.584L89.3577 143.173C89.3577 143.173 64.5746 140.747 58.7941 145.092C53.0136 149.438 55.1096 192.404 55.1096 192.404C55.1096 192.404 63.2495 192.58 75.0564 191.866C74.4664 181.652 74.1305 163.404 74.1305 163.404C74.1305 163.404 98.7993 169.508 111.891 162.582C124.982 155.655 121.22 139.011 114.958 128.418C99.9619 103.051 88.9451 92.5005 81.3553 104.548Z" fill="#062E5C"/>
<path d="M89.7741 143.356L89.7666 143.184C93.8603 143.012 99.405 144.055 99.4608 144.066L99.4283 144.233L89.7741 143.356Z" fill="#23799B"/>
<path d="M90.1602 143.001L90.1094 142.834C90.2452 142.793 93.4497 141.833 95.5999 142.333L95.5607 142.5C93.4547 142.016 90.1927 142.991 90.1602 143.001Z" fill="#23799B"/>
<path d="M85.3464 102.144C82.1028 101.181 73.4287 120.905 73.4287 120.905C73.4287 120.905 80.5668 125.349 86.4649 125.123C87.47 115.564 85.3464 102.144 85.3464 102.144Z" fill="#CC960D"/>
<path d="M40.058 149.794L39.9121 149.7C39.9955 149.566 42.0481 146.397 42.5248 146.002C43.0015 145.606 44.03 145.075 44.0742 145.052L44.1575 145.205C44.1467 145.211 43.0982 145.753 42.639 146.135C42.1798 146.516 40.0788 149.761 40.058 149.794Z" fill="#F5927E"/>
<path d="M39.1589 148.788L39.0039 148.712C39.0639 148.588 40.4915 145.696 40.9532 145.317C41.415 144.938 42.8843 143.982 42.9468 143.942L43.0418 144.086C43.0268 144.097 41.5066 145.088 41.0633 145.45C40.7174 145.734 39.6665 147.758 39.1589 148.788Z" fill="#F5927E"/>
<path d="M39.3364 146.672L39.1797 146.6C39.2055 146.545 39.8189 145.253 40.2156 144.799C40.6123 144.345 41.9433 143.397 41.9999 143.357L42.1008 143.497C42.0874 143.507 40.7282 144.475 40.3506 144.916C39.9731 145.357 39.343 146.66 39.3364 146.672Z" fill="#F5927E"/>
<path d="M113.329 193.138L113.166 193.078C113.573 191.979 114.044 190.284 114.049 190.267L114.215 190.313C114.213 190.33 113.738 192.032 113.329 193.138Z" fill="#3E3E3D"/>
<path d="M75.4908 109.013C75.2557 108.86 74.9907 101.095 81.6005 96.0129L84.1424 95.6984C84.1424 95.6984 77.1026 102.046 75.3574 111.208L75.4908 109.013Z" fill="#AA7A00"/>
<path d="M73.4326 120.906L74.8761 117.616C74.8761 117.616 82.5434 122.244 90.1841 122.004L88.9557 125.58C88.9557 125.58 78.5489 125.334 73.4326 120.906Z" fill="#AA7A00"/>
<path d="M88.9559 125.579L93.1079 113.184C93.1079 113.184 101.442 134.014 100.632 135.183C100.632 135.183 93.2438 134.598 85.5039 127.756L86.1581 125.312L88.9559 125.579Z" fill="#CC960D"/>
<path d="M74.8763 186.926L55.0195 187.286L55.1095 192.405C55.1095 192.405 72.8903 192.765 75.0563 191.867L74.8763 186.926Z" fill="#00224A"/>
<path d="M138.116 189.292C138.116 189.292 140.403 200.43 140.403 208.333L136.311 208.813L133.423 189.651L138.116 189.292Z" fill="#00224A"/>
<path d="M49.2579 103.73L47.0077 102.351L45.6543 104.511L47.872 106.239L49.2579 103.73Z" fill="#FCB116"/>
<path d="M51.7281 104.654C51.1831 104.196 48.9237 102.341 47.9778 103.97C47.6444 104.498 46.8635 105.579 46.971 105.963C47.0785 106.347 49.9813 108.602 49.9813 108.602L51.7281 104.654Z" fill="#F47E20"/>
<path d="M56.2734 115.021C56.2734 115.021 54.1899 122.151 53.5907 122.102C52.9915 122.054 51.3613 121.648 51.3613 121.648L50.3546 123.64L56.0376 126.999C57.1385 125.043 59.8854 119.544 61.5964 117.779C62.244 117.635 63.7549 118.931 64.33 117.851C64.905 116.771 66.8219 113.985 66.1985 113.217C64.7075 112.198 53.2865 103.267 51.2805 104.388L49.3153 107.774C48.4227 109.925 55.8792 114.605 56.2734 115.021Z" fill="#FEC40E"/>
<path d="M45.1444 101.631C45.1444 101.631 44.6444 101.199 44.2094 101.297C41.2324 99.338 38.608 96.8456 39.0522 98.2099C39.1956 98.4502 43.7543 101.698 43.7543 101.698C43.666 102.011 44.5802 102.853 44.6894 102.849L45.1444 101.631Z" fill="#F47E20"/>
<path d="M47.623 102.098C47.8872 102.469 48.1389 102.682 47.7788 103.106C47.4188 103.53 46.7129 105.134 46.2937 105.183C45.8745 105.231 45.7103 105.087 45.4061 104.859C45.1019 104.631 44.0152 103.899 43.8226 103.44C43.6301 102.982 44.6969 100.956 45.4519 100.991C46.207 101.027 47.623 102.098 47.623 102.098Z" fill="#F47E20"/>
<path d="M52.794 105.685C52.794 105.685 53.2374 105.337 53.6683 105.649C53.7083 106.035 67.3962 113.699 64.6759 114.01C64.2592 113.686 51.984 106.524 52.7932 105.685H52.794Z" fill="#F47E20"/>
<path d="M54.185 107.665C53.935 107.773 66.5328 115.045 63.9934 115.115C63.3817 115.115 54.0175 108.949 53.8975 108.613C53.7775 108.277 53.705 107.341 54.185 107.665Z" fill="#F47E20"/>
<path d="M57.2541 111.493C57.4824 111.6 63.2129 115.175 63.1896 115.68C63.1663 116.185 62.9263 116.532 62.5546 116.387C62.1829 116.243 56.9707 112.645 56.8949 112.321C56.819 111.998 56.7149 111.205 57.2541 111.493Z" fill="#F47E20"/>
<path d="M53.6568 117.83C53.6568 117.83 52.0083 120.103 52.74 121.26C53.4718 122.416 55.3561 124.425 57.4138 124.057C59.4714 123.688 57.6638 122.492 57.6638 122.492C57.6638 122.492 59.0964 122.123 58.7539 120.907C58.7539 120.907 60.0582 120.474 59.3614 119.253C59.3614 119.253 60.2315 118.335 59.3214 117.76C56.9996 116.287 57.1204 114.844 55.9736 115.08C54.8269 115.316 53.6568 117.83 53.6568 117.83Z" fill="#F7AA89"/>
<path d="M52.6508 119.605C52.6268 119.574 52.6154 119.536 52.6187 119.497C52.6221 119.459 52.64 119.423 52.6688 119.397C52.6976 119.372 52.7352 119.358 52.7738 119.359C52.8124 119.36 52.8492 119.376 52.8766 119.403C52.895 119.422 54.7101 121.349 55.7452 121.823C56.3525 122.107 57.005 122.282 57.6729 122.339C57.6936 122.338 57.7143 122.342 57.7335 122.35C57.7528 122.358 57.7703 122.369 57.7849 122.384C57.7995 122.399 57.811 122.416 57.8185 122.436C57.8261 122.455 57.8296 122.476 57.8289 122.496C57.8281 122.517 57.8232 122.537 57.8142 122.556C57.8053 122.575 57.7926 122.592 57.777 122.605C57.7614 122.619 57.7431 122.629 57.7233 122.636C57.7035 122.642 57.6827 122.644 57.662 122.642C56.9536 122.586 56.2612 122.402 55.6185 122.098C54.5276 121.597 52.7316 119.687 52.6558 119.606L52.6508 119.605Z" fill="#F5927E"/>
<path d="M53.5408 117.928C53.5158 117.897 53.5039 117.858 53.5075 117.818C53.5111 117.779 53.53 117.742 53.5602 117.716C53.5903 117.691 53.6293 117.678 53.6688 117.68C53.7084 117.683 53.7453 117.701 53.7717 117.731C53.7867 117.748 55.2935 119.505 56.2294 120.078C57.1653 120.651 58.7521 120.751 58.7679 120.753C58.7884 120.754 58.8085 120.758 58.827 120.767C58.8456 120.775 58.8623 120.787 58.8761 120.802C58.8899 120.817 58.9005 120.835 58.9073 120.854C58.9141 120.874 58.9169 120.894 58.9156 120.914C58.9143 120.935 58.9089 120.955 58.8997 120.973C58.8906 120.991 58.8778 121.008 58.8623 121.021C58.8467 121.034 58.8286 121.044 58.8091 121.05C58.7896 121.056 58.7691 121.058 58.7488 121.056C58.6804 121.052 57.0595 120.942 56.071 120.337C55.0826 119.731 53.6042 118 53.5417 117.929L53.5408 117.928Z" fill="#F5927E"/>
<path d="M55.1627 117.095C54.9299 116.825 54.7176 116.538 54.5276 116.236C54.5069 116.201 54.5006 116.16 54.5103 116.121C54.52 116.082 54.5448 116.048 54.5793 116.027C54.6138 116.006 54.6551 116 54.6942 116.01C54.7333 116.019 54.7669 116.044 54.7877 116.079C54.8052 116.108 56.5778 118.994 59.3714 119.099C59.4116 119.1 59.4496 119.117 59.4771 119.147C59.5045 119.176 59.5191 119.216 59.5177 119.256C59.5162 119.296 59.4989 119.334 59.4694 119.362C59.44 119.389 59.4008 119.404 59.3606 119.402C57.3929 119.328 55.9386 118.008 55.1627 117.095Z" fill="#F5927E"/>
<path d="M212.113 45.8064L212.966 58.1149C212.966 58.1149 209.948 63.0897 206.099 63.0897C204.108 63.0897 200.7 59.6177 200.7 59.6177L200.169 50.3248L212.113 45.8064Z" fill="#FABA97"/>
<path d="M200.169 47.2237L211.782 46.8557C211.782 46.8557 209.956 56.7302 200.369 54.8378L200.169 47.2237Z" fill="#F5927E"/>
<path d="M196.507 46.2759C196.743 48.5213 197.476 50.5698 198.924 51.909C203.191 55.8508 211.55 51.9749 212.82 44.577C214.153 36.8035 205.841 26.3199 199.146 34.7025C197.943 36.2086 196.874 39.2534 196.532 42.4626C196.39 43.7293 196.382 45.0074 196.507 46.2759Z" fill="#FABA97"/>
<path d="M200.774 45.9373C200.721 45.9372 200.669 45.9166 200.631 45.8798C200.265 45.5276 199.082 44.3328 199.231 43.7562C199.375 43.1988 200.62 43.1562 201.292 43.1721C201.771 41.802 201.656 39.5357 201.654 39.5115C201.653 39.4841 201.657 39.4567 201.666 39.4308C201.675 39.405 201.689 39.3812 201.707 39.3608C201.726 39.3404 201.748 39.3239 201.773 39.3121C201.797 39.3003 201.824 39.2935 201.852 39.292C201.879 39.2906 201.906 39.2946 201.932 39.3038C201.958 39.3129 201.982 39.3271 202.002 39.3455C202.022 39.3638 202.039 39.386 202.051 39.4108C202.063 39.4355 202.069 39.4624 202.071 39.4898C202.077 39.5924 202.201 42.0256 201.629 43.4616C201.613 43.5017 201.585 43.5358 201.549 43.5592C201.513 43.5825 201.47 43.5939 201.427 43.5918C200.484 43.5501 199.677 43.7028 199.635 43.8571C199.582 44.0632 200.183 44.8676 200.922 45.5785C200.951 45.6072 200.972 45.6441 200.981 45.6846C200.989 45.7251 200.986 45.7672 200.97 45.8056C200.955 45.844 200.928 45.8768 200.894 45.8998C200.859 45.9229 200.819 45.9351 200.777 45.9348L200.774 45.9373Z" fill="#DE7360"/>
<path d="M204.142 41.7438C204.059 42.1067 204.241 42.4597 204.551 42.5306C204.86 42.6015 205.179 42.3637 205.262 42.0033C205.346 41.6428 205.163 41.2873 204.854 41.2156C204.545 41.1438 204.226 41.3808 204.142 41.7438Z" fill="#0F1231"/>
<path d="M198.387 41.282C198.304 41.6449 198.487 41.9971 198.796 42.0688C199.105 42.1406 199.424 41.9019 199.507 41.5406C199.591 41.1793 199.408 40.8255 199.099 40.7538C198.79 40.682 198.471 40.919 198.387 41.282Z" fill="#0F1231"/>
<path d="M203.887 44.5158C203.795 45.5846 204.785 46.5426 206.099 46.6552C207.412 46.7679 208.551 45.9935 208.643 44.9246C208.735 43.8557 207.745 42.8978 206.431 42.7843C205.118 42.6709 203.977 43.4469 203.887 44.5158Z" fill="#F5927E"/>
<path d="M196.507 46.1629C197.544 46.0327 198.36 45.3418 198.438 44.4448C198.521 43.4619 197.687 42.5724 196.534 42.3479C196.392 43.6151 196.382 44.8937 196.507 46.1629Z" fill="#F5927E"/>
<path d="M207.041 40.074C207.004 40.0739 206.967 40.0636 206.935 40.0442C206.903 40.0248 206.876 39.9971 206.859 39.9639C205.886 38.134 204.02 39.046 203.942 39.0827C203.918 39.095 203.891 39.1024 203.864 39.1044C203.837 39.1065 203.81 39.1032 203.784 39.0947C203.758 39.0862 203.734 39.0727 203.714 39.055C203.693 39.0373 203.676 39.0157 203.664 38.9914C203.652 38.9671 203.644 38.9407 203.642 38.9135C203.64 38.8864 203.643 38.8592 203.652 38.8333C203.66 38.8075 203.674 38.7836 203.692 38.7629C203.709 38.7423 203.731 38.7254 203.755 38.7131C203.778 38.7014 206.06 37.5783 207.225 39.7686C207.25 39.8171 207.256 39.8737 207.241 39.9264C207.225 39.979 207.189 40.0234 207.141 40.0498C207.11 40.066 207.076 40.0743 207.041 40.074Z" fill="#59261B"/>
<path d="M197.464 39.4919C197.426 39.4919 197.389 39.4812 197.356 39.4613C197.324 39.4413 197.297 39.4127 197.28 39.3787C197.263 39.3446 197.255 39.3065 197.258 39.2685C197.262 39.2305 197.275 39.194 197.297 39.1632C198.755 37.1556 200.859 38.5866 200.881 38.6008C200.923 38.6336 200.95 38.681 200.958 38.7334C200.966 38.7858 200.953 38.8391 200.923 38.8826C200.893 38.9261 200.847 38.9563 200.795 38.9672C200.743 38.9781 200.69 38.9688 200.644 38.9412C200.57 38.8903 198.85 37.7313 197.633 39.4068C197.614 39.4335 197.588 39.4552 197.559 39.47C197.53 39.4848 197.497 39.4923 197.464 39.4919Z" fill="#59261B"/>
<path d="M214.397 43.1067C217.064 40.2613 216.436 35.3574 214.526 32.2242C213.367 30.3456 211.656 28.8716 209.628 28.0037C208.598 27.551 207.496 27.2843 206.373 27.216C205.424 27.1701 204.327 27.5498 203.387 27.478C201.892 27.6357 200.563 27.9078 199.541 28.2507C197.217 29.0317 194.33 31.4348 194.601 34.1617C194.737 35.5235 195.694 36.7484 197.007 37.0605C199.555 37.6696 202.374 36.7484 204.477 35.3216C204.149 35.7067 203.913 36.1612 203.787 36.6508C203.755 36.771 203.733 36.9078 203.8 37.0121C203.898 37.1681 204.123 37.1631 204.305 37.1356C205.81 36.908 207.253 36.3784 208.549 35.5786C207.626 36.6892 208.282 38.6993 208.905 39.7882C209.676 41.1366 209.712 42.4333 210.439 43.483L214.397 43.1067Z" fill="#212237"/>
<path d="M199.921 28.3501C198.912 28.4762 197.931 28.7709 197.019 29.2221C196.548 29.4543 196.105 29.7375 195.697 30.0665C195.298 30.3864 194.945 30.7598 194.648 31.1763C194.354 31.5916 194.134 32.0553 193.998 32.5464C193.853 33.0621 193.825 33.6037 193.915 34.1318C194.007 34.6275 194.203 35.0978 194.492 35.5111C194.78 35.9298 195.153 36.2834 195.586 36.5491C196.013 36.8103 196.497 36.9654 196.996 37.0014C197.38 37.0316 197.767 36.976 198.127 36.8386L198.21 36.8078L198.294 36.7727L198.314 36.7644L198.29 36.7736C198.308 36.7671 198.326 36.7595 198.343 36.751C198.402 36.7218 198.46 36.6893 198.515 36.6551C198.571 36.6209 198.625 36.5883 198.677 36.5524L198.696 36.5391L198.73 36.5149L198.762 36.4899L198.78 36.4757L198.814 36.4456L198.831 36.4306C198.831 36.4306 198.861 36.4064 198.841 36.4189C198.869 36.4024 198.889 36.3756 198.897 36.3444C198.905 36.3132 198.901 36.28 198.885 36.252C198.877 36.2382 198.866 36.2261 198.853 36.2165C198.84 36.2068 198.826 36.1998 198.81 36.1959C198.795 36.1919 198.778 36.1911 198.763 36.1934C198.747 36.1958 198.732 36.2012 198.718 36.2095C198.74 36.1945 198.697 36.2187 198.696 36.2187L198.67 36.2312L198.62 36.252C198.645 36.242 198.625 36.252 198.62 36.252L198.576 36.2712L198.555 36.2813L198.525 36.2963L198.435 36.3363C198.43 36.3363 198.408 36.3488 198.429 36.3363C198.45 36.3238 198.419 36.3405 198.416 36.3413L198.365 36.3614C198.249 36.4072 198.129 36.449 198.009 36.4848C197.889 36.5209 197.767 36.5488 197.643 36.5683L197.559 36.5816L197.514 36.5883C197.489 36.5883 197.56 36.5825 197.536 36.5883H197.505C197.448 36.595 197.389 36.6 197.33 36.6033C197.213 36.6095 197.096 36.6081 196.979 36.5992C196.95 36.5992 196.923 36.5992 196.895 36.5917C196.881 36.5908 196.866 36.5891 196.852 36.5867H196.832H196.85C196.792 36.5783 196.734 36.5683 196.676 36.5566C196.563 36.5332 196.452 36.5031 196.343 36.4665C196.289 36.449 196.235 36.4289 196.182 36.4081L196.141 36.3922C196.127 36.3864 196.077 36.3639 196.141 36.3922L196.058 36.3564C195.846 36.2585 195.645 36.1382 195.459 35.9975L195.443 35.985C195.419 35.9675 195.457 35.9959 195.458 35.9967C195.446 35.9867 195.434 35.9784 195.423 35.9692L195.35 35.9091C195.305 35.8716 195.262 35.8323 195.22 35.7931C195.132 35.7125 195.049 35.6272 194.97 35.5378C194.931 35.4927 194.893 35.446 194.855 35.3984L194.843 35.3826C194.843 35.3826 194.871 35.4193 194.853 35.3951C194.845 35.3851 194.837 35.3742 194.829 35.3634L194.773 35.2858C194.704 35.1878 194.641 35.0864 194.583 34.9821C194.524 34.8769 194.473 34.7685 194.424 34.6591C194.415 34.6383 194.438 34.6934 194.43 34.6725L194.42 34.6491L194.405 34.6107C194.393 34.5824 194.383 34.554 194.373 34.5273C194.352 34.4697 194.332 34.4113 194.314 34.3529C194.28 34.236 194.252 34.1173 194.231 33.9974L194.216 33.914C194.216 33.9007 194.216 33.8865 194.21 33.8731C194.206 33.8439 194.21 33.8831 194.21 33.8865C194.21 33.8756 194.21 33.8656 194.206 33.8556C194.199 33.7933 194.193 33.7307 194.188 33.6679C194.181 33.5445 194.181 33.4208 194.188 33.2974C194.188 33.2323 194.197 33.168 194.204 33.1038L194.209 33.0604C194.214 33.0245 194.209 33.0896 194.209 33.0654V33.0437C194.214 33.0103 194.22 32.9761 194.225 32.9427C194.268 32.697 194.333 32.4557 194.419 32.2218C194.428 32.1959 194.438 32.1701 194.448 32.1442L194.466 32.1016C194.466 32.0933 194.472 32.085 194.475 32.0774C194.478 32.0699 194.489 32.0449 194.48 32.0666C194.471 32.0883 194.489 32.0441 194.493 32.0374L194.509 31.9998C194.522 31.9715 194.535 31.9431 194.548 31.9164C194.601 31.8046 194.659 31.6953 194.722 31.5885C194.784 31.4817 194.847 31.384 194.915 31.2856C194.951 31.2347 194.987 31.1846 195.024 31.1354L195.049 31.1028L195.062 31.0862L195.123 31.0094C195.28 30.8189 195.449 30.6391 195.63 30.4712C195.72 30.3872 195.813 30.3063 195.908 30.2284C195.957 30.1875 196.006 30.1449 196.056 30.1091C196.035 30.1257 196.065 30.1024 196.072 30.0974L196.11 30.0682L196.188 30.0106C196.392 29.8612 196.604 29.7227 196.823 29.5934C197.041 29.464 197.266 29.3431 197.496 29.2354L197.663 29.157L197.751 29.1186L197.79 29.1011L197.824 29.0869C197.941 29.0377 198.06 28.9909 198.178 28.9475C198.638 28.7757 199.112 28.642 199.595 28.5479C199.706 28.5262 199.818 28.5061 199.928 28.4894C200.006 28.4778 199.988 28.3418 199.91 28.3518L199.921 28.3501Z" fill="#212237"/>
<path d="M211.263 29.3765C211.74 29.5247 212.195 29.7366 212.615 30.0065C212.726 30.0749 212.833 30.1472 212.935 30.2234C212.986 30.2602 213.037 30.2985 213.087 30.3369C213.107 30.3519 213.07 30.3236 213.087 30.3369C213.093 30.3409 213.099 30.3454 213.104 30.3503L213.139 30.377L213.222 30.4421C213.422 30.6064 213.613 30.7816 213.795 30.9669C213.98 31.1555 214.156 31.3521 214.323 31.5568C214.366 31.6077 214.406 31.6595 214.447 31.7112L214.461 31.7287L214.488 31.7654L214.552 31.8489C214.636 31.9557 214.707 32.065 214.781 32.176C215.087 32.634 215.351 33.1179 215.572 33.622L215.61 33.7055L215.625 33.7397C215.616 33.7197 215.636 33.7664 215.64 33.7747C215.666 33.8381 215.691 33.9016 215.716 33.9658C215.768 34.096 215.816 34.2275 215.861 34.3605C215.952 34.6242 216.032 34.8912 216.1 35.1615C216.169 35.4344 216.227 35.7106 216.273 35.9884C216.285 36.056 216.296 36.1245 216.306 36.1929C216.311 36.2237 216.315 36.2555 216.319 36.2872C216.323 36.3189 216.315 36.2488 216.319 36.3013C216.319 36.3197 216.323 36.3381 216.326 36.3564C216.343 36.4949 216.357 36.6351 216.368 36.7736C216.413 37.3231 216.408 37.8756 216.352 38.4241C216.346 38.4909 216.337 38.5585 216.329 38.6252C216.321 38.692 216.329 38.5943 216.329 38.6352C216.329 38.6511 216.325 38.6661 216.322 38.6819C216.317 38.7178 216.312 38.7537 216.307 38.7896C216.286 38.9223 216.262 39.0541 216.234 39.1859C216.178 39.4527 216.108 39.7162 216.023 39.9753C215.982 40.101 215.937 40.2262 215.889 40.3508L215.851 40.4434L215.834 40.486C215.814 40.5352 215.846 40.4593 215.834 40.4943C215.806 40.5577 215.779 40.6211 215.751 40.6837C215.638 40.9275 215.51 41.1641 215.367 41.3921C215.295 41.5073 215.219 41.6205 215.139 41.7317C215.1 41.786 215.06 41.8402 215.02 41.8936C215 41.9212 214.98 41.9479 214.959 41.9771C214.938 42.0104 214.938 42.0063 214.959 41.9771C214.949 41.9921 214.937 42.0066 214.926 42.0205C214.754 42.2374 214.566 42.4427 214.378 42.6446C214.331 42.6955 214.281 42.7447 214.233 42.7948C214.211 42.8182 214.189 42.8424 214.168 42.8674C214.156 42.8816 214.143 42.8958 214.131 42.9108C214.12 42.9258 214.121 42.9225 214.116 42.9291C214.111 42.9358 214.074 42.9709 214.094 42.9533C214.065 42.9825 214.05 43.0215 214.05 43.0622C214.05 43.1029 214.065 43.142 214.094 43.1711C214.123 43.1991 214.162 43.2147 214.203 43.2147C214.243 43.2147 214.282 43.1991 214.311 43.1711L214.324 43.1603L214.256 43.2003C214.408 43.1486 214.539 43.0276 214.661 42.9291C214.772 42.8416 214.877 42.7474 214.976 42.6471C215.181 42.4376 215.37 42.2127 215.541 41.9746C215.864 41.5134 216.13 41.0136 216.33 40.4868C216.526 39.9752 216.666 39.4435 216.747 38.9014C216.831 38.3335 216.862 37.7587 216.837 37.185C216.812 36.6047 216.736 36.0278 216.609 35.4611C216.486 34.9066 216.316 34.3634 216.102 33.8373C215.888 33.3086 215.629 32.7991 215.329 32.3145C215.035 31.8411 214.697 31.3966 214.319 30.9869C213.951 30.5934 213.54 30.2429 213.094 29.9422C212.66 29.649 212.19 29.4129 211.695 29.2397C211.578 29.1988 211.458 29.1621 211.338 29.1287C211.306 29.1206 211.273 29.1251 211.245 29.1414C211.217 29.1577 211.196 29.1843 211.187 29.2157C211.178 29.2471 211.182 29.2806 211.198 29.3091C211.214 29.3376 211.24 29.3588 211.271 29.3682L211.263 29.3765Z" fill="#212237"/>
<path d="M210.888 41.2118C211.367 39.1809 213.447 39.558 214.001 39.9836C214.401 40.2906 214.558 40.8222 214.605 41.3245C214.66 41.9565 214.579 42.5929 214.368 43.191C214.156 43.7891 213.82 44.3351 213.381 44.7923C213.066 45.1169 212.69 45.3973 212.254 45.5166C211.03 45.8504 210.244 44.9108 210.241 43.8528L210.888 41.2118Z" fill="#FABA97"/>
<path d="M211.506 44.8552C211.318 44.8541 211.132 44.8075 210.965 44.7192C210.939 44.7076 210.916 44.6909 210.897 44.6701C210.878 44.6493 210.864 44.6248 210.854 44.5982C210.845 44.5716 210.841 44.5433 210.843 44.5152C210.845 44.4871 210.853 44.4597 210.866 44.4346C210.879 44.4096 210.897 44.3874 210.918 44.3695C210.94 44.3516 210.965 44.3383 210.992 44.3304C211.019 44.3225 211.048 44.3202 211.076 44.3237C211.104 44.3271 211.13 44.3362 211.155 44.3504C211.26 44.4088 211.378 44.4401 211.498 44.4416C211.618 44.443 211.737 44.4146 211.843 44.3587C212.452 44.0633 212.947 43.0495 213.103 42.246C213.172 41.8889 213.137 41.6093 212.997 41.4116C212.881 41.2617 212.714 41.161 212.527 41.1295C212.473 41.1222 212.424 41.094 212.39 41.0507C212.357 41.0075 212.341 40.9528 212.347 40.8984C212.35 40.8715 212.359 40.8455 212.372 40.8218C212.385 40.7981 212.403 40.7773 212.424 40.7605C212.445 40.7437 212.47 40.7312 212.496 40.7238C212.522 40.7164 212.549 40.7142 212.576 40.7173C212.874 40.7637 213.142 40.9233 213.326 41.1629C213.539 41.455 213.601 41.8446 213.508 42.3219C213.333 43.2189 212.794 44.3546 212.022 44.7292C211.862 44.81 211.686 44.8531 211.506 44.8552Z" fill="#DE7360"/>
<path d="M199.238 48.5954C199.307 48.6935 199.384 48.7856 199.468 48.8707C200.032 49.4373 200.947 49.7427 201.794 49.6142C202.161 49.5586 202.512 49.4245 202.822 49.2212C203.304 48.8966 203.655 48.426 203.761 47.9061C203.821 47.6074 203.761 47.2336 203.444 47.1026C203.369 47.0765 203.291 47.0618 203.211 47.0592C203.063 47.0679 202.917 47.0885 202.772 47.121C201.984 47.2778 201.172 47.2804 200.383 47.1285C200.128 47.0657 199.864 47.0481 199.603 47.0767C199.372 47.1109 199.186 47.2036 199.086 47.3896C198.873 47.7668 198.993 48.2291 199.238 48.5954Z" fill="#383939"/>
<path d="M199.603 47.0753C199.613 47.2773 199.658 47.4792 199.791 47.6194C199.937 47.7779 200.152 47.8388 200.36 47.8772C201.117 48.0309 201.898 48.0147 202.648 47.8296C202.825 47.7846 203.015 47.722 203.125 47.5793C203.236 47.4366 203.238 47.2455 203.209 47.0603C203.061 47.069 202.914 47.0896 202.769 47.1221C201.981 47.2789 201.17 47.2815 200.38 47.1296C200.126 47.0662 199.863 47.0479 199.603 47.0753Z" fill="white"/>
<path d="M199.47 48.8692C200.033 49.4358 200.948 49.7412 201.796 49.6127C202.162 49.557 202.513 49.423 202.823 49.2197C202.525 48.8375 202.016 48.6206 201.521 48.5404C200.821 48.422 200.074 48.5188 199.47 48.8692Z" fill="#F08372"/>
<path d="M192.765 189.525L193.656 197.495L195.146 201.513L201.82 199.296L201.71 191.322L192.765 189.525Z" fill="#FABA97"/>
<path d="M135.437 35.9664C135.437 35.9664 137.038 37.5894 137.062 38.2119C137.087 38.8343 133.819 41.7615 133.101 41.3034C132.384 40.8453 134.048 36.7708 135.437 35.9664Z" fill="#F7971D"/>
<path d="M137.429 38.5247C137.429 38.5247 138.972 39.7179 138.977 40.1242C138.982 40.5306 136.241 43.7056 135.26 43.4895C134.28 43.2733 133.994 42.0275 134.161 41.4868C134.329 40.9461 137.429 38.5247 137.429 38.5247Z" fill="#F7971D"/>
<path d="M138.992 40.7335C138.992 40.7335 140.493 41.2208 140.388 41.5729C140.284 41.9251 137.183 45.2627 136.298 45.2352C135.413 45.2077 135.298 43.7758 135.557 43.775C135.816 43.7741 138.992 40.7335 138.992 40.7335Z" fill="#F7971D"/>
<path d="M179.616 56.9017C175.436 57.0944 167.804 56.4645 164.406 55.459C160.294 56.3635 159.922 63.6647 159.922 63.6647C159.922 63.6647 169.474 68.1705 177.869 67.3094C180.461 60.3754 179.616 56.9017 179.616 56.9017Z" fill="#FABA97"/>
<path d="M220.089 93.4423C220.615 97.2247 223.432 103.644 223.432 103.644C223.432 103.644 220.164 104.6 219.563 103.644C218.961 102.688 216.971 98.5931 216.971 98.5931C216.971 98.5931 219.338 95.6201 219.413 95.3522C219.488 95.0844 220.089 93.4423 220.089 93.4423Z" fill="#F08743"/>
<path d="M190.29 107.557L184.258 192.063C184.258 192.063 195.698 193.755 206.722 193.332C207.686 185.8 207.972 126.066 207.972 126.066L211.249 195.025C213.819 195.108 217.292 196.413 221.701 195.66C224.064 195.256 230.148 194.852 232.933 192.963C231.81 175.326 228.41 117.98 224.353 103.961C213.76 91.6951 213.29 99.466 213.29 99.466L190.29 107.557Z" fill="#062E5C"/>
<path d="M216.446 52.2417C216.446 52.2417 222.013 53.7804 226.04 61.659C230.068 69.5375 231.413 88.1284 230.356 91.9826C229.106 96.5302 207.426 106.447 207.426 106.447C207.426 106.447 204.048 103.152 204.148 100.708C207.916 98.179 220.606 90.6342 220.606 90.6342L218.366 76.1353L216.446 52.2417Z" fill="#FABA97"/>
<path d="M164.405 55.4586C164.405 55.4586 149.299 45.1202 147.239 44.0062C143.864 45.1285 144.555 49.4658 144.555 49.4658L159.921 63.6651L164.405 55.4586Z" fill="#FABA97"/>
<path d="M200.387 52.4017C200.387 52.4017 199.532 55.6243 202.843 56.4904C212.607 59.0587 212.538 51.9628 212.538 51.9628C212.538 51.9628 219.014 51.6482 223.361 55.5166C227.521 59.2181 228.873 59.6411 230.329 69.6892C231.151 75.3566 231.058 83.7292 231.058 83.7292C231.058 83.7292 227.236 86.1882 218.945 85.4706C219.118 88.2542 219.787 91.1855 219.787 91.1855L212.024 95.8908C212.024 95.8908 197.37 101.631 190.231 89.2363C189.191 80.2246 189.076 73.132 189.076 73.132L176.145 70.8557C176.145 70.8557 174.211 60.4255 178.944 56.8609C179.733 56.2926 193.199 53.5524 197.173 52.8557C199.332 52.5177 200.387 52.4017 200.387 52.4017Z" fill="#FDC535"/>
<path d="M220.58 53.2463C220.58 53.2463 214.158 57.9441 212.101 66.083C210.044 74.222 210.009 85.878 215.231 93.8049L206.909 99.2445C206.909 99.2445 197.742 123.39 190.42 109.25C187.15 65.4297 194.537 58.5174 197.17 52.8533C198.016 52.6965 199.329 52.5196 199.329 52.5196C196.439 57.3066 196.931 62.3782 196.867 67.1436L203.921 68.6314C203.921 68.6314 208.082 56.2219 217.639 52.2417C218.972 52.6005 220.58 53.2463 220.58 53.2463Z" fill="#062E5C"/>
<path d="M206.213 125.241L206.38 125.235L206.242 121.447L206.122 121.518C206.105 121.529 204.428 122.488 202.095 121.004L202.006 121.148C204.067 122.458 205.648 121.921 206.09 121.726L206.213 125.241Z" fill="#5030D4"/>
<path d="M224.36 84.6224C226.207 84.6224 228.252 84.1134 230.213 82.5722L230.111 82.437C224.449 86.8878 218.054 82.583 217.99 82.5388L217.896 82.6798C217.939 82.7099 220.779 84.6224 224.36 84.6224Z" fill="#3E3E3D"/>
<path d="M150.362 45.3013C150.362 45.3013 145.062 42.8031 144.111 41.9128C143.16 41.0224 140.521 37.9768 139.34 37.0439C138.186 36.1327 135.788 34.6542 135.688 34.6024L136.736 37.8016C136.736 37.8016 134.752 37.5571 133.973 37.7557C133.193 37.9543 133.778 38.8713 136.126 40.072C137.339 40.6912 137.253 40.944 137.253 40.944L142.003 47.5201L146.616 51.668C146.616 51.668 148.716 47.5793 150.362 45.3013Z" fill="#FCB116"/>
<path d="M140.61 39.2087C140.637 39.2089 140.665 39.2073 140.693 39.2037L140.67 39.0368C140.141 39.1127 137.989 38.2308 136.926 37.756L136.858 37.912C136.98 37.9654 139.779 39.2087 140.61 39.2087Z" fill="#F7971D"/>
<path d="M139.306 38.5616C139.472 38.1444 138.786 37.7272 138.706 37.6821L138.623 37.8298C138.79 37.9274 139.246 38.2595 139.151 38.4974L139.306 38.5616Z" fill="#F7971D"/>
<path d="M140.415 44.4696L140.54 44.3578C139.71 43.3695 138.938 42.3342 138.226 41.2571L138.087 41.3514C138.802 42.4348 139.579 43.4759 140.415 44.4696Z" fill="#F7971D"/>
<path d="M204.576 115.933C204.145 115.955 203.715 115.891 203.309 115.745C202.903 115.599 202.531 115.374 202.213 115.082L202.206 115.075L202.17 115.042C202.153 115.026 202.136 115.01 202.12 114.993C202.103 114.976 202.09 114.964 202.075 114.949L202.063 114.935L202.02 114.89C201.579 114.412 201.291 113.812 201.193 113.169C201.096 112.525 201.194 111.866 201.474 111.279C201.421 111.239 201.372 111.196 201.327 111.148L193.251 102.487L192.418 101.592L192.386 101.554C191.783 101.775 191.128 101.812 190.504 101.661C189.88 101.51 189.314 101.177 188.878 100.704C188.776 100.594 188.682 100.476 188.596 100.353C188.57 100.316 188.546 100.28 188.522 100.242C188.498 100.204 188.475 100.167 188.453 100.129C188.417 100.066 188.382 100.002 188.35 99.9366C188.337 99.9107 188.325 99.8848 188.313 99.8581L188.295 99.8189C188.243 99.7024 188.198 99.5829 188.161 99.461C188.157 99.4493 188.153 99.4368 188.15 99.4251C188.132 99.3658 188.116 99.3058 188.102 99.2457C188.102 99.2357 188.102 99.2257 188.095 99.2156C188.088 99.2056 188.089 99.1873 188.086 99.1731C188.076 99.1247 188.067 99.0763 188.058 99.0271C188.047 98.9545 188.037 98.881 188.03 98.8076C188.023 98.7342 188.02 98.685 188.018 98.6232C188.018 98.6107 188.018 98.599 188.018 98.5865C188.018 98.574 188.018 98.5615 188.018 98.5498C188.018 98.5131 188.018 98.4772 188.018 98.4413V98.4305V98.3654C188.018 98.3529 188.018 98.3403 188.018 98.3278C188.018 98.3153 188.018 98.3036 188.018 98.2911V98.2544C188.018 98.2427 188.018 98.2302 188.018 98.2177C188.018 98.2052 188.018 98.1693 188.024 98.1443C188.031 98.1192 188.03 98.0967 188.033 98.0725C188.032 98.0703 188.032 98.068 188.033 98.0658C188.046 97.9755 188.085 97.8909 188.145 97.8218C188.204 97.7528 188.283 97.7022 188.37 97.676C188.457 97.6497 188.55 97.6489 188.638 97.6736C188.726 97.6983 188.805 97.7475 188.866 97.8155L189.834 98.8643C189.96 99.0008 190.134 99.0817 190.32 99.0892C190.505 99.0967 190.686 99.0302 190.823 98.9044L191.698 98.095C191.834 97.9689 191.915 97.7938 191.922 97.6081C191.93 97.4224 191.864 97.2413 191.738 97.1046L190.769 96.0549C190.708 95.9878 190.666 95.9045 190.649 95.8147C190.633 95.7249 190.642 95.6322 190.677 95.5475C190.711 95.4628 190.768 95.3896 190.842 95.3364C190.917 95.2833 191.004 95.2523 191.095 95.2471C191.623 95.2198 192.149 95.3216 192.628 95.5437C193.108 95.7658 193.526 96.1015 193.846 96.5218C194.167 96.942 194.38 97.4342 194.468 97.9556C194.556 98.477 194.516 99.0121 194.351 99.5144L194.331 99.5719C194.325 99.592 194.317 99.612 194.31 99.632L194.296 99.6662C194.292 99.6779 194.288 99.6896 194.283 99.7004C194.278 99.7113 194.274 99.7238 194.269 99.7355L194.255 99.7697C194.236 99.8148 194.216 99.8598 194.194 99.9049L194.201 99.9115L194.215 99.9249L202.192 108.48L203.126 109.482C203.17 109.53 203.209 109.583 203.245 109.638C203.852 109.406 204.515 109.361 205.148 109.51C205.781 109.659 206.355 109.994 206.796 110.473C206.858 110.54 206.917 110.61 206.973 110.681C207 110.716 207.028 110.751 207.056 110.788C207.091 110.837 207.124 110.886 207.156 110.935C207.172 110.96 207.187 110.985 207.202 111.01L207.246 111.086C207.275 111.137 207.302 111.189 207.329 111.241L207.367 111.32C207.373 111.333 207.379 111.346 207.384 111.359C207.434 111.469 207.477 111.582 207.513 111.698C207.525 111.735 207.536 111.774 207.547 111.812C207.558 111.85 207.563 111.87 207.569 111.9C207.58 111.944 207.59 111.988 207.599 112.032C207.605 112.062 207.611 112.092 207.616 112.121L207.623 112.165C207.623 112.18 207.628 112.195 207.63 112.21C207.637 112.254 207.642 112.299 207.647 112.344C207.647 112.359 207.647 112.373 207.647 112.387C207.647 112.402 207.647 112.416 207.651 112.43L207.656 112.514C207.656 112.526 207.656 112.539 207.656 112.551C207.656 112.564 207.656 112.576 207.656 112.588C207.656 112.601 207.656 112.606 207.656 112.615C207.656 112.624 207.656 112.641 207.656 112.654C207.656 112.681 207.656 112.708 207.656 112.737C207.656 112.747 207.656 112.757 207.656 112.767C207.656 112.777 207.656 112.787 207.656 112.796C207.656 112.805 207.656 112.821 207.656 112.833C207.656 112.889 207.649 112.944 207.643 113C207.643 113.011 207.643 113.022 207.643 113.032C207.643 113.056 207.638 113.08 207.635 113.105C207.622 113.195 207.584 113.279 207.526 113.349C207.467 113.418 207.389 113.47 207.302 113.497C207.216 113.524 207.123 113.526 207.035 113.502C206.947 113.479 206.868 113.431 206.806 113.364L206.629 113.172L205.837 112.314C205.711 112.178 205.536 112.097 205.351 112.09C205.165 112.082 204.985 112.149 204.848 112.275L203.973 113.085C203.837 113.211 203.756 113.386 203.749 113.572C203.741 113.757 203.808 113.938 203.934 114.075L204.902 115.125C204.964 115.192 205.006 115.275 205.022 115.365C205.039 115.455 205.03 115.548 204.995 115.633C204.961 115.717 204.904 115.791 204.829 115.844C204.755 115.897 204.667 115.928 204.576 115.933Z" fill="#8F8F8F"/>
<path d="M192.415 101.592L192.383 101.554C191.78 101.775 191.125 101.813 190.501 101.661C189.877 101.51 189.311 101.177 188.876 100.704C188.773 100.594 188.679 100.477 188.593 100.353C188.568 100.316 188.543 100.28 188.519 100.242C188.495 100.205 188.472 100.167 188.451 100.129C188.414 100.066 188.38 100.002 188.347 99.9367L188.31 99.8583L188.292 99.8191C188.24 99.7026 188.195 99.583 188.158 99.4611C188.154 99.4494 188.15 99.4369 188.147 99.4252C188.129 99.366 188.113 99.3059 188.099 99.2458C188.099 99.2358 188.099 99.2258 188.092 99.2158C188.085 99.2058 188.086 99.1874 188.083 99.1732C188.073 99.1248 188.064 99.0764 188.055 99.0272C188.044 98.9546 188.034 98.8812 188.027 98.8078C188.02 98.7343 188.017 98.6851 188.015 98.6234C188.015 98.6108 188.015 98.5992 188.015 98.5866C188.015 98.5741 188.015 98.5616 188.015 98.5499C188.015 98.5132 188.015 98.4773 188.015 98.4414V98.4306V98.3655C188.015 98.353 188.015 98.3405 188.015 98.328C188.015 98.3155 188.015 98.3038 188.015 98.2912V98.2545C188.015 98.2429 188.015 98.2303 188.015 98.2178C188.015 98.2053 188.015 98.1694 188.021 98.1444C188.028 98.1194 188.027 98.096 188.03 98.0718C188.03 98.0696 188.03 98.0673 188.03 98.0651C188.045 97.9626 188.093 97.8677 188.166 97.7948C188.239 97.7219 188.335 97.675 188.437 97.6613C188.633 98.3704 188.966 99.0345 189.416 99.6163C189.694 99.9863 190.061 100.28 190.483 100.469C190.895 100.644 191.353 100.569 191.767 100.444C192.629 100.185 193.486 99.6705 193.991 98.9096C194.242 98.5224 194.378 98.0724 194.384 97.6112C194.571 98.2773 194.541 98.9854 194.301 99.6338L194.288 99.668C194.284 99.6797 194.279 99.6914 194.274 99.7023C194.269 99.7131 194.265 99.7256 194.26 99.7373L194.246 99.7715C194.227 99.8166 194.207 99.8616 194.185 99.9067L194.192 99.9134L194.199 99.92C193.473 100.512 192.876 101.249 193.158 102.256C193.18 102.34 193.208 102.415 193.241 102.493C193.244 102.498 193.246 102.504 193.248 102.51L192.415 101.592Z" fill="#B8B8B8"/>
<path d="M202.897 115.563C202.611 115.412 202.349 115.22 202.119 114.993C202.104 114.979 202.09 114.964 202.075 114.949L202.063 114.935L202.02 114.89C201.579 114.412 201.29 113.812 201.193 113.169C201.095 112.525 201.193 111.866 201.473 111.279L201.444 111.255C201.869 111.072 202.248 110.795 202.444 110.353C202.645 109.898 202.553 109.352 202.385 108.907C202.331 108.763 202.268 108.621 202.199 108.481C202.199 108.474 202.193 108.466 202.188 108.458L203.133 109.481C203.177 109.53 203.217 109.583 203.252 109.638C203.859 109.406 204.522 109.361 205.155 109.51C205.788 109.659 206.362 109.994 206.803 110.473C206.866 110.54 206.924 110.61 206.98 110.681C207.007 110.716 207.035 110.751 207.063 110.788C207.098 110.837 207.131 110.886 207.163 110.935L207.209 111.01L207.253 111.086C207.282 111.138 207.309 111.189 207.336 111.241L207.374 111.32C207.38 111.333 207.386 111.346 207.391 111.359C207.457 111.506 207.511 111.657 207.554 111.812C207.561 111.841 207.57 111.87 207.576 111.9C207.588 111.944 207.598 111.988 207.606 112.032C207.612 112.062 207.618 112.092 207.623 112.121L207.631 112.165C207.631 112.18 207.635 112.195 207.637 112.21C207.644 112.254 207.649 112.299 207.654 112.344C207.654 112.359 207.654 112.373 207.654 112.387C207.654 112.402 207.654 112.416 207.658 112.43L207.663 112.514C207.663 112.526 207.663 112.539 207.663 112.551C207.663 112.564 207.663 112.576 207.663 112.588C207.663 112.601 207.663 112.606 207.663 112.615C207.663 112.624 207.663 112.641 207.663 112.654C207.663 112.681 207.663 112.708 207.663 112.737C207.663 112.747 207.663 112.757 207.663 112.767C207.663 112.777 207.663 112.787 207.663 112.796C207.663 112.805 207.663 112.821 207.663 112.833C207.663 112.889 207.656 112.944 207.651 113C207.651 113.011 207.651 113.022 207.651 113.032C207.651 113.056 207.646 113.08 207.642 113.105C207.63 113.195 207.592 113.279 207.533 113.349C207.474 113.418 207.396 113.47 207.31 113.497C207.223 113.524 207.13 113.526 207.042 113.502C206.954 113.479 206.875 113.431 206.813 113.364L206.636 113.172C206.749 112.875 206.782 112.553 206.733 112.239C206.684 111.925 206.554 111.629 206.356 111.381C206.1 111.058 205.761 110.811 205.375 110.666C204.989 110.522 204.571 110.485 204.166 110.56C203.674 110.653 203.244 110.958 202.869 111.275C202.518 111.563 202.239 111.93 202.054 112.345C201.731 113.096 201.928 113.931 202.29 114.625C202.463 114.956 202.666 115.27 202.897 115.563Z" fill="#B8B8B8"/>
<path d="M193.565 101.585C193.445 101.455 193.477 101.231 193.635 101.085C193.794 100.938 194.02 100.925 194.14 101.055L202.111 109.591C202.23 109.721 202.199 109.945 202.041 110.091C201.882 110.239 201.656 110.253 201.536 110.122L193.565 101.585Z" fill="#B8B8B8"/>
<path d="M211.139 105.183C211.139 105.183 206.339 101.178 207.216 98.5912C203.903 100.734 202.589 101.437 202.251 101.551C201.914 101.664 198.961 99.771 195.461 101.329C196.523 102.208 196.816 102.503 196.816 102.503C196.816 102.503 196.945 102.903 195.732 104.112C194.957 104.889 194.183 103.485 194.183 103.485C194.183 103.485 191.922 107.171 194.259 107.5C193.474 107.977 195.167 109.336 196.728 109.336C196.37 110.17 197.471 110.305 197.751 110.518C198.031 110.73 197.967 110.866 198.883 111.153C199.799 111.44 202.735 109.861 204.209 108.393C205.765 106.913 211.139 105.183 211.139 105.183Z" fill="#FCB116"/>
<path d="M194.524 107.614C194.901 107.614 195.764 107.583 196.059 107.305L195.945 107.18C195.678 107.431 194.706 107.456 194.354 107.441L194.348 107.608C194.359 107.613 194.425 107.614 194.524 107.614Z" fill="#F6901F"/>
<path d="M196.828 109.258C196.87 109.258 197.842 109.155 198.071 109.071L198.015 108.911C197.84 108.974 197.087 109.06 196.812 109.089L196.828 109.258Z" fill="#F6901F"/>
<path d="M198.57 110.617C198.809 110.617 199.049 110.574 199.189 110.432L199.071 110.311C198.841 110.543 198.134 110.419 197.88 110.351L197.838 110.518C198.077 110.579 198.323 110.612 198.57 110.617Z" fill="#F6901F"/>
<path d="M135.686 34.6022C135.686 34.6022 133.375 32.8449 132.435 32.7306C131.495 32.6162 131.984 33.8762 132.435 34.3543C132.886 34.8325 136.733 37.8013 136.733 37.8013C136.733 37.8013 137.394 37.0854 137 36.6648C136.606 36.2443 135.686 34.6022 135.686 34.6022Z" fill="#FCAE49"/>
<path d="M194.45 75.7218C194.45 75.7218 192.265 84.7118 197.465 86.087C202.664 87.4621 205.887 82.7017 205.993 78.4679V77.6251L194.45 75.7218Z" fill="#F8BF15"/>
<g opacity="0.56">
<path d="M194.32 82.3842C194.32 82.3842 201.34 84.2883 203.134 77.149L205.994 77.6247C205.994 77.6247 206.176 86.5888 198.61 86.5096C198.61 86.5096 194.866 86.6681 194.32 82.3842Z" fill="#F08743"/>
</g>
<path d="M178.993 56.7235L182.62 55.8549C182.62 55.8549 177.823 65.2546 179.851 71.5211L175.989 70.8077C175.989 70.8077 174.43 60.6494 178.993 56.7235Z" fill="#CC960D"/>
<path d="M217.99 82.5386L217.252 73.8173C217.252 73.8173 209.918 88.9686 219.202 90.7927L218.656 82.4635L217.99 82.5386Z" fill="#CC960D"/>
<path d="M178.944 56.8616C178.944 56.8616 175.444 60.1583 175.856 67.4028L172.193 67.1925C172.193 67.1925 175.339 57.8211 178.992 56.7239L178.944 56.8616Z" fill="#F5927E"/>
<path d="M219.78 85.5368L230.59 84.6056L220.503 89.6296L219.78 85.5368Z" fill="#F5927E"/>
<path d="M206.982 189.418L184.518 187.568L184.258 192.063C184.258 192.063 201.054 193.914 206.721 193.332L206.982 189.418Z" fill="#A490FE"/>
<path d="M191.12 106.206C191.12 106.206 192.088 115.545 190.953 116.402C190.953 116.402 192.627 115.958 192.969 115.002C192.97 115.002 191.877 107.535 191.12 106.206Z" fill="#5030D4"/>
<path d="M275.394 154.233C274.12 157.358 272.098 159.469 269.685 161.095C266.826 163.02 264.633 163.029 261.553 163.843C258.111 164.751 254.761 167.204 252.343 169.749C249.687 172.545 247.76 175.98 245.031 178.708C244.814 178.925 244.594 179.137 244.369 179.341C242.633 180.937 240.674 182.216 238.577 183.273H229.635C230.468 182.564 231.282 181.833 232.066 181.075C232.649 180.513 233.21 179.934 233.743 179.342C235.529 177.355 236.993 175.193 237.768 172.815C238.685 170.016 240.317 167.757 242.372 165.916C242.603 165.709 242.84 165.507 243.082 165.31C244.837 163.88 246.851 162.724 248.959 161.77C251.104 160.8 253.347 160.043 255.514 159.428C262.613 157.414 264.652 148.48 271.632 146.606C272.249 146.439 272.915 146.356 273.52 146.563C274.125 146.771 274.586 147.243 274.944 147.764C276.221 149.617 276.246 152.147 275.394 154.233Z" fill="#009184"/>
<path d="M271.333 152.002C269.732 154.339 268.061 156.148 266.222 157.536C263.862 159.317 261.09 160.481 258.41 161.605C255.797 162.701 253.094 163.835 250.809 165.536C248.97 166.905 247.41 168.633 245.948 170.413C245.479 170.984 245.02 171.56 244.564 172.132C243.082 173.993 241.549 175.917 239.768 177.549C239.072 178.185 238.342 178.782 237.58 179.338C235.518 180.854 233.268 182.097 231.021 183.27H229.764C230.18 183.054 230.597 182.837 231.014 182.619C232.916 181.617 234.812 180.568 236.582 179.338C237.562 178.663 238.495 177.922 239.375 177.122C241.126 175.52 242.641 173.617 244.11 171.771C244.972 170.687 245.847 169.591 246.777 168.54C247.898 167.277 249.1 166.083 250.46 165.071C252.801 163.329 255.537 162.181 258.182 161.071C260.827 159.96 263.567 158.811 265.87 157.074C267.658 155.725 269.287 153.959 270.852 151.675C270.895 151.612 270.962 151.568 271.037 151.554C271.113 151.54 271.191 151.557 271.254 151.6C271.286 151.621 271.313 151.648 271.335 151.68C271.356 151.711 271.371 151.747 271.378 151.785C271.385 151.822 271.385 151.861 271.377 151.898C271.37 151.935 271.355 151.971 271.333 152.002Z" fill="#007F84"/>
<path d="M260.292 127.257C259.724 124.745 257.561 122.488 254.989 122.447C252.822 122.413 250.984 123.298 249.389 124.641C246.671 126.934 244.679 130.566 243.067 133.252C239.943 138.466 237.499 144.182 236.821 150.274C236.359 154.441 236.726 158.67 236.21 162.829C235.793 166.174 234.827 169.359 233.454 172.386C232.398 174.691 231.145 176.9 229.709 178.989C229.632 179.106 229.553 179.221 229.472 179.336C228.942 180.101 228.392 180.855 227.821 181.597C227.389 182.16 226.946 182.717 226.492 183.266H233.136C234.814 182.156 236.489 181.058 238.211 180.003C238.544 179.797 238.874 179.575 239.199 179.336C241.993 177.258 244.248 173.975 245.95 170.407C246.245 169.791 246.523 169.164 246.783 168.535C247.691 166.339 248.42 164.074 248.963 161.76C249.121 161.079 249.258 160.418 249.372 159.78C250.538 153.242 251.19 147.001 254.772 141.195C256.123 139.005 257.741 136.976 258.929 134.692C260.118 132.408 260.86 129.769 260.292 127.257Z" fill="#3ECAA1"/>
<path d="M236.244 137.562C236.207 138.773 235.751 139.924 235.356 141.066C233.675 145.95 233.021 151.128 233.433 156.276C233.683 159.391 234.326 162.475 234.396 165.6C234.448 167.908 234.103 170.179 233.455 172.382C232.744 174.794 231.67 177.126 230.353 179.332C229.537 180.695 228.641 182.008 227.67 183.264H225.245C225.642 182.048 225.976 180.883 226.268 179.981C226.339 179.76 226.41 179.545 226.48 179.332C227.439 176.455 228.29 174.27 227.647 171.085C226.92 167.502 225.391 164.133 224.439 160.603C223.12 155.693 222.932 150.548 223.889 145.555C224.795 140.853 227.236 135.861 231.791 134.402C232.753 134.093 233.851 133.975 234.739 134.459C235.797 135.041 236.28 136.352 236.244 137.562Z" fill="#009184"/>
<path d="M251.864 137.802C250.998 139.686 249.881 141.464 248.802 143.184C248.28 144.018 247.741 144.872 247.239 145.729C245.474 148.742 244.268 151.972 243.75 155.075C243.478 156.714 243.456 158.413 243.434 160.056C243.413 161.779 243.39 163.554 243.083 165.313C243.041 165.549 242.995 165.786 242.942 166.022C241.908 170.666 239.145 175.263 234.941 179.345C234.815 179.468 234.691 179.59 234.558 179.713C233.482 180.728 232.301 181.632 231.159 182.516L231.015 182.626C230.737 182.84 230.456 183.057 230.176 183.277H229.243C229.763 182.859 230.29 182.454 230.807 182.057C231.223 181.735 231.646 181.411 232.065 181.079C232.763 180.527 233.454 179.954 234.103 179.346L234.16 179.292C238.487 175.204 241.328 170.583 242.371 165.92L242.376 165.896C242.805 163.971 242.83 161.98 242.854 160.056C242.876 158.387 242.899 156.669 243.179 154.986C243.708 151.816 244.938 148.518 246.738 145.446C247.246 144.58 247.786 143.718 248.31 142.885C249.38 141.18 250.487 139.418 251.337 137.569C253.049 133.844 254.594 129.809 254.311 125.511C254.309 125.436 254.336 125.363 254.387 125.308C254.437 125.253 254.507 125.219 254.582 125.214C254.656 125.209 254.73 125.234 254.787 125.282C254.844 125.33 254.88 125.399 254.888 125.473C255.18 129.885 253.607 134.007 251.864 137.802Z" fill="#007F84"/>
<path d="M231.799 137.842C229.091 143.064 227.874 149.093 228.368 154.82C228.584 157.31 229.118 159.833 229.635 162.272C230.518 166.435 231.431 170.739 230.781 175.014C230.571 176.375 230.211 177.709 229.709 178.992C229.664 179.108 229.618 179.223 229.57 179.338C229.002 180.716 228.295 182.034 227.462 183.27H226.763C227.142 182.724 227.494 182.167 227.819 181.601C228.238 180.87 228.613 180.115 228.942 179.34C229.546 177.928 229.972 176.446 230.208 174.929C230.841 170.757 229.94 166.501 229.068 162.394C228.547 159.937 228.009 157.397 227.791 154.871C227.286 149.037 228.527 142.895 231.284 137.576C231.301 137.543 231.325 137.513 231.354 137.488C231.384 137.464 231.417 137.445 231.453 137.434C231.49 137.422 231.528 137.418 231.566 137.421C231.603 137.425 231.64 137.435 231.674 137.453C231.708 137.47 231.738 137.494 231.762 137.523C231.786 137.553 231.805 137.586 231.816 137.622C231.828 137.659 231.832 137.697 231.829 137.735C231.826 137.773 231.815 137.81 231.797 137.843L231.799 137.842Z" fill="#007F84"/>
<path d="M255.328 188.361H229.759V178.701C229.76 177.588 230.202 176.521 230.988 175.734C231.773 174.948 232.839 174.505 233.95 174.504H251.137C252.248 174.505 253.313 174.948 254.099 175.734C254.885 176.521 255.327 177.588 255.328 178.701V188.361ZM232.076 186.04H253.009V178.697C253.009 178.2 252.811 177.723 252.46 177.371C252.109 177.019 251.633 176.821 251.136 176.821H233.95C233.453 176.821 232.977 177.019 232.626 177.371C232.274 177.723 232.077 178.2 232.076 178.697L232.076 186.04Z" fill="#1B1447"/>
<path d="M268.13 181.436H216.958C216.046 181.436 215.154 181.701 214.39 182.201C213.626 182.7 213.024 183.411 212.657 184.247L208.83 192.966H276.259L272.432 184.247C272.065 183.41 271.463 182.699 270.699 182.2C269.935 181.701 269.042 181.435 268.13 181.436Z" fill="#DE4040"/>
<path d="M225.418 189.811H221.352C221.271 189.811 221.205 189.877 221.205 189.958V195.969C221.205 196.05 221.271 196.116 221.352 196.116H225.418C225.499 196.116 225.565 196.05 225.565 195.969V189.958C225.565 189.877 225.499 189.811 225.418 189.811Z" fill="#1B1447"/>
<path d="M265.382 189.811H261.316C261.235 189.811 261.169 189.877 261.169 189.958V195.969C261.169 196.05 261.235 196.116 261.316 196.116H265.382C265.463 196.116 265.529 196.05 265.529 195.969V189.958C265.529 189.877 265.463 189.811 265.382 189.811Z" fill="#1B1447"/>
<g opacity="0.45">
<path d="M252.384 77.7008H231.133C230.126 77.7008 229.31 78.5181 229.31 79.5263V87.1187C229.31 88.127 230.126 88.9443 231.133 88.9443H252.384C253.391 88.9443 254.208 88.127 254.208 87.1187V79.5263C254.208 78.5181 253.391 77.7008 252.384 77.7008Z" fill="#1F65BC"/>
<path d="M279.211 77.7008H257.959C256.952 77.7008 256.136 78.5181 256.136 79.5263V87.1187C256.136 88.127 256.952 88.9443 257.959 88.9443H279.211C280.218 88.9443 281.034 88.127 281.034 87.1187V79.5263C281.034 78.5181 280.218 77.7008 279.211 77.7008Z" fill="#1F65BC"/>
<path d="M265.859 90.9744H244.607C243.601 90.9744 242.784 91.7917 242.784 92.7999V100.392C242.784 101.401 243.601 102.218 244.607 102.218H265.859C266.866 102.218 267.682 101.401 267.682 100.392V92.7999C267.682 91.7917 266.866 90.9744 265.859 90.9744Z" fill="#1F65BC"/>
</g>
</g>
</svg>
