<svg width="103" height="115" viewBox="0 0 103 115" fill="none" xmlns="http://www.w3.org/2000/svg">
<g filter="url(#filter0_d_2288_7512)">
<g filter="url(#filter1_d_2288_7512)">
<path d="M57.0207 28.0028C69.9565 27.8052 80.5145 37.9864 80.7651 50.9214C80.8017 52.8203 80.612 54.669 80.2208 56.4419C79.5586 59.444 79.165 62.4991 79.165 65.5736V71.5162C79.165 72.4266 78.427 73.1648 77.5164 73.1648H71.5738C68.4995 73.1648 65.4444 73.5584 62.4422 74.2206C60.6693 74.6116 58.8207 74.8015 56.9218 74.7647C43.9871 74.5143 33.8059 63.9566 34.0031 51.021C34.1957 38.3949 44.3948 28.1956 57.0207 28.0028Z" fill="#223468"/>
<path d="M82.0021 50.8975L82.0021 50.8974C81.7383 37.28 70.6177 26.5577 57.0018 26.7657L82.0021 50.8975ZM82.0021 50.8975C82.0407 52.8946 81.8411 54.8407 81.429 56.7084L82.0021 50.8975ZM81.429 56.7085C80.7825 59.6397 80.4023 62.6044 80.4023 65.5736V71.5162C80.4023 73.1099 79.1104 74.4021 77.5164 74.4021H71.5738C68.6047 74.4021 65.64 74.7823 62.7087 75.4288C60.8411 75.8407 58.895 76.0405 56.8978 76.0018C43.2807 75.7381 32.5584 64.6177 32.766 51.0021C32.9688 37.7075 43.7073 26.9686 57.0018 26.7657L81.429 56.7085Z" stroke="white" stroke-width="2.47456"/>
</g>
<g filter="url(#filter2_d_2288_7512)">
<ellipse cx="57.9867" cy="51.9887" rx="14.7074" ry="14.7075" fill="white"/>
</g>
<ellipse cx="57.8955" cy="52" rx="10.3594" ry="10.4063" fill="#FDC535"/>
<path d="M62.6561 53.8984C62.8968 53.314 63.0274 52.6884 63.0274 52.0009C63.0274 51.5059 62.9518 51.0315 62.8211 50.5915C62.3743 50.6946 61.9068 50.7496 61.4186 50.7496C60.419 50.7507 59.4337 50.5114 58.5459 50.0519C57.6581 49.5925 56.8938 48.9263 56.3174 48.1096C55.7008 49.6016 54.5375 50.8017 53.0655 51.4646C53.038 51.6365 53.038 51.8221 53.038 52.0009C53.038 52.6572 53.1673 53.3072 53.4185 53.9136C53.6696 54.52 54.0378 55.071 54.5019 55.5351C55.4393 56.4724 56.7105 56.999 58.0361 56.999C58.758 56.999 59.4524 56.8409 60.078 56.559C60.4699 57.3084 60.6486 57.6796 60.6349 57.6796C59.5074 58.0578 58.6343 58.2434 58.0361 58.2434C56.3724 58.2434 54.7843 57.5903 53.6155 56.4146C52.9046 55.7059 52.3762 54.8354 52.0755 53.8777H51.1611V50.7496H51.9105C52.1375 49.6445 52.6595 48.6214 53.4211 47.7889C54.1826 46.9565 55.1553 46.3457 56.2359 46.0215C57.3166 45.6972 58.4648 45.6716 59.5589 45.9472C60.6529 46.2228 61.6519 46.7895 62.4499 47.5871C63.3163 48.4501 63.9072 49.5507 64.148 50.7496H64.9111V53.8777H64.8699L62.4224 56.1259L58.7786 55.7134V54.5652H62.0993L62.6561 53.8984ZM56.1593 51.8427C56.3655 51.8427 56.5649 51.9252 56.7093 52.0765C56.8544 52.2228 56.9358 52.4205 56.9358 52.6265C56.9358 52.8325 56.8544 53.0302 56.7093 53.1765C56.5649 53.3209 56.3655 53.4034 56.1593 53.4034C55.7261 53.4034 55.3755 53.0596 55.3755 52.6265C55.3755 52.1934 55.7261 51.8427 56.1593 51.8427ZM59.9061 51.8427C60.3393 51.8427 60.683 52.1934 60.683 52.6265C60.683 53.0596 60.3393 53.4034 59.9061 53.4034C59.473 53.4034 59.1224 53.0596 59.1224 52.6265C59.1224 52.4186 59.205 52.2193 59.3519 52.0723C59.4989 51.9253 59.6983 51.8427 59.9061 51.8427Z" fill="#223468"/>
</g>
<defs>
<filter id="filter0_d_2288_7512" x="0.756159" y="0.910005" width="113.257" height="113.257" filterUnits="userSpaceOnUse" color-interpolation-filters="sRGB">
<feFlood flood-opacity="0" result="BackgroundImageFix"/>
<feColorMatrix in="SourceAlpha" type="matrix" values="0 0 0 0 0 0 0 0 0 0 0 0 0 0 0 0 0 0 127 0" result="hardAlpha"/>
<feOffset dy="6.15385"/>
<feGaussianBlur stdDeviation="15.3846"/>
<feComposite in2="hardAlpha" operator="out"/>
<feColorMatrix type="matrix" values="0 0 0 0 0 0 0 0 0 0 0 0 0 0 0 0 0 0 0.4 0"/>
<feBlend mode="normal" in2="BackgroundImageFix" result="effect1_dropShadow_2288_7512"/>
<feBlend mode="normal" in="SourceGraphic" in2="effect1_dropShadow_2288_7512" result="shape"/>
</filter>
<filter id="filter1_d_2288_7512" x="29.0508" y="24.0407" width="56.6679" height="56.6679" filterUnits="userSpaceOnUse" color-interpolation-filters="sRGB">
<feFlood flood-opacity="0" result="BackgroundImageFix"/>
<feColorMatrix in="SourceAlpha" type="matrix" values="0 0 0 0 0 0 0 0 0 0 0 0 0 0 0 0 0 0 127 0" result="hardAlpha"/>
<feOffset dy="0.989825"/>
<feGaussianBlur stdDeviation="1.23728"/>
<feColorMatrix type="matrix" values="0 0 0 0 0 0 0 0 0 0 0 0 0 0 0 0 0 0 0.15 0"/>
<feBlend mode="normal" in2="BackgroundImageFix" result="effect1_dropShadow_2288_7512"/>
<feBlend mode="normal" in="SourceGraphic" in2="effect1_dropShadow_2288_7512" result="shape"/>
</filter>
<filter id="filter2_d_2288_7512" x="40.8047" y="35.5491" width="34.3642" height="34.3632" filterUnits="userSpaceOnUse" color-interpolation-filters="sRGB">
<feFlood flood-opacity="0" result="BackgroundImageFix"/>
<feColorMatrix in="SourceAlpha" type="matrix" values="0 0 0 0 0 0 0 0 0 0 0 0 0 0 0 0 0 0 127 0" result="hardAlpha"/>
<feOffset dy="0.742369"/>
<feGaussianBlur stdDeviation="1.23728"/>
<feColorMatrix type="matrix" values="0 0 0 0 0 0 0 0 0 0 0 0 0 0 0 0 0 0 0.1 0"/>
<feBlend mode="normal" in2="BackgroundImageFix" result="effect1_dropShadow_2288_7512"/>
<feBlend mode="normal" in="SourceGraphic" in2="effect1_dropShadow_2288_7512" result="shape"/>
</filter>
</defs>
</svg>
