<svg width="843" height="24" viewBox="0 0 843 24" fill="none" xmlns="http://www.w3.org/2000/svg">
<path d="M842.561 13.0607C843.146 12.4749 843.146 11.5251 842.561 10.9393L833.015 1.3934C832.429 0.807611 831.479 0.807611 830.893 1.3934C830.308 1.97919 830.308 2.92893 830.893 3.51472L839.379 12L830.893 20.4853C830.308 21.0711 830.308 22.0208 830.893 22.6066C831.479 23.1924 832.429 23.1924 833.015 22.6066L842.561 13.0607ZM0 13.5H2.00357V10.5H0V13.5ZM6.01071 13.5H10.0179V10.5H6.01071V13.5ZM14.025 13.5H18.0321V10.5H14.025V13.5ZM22.0393 13.5H26.0464V10.5H22.0393V13.5ZM30.0536 13.5H34.0607V10.5H30.0536V13.5ZM38.0679 13.5H42.075V10.5H38.0679V13.5ZM46.0821 13.5H50.0893V10.5H46.0821V13.5ZM54.0964 13.5H58.1036V10.5H54.0964V13.5ZM62.1107 13.5H66.1178V10.5H62.1107V13.5ZM70.125 13.5H74.1321V10.5H70.125V13.5ZM78.1393 13.5H82.1464V10.5H78.1393V13.5ZM86.1535 13.5H90.1607V10.5H86.1535V13.5ZM94.1678 13.5H98.175V10.5H94.1678V13.5ZM102.182 13.5H106.189V10.5H102.182V13.5ZM110.196 13.5H114.204V10.5H110.196V13.5ZM118.211 13.5H122.218V10.5H118.211V13.5ZM126.225 13.5H130.232V10.5H126.225V13.5ZM134.239 13.5H138.246V10.5H134.239V13.5ZM142.254 13.5H146.261V10.5H142.254V13.5ZM150.268 13.5H154.275V10.5H150.268V13.5ZM158.282 13.5H162.289V10.5H158.282V13.5ZM166.296 13.5H170.304V10.5H166.296V13.5ZM174.311 13.5H178.318V10.5H174.311V13.5ZM182.325 13.5H186.332V10.5H182.325V13.5ZM190.339 13.5H194.346V10.5H190.339V13.5ZM198.354 13.5H202.361V10.5H198.354V13.5ZM206.368 13.5H210.375V10.5H206.368V13.5ZM214.382 13.5H218.389V10.5H214.382V13.5ZM222.396 13.5H226.403V10.5H222.396V13.5ZM230.411 13.5H234.418V10.5H230.411V13.5ZM238.425 13.5H242.432V10.5H238.425V13.5ZM246.439 13.5H250.446V10.5H246.439V13.5ZM254.453 13.5H258.461V10.5H254.453V13.5ZM262.468 13.5H266.475V10.5H262.468V13.5ZM270.482 13.5H274.489V10.5H270.482V13.5ZM278.496 13.5H282.503V10.5H278.496V13.5ZM286.511 13.5H290.518V10.5H286.511V13.5ZM294.525 13.5H298.532V10.5H294.525V13.5ZM302.539 13.5H306.546V10.5H302.539V13.5ZM310.553 13.5H314.561V10.5H310.553V13.5ZM318.568 13.5H322.575V10.5H318.568V13.5ZM326.582 13.5H330.589V10.5H326.582V13.5ZM334.596 13.5H338.603V10.5H334.596V13.5ZM342.611 13.5H346.618V10.5H342.611V13.5ZM350.625 13.5H354.632V10.5H350.625V13.5ZM358.639 13.5H362.646V10.5H358.639V13.5ZM366.653 13.5H370.661V10.5H366.653V13.5ZM374.668 13.5H378.675V10.5H374.668V13.5ZM382.682 13.5H386.689V10.5H382.682V13.5ZM390.696 13.5H394.703V10.5H390.696V13.5ZM398.711 13.5H402.718V10.5H398.711V13.5ZM406.725 13.5H410.732V10.5H406.725V13.5ZM414.739 13.5H418.746V10.5H414.739V13.5ZM422.753 13.5H426.761V10.5H422.753V13.5ZM430.768 13.5H434.775V10.5H430.768V13.5ZM438.782 13.5H442.789V10.5H438.782V13.5ZM446.796 13.5H450.803V10.5H446.796V13.5ZM454.811 13.5H458.818V10.5H454.811V13.5ZM462.825 13.5H466.832V10.5H462.825V13.5ZM470.839 13.5H474.846V10.5H470.839V13.5ZM478.853 13.5H482.861V10.5H478.853V13.5ZM486.868 13.5H490.875V10.5H486.868V13.5ZM494.882 13.5H498.889V10.5H494.882V13.5ZM502.896 13.5H506.903V10.5H502.896V13.5ZM510.911 13.5H514.918V10.5H510.911V13.5ZM518.925 13.5H522.932V10.5H518.925V13.5ZM526.939 13.5H530.946V10.5H526.939V13.5ZM534.953 13.5H538.961V10.5H534.953V13.5ZM542.968 13.5H546.975V10.5H542.968V13.5ZM550.982 13.5H554.989V10.5H550.982V13.5ZM558.996 13.5H563.003V10.5H558.996V13.5ZM567.01 13.5H571.018V10.5H567.01V13.5ZM575.025 13.5H579.032V10.5H575.025V13.5ZM583.039 13.5H587.046V10.5H583.039V13.5ZM591.053 13.5H595.06V10.5H591.053V13.5ZM599.068 13.5H603.075V10.5H599.068V13.5ZM607.082 13.5H611.089V10.5H607.082V13.5ZM615.096 13.5H619.103V10.5H615.096V13.5ZM623.11 13.5H627.118V10.5H623.11V13.5ZM631.125 13.5H635.132V10.5H631.125V13.5ZM639.139 13.5H643.146V10.5H639.139V13.5ZM647.153 13.5H651.16V10.5H647.153V13.5ZM655.168 13.5H659.175V10.5H655.168V13.5ZM663.182 13.5H667.189V10.5H663.182V13.5ZM671.196 13.5H675.203V10.5H671.196V13.5ZM679.21 13.5H683.218V10.5H679.21V13.5ZM687.225 13.5H691.232V10.5H687.225V13.5ZM695.239 13.5H699.246V10.5H695.239V13.5ZM703.253 13.5H707.26V10.5H703.253V13.5ZM711.268 13.5H715.275V10.5H711.268V13.5ZM719.282 13.5H723.289V10.5H719.282V13.5ZM727.296 13.5H731.303V10.5H727.296V13.5ZM735.31 13.5H739.318V10.5H735.31V13.5ZM743.325 13.5H747.332V10.5H743.325V13.5ZM751.339 13.5H755.346V10.5H751.339V13.5ZM759.353 13.5H763.36V10.5H759.353V13.5ZM767.368 13.5H771.375V10.5H767.368V13.5ZM775.382 13.5H779.389V10.5H775.382V13.5ZM783.396 13.5H787.403V10.5H783.396V13.5ZM791.41 13.5H795.418V10.5H791.41V13.5ZM799.425 13.5H803.432V10.5H799.425V13.5ZM807.439 13.5H811.446V10.5H807.439V13.5ZM815.453 13.5H819.46V10.5H815.453V13.5ZM823.468 13.5H827.475V10.5H823.468V13.5ZM831.482 13.5H835.489V10.5H831.482V13.5ZM839.496 13.5H841.5V10.5H839.496V13.5Z" fill="#B1B1B1"/>
</svg>
