<svg width="934" height="318" viewBox="0 0 934 318" fill="none" xmlns="http://www.w3.org/2000/svg">
<path d="M805.479 2L805.539 0.501182L805.509 0.5H805.479V2ZM931.885 159.304L930.386 159.252L931.885 159.304ZM805.479 305.963L805.519 304.463L805.499 304.463H805.479V305.963ZM204.439 304.902C203.854 305.488 203.854 306.437 204.439 307.023L213.985 316.569C214.571 317.155 215.521 317.155 216.107 316.569C216.692 315.983 216.692 315.034 216.107 314.448L207.621 305.963L216.107 297.477C216.692 296.892 216.692 295.942 216.107 295.356C215.521 294.77 214.571 294.77 213.985 295.356L204.439 304.902ZM0 3.5H1.99376V0.5H0L0 3.5ZM5.98128 3.5H9.9688V0.5H5.98128V3.5ZM13.9563 3.5H17.9438V0.5H13.9563V3.5ZM21.9314 3.5H25.9189V0.5H21.9314V3.5ZM29.9064 3.5H33.8939V0.5H29.9064V3.5ZM37.8815 3.5H41.869V0.5H37.8815V3.5ZM45.8565 3.5H49.844V0.5H45.8565V3.5ZM53.8315 3.5H57.8191V0.5H53.8315V3.5ZM61.8066 3.5H65.7941V0.5H61.8066V3.5ZM69.7816 3.5H73.7691V0.5H69.7816V3.5ZM77.7567 3.5H81.7442V0.5H77.7567V3.5ZM85.7317 3.5H89.7192V0.5H85.7317V3.5ZM93.7067 3.5H97.6943V0.5H93.7067V3.5ZM101.682 3.5H105.669V0.5H101.682V3.5ZM109.657 3.5H113.644V0.5H109.657V3.5ZM117.632 3.5H121.619V0.5H117.632V3.5ZM125.607 3.5H129.594V0.5H125.607V3.5ZM133.582 3.5H137.569V0.5H133.582V3.5ZM141.557 3.5H145.544V0.5H141.557V3.5ZM149.532 3.5H153.52V0.5H149.532V3.5ZM157.507 3.5H161.495V0.5H157.507V3.5ZM165.482 3.5H169.47V0.5H165.482V3.5ZM173.457 3.5H177.445V0.5H173.457V3.5ZM181.432 3.5H185.42V0.5H181.432V3.5ZM189.407 3.5H193.395V0.5H189.407V3.5ZM197.382 3.5H201.37V0.5H197.382V3.5ZM205.357 3.5H209.345V0.5H205.357V3.5ZM213.332 3.5H217.32V0.5H213.332V3.5ZM221.307 3.5H225.295V0.5H221.307V3.5ZM229.282 3.5H233.27V0.5H229.282V3.5ZM237.257 3.5H241.245V0.5H237.257V3.5ZM245.232 3.5H249.22V0.5H245.232V3.5ZM253.207 3.5H257.195V0.5H253.207V3.5ZM261.183 3.5H265.17V0.5H261.183V3.5ZM269.158 3.5H273.145V0.5H269.158V3.5ZM277.133 3.5H281.12V0.5H277.133V3.5ZM285.108 3.5H289.095V0.5H285.108V3.5ZM293.083 3.5H297.07V0.5H293.083V3.5ZM301.058 3.5H305.045V0.5H301.058V3.5ZM309.033 3.5H313.02V0.5H309.033V3.5ZM317.008 3.5H320.995V0.5H317.008V3.5ZM324.983 3.5H328.97V0.5H324.983V3.5ZM332.958 3.5H336.945V0.5H332.958V3.5ZM340.933 3.5H344.92V0.5H340.933V3.5ZM348.908 3.5H352.895V0.5H348.908V3.5ZM356.883 3.5H360.87V0.5H356.883V3.5ZM364.858 3.5H368.846V0.5H364.858V3.5ZM372.833 3.5H376.821V0.5H372.833V3.5ZM380.808 3.5H384.796V0.5H380.808V3.5ZM388.783 3.5H392.771V0.5H388.783V3.5ZM396.758 3.5H400.746V0.5H396.758V3.5ZM404.733 3.5H408.721V0.5H404.733V3.5ZM412.708 3.5H416.696V0.5H412.708V3.5ZM420.683 3.5H424.671V0.5H420.683V3.5ZM428.658 3.5H432.646V0.5H428.658V3.5ZM436.633 3.5H440.621V0.5H436.633V3.5ZM444.608 3.5H448.596V0.5H444.608V3.5ZM452.583 3.5H456.571V0.5H452.583V3.5ZM460.558 3.5H464.546V0.5H460.558V3.5ZM468.533 3.5H472.521V0.5H468.533V3.5ZM476.509 3.5H480.496V0.5H476.509V3.5ZM484.484 3.5H488.471V0.5H484.484V3.5ZM492.459 3.5H496.446V0.5H492.459V3.5ZM500.434 3.5H504.421V0.5H500.434V3.5ZM508.409 3.5H512.396V0.5H508.409V3.5ZM516.384 3.5H520.371V0.5H516.384V3.5ZM524.359 3.5H528.346V0.5H524.359V3.5ZM532.334 3.5H536.321V0.5H532.334V3.5ZM540.309 3.5H544.297V0.5H540.309V3.5ZM548.284 3.5H552.272V0.5H548.284V3.5ZM556.259 3.5H560.247V0.5H556.259V3.5ZM564.234 3.5H568.222V0.5H564.234V3.5ZM572.209 3.5H576.197V0.5H572.209V3.5ZM580.185 3.5H584.172V0.5H580.185V3.5ZM588.16 3.5H592.147V0.5H588.16V3.5ZM596.135 3.5H600.122V0.5H596.135V3.5ZM604.11 3.5H608.097V0.5H604.11V3.5ZM612.085 3.5H616.072V0.5H612.085V3.5ZM620.06 3.5H624.048V0.5H620.06V3.5ZM628.035 3.5H632.023V0.5H628.035V3.5ZM636.01 3.5H639.998V0.5H636.01V3.5ZM643.985 3.5H647.973V0.5H643.985V3.5ZM651.96 3.5H655.948V0.5H651.96V3.5ZM659.935 3.5H663.923V0.5H659.935V3.5ZM667.911 3.5H671.898V0.5H667.911V3.5ZM675.886 3.5H679.873V0.5H675.886V3.5ZM683.861 3.5H687.848V0.5H683.861V3.5ZM691.836 3.5H695.823V0.5H691.836V3.5ZM699.811 3.5H703.799V0.5H699.811V3.5ZM707.786 3.5H711.774V0.5H707.786V3.5ZM715.761 3.5H719.749V0.5H715.761V3.5ZM723.736 3.5H727.724V0.5H723.736V3.5ZM731.711 3.5H735.699V0.5H731.711V3.5ZM739.686 3.5H743.674V0.5H739.686V3.5ZM747.662 3.5H751.649V0.5H747.662V3.5ZM755.637 3.5H759.624V0.5H755.637V3.5ZM763.612 3.5H767.599V0.5H763.612V3.5ZM771.587 3.5H775.574V0.5H771.587V3.5ZM779.562 3.5H783.549V0.5H779.562V3.5ZM787.537 3.5H791.525V0.5H787.537V3.5ZM795.512 3.5H799.5V0.5H795.512V3.5ZM803.487 3.5H805.479V0.5H803.487V3.5ZM805.42 3.49882C806.084 3.5252 806.747 3.55684 807.408 3.59368L807.575 0.598332C806.898 0.560597 806.219 0.528202 805.539 0.501182L805.42 3.49882ZM811.355 3.87702C812.677 3.99324 813.992 4.13042 815.299 4.28828L815.659 1.3099C814.319 1.14815 812.972 1.0076 811.618 0.888554L811.355 3.87702ZM819.215 4.82572C820.525 5.0275 821.829 5.25023 823.125 5.49363L823.678 2.54519C822.35 2.29572 821.014 2.06743 819.671 1.86064L819.215 4.82572ZM827.001 6.2883C828.292 6.57538 829.576 6.88319 830.851 7.21143L831.599 4.30615C830.292 3.96964 828.976 3.65408 827.652 3.35979L827.001 6.2883ZM834.67 8.26263C835.937 8.63433 837.196 9.02645 838.445 9.4387L839.385 6.58969C838.104 6.16702 836.813 5.76498 835.514 5.38389L834.67 8.26263ZM842.188 10.7427C843.427 11.1981 844.658 11.6737 845.879 12.169L847.007 9.38897C845.755 8.88116 844.493 8.39361 843.222 7.92664L842.188 10.7427ZM849.523 13.7179C850.73 14.2547 851.927 14.8112 853.114 15.3871L854.423 12.6879C853.207 12.0977 851.98 11.5272 850.742 10.9768L849.523 13.7179ZM856.647 17.1735C857.815 17.7886 858.973 18.4228 860.12 19.0758L861.604 16.4685C860.429 15.7994 859.242 15.1494 858.044 14.5189L856.647 17.1735ZM863.53 21.0903C864.655 21.7802 865.77 22.4885 866.873 23.215L868.523 20.7093C867.393 19.9652 866.251 19.2395 865.098 18.5327L863.53 21.0903ZM870.145 25.4454C871.224 26.2062 872.291 26.9847 873.347 27.7807L875.153 25.3852C874.072 24.5702 872.979 23.773 871.874 22.9938L870.145 25.4454ZM876.472 30.2146C877.5 31.0415 878.516 31.8854 879.52 32.746L881.472 30.468C880.445 29.5873 879.405 28.7236 878.352 27.8771L876.472 30.2146ZM882.491 35.3722C883.465 36.2605 884.427 37.165 885.376 38.0853L887.464 35.931C886.493 34.9896 885.509 34.0643 884.512 33.1554L882.491 35.3722ZM888.183 40.8886C889.102 41.8343 890.008 42.7953 890.902 43.7714L893.115 41.7458C892.201 40.7478 891.274 39.7652 890.335 38.7981L888.183 40.8886ZM893.536 46.7351C894.398 47.7346 895.248 48.7487 896.084 49.7771L898.411 47.884C897.557 46.8332 896.688 45.7969 895.807 44.7753L893.536 46.7351ZM898.54 52.8866C899.344 53.9347 900.135 54.9966 900.912 56.072L903.344 54.3144C902.55 53.2162 901.742 52.1316 900.921 51.0609L898.54 52.8866ZM903.189 59.3159C903.932 60.4067 904.662 61.5104 905.378 62.6267L907.903 61.0068C907.172 59.8673 906.427 58.7406 905.668 57.6269L903.189 59.3159ZM907.475 65.9967C908.157 67.1255 908.825 68.2665 909.479 69.4193L912.088 67.9384C911.421 66.7623 910.739 65.5981 910.044 64.4462L907.475 65.9967ZM911.396 72.9031C912.015 74.0656 912.621 75.2395 913.213 76.4244L915.897 75.0835C915.293 73.8752 914.675 72.678 914.043 71.4922L911.396 72.9031ZM914.944 80.0035C915.502 81.1978 916.047 82.4027 916.578 83.6179L919.327 82.4171C918.786 81.1785 918.231 79.9503 917.661 78.7328L914.944 80.0035ZM918.121 87.2784C918.619 88.5012 919.103 89.7339 919.572 90.9762L922.378 89.9154C921.9 88.6498 921.407 87.3938 920.9 86.1477L918.121 87.2784ZM920.93 94.7066C921.366 95.9543 921.789 97.2112 922.198 98.477L925.053 97.5557C924.637 96.2666 924.206 94.9865 923.761 93.7156L920.93 94.7066ZM923.37 102.266C923.746 103.536 924.108 104.813 924.456 106.099L927.352 105.316C926.998 104.007 926.629 102.706 926.246 101.414L923.37 102.266ZM925.445 109.937C925.76 111.222 926.061 112.515 926.348 113.816L929.277 113.17C928.985 111.847 928.679 110.531 928.358 109.223L925.445 109.937ZM927.157 117.699C927.412 118.997 927.652 120.302 927.879 121.614L930.835 121.103C930.605 119.769 930.36 118.441 930.101 117.121L927.157 117.699ZM928.51 125.533C928.706 126.841 928.887 128.155 929.055 129.475L932.031 129.098C931.861 127.756 931.676 126.419 931.477 125.09L928.51 125.533ZM929.51 133.422C929.647 134.737 929.77 136.057 929.879 137.383L932.869 137.138C932.758 135.79 932.633 134.447 932.494 133.111L929.51 133.422ZM930.161 141.349C930.241 142.668 930.307 143.992 930.358 145.321L933.356 145.205C933.304 143.854 933.237 142.508 933.156 141.168L930.161 141.349ZM930.471 149.297C930.494 150.618 930.503 151.944 930.499 153.275L933.499 153.285C933.503 151.933 933.494 150.586 933.47 149.244L930.471 149.297ZM930.444 157.253C930.428 157.918 930.409 158.584 930.386 159.252L933.384 159.355C933.407 158.677 933.427 158.001 933.443 157.325L930.444 157.253ZM930.386 159.252C930.363 159.916 930.337 160.579 930.308 161.24L933.305 161.372C933.334 160.701 933.361 160.029 933.384 159.355L930.386 159.252ZM930.096 165.189C930.012 166.51 929.916 167.824 929.808 169.132L932.798 169.379C932.908 168.052 933.005 166.719 933.09 165.379L930.096 165.189ZM929.444 173.069C929.309 174.385 929.161 175.695 929.001 176.997L931.979 177.362C932.141 176.04 932.291 174.711 932.428 173.376L929.444 173.069ZM928.48 180.915C928.292 182.225 928.092 183.527 927.879 184.822L930.839 185.308C931.056 183.993 931.259 182.671 931.45 181.341L928.48 180.915ZM927.198 188.713C926.957 190.014 926.702 191.307 926.435 192.592L929.373 193.202C929.644 191.897 929.902 190.583 930.148 189.261L927.198 188.713ZM925.592 196.448C925.295 197.738 924.985 199.02 924.663 200.293L927.572 201.029C927.899 199.735 928.214 198.432 928.515 197.121L925.592 196.448ZM923.654 204.104C923.301 205.381 922.935 206.648 922.557 207.907L925.43 208.771C925.815 207.491 926.187 206.202 926.546 204.904L923.654 204.104ZM921.38 211.664C920.97 212.924 920.547 214.175 920.111 215.415L922.941 216.41C923.385 215.147 923.815 213.875 924.233 212.593L921.38 211.664ZM918.762 219.115C918.294 220.354 917.813 221.582 917.32 222.799L920.1 223.926C920.603 222.687 921.092 221.436 921.568 220.176L918.762 219.115ZM915.795 226.435C915.27 227.647 914.731 228.848 914.181 230.037L916.903 231.298C917.464 230.086 918.012 228.863 918.548 227.629L915.795 226.435ZM912.478 233.598C911.894 234.78 911.298 235.95 910.69 237.108L913.345 238.504C913.965 237.324 914.573 236.131 915.168 234.926L912.478 233.598ZM908.806 240.582C908.164 241.732 907.509 242.868 906.842 243.992L909.421 245.523C910.102 244.377 910.77 243.218 911.425 242.046L908.806 240.582ZM904.78 247.361C904.076 248.477 903.361 249.578 902.633 250.666L905.127 252.334C905.869 251.224 906.6 250.099 907.317 248.961L904.78 247.361ZM900.398 253.91C899.634 254.986 898.858 256.048 898.07 257.095L900.466 258.899C901.271 257.83 902.064 256.745 902.844 255.646L900.398 253.91ZM895.66 260.202C894.836 261.234 894 262.25 893.153 263.25L895.442 265.189C896.308 264.167 897.162 263.128 898.004 262.074L895.66 260.202ZM890.563 266.215C889.683 267.194 888.791 268.156 887.888 269.1L890.057 271.173C890.981 270.206 891.893 269.223 892.794 268.222L890.563 266.215ZM885.121 271.908C884.184 272.83 883.236 273.735 882.276 274.622L884.312 276.825C885.295 275.916 886.266 274.99 887.225 274.046L885.121 271.908ZM879.343 277.248C878.348 278.109 877.343 278.953 876.328 279.777L878.218 282.106C879.259 281.261 880.289 280.397 881.308 279.514L879.343 277.248ZM873.237 282.203C872.189 282.998 871.13 283.773 870.061 284.529L871.793 286.979C872.89 286.203 873.975 285.408 875.05 284.593L873.237 282.203ZM866.813 286.744C865.716 287.465 864.61 288.165 863.494 288.845L865.054 291.407C866.2 290.709 867.335 289.991 868.461 289.251L866.813 286.744ZM860.099 290.831C858.955 291.474 857.802 292.095 856.64 292.694L858.016 295.36C859.21 294.744 860.394 294.106 861.568 293.447L860.099 290.831ZM853.118 294.432C851.932 294.991 850.737 295.528 849.533 296.043L850.713 298.801C851.95 298.272 853.178 297.721 854.396 297.146L853.118 294.432ZM845.895 297.52C844.673 297.99 843.442 298.437 842.204 298.862L843.176 301.7C844.45 301.263 845.715 300.803 846.972 300.32L845.895 297.52ZM838.467 300.065C837.214 300.442 835.954 300.797 834.686 301.127L835.444 304.03C836.748 303.69 838.044 303.326 839.332 302.937L838.467 300.065ZM830.869 302.047C829.594 302.329 828.311 302.587 827.022 302.821L827.558 305.773C828.885 305.532 830.204 305.266 831.517 304.976L830.869 302.047ZM823.145 303.45C821.852 303.635 820.554 303.796 819.249 303.932L819.561 306.916C820.903 306.775 822.239 306.61 823.569 306.42L823.145 303.45ZM815.339 304.267C814.036 304.354 812.726 304.417 811.412 304.455L811.499 307.454C812.851 307.414 814.198 307.349 815.539 307.26L815.339 304.267ZM807.49 304.497C806.834 304.492 806.177 304.48 805.519 304.463L805.44 307.462C806.117 307.48 806.792 307.491 807.467 307.497L807.49 304.497ZM805.479 304.463H803.479V307.463H805.479V304.463ZM799.48 304.463H795.48V307.463H799.48V304.463ZM791.48 304.463H787.48V307.463H791.48V304.463ZM783.48 304.463H779.48V307.463H783.48V304.463ZM775.48 304.463H771.481V307.463H775.48V304.463ZM767.481 304.463H763.481V307.463H767.481V304.463ZM759.481 304.463H755.481V307.463H759.481V304.463ZM751.481 304.463H747.481V307.463H751.481V304.463ZM743.482 304.463H739.482V307.463H743.482V304.463ZM735.482 304.463H731.482V307.463H735.482V304.463ZM727.482 304.463H723.482V307.463H727.482V304.463ZM719.482 304.463H715.482V307.463H719.482V304.463ZM711.483 304.463H707.483V307.463H711.483V304.463ZM703.483 304.463H699.483V307.463H703.483V304.463ZM695.483 304.463H691.483V307.463H695.483V304.463ZM687.483 304.463H683.484V307.463H687.483V304.463ZM679.484 304.463H675.484V307.463H679.484V304.463ZM671.484 304.463H667.484V307.463H671.484V304.463ZM663.484 304.463H659.484V307.463H663.484V304.463ZM655.485 304.463H651.485V307.463H655.485V304.463ZM647.485 304.463H643.485V307.463H647.485V304.463ZM639.485 304.463H635.485V307.463H639.485V304.463ZM631.485 304.463H627.486V307.463H631.485V304.463ZM623.486 304.463H619.486V307.463H623.486V304.463ZM615.486 304.463H611.486V307.463H615.486V304.463ZM607.486 304.463H603.486V307.463H607.486V304.463ZM599.487 304.463H595.487V307.463H599.487V304.463ZM591.487 304.463H587.487V307.463H591.487V304.463ZM583.487 304.463H579.487V307.463H583.487V304.463ZM575.487 304.463H571.487V307.463H575.487V304.463ZM567.488 304.463H563.488V307.463H567.488V304.463ZM559.488 304.463H555.488V307.463H559.488V304.463ZM551.488 304.463H547.488V307.463H551.488V304.463ZM543.488 304.463H539.489V307.463H543.488V304.463ZM535.489 304.463H531.489V307.463H535.489V304.463ZM527.489 304.463H523.489V307.463H527.489V304.463ZM519.489 304.463H515.489V307.463H519.489V304.463ZM511.489 304.463H507.49V307.463H511.489V304.463ZM503.49 304.463H499.49V307.463H503.49V304.463ZM495.49 304.463H491.49V307.463H495.49V304.463ZM487.49 304.463H483.49V307.463H487.49V304.463ZM479.49 304.463H475.49V307.463H479.49V304.463ZM471.491 304.463H467.491V307.463H471.491V304.463ZM463.491 304.463H459.491V307.463H463.491V304.463ZM455.491 304.463H451.491V307.463H455.491V304.463ZM447.491 304.463H443.491V307.463H447.491V304.463ZM439.492 304.463H435.492V307.463H439.492V304.463ZM431.492 304.463H427.492V307.463H431.492V304.463ZM423.492 304.463H419.492V307.463H423.492V304.463ZM415.492 304.463H411.492V307.463H415.492V304.463ZM407.493 304.463H403.493V307.463H407.493V304.463ZM399.493 304.463H395.493V307.463H399.493V304.463ZM391.493 304.463H387.493V307.463H391.493V304.463ZM383.493 304.463H379.493V307.463H383.493V304.463ZM375.494 304.463H371.494V307.463H375.494V304.463ZM367.494 304.463H363.494V307.463H367.494V304.463ZM359.494 304.463H355.494V307.463H359.494V304.463ZM351.494 304.463H347.494V307.463H351.494V304.463ZM343.495 304.463H339.495V307.463H343.495V304.463ZM335.495 304.463H331.495V307.463H335.495V304.463ZM327.495 304.463H323.495V307.463H327.495V304.463ZM319.495 304.463H315.495V307.463H319.495V304.463ZM311.495 304.463H307.496V307.463H311.495V304.463ZM303.496 304.463H299.496V307.463H303.496V304.463ZM295.496 304.463H291.496V307.463H295.496V304.463ZM287.496 304.463H283.496V307.463H287.496V304.463ZM279.496 304.463H275.497V307.463H279.496V304.463ZM271.497 304.463H267.497V307.463H271.497V304.463ZM263.497 304.463H259.497V307.463H263.497V304.463ZM255.497 304.463H251.497V307.463H255.497V304.463ZM247.497 304.463H243.498V307.463H247.497V304.463ZM239.498 304.463H235.498V307.463H239.498V304.463ZM231.498 304.463H227.498V307.463H231.498V304.463ZM223.498 304.463H219.498V307.463H223.498V304.463ZM215.498 304.463H211.499V307.463H215.498V304.463ZM207.499 304.463H205.5V307.463H207.499V304.463Z" fill="#B1B1B1"/>
</svg>
