<svg width="404" height="363" viewBox="0 0 404 363" fill="none" xmlns="http://www.w3.org/2000/svg">
<circle cx="209.5" cy="181.5" r="181.5" fill="#E3F0FF"/>
<path d="M20.6265 355.671C22.3332 352.645 16.3268 348.988 13.5435 340.684C11.3379 334.133 13.5632 331.908 10.5961 327.096C8.20669 323.21 3.69696 319.691 1.62918 320.742C-1.397 322.284 0.217839 332.682 3.01427 339.975C6.20455 348.299 13.13 358.329 18.2502 357.253C18.4931 357.2 19.9504 356.872 20.6265 355.671Z" fill="#26BF6B"/>
<path d="M17.6329 356.984C13.2611 354.266 18.4535 345.247 16.1691 332.472C14.3639 322.39 9.88698 321.083 10.3137 312.72C10.6616 305.972 14.016 298.193 17.4491 298.088C22.4775 297.931 27.7815 312.589 29.3372 324.063C31.1162 337.14 29.2585 355.106 21.8407 357.351C21.4862 357.456 19.3659 358.06 17.6329 356.984Z" fill="#2DD37F"/>
<path d="M128.591 355.684H38.5996V186.914H128.591V355.684Z" fill="#204D84"/>
<path d="M80.7692 220.628V266.618C80.7692 267.301 80.2178 267.853 79.5351 267.853H50.363C49.9101 267.853 49.5031 267.603 49.293 267.229C49.1946 267.052 49.1289 266.842 49.1289 266.618V220.628C49.1289 219.946 49.6869 219.394 50.363 219.394H79.5351C80.2178 219.394 80.7692 219.946 80.7692 220.628Z" fill="#E6F0FF"/>
<g opacity="0.6">
<path d="M80.7692 220.628V222.545C72.7344 229.096 55.4504 243.17 49.1289 248.218V238.602L76.0757 219.394H79.5351C80.2178 219.394 80.7692 219.946 80.7692 220.628Z" fill="white"/>
</g>
<g opacity="0.3">
<path d="M80.8414 231.998V238.516L49.1289 260.671V254.002L80.8414 231.998Z" fill="white"/>
</g>
<g opacity="0.2">
<path d="M80.8433 246.223V251.849L58.1175 267.853H50.3649C49.912 267.853 49.505 267.603 49.2949 267.229L80.8433 246.223Z" fill="white"/>
</g>
<path d="M117.396 220.628V266.618C117.396 267.301 116.845 267.853 116.162 267.853H86.99C86.5305 267.853 86.13 267.603 85.92 267.229C85.8149 267.052 85.7559 266.842 85.7559 266.618V220.628C85.7559 219.946 86.3138 219.394 86.99 219.394H116.162C116.845 219.394 117.396 219.946 117.396 220.628Z" fill="#E6F0FF"/>
<g opacity="0.6">
<path d="M117.396 220.628V222.545C109.355 229.096 92.0774 243.17 85.7559 248.218V238.602L112.703 219.394H116.162C116.845 219.394 117.396 219.946 117.396 220.628Z" fill="white"/>
</g>
<g opacity="0.3">
<path d="M117.468 231.998V238.516L85.7559 260.671V254.002L117.468 231.998Z" fill="white"/>
</g>
<g opacity="0.2">
<path d="M117.468 246.223V251.849L94.7425 267.853H86.9899C86.5304 267.853 86.13 267.603 85.9199 267.229L117.468 246.223Z" fill="white"/>
</g>
<path d="M80.9645 278.329V324.319C80.9645 325.002 80.4131 325.553 79.7304 325.553H50.5583C50.1054 325.553 49.6984 325.304 49.4883 324.93C49.3899 324.746 49.3242 324.543 49.3242 324.319V278.329C49.3242 277.647 49.8822 277.095 50.5583 277.095H79.7304C80.4131 277.095 80.9645 277.647 80.9645 278.329Z" fill="#E6F0FF"/>
<g opacity="0.6">
<path d="M80.9645 278.329V280.246C72.9297 286.797 55.6457 300.871 49.3242 305.919V296.303L76.271 277.095H79.7304C80.4131 277.095 80.9645 277.647 80.9645 278.329Z" fill="white"/>
</g>
<g opacity="0.3">
<path d="M81.0367 289.699V296.217L49.3242 318.372V311.703L81.0367 289.699Z" fill="white"/>
</g>
<g opacity="0.2">
<path d="M81.0367 303.924V309.549L58.3108 325.553H50.5583C50.1053 325.553 49.6983 325.304 49.4883 324.93L81.0367 303.924Z" fill="white"/>
</g>
<path d="M117.595 278.329V324.319C117.595 325.002 117.044 325.553 116.361 325.553H87.1892C86.7297 325.553 86.3292 325.304 86.1192 324.93C86.0142 324.746 85.9551 324.543 85.9551 324.319V278.329C85.9551 277.647 86.5131 277.095 87.1892 277.095H116.361C117.044 277.095 117.595 277.647 117.595 278.329Z" fill="#E6F0FF"/>
<g opacity="0.6">
<path d="M117.595 278.329V280.246C109.554 286.797 92.2766 300.871 85.9551 305.919V296.303L112.902 277.095H116.361C117.044 277.095 117.595 277.647 117.595 278.329Z" fill="white"/>
</g>
<g opacity="0.3">
<path d="M117.668 289.699V296.217L85.9551 318.372V311.703L117.668 289.699Z" fill="white"/>
</g>
<g opacity="0.2">
<path d="M117.67 303.924V309.549L94.9436 325.553H87.1911C86.7316 325.553 86.3312 325.304 86.1211 324.93L117.67 303.924Z" fill="white"/>
</g>
<path d="M133.512 179.43V195.579H34.2656V179.43H133.512Z" fill="#EFD745"/>
<g opacity="0.3">
<path d="M128.591 209.259L38.4883 195.605H128.591V209.259Z" fill="black"/>
</g>
<g opacity="0.1">
<path d="M133.512 179.43V195.579H34.2656V195.48C89.669 194.298 122.241 183.533 132.725 179.43H133.512Z" fill="black"/>
</g>
<g opacity="0.1">
<path d="M133.514 188.036V195.579H101.486C115.383 193.183 126.044 190.38 133.514 188.036Z" fill="black"/>
</g>
<g opacity="0.2">
<path d="M95.7607 179.43C84.1746 183.533 60.0177 191.089 40.1736 190.655C38.0598 190.609 36.0971 190.445 34.2656 190.183V179.43H95.7607Z" fill="white"/>
</g>
<path d="M381.555 356.498H317.953V237.229H381.555V356.498Z" fill="#204D84"/>
<path d="M347.755 261.051V293.558C347.755 294.037 347.367 294.425 346.882 294.425H326.27C325.948 294.425 325.659 294.247 325.515 293.985C325.442 293.86 325.396 293.716 325.396 293.558V261.051C325.396 260.572 325.79 260.178 326.27 260.178H346.882C347.367 260.178 347.755 260.572 347.755 261.051Z" fill="#E6F0FF"/>
<g opacity="0.6">
<path d="M347.755 261.051V262.41C342.077 267.038 329.86 276.983 325.396 280.554V273.76L344.44 260.178H346.882C347.367 260.178 347.755 260.572 347.755 261.051Z" fill="white"/>
</g>
<g opacity="0.3">
<path d="M347.807 269.086V273.694L325.396 289.35V284.637L347.807 269.086Z" fill="white"/>
</g>
<g opacity="0.2">
<path d="M347.808 279.143V283.121L331.745 294.424H326.271C325.949 294.424 325.66 294.247 325.516 293.985L347.808 279.143Z" fill="white"/>
</g>
<path d="M373.644 261.051V293.558C373.644 294.037 373.25 294.425 372.771 294.425H352.152C351.831 294.425 351.548 294.247 351.397 293.985C351.325 293.86 351.279 293.716 351.279 293.558V261.051C351.279 260.572 351.673 260.178 352.152 260.178H372.771C373.25 260.178 373.644 260.572 373.644 261.051Z" fill="#E6F0FF"/>
<g opacity="0.6">
<path d="M373.644 261.051V262.41C367.959 267.038 355.743 276.983 351.279 280.554V273.76L370.323 260.178H372.771C373.25 260.178 373.644 260.572 373.644 261.051Z" fill="white"/>
</g>
<g opacity="0.3">
<path d="M373.69 269.086V273.694L351.279 289.35V284.637L373.69 269.086Z" fill="white"/>
</g>
<g opacity="0.2">
<path d="M373.689 279.142V283.12L357.633 294.424H352.151C351.83 294.424 351.547 294.247 351.396 293.984L373.689 279.142Z" fill="white"/>
</g>
<path d="M347.893 301.83V334.33C347.893 334.816 347.506 335.203 347.027 335.203H326.408C326.087 335.203 325.804 335.026 325.653 334.763C325.581 334.638 325.535 334.487 325.535 334.33V301.83C325.535 301.35 325.929 300.957 326.408 300.957H347.027C347.506 300.957 347.893 301.35 347.893 301.83Z" fill="#E6F0FF"/>
<g opacity="0.6">
<path d="M347.893 301.83V303.188C342.215 307.816 329.999 317.761 325.535 321.332V314.532L344.578 300.957H347.027C347.506 300.957 347.893 301.35 347.893 301.83Z" fill="white"/>
</g>
<g opacity="0.3">
<path d="M347.946 309.865V314.473L325.535 330.129V325.416L347.946 309.865Z" fill="white"/>
</g>
<g opacity="0.2">
<path d="M347.947 319.921V323.899L331.884 335.203H326.409C326.088 335.203 325.805 335.026 325.654 334.763L347.947 319.921Z" fill="white"/>
</g>
<path d="M373.782 301.83V334.33C373.782 334.816 373.388 335.203 372.909 335.203H352.297C351.969 335.203 351.686 335.026 351.535 334.763C351.463 334.638 351.424 334.487 351.424 334.33V301.83C351.424 301.35 351.811 300.957 352.297 300.957H372.909C373.388 300.957 373.782 301.35 373.782 301.83Z" fill="#E6F0FF"/>
<g opacity="0.6">
<path d="M373.782 301.83V303.188C368.097 307.816 355.888 317.761 351.424 321.332V314.532L370.461 300.957H372.909C373.388 300.957 373.782 301.35 373.782 301.83Z" fill="white"/>
</g>
<g opacity="0.3">
<path d="M373.828 309.864V314.472L351.424 330.128V325.415L373.828 309.864Z" fill="white"/>
</g>
<g opacity="0.2">
<path d="M373.828 319.921V323.899L357.771 335.203H352.297C351.968 335.203 351.686 335.026 351.535 334.763L373.828 319.921Z" fill="white"/>
</g>
<path d="M385.033 231.939V243.354H314.893V231.939H385.033Z" fill="#EFD745"/>
<g opacity="0.3">
<path d="M381.554 253.017L317.873 243.374H381.554V253.017Z" fill="black"/>
</g>
<g opacity="0.1">
<path d="M385.033 231.939V243.354H314.893V243.282C354.043 242.448 377.064 234.84 384.475 231.939H385.033Z" fill="black"/>
</g>
<g opacity="0.1">
<path d="M385.034 238.024V243.354H362.4C372.214 241.661 379.75 239.678 385.034 238.024Z" fill="black"/>
</g>
<g opacity="0.2">
<path d="M358.349 231.939C350.163 234.84 333.089 240.177 319.068 239.875C317.571 239.842 316.186 239.724 314.893 239.534V231.939H358.349Z" fill="white"/>
</g>
<path d="M331.58 149.923V356.905H161.838V149.923H331.58Z" fill="#DBC03A"/>
<path d="M311.223 149.72V356.701H141.488V149.72H311.223Z" fill="#EFD745"/>
<path d="M359.052 157.86L118.152 156.028L206.03 87.4107L238.569 62L330.044 134.773L359.052 157.86Z" fill="#204D84"/>
<path d="M249.151 275.336V356.701H196.643V275.336C196.643 273.852 197.85 272.645 199.334 272.645H246.46C247.943 272.645 249.151 273.852 249.151 275.336Z" fill="#E6F0FF"/>
<g opacity="0.3">
<path d="M211.091 272.645V356.701H196.643V275.369C196.643 273.866 197.857 272.645 199.36 272.645H211.091Z" fill="black"/>
</g>
<path d="M196.348 187.012V250.188C196.348 251.126 195.586 251.888 194.647 251.888H154.578C153.948 251.888 153.397 251.54 153.108 251.028C152.964 250.778 152.885 250.496 152.885 250.188V187.012C152.885 186.073 153.646 185.318 154.578 185.318H194.647C195.586 185.318 196.348 186.073 196.348 187.012Z" fill="#E6F0FF"/>
<g opacity="0.6">
<path d="M196.348 187.012V189.651C185.3 198.651 161.563 217.983 152.885 224.921V211.707L189.895 185.318H194.647C195.586 185.318 196.348 186.073 196.348 187.012Z" fill="white"/>
</g>
<g opacity="0.3">
<path d="M196.439 202.635V211.589L152.885 242.022V232.858L196.439 202.635Z" fill="white"/>
</g>
<g opacity="0.2">
<path d="M196.441 222.171V229.904L165.227 251.888H154.58C153.95 251.888 153.398 251.54 153.109 251.028L196.441 222.171Z" fill="white"/>
</g>
<path d="M249.058 186.809V249.984C249.058 250.923 248.297 251.684 247.365 251.684H207.289C206.659 251.684 206.108 251.336 205.819 250.824C205.681 250.575 205.596 250.293 205.596 249.984V186.809C205.596 185.87 206.357 185.115 207.289 185.115H247.365C248.297 185.115 249.058 185.87 249.058 186.809Z" fill="#E6F0FF"/>
<g opacity="0.6">
<path d="M249.058 186.809V189.447C238.017 198.447 214.274 217.779 205.596 224.718V211.504L242.612 185.115H247.365C248.297 185.115 249.058 185.87 249.058 186.809Z" fill="white"/>
</g>
<g opacity="0.3">
<path d="M249.15 202.432V211.386L205.596 241.818V232.655L249.15 202.432Z" fill="white"/>
</g>
<g opacity="0.2">
<path d="M249.152 221.968V229.7L217.938 251.684H207.291C206.661 251.684 206.109 251.337 205.82 250.825L249.152 221.968Z" fill="white"/>
</g>
<path d="M304.416 187.012V250.188C304.416 251.126 303.654 251.888 302.722 251.888H262.653C262.023 251.888 261.465 251.54 261.176 251.028C261.038 250.778 260.953 250.496 260.953 250.188V187.012C260.953 186.073 261.715 185.318 262.653 185.318H302.722C303.654 185.318 304.416 186.073 304.416 187.012Z" fill="#E6F0FF"/>
<g opacity="0.6">
<path d="M304.416 187.012V189.651C293.375 198.651 269.631 217.983 260.953 224.921V211.707L297.97 185.318H302.722C303.654 185.318 304.416 186.073 304.416 187.012Z" fill="white"/>
</g>
<g opacity="0.3">
<path d="M304.508 202.635V211.589L260.953 242.022V232.858L304.508 202.635Z" fill="white"/>
</g>
<g opacity="0.2">
<path d="M304.507 222.171V229.904L273.294 251.888H262.653C262.023 251.888 261.465 251.54 261.176 251.028L304.507 222.171Z" fill="white"/>
</g>
<g opacity="0.3">
<path d="M141.488 156.205L331.58 170.824V157.86L141.488 156.205Z" fill="black"/>
</g>
<g opacity="0.1">
<path d="M359.052 157.86L296.539 157.38L118.152 156.028L180.271 107.517L206.03 87.4106C231.296 104.833 275.35 129.213 330.044 134.773L359.052 157.86Z" fill="black"/>
</g>
<g opacity="0.1">
<path d="M296.539 157.381L199.872 156.645L118.152 156.028L149.491 131.556L180.271 107.518C209.181 125.497 249.026 145.584 296.539 157.381Z" fill="black"/>
</g>
<g opacity="0.1">
<path d="M199.872 156.645L118.152 156.028L149.491 131.556C164.116 140.083 181.019 148.794 199.872 156.645Z" fill="black"/>
</g>
<path d="M307.955 325.153H278.441V307.855H307.955V325.153Z" fill="#8FACFF"/>
<path d="M280.128 325.153H250.621V307.855H280.128V325.153Z" fill="#8FACFF"/>
<path d="M266.219 341.131H236.705V323.833H266.219V341.131Z" fill="#3467A4"/>
<path d="M238.393 338.301V326.656H264.532V338.301H238.393Z" fill="#D7E6FF"/>
<path d="M294.038 341.131H264.531V323.833H294.038V341.131Z" fill="#3467A4"/>
<path d="M266.219 338.301V326.656H292.358V338.301H266.219Z" fill="#D7E6FF"/>
<path d="M321.864 341.131H292.357V323.833H321.864V341.131Z" fill="#3467A4"/>
<path d="M294.039 338.301V326.656H320.178V338.301H294.039Z" fill="#D7E6FF"/>
<path d="M280.129 322.33V310.678H306.268V322.33H280.129Z" fill="#D7E6FF"/>
<path d="M252.309 322.33V310.678H278.441V322.33H252.309Z" fill="#D7E6FF"/>
<path d="M252.36 357.226H222.854V339.929H252.36V357.226Z" fill="#204D84"/>
<path d="M224.541 354.404V342.752H250.674V354.404H224.541Z" fill="#D7E6FF"/>
<path d="M280.187 357.226H250.674V339.929H280.187V357.226Z" fill="#204D84"/>
<path d="M252.361 354.404V342.752H278.501V354.404H252.361Z" fill="#D7E6FF"/>
<path d="M308.007 357.226H278.5V339.929H308.007V357.226Z" fill="#204D84"/>
<path d="M280.188 354.404V342.752H306.327V354.404H280.188Z" fill="#D7E6FF"/>
<path d="M337.448 357.226H307.941V339.929H337.448V357.226Z" fill="#204D84"/>
<path d="M309.629 354.404V342.752H335.762V354.404H309.629Z" fill="#D7E6FF"/>
<path d="M105.431 325.153H75.9238V307.855H105.431V325.153Z" fill="#8FACFF"/>
<path d="M77.6045 325.153H48.0977V307.855H77.6045V325.153Z" fill="#8FACFF"/>
<path d="M63.6944 341.131H34.1875V323.833H63.6944V341.131Z" fill="#3467A4"/>
<path d="M35.875 338.301V326.656H62.0078V338.301H35.875Z" fill="#D7E6FF"/>
<path d="M91.5213 341.131H62.0078V323.833H91.5213V341.131Z" fill="#3467A4"/>
<path d="M63.6953 338.301V326.656H89.8347V338.301H63.6953Z" fill="#D7E6FF"/>
<path d="M119.341 341.131H89.834V323.833H119.341V341.131Z" fill="#3467A4"/>
<path d="M91.5215 338.301V326.656H117.654V338.301H91.5215Z" fill="#D7E6FF"/>
<path d="M77.6055 322.33V310.678H103.745V322.33H77.6055Z" fill="#D7E6FF"/>
<path d="M49.7852 322.33V310.678H75.9245V322.33H49.7852Z" fill="#D7E6FF"/>
<path d="M49.8435 357.226H20.3301V339.929H49.8435V357.226Z" fill="#204D84"/>
<path d="M22.0176 354.404V342.752H48.1569V354.404H22.0176Z" fill="#D7E6FF"/>
<path d="M77.6651 357.226H48.1582V339.929H77.6651V357.226Z" fill="#204D84"/>
<path d="M49.8438 354.404V342.752H75.9765V354.404H49.8438Z" fill="#D7E6FF"/>
<path d="M105.492 357.226H75.9785V339.929H105.492V357.226Z" fill="#204D84"/>
<path d="M77.6641 354.404V342.752H103.803V354.404H77.6641Z" fill="#D7E6FF"/>
<path d="M134.931 357.226H105.418V339.929H134.931V357.226Z" fill="#204D84"/>
<path d="M107.105 354.404V342.752H133.245V354.404H107.105Z" fill="#D7E6FF"/>
<path d="M100.186 270.577L84.2344 272.598C84.963 282.123 89.8797 311.781 89.8797 311.781C88.9082 327.286 93.2604 352.205 93.2604 352.205L98.164 351.588L100.869 273.852L100.186 270.577Z" fill="#204D84"/>
<path d="M83.3564 270.078L71.3633 270.544L73.0438 311.282C72.0788 326.787 76.4244 351.712 76.4244 351.712L81.3346 351.089L85.4767 291.11L96.7149 271.436L83.3564 270.078Z" fill="#204D84"/>
<path d="M87.0306 356.984L81.0308 356.951L79.1862 356.938L75.3066 356.918L75.5298 354.771L75.5364 354.666L75.8187 351.936L75.9434 350.708L81.4049 350.879L85.698 355.539L87.0241 356.984H87.0306Z" fill="#042956"/>
<path d="M98.1449 271.515L72.6423 271.535L72.3469 260.973L72.3404 259.673L71.6445 236.206L83.0666 231.63L88.8892 231.532L100.377 236.586L98.1449 271.515Z" fill="#042956"/>
<path d="M83.4023 231.085V231.656C83.4155 233.127 84.6496 234.315 86.1594 234.308C87.6692 234.302 88.8902 233.1 88.8836 231.624L88.877 231.052L88.8377 230.317L88.6604 227.055L83.7699 227.081L83.6058 228.853L83.4023 231.085Z" fill="#F9DAD2"/>
<g opacity="0.2">
<path d="M84.1367 228.886C84.78 229.845 85.7056 230.521 87.0053 230.645C87.688 230.711 88.2985 230.659 88.8368 230.514L88.6793 226.891L84.2811 226.923L84.1367 228.886Z" fill="black"/>
</g>
<path d="M80.7559 223.818C80.7559 223.818 81.2876 225.742 81.8193 226.424C81.8193 226.424 82.456 224.265 82.3379 224.048C82.2197 223.832 81.9703 223.602 81.9703 223.602" fill="#24335B"/>
<path d="M85.6273 229.681C93.5374 231.131 93.7606 220.701 93.7606 220.701C93.7606 220.701 93.1698 217.11 88.4763 216.25C84.2685 215.475 81.8463 218.771 81.8463 218.771C81.8463 218.771 79.1943 228.499 85.6273 229.681Z" fill="#F9DAD2"/>
<path d="M94.3901 218.003C92.8343 214.642 86.0139 212.252 82.4888 216.04V216.033C81.281 217.267 80.5327 219.283 80.5655 222.368C80.5655 222.368 80.5589 222.729 80.6114 223.221C80.7099 224.245 82.1869 224.396 82.5151 223.418L83.014 220.3C83.4866 220.779 84.5107 221.567 86.2634 221.738L86.178 220.825C86.178 220.825 88.9154 222.401 92.6505 221.987C92.6505 221.987 93.3135 222.65 93.2282 224.245C93.9765 224.226 95.6242 220.661 94.3901 218.003Z" fill="#24335B"/>
<path d="M83.9404 222.985C83.7501 223.983 82.7588 224.639 81.7348 224.449C80.7107 224.258 80.0412 223.3 80.2315 222.302C80.4219 221.304 81.4131 220.648 82.4372 220.838C83.4612 221.029 84.1308 221.987 83.9404 222.985Z" fill="#F9DAD2"/>
<path d="M83.4407 231.433V267.485C83.4407 269.113 83.1256 270.728 82.5151 272.238C82.3969 272.513 82.2591 272.776 82.095 273.012C81.9309 273.255 81.7405 273.472 81.5304 273.669C80.7952 274.351 79.8106 274.758 78.7603 274.752L73.1018 274.725C70.6598 274.719 69.1106 272.1 70.2725 269.953L72.1565 254.901L72.0777 251.967L71.9727 247.884L71.8677 243.998L71.7626 239.915L71.6576 236.088L83.4407 231.433Z" fill="#EFD745"/>
<path d="M100.376 236.586C104.729 238.766 104.335 252.229 104.335 252.229L99.0898 251.238L100.376 236.586Z" fill="#042956"/>
<path d="M71.6588 236.186C71.6588 236.186 60.5716 253.024 64.7268 260.35C67.7005 265.299 78.3939 258.269 78.3939 258.269L76.8118 253.516L72.1314 254.711L71.6588 236.186Z" fill="#042956"/>
<g opacity="0.2">
<path d="M72.1574 254.704L70.2734 255.301L71.8817 245.002L72.1574 254.704Z" fill="black"/>
</g>
<path d="M76.9102 253.811C76.9102 253.811 82.5555 251.435 83.3432 252.426C84.1375 253.417 81.3674 253.811 81.3674 253.811C81.3674 253.811 82.5161 257.658 78.223 257.763L76.9102 253.811Z" fill="#F9DAD2"/>
<path d="M83.4417 237.275V241.037L71.8687 243.997L71.7637 239.914L83.4417 237.275Z" fill="#FEC224"/>
<path d="M83.4406 245.297V249.052L72.0777 251.967L71.9727 247.884L83.4406 245.297Z" fill="#FEC224"/>
<path d="M88.791 231.433V267.485C88.791 269.113 89.1061 270.728 89.7232 272.238C89.8348 272.513 89.9726 272.776 90.1433 273.012C90.3074 273.255 90.4978 273.472 90.7078 273.669C91.443 274.351 92.4277 274.758 93.4714 274.752L99.1299 274.725C101.572 274.719 103.128 272.1 101.959 269.953L100.082 254.901L100.154 251.967L100.266 247.884L100.364 243.998L100.476 239.915L100.574 236.088L88.791 231.433Z" fill="#EFD745"/>
<path d="M88.791 237.275V241.037L100.364 243.997L100.476 239.914L88.791 237.275Z" fill="#FEC224"/>
<path d="M88.791 245.297V249.052L100.154 251.967L100.266 247.884L88.791 245.297Z" fill="#FEC224"/>
<path d="M99.1418 244.713L95.9974 244.037C95.4657 243.918 94.9406 244.26 94.8224 244.791L90.6015 264.261C90.4899 264.8 90.8247 265.325 91.363 265.436L104.426 268.272C104.964 268.384 105.49 268.049 105.601 267.517L109.822 248.041C109.868 247.824 109.842 247.601 109.756 247.417C109.625 247.142 109.382 246.931 109.067 246.866L106.002 246.203C105.647 246.124 99.4962 244.791 99.1418 244.713Z" fill="#D7E6FF"/>
<path d="M106.671 263.894C104.919 263.513 104.354 262.187 104.676 260.691C105.004 259.194 106.094 258.098 107.846 258.478C109.599 258.859 108.424 264.275 106.671 263.894Z" fill="#F9DAD2"/>
<path d="M105.175 357.285H92.3027L92.9001 351.345H98.447L104.88 357.023L105.175 357.285Z" fill="#042956"/>
<g opacity="0.2">
<path d="M87.0648 294.045L89.0341 284.887L86.3887 289.515L87.0648 294.045Z" fill="black"/>
</g>
<g opacity="0.1">
<path d="M143.682 356.852L137.879 356.859H136.094L132.346 356.865L132.543 354.719L132.556 354.607L132.805 351.876C134.269 353.399 137.617 356.091 142.383 355.415H142.389L143.682 356.852Z" fill="black"/>
</g>
<path d="M46.7852 257.704L48.2556 260.638L49.0367 258.741L46.7852 257.704Z" fill="#24335B"/>
<g opacity="0.1">
<path d="M130 287.775L129.055 302.945H111.41C118.158 298.481 124.381 293.25 130 287.775Z" fill="black"/>
</g>
<path fill-rule="evenodd" clip-rule="evenodd" d="M40.5305 255.676V258.498C39.8872 258.472 39.1913 258.459 38.4758 258.459C37.7997 258.459 37.1564 258.472 36.5525 258.492C36.3227 259.995 35.7253 261.38 34.8588 262.549C35.2658 262.988 35.7122 263.448 36.1783 263.914C36.6903 264.426 37.1892 264.905 37.6618 265.338L35.6663 267.334C35.233 266.861 34.7538 266.362 34.2418 265.85C33.7692 265.378 33.3097 264.938 32.8633 264.524C31.6882 265.378 30.3032 265.962 28.7934 266.179C28.7737 266.783 28.7605 267.419 28.7605 268.089C28.7605 268.811 28.7737 269.5 28.7999 270.144H25.9772C26.0035 269.5 26.0232 268.811 26.0232 268.089C26.0232 267.413 26.0101 266.763 25.9838 266.152C24.4937 265.909 23.1217 265.312 21.9664 264.446C21.5135 264.859 21.0474 265.312 20.5616 265.798C20.0562 266.303 19.577 266.802 19.1372 267.275L17.1416 265.279C17.6142 264.846 18.1131 264.367 18.6251 263.855C19.1175 263.369 19.577 262.89 19.9971 262.43C19.1765 261.288 18.612 259.949 18.3888 258.498C17.7652 258.472 17.0891 258.459 16.3867 258.459C15.6712 258.459 14.9753 258.472 14.332 258.498V255.676C14.9753 255.702 15.6712 255.715 16.3867 255.715C17.0891 255.715 17.7652 255.702 18.3888 255.676C18.6186 254.205 19.1897 252.853 20.0299 251.698C19.5967 251.232 19.124 250.739 18.6251 250.234C18.1131 249.728 17.6142 249.249 17.1416 248.809L19.1372 246.814C19.577 247.286 20.0562 247.785 20.5616 248.297C21.0605 248.796 21.5528 249.269 22.0124 249.695C23.1611 248.849 24.5134 248.258 25.9838 248.022C26.0035 247.385 26.0232 246.709 26.0232 246.006C26.0232 245.284 26.0035 244.588 25.9772 243.952H28.7999C28.7737 244.588 28.7605 245.284 28.7605 246.006C28.7605 246.702 28.7737 247.372 28.7999 247.995C30.2835 248.212 31.6489 248.776 32.8173 249.61C33.2703 249.19 33.7495 248.731 34.2418 248.238C34.7538 247.733 35.233 247.234 35.6663 246.761L37.6618 248.757C37.1892 249.19 36.6903 249.669 36.1783 250.181C35.6991 250.66 35.2461 251.133 34.826 251.579C35.7122 252.761 36.3161 254.159 36.5525 255.682C37.1564 255.702 37.7997 255.715 38.4758 255.715C39.1913 255.715 39.8872 255.702 40.5305 255.676ZM31.4191 257.087C31.4191 254.908 29.6467 253.135 27.4739 253.135C25.2945 253.135 23.5222 254.908 23.5222 257.087C23.5222 259.266 25.2945 261.039 27.4739 261.039C29.6467 261.039 31.4191 259.266 31.4191 257.087Z" fill="#204D84"/>
<path fill-rule="evenodd" clip-rule="evenodd" d="M51.7166 267.879V269.665C51.3162 269.645 50.8764 269.638 50.4234 269.638C49.9967 269.638 49.5897 269.645 49.209 269.658C49.0646 270.61 48.6904 271.476 48.1456 272.218C48.4016 272.494 48.6773 272.783 48.9727 273.078C49.2944 273.4 49.6094 273.702 49.9114 273.977L48.651 275.238C48.3753 274.942 48.0734 274.627 47.7517 274.306C47.4563 274.004 47.1609 273.721 46.8852 273.465C46.1435 274.004 45.2638 274.371 44.3186 274.509C44.2989 274.89 44.2923 275.297 44.2923 275.717C44.2923 276.17 44.3054 276.603 44.3186 277.01H42.5396C42.5527 276.603 42.5659 276.17 42.5659 275.717C42.5659 275.29 42.5527 274.877 42.5396 274.496C41.6009 274.338 40.7344 273.964 40.0058 273.413C39.7235 273.675 39.4215 273.964 39.1196 274.266C38.7979 274.588 38.496 274.903 38.2202 275.205L36.9599 273.945C37.2618 273.669 37.5769 273.367 37.8986 273.045C38.2071 272.737 38.4959 272.435 38.7651 272.146C38.2465 271.424 37.892 270.577 37.7476 269.658C37.3537 269.645 36.9271 269.638 36.4873 269.638C36.0277 269.638 35.5945 269.645 35.1875 269.665V267.879C35.5945 267.899 36.0277 267.905 36.4873 267.905C36.9271 267.905 37.3537 267.899 37.7476 267.879C37.892 266.953 38.2531 266.1 38.7848 265.371C38.5091 265.076 38.2137 264.767 37.8986 264.446C37.5769 264.124 37.2618 263.822 36.9599 263.547L38.2202 262.286C38.496 262.588 38.7979 262.903 39.1196 263.225C39.4347 263.54 39.7432 263.835 40.0386 264.105C40.7607 263.573 41.614 263.199 42.5396 263.048C42.5527 262.647 42.5659 262.221 42.5659 261.774C42.5659 261.321 42.5527 260.888 42.5396 260.481H44.3186C44.3054 260.888 44.2923 261.321 44.2923 261.774C44.2923 262.214 44.2989 262.641 44.3186 263.034C45.2507 263.166 46.1172 263.527 46.8524 264.052C47.1412 263.789 47.4432 263.501 47.7517 263.192C48.0734 262.87 48.3753 262.549 48.651 262.253L49.9114 263.514C49.6094 263.789 49.2944 264.091 48.9727 264.413C48.6707 264.715 48.3819 265.01 48.1193 265.299C48.6773 266.041 49.0646 266.921 49.209 267.886C49.5897 267.899 49.9967 267.905 50.4234 267.905C50.8764 267.905 51.3162 267.899 51.7166 267.879ZM45.9728 268.772C45.9728 267.4 44.8568 266.277 43.4783 266.277C42.1064 266.277 40.9839 267.4 40.9839 268.772C40.9839 270.144 42.1064 271.266 43.4783 271.266C44.8568 271.266 45.9728 270.144 45.9728 268.772Z" fill="#204D84"/>
<path fill-rule="evenodd" clip-rule="evenodd" d="M364.35 196.045V198.867C363.707 198.841 363.018 198.821 362.295 198.821C361.626 198.821 360.983 198.834 360.372 198.861C360.142 200.364 359.552 201.742 358.685 202.911C359.092 203.351 359.532 203.81 360.004 204.283C360.51 204.788 361.009 205.267 361.481 205.707L359.486 207.703C359.053 207.23 358.573 206.731 358.061 206.219C357.589 205.747 357.129 205.3 356.689 204.893C355.508 205.747 354.123 206.331 352.62 206.548C352.593 207.151 352.58 207.788 352.58 208.458C352.58 209.173 352.6 209.869 352.626 210.512H349.803C349.83 209.869 349.843 209.173 349.843 208.458C349.843 207.782 349.83 207.132 349.803 206.521C348.313 206.278 346.948 205.681 345.786 204.815C345.34 205.228 344.867 205.681 344.388 206.16C343.876 206.672 343.397 207.171 342.963 207.644L340.968 205.648C341.44 205.215 341.939 204.736 342.445 204.224C342.937 203.738 343.397 203.252 343.817 202.799C343.003 201.657 342.438 200.318 342.215 198.861C341.585 198.841 340.909 198.821 340.213 198.821C339.491 198.821 338.795 198.841 338.158 198.867V196.045C338.795 196.071 339.491 196.084 340.213 196.084C340.909 196.084 341.585 196.071 342.215 196.045C342.438 194.574 343.016 193.215 343.85 192.066C343.423 191.594 342.95 191.102 342.445 190.603C341.939 190.091 341.44 189.611 340.968 189.178L342.963 187.183C343.397 187.655 343.876 188.154 344.388 188.666C344.887 189.165 345.372 189.631 345.839 190.058C346.981 189.211 348.333 188.627 349.803 188.384C349.83 187.754 349.843 187.078 349.843 186.369C349.843 185.653 349.83 184.957 349.803 184.314H352.626C352.6 184.957 352.58 185.653 352.58 186.369C352.58 187.064 352.6 187.734 352.62 188.364C354.103 188.574 355.475 189.145 356.637 189.979C357.096 189.559 357.576 189.099 358.061 188.607C358.573 188.102 359.053 187.596 359.486 187.124L361.481 189.119C361.009 189.559 360.51 190.038 360.004 190.544C359.519 191.029 359.066 191.502 358.652 191.948C359.532 193.13 360.142 194.528 360.372 196.045C360.983 196.071 361.626 196.084 362.295 196.084C363.018 196.084 363.707 196.071 364.35 196.045ZM355.245 197.456C355.245 195.276 353.473 193.504 351.294 193.504C349.114 193.504 347.342 195.276 347.342 197.456C347.342 199.629 349.114 201.401 351.294 201.401C353.473 201.401 355.245 199.629 355.245 197.456Z" fill="#204D84"/>
<path fill-rule="evenodd" clip-rule="evenodd" d="M375.541 208.248V210.027C375.134 210.014 374.701 210.001 374.241 210.001C373.821 210.001 373.414 210.014 373.033 210.027C372.882 210.972 372.508 211.845 371.963 212.587C372.219 212.863 372.502 213.151 372.797 213.447C373.119 213.769 373.434 214.071 373.729 214.346L372.469 215.607C372.193 215.305 371.891 214.99 371.569 214.668C371.274 214.372 370.985 214.09 370.703 213.834C369.961 214.372 369.088 214.74 368.136 214.878C368.123 215.259 368.116 215.659 368.116 216.079C368.116 216.539 368.123 216.972 368.136 217.379H366.357C366.377 216.972 366.384 216.539 366.384 216.079C366.384 215.653 366.377 215.246 366.364 214.858C365.419 214.707 364.559 214.327 363.823 213.782C363.541 214.044 363.246 214.333 362.937 214.635C362.616 214.957 362.314 215.272 362.044 215.567L360.784 214.307C361.079 214.038 361.395 213.729 361.716 213.408C362.025 213.099 362.314 212.797 362.583 212.508C362.064 211.786 361.71 210.946 361.572 210.027C361.171 210.014 360.745 210.001 360.305 210.001C359.852 210.001 359.412 210.014 359.012 210.027V208.248C359.412 208.261 359.852 208.274 360.305 208.274C360.745 208.274 361.171 208.268 361.572 208.248C361.71 207.322 362.077 206.462 362.602 205.734C362.333 205.445 362.031 205.13 361.716 204.815C361.395 204.493 361.079 204.191 360.784 203.915L362.044 202.655C362.314 202.957 362.616 203.272 362.937 203.594C363.252 203.909 363.561 204.204 363.856 204.473C364.578 203.935 365.432 203.568 366.357 203.417C366.377 203.016 366.384 202.589 366.384 202.143C366.384 201.69 366.377 201.25 366.357 200.85H368.136C368.123 201.25 368.116 201.69 368.116 202.143C368.116 202.583 368.123 203.003 368.136 203.397C369.075 203.535 369.935 203.896 370.67 204.421C370.959 204.158 371.261 203.863 371.569 203.554C371.891 203.233 372.193 202.918 372.469 202.622L373.729 203.883C373.434 204.152 373.119 204.46 372.797 204.782C372.488 205.084 372.206 205.379 371.944 205.662C372.502 206.41 372.882 207.29 373.033 208.248C373.414 208.268 373.821 208.274 374.241 208.274C374.701 208.274 375.134 208.261 375.541 208.248ZM369.79 209.141C369.79 207.762 368.674 206.646 367.303 206.646C365.924 206.646 364.808 207.762 364.808 209.141C364.808 210.513 365.924 211.629 367.303 211.629C368.674 211.629 369.79 210.513 369.79 209.141Z" fill="#204D84"/>
<path d="M20.2524 355.447C17.9549 351.377 26.0225 346.461 29.7773 335.295C32.7378 326.479 29.7445 323.485 33.7291 317.013C36.9456 311.794 43.0111 307.061 45.7944 308.473C49.8643 310.54 47.6915 324.529 43.9301 334.336C39.637 345.529 30.3222 359.018 23.4427 357.574C23.1079 357.502 21.1583 357.056 20.2524 355.447Z" fill="#26BF6B"/>
<path d="M375.416 355.244C373.119 351.174 381.187 346.258 384.941 335.092C387.902 326.276 384.909 323.282 388.893 316.81C392.11 311.591 398.175 306.858 400.958 308.27C405.028 310.337 402.856 324.326 399.094 334.133C394.801 345.325 385.486 358.815 378.607 357.371C378.272 357.299 376.322 356.853 375.416 355.244Z" fill="#26BF6B"/>
<path d="M375.791 355.467C377.497 352.441 371.491 348.785 368.708 340.481C366.502 333.929 368.727 331.704 365.767 326.892C363.371 323.006 358.861 319.488 356.793 320.538C353.767 322.081 355.382 332.479 358.178 339.772C361.369 348.095 368.301 358.126 373.414 357.049C373.664 356.997 375.114 356.668 375.791 355.467Z" fill="#26BF6B"/>
<path d="M372.797 356.78C368.425 354.063 373.618 345.043 371.333 332.269C369.528 322.186 365.051 320.88 365.478 312.517C365.826 305.768 369.18 297.99 372.613 297.885C377.641 297.727 382.946 312.385 384.501 323.86C386.28 336.936 384.423 354.903 377.005 357.148C376.65 357.253 374.53 357.857 372.797 356.78Z" fill="#2DD37F"/>
<path d="M72.583 112.721C72.1336 110.874 72.8363 108.84 74.1926 107.516C75.5571 106.192 77.5018 105.555 79.4056 105.604C81.146 105.645 83.1641 106.576 83.3602 108.317C83.638 106.307 83.9404 104.264 84.8718 102.475C87.0616 98.2912 92.2582 96.5263 96.9727 96.706C99.7671 96.8204 102.619 97.5149 104.841 99.2145C107.064 100.914 108.551 103.733 108.15 106.503C110.16 104.223 113.535 103.259 116.444 104.125C119.352 104.991 121.648 107.647 122.082 110.654C122.841 108.921 125.146 108.374 126.968 108.889C128.782 109.403 130.26 110.686 131.797 111.781C136.928 115.442 144.102 117.215 149.503 113.979C148.653 116.071 146.43 117.231 144.339 118.089C133.602 122.526 121.591 123.825 110.152 121.807C107.227 121.284 104.318 120.557 101.352 120.442C97.6672 120.311 94.0313 121.137 90.3871 121.692C80.288 123.237 69.8785 122.697 60 120.123C65.0005 120.254 70.6873 117.345 72.5094 112.68" fill="#7FBDDE"/>
<path d="M290.783 68.0882C290.612 67.3868 290.876 66.614 291.394 66.1112C291.912 65.6084 292.651 65.3632 293.371 65.3818C294.035 65.4005 294.799 65.7543 294.876 66.4122C294.982 65.6518 295.094 64.8728 295.45 64.1932C296.282 62.6072 298.256 61.9337 300.047 62.0051C301.108 62.0455 302.192 62.3124 303.036 62.9579C303.88 63.6035 304.442 64.6742 304.293 65.7263C305.053 64.8604 306.335 64.4911 307.443 64.8201C308.548 65.1491 309.42 66.1577 309.584 67.2999C309.873 66.645 310.748 66.4371 311.437 66.6326C312.129 66.8281 312.691 67.3154 313.274 67.7313C315.22 69.1217 317.949 69.7952 320 68.5661C319.674 69.3607 318.833 69.7983 318.039 70.1272C313.96 71.8094 309.398 72.306 305.053 71.5363C303.942 71.3408 302.837 71.0614 301.71 71.0211C300.311 70.9683 298.93 71.2849 297.545 71.4959C293.709 72.0794 289.755 71.8777 286 70.9C287.903 70.9497 290.063 69.8448 290.755 68.0727" fill="#7FBDDE"/>
</svg>
