<svg width="594" height="508" viewBox="0 0 594 508" fill="none" xmlns="http://www.w3.org/2000/svg">
<mask id="mask0_1309_2799" style="mask-type:alpha" maskUnits="userSpaceOnUse" x="0" y="0" width="594" height="508">
<rect width="594" height="508" rx="40" fill="#F8FBFF"/>
</mask>
<g mask="url(#mask0_1309_2799)">
<path d="M704.802 451.729L508.531 565H427.117L36.65 339.679C18.9514 329.426 16.9984 314.046 32.3779 305.136L241.709 184.298C256.967 175.509 283.698 176.608 301.396 186.739L700.53 417.186C718.228 427.439 720.059 442.941 704.802 451.729Z" fill="#4FA7DB"/>
</g>
<path d="M169.803 253.079L68.25 194.442L231.273 100.396L332.825 159.033L169.803 253.079Z" fill="#77C5EE"/>
<path d="M169.803 374.744V253.079L332.825 159.033V280.556L169.803 374.744Z" fill="#204D84"/>
<path d="M214.984 343.017L179.434 363.554V282.68L214.984 262.143V343.017Z" fill="white"/>
<path d="M68.25 316.107V194.442L169.803 253.079V374.744L68.25 316.107Z" fill="#77C5EE"/>
<path d="M82.1309 223.477V301.66L95.7279 309.45V231.267L82.1309 223.477Z" fill="white"/>
<path d="M101.111 234.383V312.566L114.708 320.355V242.314L101.111 234.383Z" fill="white"/>
<path d="M120.09 245.43V323.472L133.687 331.403V253.22L120.09 245.43Z" fill="white"/>
<path d="M139.068 256.336V334.519L152.665 342.309V264.126L139.068 256.336Z" fill="white"/>
<path d="M364.268 303.217L223.199 222.202L332.825 158.891L473.894 239.906L364.268 303.217Z" fill="#204D84"/>
<path d="M364.268 424.741V303.217L473.894 239.906V361.571L364.268 424.741Z" fill="#204D84"/>
<path d="M223.199 343.867V222.202L364.268 303.217V424.741L223.199 343.867Z" fill="#77C5EE"/>
<path d="M354.496 410.577L232.973 340.468V260.019L354.496 330.27V410.577Z" fill="white"/>
<path d="M169.803 267.667L223.199 238.065V226.168L169.803 252.087V267.667Z" fill="#0E3769"/>
<path d="M64 195.574L123.062 179.853L285.943 85.6653L227.023 101.387L64 195.574Z" fill="#5598E9"/>
<path d="M172.493 257.328L123.062 179.853L285.943 85.6653L335.516 163.14L172.493 257.328Z" fill="#3F461D"/>
<path d="M335.515 157.475V163.14L172.492 257.328V251.662L335.515 157.475Z" fill="#204D84"/>
<path d="M68.248 206.905L118.954 195.575L169.801 267.667V253.079L122.778 179.145L68.248 194.441V206.905Z" fill="#204D84"/>
<path d="M64 189.909L123.062 174.188L285.943 80L227.023 95.7215L64 189.909Z" fill="#588AC8"/>
<path d="M172.493 251.662L123.062 174.188L285.943 80L335.516 157.475L172.493 251.662Z" fill="#83ACDE"/>
<path d="M177.736 199.257L205.639 209.313L211.446 201.382L200.965 189.484L177.736 180.986V199.257Z" fill="#204D84"/>
<path d="M177.734 179.57L167.678 173.763L177.734 167.955L187.79 173.763L177.734 179.57Z" fill="#83ACDE"/>
<path d="M177.734 179.428L166.828 173.196L177.734 166.964L188.498 173.338L177.734 179.428Z" fill="#91E1FF"/>
<path d="M177.734 181.411L188.499 175.179V173.338L177.734 179.428V181.411Z" fill="#204D84"/>
<path d="M166.828 175.179L177.734 181.411V179.428L166.828 173.196V175.179Z" fill="#83ACDE"/>
<path d="M184.816 173.762L177.734 177.87L170.652 173.762L177.734 169.655L184.816 173.762Z" fill="#204D84"/>
<path d="M184.818 173.762L177.736 177.87V169.655L184.818 173.762Z" fill="#83ACDE"/>
<path d="M177.736 199.257L187.792 193.45V173.763L177.736 179.57V199.257Z" fill="#204D84"/>
<path d="M167.678 183.677L177.734 199.257V179.57L167.678 173.763V183.677Z" fill="#83ACDE"/>
<path d="M177.735 169.089L176.318 168.239L177.735 167.531L179.151 168.239L177.735 169.089Z" fill="#83ACDE"/>
<path d="M177.734 179.003L179.151 178.154V168.239L177.734 169.089V179.003Z" fill="#204D84"/>
<path d="M176.318 178.154L177.735 179.003V169.089L176.318 168.239V178.154Z" fill="#83ACDE"/>
<path d="M177.737 168.097L179.153 168.805V171.355L177.737 172.205L176.32 171.355V168.805L177.737 168.097Z" fill="#6A95A8"/>
<path d="M186.375 164.132L184.959 163.282L186.375 162.432L187.792 163.282L186.375 164.132Z" fill="#83ACDE"/>
<path d="M186.375 174.046L187.791 173.196V163.282L186.375 164.131V174.046Z" fill="#204D84"/>
<path d="M184.959 173.196L186.375 174.046V164.131L184.959 163.282V173.196Z" fill="#83ACDE"/>
<path d="M187.792 164.273V166.398L186.375 167.247L184.959 166.539V163.848L185.95 163.282L187.792 164.273Z" fill="#6A95A8"/>
<path d="M169.094 164.132L167.678 163.282L169.094 162.432L170.51 163.282L169.094 164.132Z" fill="#83ACDE"/>
<path d="M169.094 174.046L170.51 173.196V163.282L169.094 164.131V174.046Z" fill="#204D84"/>
<path d="M167.678 173.196L169.094 174.046V164.131L167.678 163.282V173.196Z" fill="#83ACDE"/>
<path d="M170.512 163.848V166.398L169.096 167.106L167.68 166.398V164.273L169.379 163.14L170.512 163.848Z" fill="#6A95A8"/>
<path d="M177.735 169.089L165.838 162.29L177.594 155.35L189.633 162.29L177.735 169.089Z" fill="white"/>
<path d="M177.736 171.213L189.634 164.273V162.29L177.736 169.089V171.213Z" fill="#83ACDE"/>
<path d="M165.838 164.273L177.735 171.213V169.089L165.838 162.29V164.273Z" fill="#91E1FF"/>
<path d="M357.751 312.565L216.682 231.692L260.872 190.617L401.941 271.491L357.751 312.565Z" fill="#5598E9"/>
<path d="M339.622 161.865L287.783 143.028L428.852 224.043L480.691 242.739L339.622 161.865Z" fill="#DDB79B"/>
<path d="M428.853 224.043L401.942 271.491L260.873 190.617L287.784 143.028L428.853 224.043Z" fill="#433E44"/>
<path d="M364.268 319.081V302.934L223.199 222.061V238.065L364.268 319.081Z" fill="#204D84"/>
<path d="M473.894 252.795V234.666L428.853 212.571L401.943 260.16L364.268 295.003V318.939L401.943 283.955L428.853 236.507L473.894 252.795Z" fill="#0E3769"/>
<path d="M357.751 307.042L216.682 226.026L260.872 184.952L401.941 265.967L357.751 307.042Z" fill="#83ACDE"/>
<path d="M339.622 156.2L287.783 137.504L428.852 218.378L480.691 237.215L339.622 156.2Z" fill="#83ACDE"/>
<path d="M428.853 218.378L401.942 265.967L260.873 184.952L287.784 137.504L428.853 218.378Z" fill="#588AC8"/>
<path d="M123.062 174.188V179.853L64 195.575V189.909L123.062 174.188Z" fill="#83ACDE"/>
<path d="M123.062 174.188V179.853L172.493 257.328V251.662L123.062 174.188Z" fill="#83ACDE"/>
<path d="M480.694 242.739V237.215L428.855 218.378L401.944 265.967L357.754 307.042V312.565L401.944 271.491L428.855 224.043L480.694 242.739Z" fill="#204D84"/>
<path d="M357.751 312.566V307.042L216.682 226.026V231.692L357.751 312.566Z" fill="#83ACDE"/>
<path d="M300.248 200.957L321.777 184.81L329.425 172.488L329.85 168.097L300.248 151.668H290.617L293.308 177.304L300.248 200.957Z" fill="#204D84"/>
<path d="M310.023 167.389V183.819L300.25 200.957V171.921L310.023 167.389Z" fill="#204D84"/>
<path d="M300.247 200.957L280.984 189.768V160.732L300.247 171.922V200.957Z" fill="#83ACDE"/>
<path d="M297.557 171.213L275.887 158.749L291.042 150.251L312.712 162.715L297.557 171.213Z" fill="#91E1FF"/>
<path d="M297.557 170.222L275.887 157.758L291.042 149.26L312.712 161.865L297.557 170.222Z" fill="white"/>
<path d="M298.973 173.479L310.021 167.389L312.712 162.715L297.557 171.213L298.973 173.479Z" fill="#204D84"/>
<path d="M275.887 158.749L277.445 161.016L298.973 173.479L297.557 171.213L275.887 158.749Z" fill="#83ACDE"/>
<path d="M297.557 171.213V170.222L312.712 161.865V162.715L297.557 171.213Z" fill="#83ACDE"/>
<path d="M297.557 171.213V170.222L275.887 157.758V158.749L297.557 171.213Z" fill="#91E1FF"/>
<path d="M282.686 189.343V166.256L298.549 175.321V198.407L282.686 189.343Z" fill="#83ACDE"/>
<path d="M284.527 169.514V188.21L296.708 195.15V176.454L284.527 169.514Z" fill="white"/>
<path d="M286.652 170.647V187.36L296.708 193.167V195.15L284.527 188.21V169.514L286.652 170.647Z" fill="#204D84"/>
<path d="M286.652 187.36L284.527 188.21L296.708 195.15V193.167L286.652 187.36Z" fill="#91E1FF"/>
<path d="M284.527 188.209H288.21V171.638L286.652 170.647V187.36L284.527 188.209Z" fill="#204D84"/>
<path d="M340.899 224.185L362.427 208.039L370.076 195.716L370.501 191.467L340.899 174.896H331.268L333.959 200.532L340.899 224.185Z" fill="#204D84"/>
<path d="M350.671 190.759V207.189L340.898 224.185V195.15L350.671 190.759Z" fill="#204D84"/>
<path d="M340.897 224.185L321.635 212.996V183.96L340.897 195.15V224.185Z" fill="#83ACDE"/>
<path d="M338.207 194.441L316.537 181.978L331.692 173.479L353.362 186.085L338.207 194.441Z" fill="#91E1FF"/>
<path d="M338.207 193.45L316.537 180.986L331.692 172.63L353.362 185.093L338.207 193.45Z" fill="white"/>
<path d="M339.623 196.849L350.671 190.759L353.362 186.085L338.207 194.442L339.623 196.849Z" fill="#204D84"/>
<path d="M316.537 181.977L318.095 184.244L339.624 196.849L338.207 194.441L316.537 181.977Z" fill="#83ACDE"/>
<path d="M338.207 194.442V193.45L353.362 185.094V186.085L338.207 194.442Z" fill="#83ACDE"/>
<path d="M338.207 194.442V193.45L316.537 180.986V181.978L338.207 194.442Z" fill="#91E1FF"/>
<path d="M323.336 212.571V189.484L339.199 198.691V221.636L323.336 212.571Z" fill="#83ACDE"/>
<path d="M325.178 192.742V211.438L337.358 218.52V199.682L325.178 192.742Z" fill="white"/>
<path d="M327.302 194.017V210.588L337.358 216.395V218.52L325.178 211.438V192.742L327.302 194.017Z" fill="#204D84"/>
<path d="M327.302 210.588L325.178 211.438L337.358 218.52V216.395L327.302 210.588Z" fill="#91E1FF"/>
<path d="M325.178 211.438H328.86V194.867L327.302 194.017V210.588L325.178 211.438Z" fill="#204D84"/>
<path d="M381.547 247.413L403.076 231.267L410.724 218.944L411.149 214.695L381.547 198.266H371.916L374.607 223.76L381.547 247.413Z" fill="#204D84"/>
<path d="M391.318 213.987V230.417L381.545 247.413V218.378L391.318 213.987Z" fill="#204D84"/>
<path d="M381.544 247.413L362.281 236.366V207.33L381.544 218.378V247.413Z" fill="#83ACDE"/>
<path d="M378.854 217.811L357.184 205.206L372.339 196.849L394.009 209.313L378.854 217.811Z" fill="#91E1FF"/>
<path d="M378.854 216.82L357.184 204.356L372.339 195.858L394.009 208.322L378.854 216.82Z" fill="white"/>
<path d="M380.27 220.077L391.317 213.987L394.009 209.313L378.854 217.811L380.27 220.077Z" fill="#204D84"/>
<path d="M357.184 205.206L358.742 207.613L380.27 220.077L378.854 217.811L357.184 205.206Z" fill="#83ACDE"/>
<path d="M378.854 217.811V216.82L394.009 208.322V209.313L378.854 217.811Z" fill="#83ACDE"/>
<path d="M378.854 217.811V216.82L357.184 204.356V205.206L378.854 217.811Z" fill="#91E1FF"/>
<path d="M363.984 235.799V212.854L379.848 221.919V245.005L363.984 235.799Z" fill="#83ACDE"/>
<path d="M365.826 215.97V234.808L378.007 241.748V223.052L365.826 215.97Z" fill="white"/>
<path d="M367.951 217.245V233.816L378.007 239.623V241.748L365.826 234.808V215.97L367.951 217.245Z" fill="#204D84"/>
<path d="M367.951 233.816L365.826 234.808L378.007 241.748V239.623L367.951 233.816Z" fill="#91E1FF"/>
<path d="M365.826 234.808H369.509V218.095L367.951 217.245V233.816L365.826 234.808Z" fill="#204D84"/>
<path d="M585.891 298.747L488 242.234V237.229L585.891 293.621V298.747Z" fill="#1565BE"/>
<path d="M585.893 298.747L588.09 297.405V292.4L585.893 293.621V298.747Z" fill="#004899"/>
<path d="M588.089 292.4L585.891 293.621L488 237.229L490.197 235.887L588.089 292.4Z" fill="#15BCFF"/>
<path d="M585.891 346.716L488 290.203V285.199L585.891 341.712V346.716Z" fill="#1565BE"/>
<path d="M585.893 346.716L588.09 345.496V340.491L585.893 341.712V346.716Z" fill="#004899"/>
<path d="M588.089 340.491L585.891 341.712L488 285.199L490.197 283.978L588.089 340.491Z" fill="#15BCFF"/>
<path d="M500.939 304.728L493.127 300.212V229.784L497.033 227.343L500.939 234.422V304.728Z" fill="#15BCFF"/>
<path d="M500.939 304.728L503.259 303.508V233.079L500.939 234.422V304.728Z" fill="#1565BE"/>
<path d="M500.939 234.422L503.258 233.079L499.352 226L497.033 227.343L500.939 234.422Z" fill="#91E1FF"/>
<path d="M498.742 247.849C498.742 248.947 498.01 249.313 497.033 248.825C496.057 248.337 495.324 246.994 495.324 245.896C495.324 244.797 496.057 244.431 497.033 244.919C498.01 245.407 498.742 246.75 498.742 247.849Z" fill="#004899"/>
<path d="M498.742 294.475C498.742 295.574 498.01 295.94 497.033 295.452C496.057 294.963 495.324 293.621 495.324 292.522C495.324 291.424 496.057 291.058 497.033 291.546C498.01 292.034 498.742 293.377 498.742 294.475Z" fill="#004899"/>
<path d="M513.632 312.052L505.82 307.535V237.107L509.726 234.666L513.632 241.624V312.052Z" fill="#15BCFF"/>
<path d="M513.633 312.052L515.952 310.709V240.403L513.633 241.624V312.052Z" fill="#1565BE"/>
<path d="M513.632 241.624L515.952 240.403L511.924 233.323L509.727 234.666L513.632 241.624Z" fill="#91E1FF"/>
<path d="M511.435 255.172C511.435 256.271 510.703 256.637 509.726 256.149C508.75 255.66 508.018 254.318 508.018 253.219C508.018 252.121 508.75 251.754 509.726 252.243C510.581 252.731 511.435 254.074 511.435 255.172Z" fill="#004899"/>
<path d="M511.435 301.677C511.435 302.775 510.703 303.141 509.726 302.653C508.75 302.165 508.018 300.822 508.018 299.724C508.018 298.625 508.75 298.259 509.726 298.747C510.703 299.235 511.435 300.7 511.435 301.677Z" fill="#004899"/>
<path d="M526.204 319.375L518.393 314.859V244.431L522.298 241.99L526.204 248.947V319.375Z" fill="#15BCFF"/>
<path d="M526.205 319.375L528.524 318.033V247.604L526.205 248.947V319.375Z" fill="#1565BE"/>
<path d="M526.205 248.947L528.524 247.604L524.618 240.647L522.299 241.99L526.205 248.947Z" fill="#91E1FF"/>
<path d="M524.007 262.496C524.007 263.594 523.275 263.96 522.299 263.472C521.322 262.984 520.59 261.641 520.59 260.543C520.59 259.444 521.322 259.078 522.299 259.566C523.275 260.054 524.007 261.397 524.007 262.496Z" fill="#004899"/>
<path d="M524.007 309C524.007 310.099 523.275 310.465 522.299 309.977C521.322 309.488 520.59 308.146 520.59 307.047C520.59 305.949 521.322 305.583 522.299 306.071C523.275 306.681 524.007 307.902 524.007 309Z" fill="#004899"/>
<path d="M538.9 326.699L531.088 322.183V251.754L534.994 249.191L538.9 256.271V326.699Z" fill="#15BCFF"/>
<path d="M538.9 326.699L541.097 325.356V254.928L538.9 256.271V326.699Z" fill="#1565BE"/>
<path d="M538.9 256.271L541.097 254.928L537.191 247.971L534.994 249.191L538.9 256.271Z" fill="#91E1FF"/>
<path d="M536.582 269.697C536.582 270.796 535.849 271.162 534.873 270.674C533.896 270.185 533.164 268.843 533.164 267.744C533.164 266.646 533.896 266.279 534.873 266.768C535.849 267.378 536.582 268.721 536.582 269.697Z" fill="#004899"/>
<path d="M536.582 316.324C536.582 317.422 535.849 317.788 534.873 317.3C533.896 316.812 533.164 315.469 533.164 314.371C533.164 313.272 533.896 312.906 534.873 313.394C535.849 314.005 536.582 315.225 536.582 316.324Z" fill="#004899"/>
<path d="M551.472 333.9L543.66 329.384V259.078L547.566 256.515L551.472 263.594V333.9Z" fill="#15BCFF"/>
<path d="M551.473 333.9L553.792 332.68V262.252L551.473 263.594V333.9Z" fill="#1565BE"/>
<path d="M551.472 263.594L553.791 262.252L549.886 255.172L547.566 256.515L551.472 263.594Z" fill="#91E1FF"/>
<path d="M549.275 277.021C549.275 278.119 548.543 278.486 547.566 277.997C546.59 277.509 545.857 276.166 545.857 275.068C545.857 273.969 546.59 273.603 547.566 274.091C548.543 274.58 549.275 275.922 549.275 277.021Z" fill="#004899"/>
<path d="M549.275 323.648C549.275 324.746 548.543 325.112 547.566 324.624C546.59 324.136 545.857 322.793 545.857 321.695C545.857 320.596 546.59 320.23 547.566 320.718C548.543 321.206 549.275 322.549 549.275 323.648Z" fill="#004899"/>
<path d="M564.164 341.224L556.23 336.708V266.28L560.136 263.838L564.164 270.796V341.224Z" fill="#15BCFF"/>
<path d="M564.164 341.224L566.361 340.003V269.575L564.164 270.796V341.224Z" fill="#1565BE"/>
<path d="M564.165 270.796L566.362 269.575L562.456 262.496L560.137 263.838L564.165 270.796Z" fill="#91E1FF"/>
<path d="M561.845 284.344C561.845 285.443 561.113 285.809 560.137 285.321C559.16 284.833 558.428 283.49 558.428 282.391C558.428 281.293 559.16 280.927 560.137 281.415C561.113 281.903 561.845 283.246 561.845 284.344Z" fill="#004899"/>
<path d="M561.845 330.971C561.845 332.07 561.113 332.436 560.137 331.947C559.16 331.459 558.428 330.117 558.428 329.018C558.428 327.92 559.16 327.553 560.137 328.042C561.113 328.53 561.845 329.872 561.845 330.971Z" fill="#004899"/>
<path d="M576.736 348.547L568.924 344.031V273.603L572.83 271.162L576.736 278.119V348.547Z" fill="#15BCFF"/>
<path d="M576.736 348.547L579.055 347.205V276.777L576.736 278.119V348.547Z" fill="#1565BE"/>
<path d="M576.736 278.119L579.055 276.777L575.149 269.819L572.83 271.162L576.736 278.119Z" fill="#91E1FF"/>
<path d="M574.539 291.668C574.539 292.766 573.806 293.133 572.83 292.644C571.853 292.156 571.121 290.813 571.121 289.715C571.121 288.616 571.853 288.25 572.83 288.738C573.806 289.227 574.539 290.569 574.539 291.668Z" fill="#004899"/>
<path d="M574.539 338.172C574.539 339.271 573.806 339.637 572.83 339.149C571.853 338.661 571.121 337.318 571.121 336.219C571.121 335.121 571.853 334.755 572.83 335.243C573.806 335.853 574.539 337.196 574.539 338.172Z" fill="#004899"/>
</svg>
