<svg width="270" height="192" viewBox="0 0 270 192" fill="none" xmlns="http://www.w3.org/2000/svg">
<path d="M0.173978 91.3241C0.895153 102.563 3.92369 113.532 9.07035 123.546L22.77 150.145C28.853 161.958 37.5339 171.692 47.8071 178.788C58.0247 185.846 69.8255 190.3 82.2211 191.603C87.3122 192.136 92.445 192.132 97.5353 191.593L119.005 189.324L124.605 188.733L133.475 187.796L180.79 182.795L186.061 182.237L194.499 181.346C199.449 180.822 204.334 179.796 209.077 178.285C228.617 172.057 245.171 157.799 254.655 138.432L261.66 124.125C274.925 97.0377 272.204 64.4291 254.656 40.1402L248.512 31.6371C228.987 4.61146 195.198 -6.54845 164.324 3.83964L162.807 4.35722C154.624 7.11315 146.019 8.4007 137.388 8.16058L78.2231 6.49946C54.8249 5.8421 32.4342 16.447 17.5044 35.2582C4.79717 51.2627 -1.11789 71.4098 0.173978 91.3241Z" fill="#D8EBFD"/>
<mask id="mask0_2280_3437" style="mask-type:alpha" maskUnits="userSpaceOnUse" x="0" y="0" width="270" height="192">
<path d="M0.173978 91.3241C0.895153 102.563 3.92369 113.532 9.07035 123.546L22.77 150.145C28.853 161.958 37.5339 171.692 47.8071 178.788C58.0247 185.846 69.8255 190.3 82.2211 191.603C87.3122 192.136 92.445 192.132 97.5353 191.593L119.005 189.324L124.605 188.733L133.475 187.796L180.79 182.795L186.061 182.237L194.499 181.346C199.449 180.822 204.334 179.796 209.077 178.285C228.617 172.057 245.171 157.799 254.655 138.432L261.66 124.125C274.925 97.0377 272.204 64.4291 254.656 40.1402L248.512 31.6371C228.987 4.61146 195.198 -6.54845 164.324 3.83964L162.807 4.35722C154.624 7.11315 146.019 8.4007 137.388 8.16058L78.2231 6.49946C54.8249 5.8421 32.4342 16.447 17.5044 35.2582C4.79717 51.2627 -1.11789 71.4098 0.173978 91.3241Z" fill="#D8EBFD"/>
</mask>
<g mask="url(#mask0_2280_3437)">
<g opacity="0.45">
<path d="M238.205 98.3507H218.113C217.16 98.3507 216.389 99.1234 216.389 100.077V107.255C216.389 108.208 217.16 108.981 218.113 108.981H238.205C239.157 108.981 239.929 108.208 239.929 107.255V100.077C239.929 99.1234 239.157 98.3507 238.205 98.3507Z" fill="#1F65BC"/>
<path d="M263.567 98.3507H243.475C242.523 98.3507 241.751 99.1234 241.751 100.077V107.255C241.751 108.208 242.523 108.981 243.475 108.981H263.567C264.519 108.981 265.291 108.208 265.291 107.255V100.077C265.291 99.1234 264.519 98.3507 263.567 98.3507Z" fill="#1F65BC"/>
<path d="M250.944 110.901H230.852C229.9 110.901 229.128 111.674 229.128 112.627V119.805C229.128 120.759 229.9 121.531 230.852 121.531H250.944C251.896 121.531 252.668 120.759 252.668 119.805V112.627C252.668 111.674 251.896 110.901 250.944 110.901Z" fill="#1F65BC"/>
</g>
<path d="M-10.7893 102.738C-10.0954 105.184 -8.82767 107.586 -6.74834 108.841C-4.66901 110.095 -1.67817 109.814 -0.300813 107.726C0.630049 106.314 0.666316 104.462 0.666316 102.735L0.661481 93.8673C0.661481 91.4199 0.61796 88.8168 -0.628025 86.7664C-3.0523 82.7834 -7.20531 84.227 -9.02271 87.6048C-11.4752 92.1518 -12.2247 97.6857 -10.7893 102.738Z" fill="#FFF0D5"/>
<path d="M44.5259 128.413C44.1162 127.846 43.6478 127.323 43.1284 126.854C38.7997 122.981 33.4716 125.308 29.3024 128.178C19.9729 134.599 9.98162 144.827 6.42016 158.685C2.50329 173.924 2.14868 191.263 1.76827 207.762C1.71589 210.04 1.14125 214.782 1.81179 217.937C3.41803 217.517 5.03556 217.135 6.68854 216.94C7.35425 214.848 7.85716 212.478 8.23917 211.223C12.7041 196.546 19.0476 183.031 27.5689 172.427C35.1254 163.022 44.7354 157.693 47.2612 142.531C48.0438 137.829 47.1798 132.061 44.5259 128.413Z" fill="#00988E"/>
<path d="M-1.80869 218.512L0.0111179 218.171C0.00144657 218.137 -0.00419561 218.099 -0.0146728 218.064C-0.24356 217.273 -0.557071 216.531 -0.810137 215.666C-1.26388 214.128 -1.72004 212.617 -2.28017 211.114C-3.49956 207.838 -4.89465 204.668 -6.22929 201.465C-8.36745 196.343 -10.662 191.28 -13.5214 186.761C-16.4381 182.157 -20.0238 178.127 -24.1252 176.034C-33.973 171.011 -48.8023 177.763 -50.4634 192.047C-51.0114 196.759 -49.6687 202.352 -46.5949 205.396C-45.12 206.857 -43.3663 207.648 -41.6343 208.018C-39.3345 208.524 -36.9337 208.285 -34.7781 207.336C-29.5492 205.023 -23.6634 201.562 -17.6366 202.575C-17.0175 202.681 -16.4102 202.847 -15.8232 203.071C-12.5882 204.291 -9.71337 207.15 -7.15773 210.206C-5.07518 212.698 -3.02083 215.22 -1.80869 218.512Z" fill="#006D80"/>
<path d="M-9.82066 187.732C-7.93315 192.594 -6.32449 197.619 -4.7932 202.66C-4.03481 205.162 -0.598275 213.929 0.105312 218.379L0.297127 218.343L1.81149 217.935C2.66901 213.598 1.42625 209.091 1.21751 204.407C0.406733 186.225 1.09903 165.997 -5.36381 148.604C-9.10096 138.55 -15.0053 129.302 -22.5368 124.626C-30.0683 119.95 -39.2617 120.684 -44.4278 127.991C-45.4094 129.381 -46.2492 131.015 -46.5901 132.942C-47.4323 137.709 -45.0782 142.964 -42.3581 146.856C-40.0314 150.186 -37.3476 153.062 -34.4446 155.338C-31.411 157.717 -28.1486 159.439 -25.1867 162.001C-21.6817 165.028 -18.7803 169.047 -16.2819 173.515C-13.7835 177.983 -11.6945 182.905 -9.82066 187.732Z" fill="#1DBFAC"/>
<path d="M4.42931 216.61L3.90625 216.525C4.13621 215.119 4.36537 213.706 4.59372 212.285C6.34341 201.452 8.15276 190.251 10.9744 179.846C14.1699 168.065 18.256 158.987 23.4664 152.099C26.8909 147.571 30.6949 143.579 34.3741 139.719L34.7577 140.086C31.089 143.935 27.2955 147.913 23.8896 152.42C18.7227 159.252 14.6664 168.269 11.4885 179.985C8.6742 190.363 6.86647 201.55 5.12161 212.37C4.89004 213.79 4.65927 215.203 4.42931 216.61Z" fill="#1C1C1B"/>
<path d="M0.692548 217.239C-0.193988 212.788 -0.963661 208.263 -1.78008 203.472C-3.68371 192.305 -5.6486 180.757 -9.12784 170.452C-11.0025 164.895 -13.1342 160.211 -15.6447 156.133C-18.4719 151.542 -21.6892 147.849 -25.4893 144.845L-25.1604 144.429C-21.3137 147.472 -18.0536 151.207 -15.1934 155.855C-12.6619 159.97 -10.5133 164.687 -8.62494 170.283C-5.13602 180.627 -3.16388 192.196 -1.25783 203.383C-0.441413 208.17 0.329069 212.692 1.21238 217.135L0.692548 217.239Z" fill="#1C1C1B"/>
<path d="M131.204 212.094L243.553 214.072C245.871 214.113 248.111 213.232 249.782 211.621C251.453 210.011 252.418 207.804 252.466 205.482L255.543 55.6497C255.591 53.3519 254.736 51.1273 253.162 49.4544C251.588 47.7815 249.421 46.7939 247.127 46.7041L126.53 48.5955C125.326 48.5488 124.126 48.751 123.004 49.1896C121.882 49.6282 120.863 50.2937 120.009 51.1445C119.156 51.9954 118.486 53.0133 118.044 54.1347C117.601 55.2562 117.393 56.457 117.435 57.6622L122.606 203.626C122.683 205.871 123.618 208.002 125.217 209.578C126.817 211.154 128.96 212.054 131.204 212.094Z" fill="#1F65BC"/>
<path d="M126.701 212.094L239.053 214.072C241.372 214.113 243.612 213.232 245.283 211.621C246.953 210.011 247.918 207.804 247.966 205.482L251.048 55.6497C251.095 53.3502 250.239 51.124 248.662 49.4508C247.086 47.7776 244.917 46.7912 242.621 46.7041L122.017 48.5955C120.814 48.5498 119.614 48.7528 118.493 49.1918C117.372 49.6309 116.353 50.2965 115.501 51.1473C114.648 51.998 113.98 53.0156 113.537 54.1365C113.095 55.2574 112.888 56.4576 112.929 57.6622L118.099 203.626C118.176 205.872 119.112 208.003 120.712 209.578C122.313 211.154 124.457 212.055 126.701 212.094Z" fill="#76ACDE"/>
<path d="M241.78 60.388L240.812 196.275C240.771 198.313 239.923 200.251 238.456 201.665C236.989 203.079 235.022 203.852 232.986 203.816L134.339 202.08C132.368 202.045 130.485 201.254 129.08 199.87C127.674 198.486 126.854 196.614 126.787 194.641L122.314 69.1787L122.198 65.9324C122.168 65.0471 122.32 64.1652 122.646 63.3415C122.971 62.5179 123.463 61.7702 124.09 61.1453C124.717 60.5203 125.466 60.0314 126.29 59.7091C127.114 59.3868 127.995 59.238 128.879 59.272L238.503 56.9594C239.388 56.9921 240.224 57.3684 240.836 58.0085C241.448 58.6486 241.786 59.5021 241.78 60.388Z" fill="white"/>
<path d="M241.86 59.5532L240.892 196.548C240.85 198.603 240.002 200.557 238.534 201.983C237.066 203.408 235.097 204.188 233.06 204.152L134.331 202.401C132.792 202.376 131.296 201.884 130.038 200.989C145.46 199.386 194.775 193.739 210.89 185.614C230.087 175.933 235.612 72.3823 222.523 66.2224C210.994 60.7963 122.182 65.1429 122.182 65.1429C122.151 64.25 122.304 63.3605 122.629 62.5297C122.955 61.699 123.447 60.945 124.075 60.3147C124.703 59.6844 125.453 59.1914 126.278 58.8666C127.103 58.5417 127.986 58.3919 128.871 58.4265L238.584 56.0958C239.469 56.1302 240.305 56.5103 240.916 57.1556C241.528 57.8009 241.866 58.6607 241.86 59.5532Z" fill="#D9E4EF"/>
<path d="M209.709 54.9347L208.8 49.801C208.43 47.7065 207.317 45.8164 205.665 44.4781C204.014 43.1399 201.936 42.4434 199.812 42.5169L189.279 42.8808C189.198 40.0041 188.4 36.2898 183.944 35.7669C174.23 34.6275 170.324 38.2821 169.679 40.5447C169.393 41.5363 169.197 42.5514 169.092 43.578L158.219 43.954C156.118 44.027 154.121 44.8904 152.628 46.372C151.134 47.8535 150.253 49.8443 150.16 51.9474L149.983 55.924C149.957 56.5077 150.051 57.0904 150.26 57.6359C150.469 58.1814 150.789 58.6779 151.198 59.0944C151.607 59.5108 152.098 59.8384 152.639 60.0565C153.181 60.2746 153.761 60.3786 154.344 60.3621L206.489 58.8975C206.973 58.8833 207.448 58.7648 207.882 58.5502C208.316 58.3356 208.699 58.0299 209.005 57.6539C209.31 57.2779 209.531 56.8403 209.653 56.3711C209.774 55.9019 209.793 55.4119 209.709 54.9347Z" fill="#CC960D"/>
<path d="M177.856 37.8925C177.856 37.8925 187.21 35.7138 187.582 43.8097C187.582 43.8097 184.397 44.5359 184.397 43.3255C184.397 42.1151 185.104 38.7309 177.856 37.8925Z" fill="#FDC535"/>
<path d="M51.9004 160.989C52.3152 160.989 52.7246 160.895 53.0981 160.715C53.4716 160.534 53.7997 160.272 54.0579 159.947C54.3162 159.622 54.4979 159.242 54.5895 158.837C54.6812 158.432 54.6805 158.012 54.5874 157.607L39.5808 92.7375C39.416 92.0247 38.9751 91.4065 38.3551 91.0191C37.7351 90.6317 36.9868 90.5068 36.2748 90.6718C35.5628 90.8368 34.9454 91.2782 34.5585 91.899C34.1716 92.5197 34.0468 93.2689 34.2116 93.9818L49.2158 158.851C49.3562 159.458 49.698 160.001 50.1855 160.389C50.673 160.777 51.2775 160.989 51.9004 160.989Z" fill="#5B2519"/>
<path d="M3.49121 90.6479L36.2721 90.6722L51.4294 155.611H17.251L3.49121 90.6479Z" fill="#993E2B"/>
<path d="M20.3624 162.908H84.8281C86.8429 162.908 88.4717 161.105 88.4717 158.879C88.4717 156.655 86.8405 154.851 84.8281 154.851H15.0029V156.983C15.0029 160.255 17.4062 162.908 20.3624 162.908Z" fill="#5B2519"/>
<path d="M17.9996 160.989C18.4144 160.989 18.8238 160.895 19.1975 160.715C19.5711 160.535 19.8992 160.272 20.1575 159.947C20.4157 159.622 20.5974 159.243 20.689 158.838C20.7806 158.433 20.7798 158.012 20.6866 157.607L5.67994 92.7377C5.60312 92.3799 5.45597 92.041 5.24706 91.7408C5.03816 91.4405 4.77167 91.1848 4.46312 90.9886C4.15457 90.7924 3.81012 90.6597 3.44983 90.5981C3.08954 90.5365 2.72061 90.5473 2.36452 90.6298C2.00843 90.7123 1.6723 90.865 1.3757 91.0788C1.07911 91.2927 0.827964 91.5635 0.636904 91.8755C0.445845 92.1874 0.318688 92.5343 0.262833 92.896C0.206978 93.2577 0.223544 93.6268 0.311566 93.982L15.3182 158.851C15.4583 159.458 15.7996 160 16.2865 160.388C16.7733 160.776 17.3771 160.988 17.9996 160.989Z" fill="#5B2519"/>
<path d="M20.3624 162.908L13.1484 218.213H15.6098L26.7358 162.908H20.3624Z" fill="#5B2519"/>
<path d="M50.0326 162.908L57.2473 218.213H54.7852L43.6592 162.908H50.0326Z" fill="#5B2519"/>
<path d="M47.6657 172.334H22.2447L21.2373 177.381H49.6088L47.6657 172.334Z" fill="#5B2519"/>
<path d="M84.5511 162.908L91.7651 218.213H89.3037L78.1777 162.908H84.5511Z" fill="#5B2519"/>
<path d="M75.8457 136.661C75.8457 136.661 100.686 136.24 98.4926 144.972C96.2989 153.705 79.5441 209.877 79.5441 209.877L64.357 208.998C64.357 208.998 68.489 183.07 68.489 174.278C68.489 164.095 73.7631 157.722 73.7631 157.722H52.0293L52.7611 136.661H75.8457Z" fill="#062E5C"/>
<path d="M24.3716 145.89L24.3555 148.565L38.0903 139.956C38.0903 139.956 38.5449 140.218 39.3468 140.636C42.3876 142.22 50.4309 146.042 57.6836 146.326C60.2722 146.426 62.761 146.075 64.8838 145.011C74.5285 140.176 75.8446 136.659 75.8446 136.659L76.736 94.0245L62.5514 87.8765L51.1788 85.2136L51.1095 85.1975L32.9323 89.9584L26.5654 126.716C26.5654 126.716 24.262 141.604 24.3716 145.89Z" fill="#062E5C"/>
<path d="M24.3716 145.89L24.3555 148.565L38.0903 139.957C38.0903 139.957 52.0468 131.554 54.2245 128.309H26.3268C25.7393 132.26 24.2837 142.463 24.3716 145.89Z" fill="#5B5FA0"/>
<path d="M58.9147 96.1138C54.5981 95.9992 51.8595 93.2549 50.321 90.9729C49.3017 89.4455 48.5186 87.7727 47.9983 86.0111C47.9914 85.9825 47.9959 85.9523 48.011 85.9271C48.0261 85.9019 48.0505 85.8836 48.0789 85.8762C48.1074 85.8688 48.1376 85.8728 48.163 85.8875C48.1885 85.9022 48.2072 85.9263 48.2151 85.9546C48.7294 87.6937 49.5032 89.345 50.5104 90.8527C51.4719 92.2777 52.5808 93.4219 53.8075 94.253C55.3167 95.2828 57.092 95.8516 58.918 95.8903C59.8717 95.8378 60.7961 95.5411 61.6025 95.0285C63.3555 93.9069 64.2815 91.8274 64.2815 89.0169C64.2815 88.9872 64.2933 88.9586 64.3143 88.9376C64.3353 88.9165 64.3638 88.9047 64.3935 88.9047C64.4232 88.9047 64.4517 88.9165 64.4727 88.9376C64.4938 88.9586 64.5056 88.9872 64.5056 89.0169C64.5056 91.0342 64.022 93.7528 61.7146 95.2238C60.8753 95.7609 59.9098 96.0678 58.9147 96.1138Z" fill="#EDD9C6"/>
<path d="M43.6872 122.631C43.6575 122.631 43.629 122.62 43.608 122.599C43.587 122.578 43.5752 122.549 43.5752 122.519V104.573C43.5752 104.543 43.587 104.515 43.608 104.494C43.629 104.473 43.6575 104.461 43.6872 104.461C43.7169 104.461 43.7454 104.473 43.7664 104.494C43.7874 104.515 43.7992 104.543 43.7992 104.573V122.519C43.7992 122.549 43.7874 122.578 43.7664 122.599C43.7454 122.62 43.7169 122.631 43.6872 122.631Z" fill="#221F32"/>
<path d="M24.3712 145.89C24.3712 145.89 23.4936 154.352 28.4686 154.645H35.3465L38.3519 209.877H55.3943C55.3943 209.877 59.931 146.001 54.6625 139.407C49.3941 132.814 38.09 139.957 38.09 139.957L31.7512 143.396C31.7512 143.396 25.6881 148.473 24.3712 145.89Z" fill="#062E5C"/>
<path d="M35.3464 154.757C35.3192 154.757 35.2928 154.747 35.2724 154.729C35.2519 154.71 35.2387 154.686 35.2352 154.658C35.2296 154.612 34.6912 150.028 35.2352 146.912C35.2378 146.897 35.2431 146.884 35.251 146.871C35.2589 146.859 35.2692 146.848 35.2813 146.839C35.2933 146.831 35.3069 146.825 35.3213 146.822C35.3356 146.819 35.3505 146.818 35.365 146.821C35.3795 146.823 35.3933 146.829 35.4058 146.837C35.4182 146.844 35.4289 146.855 35.4374 146.867C35.4458 146.879 35.4518 146.893 35.4551 146.907C35.4583 146.921 35.4586 146.936 35.4561 146.951C34.9161 150.03 35.4512 154.583 35.4561 154.629C35.4579 154.643 35.4568 154.658 35.4528 154.672C35.4489 154.686 35.4422 154.7 35.4331 154.711C35.4241 154.723 35.4128 154.732 35.4 154.739C35.3872 154.747 35.3731 154.751 35.3585 154.753L35.3464 154.757Z" fill="#6C74AE"/>
<path d="M73.759 157.833C73.7385 157.834 73.7184 157.828 73.701 157.817C73.6757 157.802 73.6575 157.777 73.6506 157.748C73.6436 157.719 73.6484 157.689 73.6639 157.663L77.0295 152.169C77.0455 152.145 77.0703 152.127 77.0986 152.121C77.127 152.115 77.1567 152.12 77.1815 152.135C77.2063 152.15 77.2242 152.174 77.2315 152.202C77.2387 152.231 77.2348 152.26 77.2205 152.286L73.8549 157.78C73.8449 157.797 73.8308 157.81 73.814 157.819C73.7971 157.829 73.7782 157.834 73.759 157.833Z" fill="#6C74AE"/>
<path d="M64.029 149.775C64.0104 149.775 63.9921 149.77 63.9758 149.761C63.9628 149.755 63.9514 149.745 63.9421 149.734C63.9328 149.722 63.9258 149.709 63.9216 149.695C63.9174 149.681 63.9161 149.666 63.9176 149.651C63.9192 149.637 63.9236 149.623 63.9307 149.61C64.9188 147.783 66.6797 145.696 67.9829 144.267C69.3925 142.721 70.5861 141.59 70.5982 141.578C70.6201 141.561 70.6476 141.553 70.6752 141.555C70.7029 141.557 70.7288 141.569 70.7479 141.59C70.7671 141.61 70.7781 141.636 70.7789 141.664C70.7797 141.692 70.7702 141.719 70.7522 141.74C70.7401 141.751 69.5513 142.878 68.1465 144.418C66.8522 145.837 65.1049 147.909 64.1273 149.715C64.1179 149.733 64.1038 149.748 64.0865 149.758C64.0692 149.769 64.0493 149.775 64.029 149.775Z" fill="#6C74AE"/>
<path d="M32.9326 89.9587C38.8724 95.1908 38.0101 106.079 38.567 112.696C38.7491 114.811 38.899 116.939 39.0183 119.066C39.2238 122.601 39.3503 126.136 39.4011 129.648C39.4371 131.499 39.4465 133.343 39.4293 135.179C39.4212 137.011 39.3944 138.83 39.3487 140.636C39.324 141.608 39.2934 142.575 39.2568 143.536C45.1668 145.753 51.7296 146.598 57.679 146.397C57.679 146.373 57.6839 146.349 57.6855 146.326C58.003 143.04 58.2239 139.726 58.348 136.385C58.4071 134.714 58.4412 133.039 58.4503 131.358C58.4705 127.573 58.3601 123.773 58.1022 119.98C57.9877 118.259 57.8416 116.538 57.6637 114.816L57.4848 113.154C56.9123 108.07 56.0513 103.024 54.9058 98.0384C53.9088 93.6946 52.6662 89.411 51.184 85.2083L51.1147 85.1921L32.9326 89.9587Z" fill="#FCBE21"/>
<path d="M38.5664 112.694C38.7485 114.81 38.8987 116.933 39.0169 119.064C42.281 119.306 49.8165 119.811 58.1 119.981C57.9856 118.26 57.8394 116.538 57.6616 114.817L57.4835 113.154C56.8226 113.154 56.1577 113.154 55.4936 113.154C49.852 113.134 44.2096 112.981 38.5664 112.694Z" fill="#F0952E"/>
<path d="M39.4291 135.179C45.7041 135.975 52.0226 136.378 58.3478 136.385C58.4069 134.715 58.441 133.039 58.4501 131.359C52.0613 131.397 45.6835 130.824 39.4033 129.649C39.4377 131.5 39.4463 133.343 39.4291 135.179Z" fill="#F0952E"/>
<path d="M57.6616 114.819C57.2836 115.115 56.924 115.434 56.5849 115.775C56.2292 114.9 55.8654 114.028 55.4936 113.157C53.9108 109.413 52.2255 105.72 50.438 102.079C48.9067 98.9453 47.273 95.8289 45.0857 93.1814C43.8832 91.7289 42.4946 90.4185 40.9561 89.4034C42.3339 88.5426 43.7707 87.7803 45.2558 87.1222C45.5959 87.3401 45.9239 87.57 46.2446 87.8089C49.7972 90.4435 52.6293 94.0763 54.8996 98.0415C56.0468 103.027 56.9095 108.073 57.4835 113.157L57.6616 114.819Z" fill="#F0952E"/>
<path d="M62.6992 87.9745C63.3996 92.7354 64.0242 97.5011 64.5174 102.276C64.8398 105.348 65.1025 108.421 65.3056 111.496C65.3532 112.196 65.3943 112.899 65.4322 113.594C65.5085 114.926 65.5702 116.259 65.6175 117.594C65.7287 120.719 65.7605 123.847 65.7126 126.978C65.6844 128.511 65.6393 130.036 65.5668 131.567C65.4297 134.53 65.2038 137.493 64.889 140.457C68.0912 140.911 71.3564 140.47 74.3241 139.183C74.4316 136.413 74.5122 133.643 74.5659 130.872C74.5981 129.168 74.6212 127.466 74.6352 125.765C74.6546 122.921 74.6489 120.081 74.6183 117.243C74.5957 115.264 74.5605 113.284 74.5127 111.304C74.3639 105.141 74.0899 98.9864 73.6906 92.8387C73.3634 92.578 73.0217 92.3279 72.6695 92.085C71.3909 91.2318 70.0359 90.4992 68.6221 89.8966C66.7107 89.0759 64.7281 88.4325 62.6992 87.9745Z" fill="#FCBE21"/>
<path d="M65.3018 111.496C65.3493 112.196 65.3904 112.899 65.4283 113.594C65.5046 114.926 65.5664 116.259 65.6137 117.594C68.8237 117.594 71.9129 117.5 74.6128 117.245C74.5902 115.266 74.555 113.286 74.5072 111.306C72.1904 111.388 69.8731 111.444 67.5552 111.472C66.804 111.485 66.0529 111.493 65.3018 111.496Z" fill="#F0952E"/>
<path d="M65.5635 131.57C68.5664 131.442 71.5656 131.211 74.561 130.876C74.5932 129.173 74.6163 127.471 74.6303 125.769C71.6797 126.328 68.702 126.732 65.7093 126.98C65.6819 128.511 65.636 130.039 65.5635 131.57Z" fill="#F0952E"/>
<path d="M64.5127 102.276C64.8351 105.347 65.0978 108.421 65.3009 111.496C65.3485 112.196 65.3896 112.899 65.4274 113.594C65.9906 113.912 66.5737 114.194 67.1731 114.437C67.2843 113.448 67.4084 112.46 67.5543 111.472C68.5152 104.837 70.2292 98.3326 72.6632 92.0863C71.3845 91.2331 70.0296 90.5005 68.6157 89.8979C66.8409 93.8774 65.4664 98.024 64.5127 102.276Z" fill="#F0952E"/>
<path d="M70.481 62.5611C71.8914 63.0453 70.826 65.2683 70.8123 65.2917C69.9402 66.7692 68.5983 67.0379 68.5983 67.0379C68.5983 67.0379 69.3487 71.5721 65.6889 74.2027L51.9919 78.7561C51.9919 78.7561 47.4641 76.0675 47.0023 70.4504C46.5405 64.8334 47.9695 59.8135 51.9774 61.2394C51.9774 61.2394 52.9663 56.8666 56.7719 57.1184C60.3866 57.3605 61.0064 59.2019 65.6905 57.513C66.0812 57.3667 66.4995 57.3094 66.915 57.3451C67.3306 57.3809 67.733 57.5088 68.093 57.7195C69.0811 58.3151 69.9112 59.6102 68.5282 62.4175C68.5282 62.4175 69.5171 62.2287 70.481 62.5611Z" fill="#0A2033"/>
<path d="M56.7754 59.6709C56.7754 59.6709 62.1607 61.0532 65.6246 59.2109C65.6246 59.2109 65.0476 60.945 62.2332 61.5591C62.2332 61.5591 64.1449 62.5339 65.7689 61.9561C65.7689 61.9561 64.0861 63.8879 58.6766 61.8649L59.9049 61.1387C59.9049 61.1387 57.3887 60.3253 56.7754 59.6709Z" fill="#366791"/>
<path d="M69.5081 81.8256C68.113 84.1972 65.7064 84.3755 63.5207 83.8817L63.4627 84.1359L62.0386 90.4557L62.0265 90.5074C61.8739 91.1822 61.481 91.7782 60.9214 92.1841C60.3618 92.5899 59.6737 92.7779 58.9857 92.7127C57.1949 92.5441 54.8407 91.8751 53.3006 89.7206C50.5233 85.8377 51.4074 84.106 51.4074 84.106L53.0282 79.7994C52.9532 79.8067 52.8775 79.8124 52.8009 79.8124C51.4252 79.8124 50.3105 78.581 50.3105 77.0623C50.3105 75.5437 51.4252 74.3131 52.8009 74.3131C53.594 74.3131 54.3 74.7223 54.7537 75.3621C55.0112 75.725 55.1807 76.1431 55.2486 76.583C55.2486 76.5976 55.2542 76.6137 55.2566 76.6282C55.2566 76.6282 55.2631 76.6282 55.2655 76.621C55.9766 76.049 56.5184 75.2936 56.8325 74.4362C57.1467 73.5788 57.2212 72.6519 57.0482 71.7552C57.0232 71.6293 56.9926 71.5034 56.9571 71.3792C56.9571 71.3687 56.9515 71.359 56.9483 71.3493C56.9152 71.2355 56.8765 71.1217 56.8346 71.0088C56.8201 70.9684 56.8024 70.9281 56.7855 70.8885C56.7686 70.849 56.7508 70.8078 56.7331 70.7619C56.7154 70.7191 56.6968 70.6771 56.6759 70.6352C56.6146 70.5069 56.5477 70.3794 56.4728 70.2551C56.4462 70.2091 56.4188 70.1671 56.3922 70.1292L54.4579 67.3211C61.4696 67.7335 65.3913 64.5203 65.3913 64.5203C65.3913 64.5203 65.6089 64.8906 65.9506 65.5297C66.8573 67.2243 68.7593 70.7877 69.7208 74.347C70.4792 77.1551 70.6066 79.9584 69.5081 81.8256Z" fill="#FBC5A9"/>
<path d="M63.521 83.8816C63.521 83.8816 60.7454 83.2159 59.1689 81.6343C59.1689 81.6343 60.3577 85.5632 63.0915 85.8045L63.521 83.8816Z" fill="#F7A18A"/>
<path d="M55.0425 77.611H52.4151C52.3655 77.6078 52.3189 77.5858 52.2848 77.5495C52.2508 77.5132 52.2318 77.4652 52.2318 77.4154C52.2318 77.3655 52.2508 77.3176 52.2848 77.2812C52.3189 77.2449 52.3655 77.2229 52.4151 77.2197H53.6184L52.0734 76.3022C52.032 76.2742 52.0029 76.2314 51.992 76.1825C51.9811 76.1337 51.9893 76.0826 52.0148 76.0396C52.0404 75.9966 52.0814 75.965 52.1294 75.9513C52.1774 75.9375 52.2289 75.9427 52.2733 75.9657L55.0425 77.611Z" fill="#F7A18A"/>
<path d="M65.4991 74.6886C65.4502 74.6877 65.4034 74.6689 65.3676 74.6356C65.3318 74.6024 65.3095 74.557 65.305 74.5083C65.3005 74.4596 65.3141 74.411 65.3433 74.3717C65.3724 74.3325 65.415 74.3054 65.4628 74.2956C66.5911 74.0866 67.2423 73.7606 67.3536 73.3515C67.5091 72.7745 66.6492 71.9345 65.7868 71.1889C64.5779 70.1399 64.7544 68.6769 64.7625 68.6148C64.7718 68.5648 64.8 68.5204 64.8411 68.4906C64.8822 68.4608 64.9332 68.4479 64.9836 68.4546C65.0339 68.4614 65.0797 68.4872 65.1116 68.5267C65.1435 68.5663 65.159 68.6166 65.1549 68.6673C65.1477 68.7205 64.9986 69.9834 66.0415 70.8887C66.9764 71.6957 67.9548 72.6285 67.734 73.4556C67.5728 74.0382 66.8563 74.44 65.5337 74.6853C65.5223 74.6875 65.5107 74.6886 65.4991 74.6886Z" fill="#F7A18A"/>
<path d="M66.0384 69.8853C66.1657 70.1669 66.4414 70.3154 66.6614 70.217C66.8814 70.1185 66.9507 69.8135 66.8226 69.5287C66.6944 69.2438 66.4156 69.0994 66.1996 69.1978C65.9836 69.2963 65.9111 69.6045 66.0384 69.8853Z" fill="#0A2033"/>
<path d="M62.6732 71.0732C62.8005 71.3548 63.0761 71.5033 63.2961 71.4048C63.5162 71.3064 63.5855 71.0014 63.4573 70.7165C63.3292 70.4317 63.0503 70.2873 62.8343 70.3857C62.6184 70.4841 62.5458 70.7924 62.6732 71.0732Z" fill="#0A2033"/>
<path d="M60.9863 70.2214C60.9387 70.2211 60.8915 70.2124 60.8469 70.1956C60.7982 70.1772 60.7537 70.1494 60.7158 70.1138C60.6779 70.0782 60.6473 70.0355 60.6259 69.988C60.6045 69.9406 60.5927 69.8894 60.591 69.8374C60.5894 69.7853 60.598 69.7335 60.6164 69.6848C61.1967 68.1444 62.6586 68.0782 63.3509 68.259C63.4526 68.2852 63.5396 68.3507 63.593 68.4412C63.6464 68.5317 63.6616 68.6397 63.6354 68.7415C63.6092 68.8433 63.5438 68.9304 63.4534 68.9839C63.363 69.0373 63.2551 69.0526 63.1535 69.0264C63.0173 68.9925 61.8213 68.7334 61.357 69.9648C61.3286 70.0402 61.2778 70.1051 61.2116 70.151C61.1454 70.1968 61.0668 70.2214 60.9863 70.2214Z" fill="#0A2033"/>
<path d="M65.3927 68.2231C65.3486 68.2233 65.3047 68.2159 65.263 68.2013C65.1642 68.1664 65.0833 68.0937 65.038 67.9992C64.9927 67.9046 64.9866 67.796 65.0212 67.697C65.0357 67.6566 65.3814 66.7061 66.7427 66.6827C66.7946 66.6818 66.8463 66.6911 66.8946 66.7102C66.943 66.7293 66.9871 66.7577 67.0245 66.7939C67.0619 66.83 67.0918 66.8732 67.1125 66.9209C67.1332 66.9686 67.1443 67.02 67.1452 67.072C67.1461 67.1241 67.1368 67.1757 67.1177 67.2242C67.0987 67.2726 67.0703 67.3168 67.0342 67.3542C66.9981 67.3916 66.955 67.4216 66.9073 67.4423C66.8596 67.463 66.8083 67.4742 66.7564 67.4751C65.9504 67.4888 65.7707 67.952 65.7691 67.9592C65.7417 68.037 65.6907 68.1043 65.6232 68.1516C65.5557 68.1989 65.4751 68.2239 65.3927 68.2231Z" fill="#0A2033"/>
<path d="M58.8591 74.3397C58.9397 74.819 59.8367 75.0659 60.8659 74.8981C61.8951 74.7302 62.6639 74.2009 62.5849 73.7216C62.506 73.2422 61.6073 72.9953 60.579 73.1632C59.5506 73.331 58.7801 73.8612 58.8591 74.3397Z" fill="#F3888A"/>
<path d="M70.3731 75.2248C72.8715 79.8808 68.7185 85.3203 63.5702 84.1607L63.463 84.1357C62.6977 83.9533 61.9541 83.6893 61.245 83.3481C57.9673 81.7835 56.2248 78.8148 55.2617 76.6208C55.7308 76.2456 56.0725 75.7073 56.3739 75.2038C56.8406 76.5086 57.7086 78.0281 59.0762 78.4509C60.8211 78.9948 61.5368 78.3032 61.8253 78.0708C62.8408 77.255 63.4146 76.3513 65.3956 75.3273C66.4272 74.7963 67.5354 74.8705 68.9813 74.647C69.194 74.6148 69.4729 74.5849 69.5994 74.3436C69.637 74.271 69.659 74.1913 69.6639 74.1096C69.9314 74.4606 70.1687 74.8336 70.3731 75.2248Z" fill="#0A2033"/>
<path d="M67.8272 77.4127L64.7646 77.9437C64.7646 77.9437 65.1378 79.7189 66.5466 79.3518C67.9554 78.9846 67.8272 77.4127 67.8272 77.4127Z" fill="white"/>
<path d="M23.4644 131.106C21.763 125.146 24.4774 120.913 30.6695 120.913C30.763 120.913 30.8573 120.913 30.9516 120.913C37.7585 121.011 54.6769 120.913 54.6769 120.913L56.2815 117.167C56.2815 117.167 56.9625 115.269 58.6639 114.977C60.3652 114.684 62.21 111.618 62.21 111.618C62.21 111.618 63.5712 112.3 62.8419 113.76C62.1125 115.219 61.529 116.681 61.529 116.681C61.529 116.681 67.2657 117.265 68.0926 116.875C68.9195 116.486 72.3713 114.49 73.0515 114.49C73.0515 114.49 72.9056 117.072 71.301 117.824C71.301 117.824 69.0162 123.301 67.4607 124.031C65.9052 124.761 55.7439 126.805 55.7439 126.805C55.7439 126.805 30.2625 135.374 24.2316 133.33L23.4644 131.106Z" fill="#FBC5A9"/>
<path d="M65.5397 119.601H63.9479C63.8983 119.598 63.8517 119.576 63.8176 119.539C63.7836 119.503 63.7646 119.455 63.7646 119.405C63.7646 119.355 63.7836 119.307 63.8176 119.271C63.8517 119.235 63.8983 119.213 63.9479 119.21H65.5397C66.8171 119.211 68.082 118.958 69.2607 118.465L71.2304 117.643C71.2782 117.623 71.3319 117.623 71.3799 117.643C71.4278 117.662 71.4659 117.7 71.4859 117.748C71.5059 117.796 71.5061 117.85 71.4864 117.898C71.4668 117.946 71.4289 117.984 71.3811 118.004L69.4106 118.827C68.1843 119.339 66.8685 119.603 65.5397 119.601Z" fill="#F7A18A"/>
<path d="M63.9471 121.693C63.8971 121.691 63.8496 121.671 63.8142 121.635C63.7789 121.6 63.7584 121.552 63.7569 121.502C63.7555 121.452 63.7732 121.404 63.8065 121.366C63.8397 121.329 63.886 121.306 63.9358 121.301C63.9777 121.301 68.0832 121.054 70.061 120.132C70.0845 120.119 70.1105 120.111 70.1373 120.108C70.1642 120.106 70.1912 120.109 70.2168 120.117C70.2424 120.125 70.266 120.139 70.2861 120.157C70.3061 120.175 70.3223 120.197 70.3334 120.222C70.3446 120.246 70.3506 120.273 70.351 120.3C70.3513 120.327 70.3462 120.353 70.3357 120.378C70.3252 120.403 70.3098 120.426 70.2902 120.444C70.2707 120.463 70.2475 120.477 70.2222 120.486C68.1743 121.44 64.1244 121.682 63.9528 121.692L63.9471 121.693Z" fill="#F7A18A"/>
<path d="M63.948 123.57C63.8969 123.572 63.8469 123.554 63.8089 123.52C63.7708 123.486 63.7477 123.438 63.7445 123.387C63.7413 123.336 63.7584 123.285 63.7919 123.247C63.8254 123.208 63.8728 123.184 63.9238 123.18C63.9544 123.18 67.0049 122.781 69.0319 121.993C69.0793 121.978 69.1308 121.981 69.1758 122.003C69.2207 122.024 69.2558 122.062 69.2739 122.109C69.292 122.155 69.2917 122.207 69.2731 122.253C69.2545 122.299 69.2189 122.337 69.1737 122.358C67.1008 123.165 64.0963 123.552 63.973 123.568C63.9647 123.569 63.9563 123.57 63.948 123.57Z" fill="#F7A18A"/>
<path d="M23.2079 133.087C23.7914 133.923 26.8959 133.508 31.5688 131.586C34.4282 130.411 35.4373 124.334 35.783 119.792C36.0039 116.912 35.9619 114.649 35.9619 114.649L23.0121 113.216C22.265 116.555 21.8733 119.429 21.7145 121.868C21.2487 129.015 22.7727 132.464 23.2079 133.087Z" fill="#FBC5A9"/>
<path d="M21.7168 121.868C26.0536 120.254 33.5561 119.871 35.7853 119.792C36.0061 116.912 35.9642 114.649 35.9642 114.649L23.0144 113.216C22.2673 116.555 21.8756 119.427 21.7168 121.868Z" fill="#F7A18A"/>
<path d="M39.5279 117.527L20.1152 116.999C20.1152 116.999 21.47 94.4225 32.9297 89.9586C32.9297 89.9586 38.6116 92.1091 39.1903 106.501L39.5279 117.527Z" fill="#062E5C"/>
<path d="M87.3066 104.332H95.3572L96.0027 102.39L96.7055 100.273L96.9731 99.4668L92.2978 95.0917L87.3066 104.332Z" fill="#FBC5A9"/>
<path d="M92.9951 97.7926C92.9951 97.7926 93.0225 101.208 96.0029 102.392L96.7057 100.276L96.6831 100.257C96.6831 100.257 94.5232 99.889 92.9951 97.7926Z" fill="#F7A18A"/>
<path d="M100.36 99.2476C100.36 99.2476 99.8841 98.8142 100.162 98.2607C99.8003 98.8104 99.3552 99.3004 98.8429 99.7132C98.1788 100.227 97.3261 100.587 96.4315 100.18C96.4315 100.18 94.922 98.945 94.2377 98.1413C93.1948 96.9163 92.2607 95.1556 92.2607 95.1556C92.2607 95.1556 93.647 93.6499 94.1225 93.1722C95.2508 92.0425 97.2898 90.0591 98.2569 89.5313C99.6335 88.7785 105.785 88.1297 106.151 88.4089C106.517 88.6881 106.495 89.4765 105.973 89.6572C105.451 89.838 101.137 91.1145 101.137 91.1145C101.137 91.1145 102.823 91.7891 102.873 92.4395C102.924 93.0899 102.139 93.3271 102.139 93.3271C102.139 93.3271 103.1 94.573 102.22 95.7334C102.22 95.7334 102.594 96.8881 102.328 97.6184C102.062 98.3486 100.891 99.9455 100.36 99.2476Z" fill="#FBC5A9"/>
<path d="M105.973 89.6553C105.45 89.8352 101.138 91.1126 101.138 91.1126C99.1922 91.0384 96.4053 92.4142 96.4053 92.4142C96.4053 92.4142 97.2531 91.1836 99.7902 90.5219C102.327 89.8603 105.885 89.8183 106.157 88.407C106.517 88.6862 106.496 89.4745 105.973 89.6553Z" fill="#F7A18A"/>
<path d="M102.213 95.7339C101.278 97.0992 100.794 97.1476 100.311 97.154C99.8281 97.1605 99.7991 95.9437 100.526 95.4409C101.253 94.9382 102.138 93.3268 102.138 93.3268C102.138 93.3268 100.869 93.4172 99.6009 95.1964C98.3331 96.9757 95.8936 96.314 95.8936 96.314C95.8936 96.314 97.4248 97.1274 98.8892 96.7449C99.5638 96.5682 99.1729 98.3192 100.043 98.0522C101.554 97.5882 102.213 95.7339 102.213 95.7339Z" fill="#F7A18A"/>
<path d="M76.736 94.0248C76.736 94.0248 79.4085 95.3828 81.0945 101.511C82.7806 107.64 83.1561 115.019 83.1561 115.019L75.598 115.957L75.2861 96.1333L76.736 94.0248Z" fill="#062E5C"/>
<path d="M52.5027 130.815H71.5922L71.4568 131.456C71.3989 131.73 71.4029 132.015 71.4687 132.288C71.5344 132.561 71.6602 132.815 71.8368 133.034C72.0134 133.252 72.2364 133.428 72.4895 133.548C72.7427 133.669 73.0196 133.732 73.3 133.732H52.5067C52.3402 133.732 52.1805 133.666 52.0628 133.548C51.9451 133.43 51.8789 133.27 51.8789 133.104V131.444C51.8789 131.278 51.9445 131.119 52.0613 131.001C52.1782 130.883 52.3368 130.816 52.5027 130.815Z" fill="#2E1B9E"/>
<path d="M73.2992 133.732H107.881C108.6 133.732 109.298 133.484 109.857 133.03C110.416 132.576 110.802 131.944 110.952 131.24L111.211 130.015L111.815 127.153L113.446 119.435L116.162 106.581C116.221 106.306 116.217 106.021 116.152 105.748C116.086 105.475 115.961 105.22 115.784 105.001C115.608 104.783 115.384 104.607 115.131 104.486C114.878 104.365 114.601 104.303 114.32 104.303H79.7387C79.019 104.303 78.3212 104.551 77.762 105.005C77.2028 105.458 76.8161 106.09 76.6664 106.795L71.456 131.454C71.3978 131.729 71.4017 132.013 71.4673 132.287C71.5329 132.56 71.6586 132.815 71.8352 133.033C72.0119 133.251 72.235 133.428 72.4882 133.548C72.7415 133.669 73.0186 133.732 73.2992 133.732Z" fill="#F68636"/>
<path d="M104.233 104.303L113.446 119.433L116.162 106.579C116.22 106.304 116.217 106.02 116.151 105.747C116.085 105.474 115.96 105.219 115.783 105.001C115.607 104.783 115.384 104.607 115.13 104.486C114.877 104.365 114.6 104.303 114.32 104.303H104.233Z" fill="#FDB138"/>
<path d="M86.1621 104.303C89.0635 110.556 98.526 126.105 101.942 133.731H107.88C108.599 133.73 109.297 133.482 109.856 133.028C110.415 132.575 110.802 131.943 110.951 131.238L111.21 130.014L111.814 127.151L97.9684 104.303H86.1621Z" fill="#FDB138"/>
<path d="M71.4557 131.456L76.6661 106.797C76.8158 106.092 77.2025 105.46 77.7617 105.006C78.3209 104.553 79.0186 104.305 79.7383 104.304H80.994C80.2743 104.305 79.5765 104.553 79.0173 105.006C78.4582 105.46 78.0714 106.092 77.9218 106.797L72.7113 131.456C72.6534 131.731 72.6574 132.015 72.7232 132.288C72.7889 132.561 72.9147 132.816 73.0913 133.034C73.2679 133.252 73.4909 133.428 73.744 133.549C73.9972 133.669 74.2741 133.732 74.5545 133.732H73.2989C73.0184 133.732 72.7415 133.669 72.4884 133.549C72.2352 133.428 72.0122 133.252 71.8356 133.034C71.659 132.816 71.5333 132.561 71.4675 132.288C71.4018 132.015 71.3978 131.731 71.4557 131.456Z" fill="#2E1B9E"/>
<path d="M96.4014 121.205C97.8901 119.864 98.2176 117.798 97.133 116.592C96.0484 115.385 93.9624 115.493 92.4738 116.835C90.9851 118.176 90.6576 120.241 91.7422 121.448C92.8267 122.655 94.9128 122.546 96.4014 121.205Z" fill="#121A63"/>
<path d="M47.1855 70.687L61.2484 58.4693C61.0751 58.2184 54.9145 50.6695 48.3727 55.4635C43.0438 59.369 42.1766 64.5713 45.8936 70.4966C45.9595 70.602 46.0474 70.6918 46.1514 70.7598C46.2553 70.8278 46.3728 70.8724 46.4957 70.8905C46.6185 70.9087 46.7438 70.8998 46.8629 70.8647C46.9821 70.8295 47.0921 70.7689 47.1855 70.687Z" fill="white"/>
<path d="M52.9814 65.4371C52.9814 65.4371 55.9634 59.1479 58.0516 57.3944C59.6482 56.0557 63.5772 56.0896 64.5257 56.7182C65.4743 57.3468 52.9814 65.4371 52.9814 65.4371Z" fill="white"/>
<path d="M120.721 217.716H122.893L115.556 139.985H109.516L120.721 217.716Z" fill="#003F8D"/>
<path d="M-4.44305 217.716H-6.61426L0.721422 139.985H6.76276L-4.44305 217.716Z" fill="#003F8D"/>
<path d="M58 57.5C56 55.8333 50.8 53.5 46 57.5" stroke="black" stroke-width="0.3" stroke-linecap="round"/>
<path d="M59.5 57C59.5 56.8333 58.8 56.1 56 54.5" stroke="black" stroke-width="0.3" stroke-linecap="round"/>
<path d="M54.5 62.5001C51.8333 61.8334 45.9 61.5001 43.5 65.5001" stroke="black" stroke-width="0.3" stroke-linecap="round"/>
<path d="M60.5 56.5C59 56.5 55.6 58.2 54 65" stroke="black" stroke-width="0.3" stroke-linecap="round"/>
<path d="M126.15 134.79H-8.36719V141.329H126.15V134.79Z" fill="#016EBD"/>
<path d="M126.15 134.788H-8.36719V137.347H126.15V134.788Z" fill="#0054AD"/>
<path d="M127.878 132.904H-10.0947V136.138H127.878V132.904Z" fill="#0197D4"/>
<path d="M22.4693 98.3111L23.9707 98.9434L24.311 98.1333L22.8095 97.5011L22.4693 98.3111Z" fill="#FFBF67"/>
<path d="M22.5293 98.0111L24.0308 98.643L24.3024 98.137L22.8001 97.5044L22.5293 98.0111Z" fill="#253191"/>
<path d="M18.6143 95.7428L28.4846 99.8985L28.5515 99.3813C28.6609 98.534 28.4898 97.6741 28.0642 96.9335C27.6387 96.1929 26.9823 95.6125 26.1957 95.2813L23.5104 94.1516C22.7238 93.8203 21.8505 93.7565 21.0243 93.9701C20.1981 94.1836 19.4647 94.6627 18.9366 95.3337L18.6143 95.7428Z" fill="#C8E1FF"/>
<path d="M20.1985 95.863C21.1713 94.4363 22.6719 93.7964 23.8655 94.2984L24.0831 94.3903C23.1515 93.9982 21.8813 94.7349 20.9779 96.1914L20.7095 96.6231L19.9092 96.2866L20.1985 95.863Z" fill="#98BBFF"/>
<path d="M24.2393 94.458L24.3344 94.4976C23.7065 94.2337 22.7023 95.0826 21.8795 96.573L21.6377 97.0152L21.2871 96.8675L21.5402 96.4285C22.3904 94.9503 23.4962 94.1433 24.2393 94.458Z" fill="#98BBFF"/>
<path d="M25.3926 94.9424L25.8657 95.1425C26.5048 95.4112 26.9771 95.9615 27.2358 96.6684C27.2583 96.7348 27.2613 96.8063 27.2445 96.8744C27.2276 96.9425 27.1916 97.0044 27.1406 97.0526C27.0897 97.1007 27.026 97.1333 26.9572 97.1463C26.8883 97.1593 26.8172 97.1522 26.7522 97.1259L26.4185 96.9855C26.287 96.9301 26.1745 96.8372 26.095 96.7185C26.0155 96.5998 25.9725 96.4603 25.9712 96.3174C25.96 95.6041 25.7649 95.0989 25.3926 94.9424Z" fill="white"/>
<path d="M27.4496 98.1463C27.4496 98.1874 27.4496 98.227 27.4432 98.2706C27.4395 98.3289 27.4219 98.3855 27.3919 98.4357C27.3619 98.4858 27.3204 98.5281 27.2708 98.559C27.2212 98.5898 27.165 98.6084 27.1068 98.6131C27.0486 98.6178 26.9901 98.6085 26.9363 98.5861L25.9901 98.1874C25.9098 98.1534 25.8443 98.0917 25.8053 98.0137C25.7663 97.9356 25.7564 97.8461 25.7773 97.7614C25.7854 97.7283 25.7934 97.696 25.8007 97.6629C25.8125 97.6109 25.8356 97.5622 25.8683 97.52C25.9009 97.4779 25.9424 97.4434 25.9898 97.4191C26.0372 97.3947 26.0893 97.381 26.1425 97.3789C26.1958 97.3769 26.2488 97.3865 26.2979 97.4072L27.2256 97.7977C27.2939 97.8262 27.3519 97.8748 27.3919 97.937C27.4319 97.9993 27.452 98.0723 27.4496 98.1463Z" fill="white"/>
<path d="M25.9481 133.658H24.0002C23.8374 133.658 23.6768 133.621 23.5307 133.549C23.3846 133.477 23.2568 133.373 23.1572 133.244L21.4558 131.042C21.2657 130.799 21.1425 130.511 21.0988 130.206C21.0551 129.901 21.0923 129.59 21.2068 129.304C22.2819 126.688 25.251 126.665 25.5685 127.654L26.9676 132.283C27.0157 132.442 27.0258 132.611 26.9972 132.774C26.9687 132.938 26.9022 133.093 26.8031 133.227C26.7041 133.361 26.5751 133.469 26.4267 133.544C26.2782 133.619 26.1143 133.658 25.9481 133.658Z" fill="#190163"/>
<path d="M26.2177 132.913C26.055 132.913 25.8945 132.876 25.7485 132.804C25.6025 132.732 25.4748 132.628 25.3755 132.499L24.1528 130.918C24.879 130.58 25.5546 130.143 26.1604 129.618L25.7293 128.191L23.2977 129.237C23.294 129.006 23.3373 128.776 23.4251 128.562C23.6566 127.979 24.0307 127.464 24.5131 127.063C23.4597 126.982 21.9172 127.575 21.2087 129.307C21.0943 129.593 21.0571 129.904 21.1008 130.209C21.1445 130.515 21.2676 130.803 21.4578 131.045L23.1591 133.247C23.2588 133.376 23.3865 133.48 23.5327 133.552C23.6788 133.624 23.8394 133.661 24.0021 133.661H25.9477C26.1741 133.661 26.3946 133.589 26.5772 133.455C26.7599 133.321 26.8951 133.133 26.9632 132.916L26.2177 132.913Z" fill="#120148"/>
<path d="M12.3105 97.0934H17.4581V97.2015C25.2757 98.1698 31.3541 105.473 31.3541 114.339C31.3541 123.205 25.2773 130.507 17.4581 131.477V131.588H12.3105C3.65635 131.588 -3.35938 123.866 -3.35938 114.339C-3.35938 104.812 3.65635 97.0934 12.3105 97.0934Z" fill="#F68636"/>
<path d="M17.457 131.59C26.1113 131.59 33.1269 123.867 33.1269 114.341C33.1269 104.816 26.1113 97.0934 17.457 97.0934C8.80277 97.0934 1.78711 104.816 1.78711 114.341C1.78711 123.867 8.80277 131.59 17.457 131.59Z" fill="#FDB138"/>
<path d="M29.9416 114.342C29.9416 106.179 24.0913 99.4944 16.7637 99.0909C16.9936 99.078 17.2249 99.0715 17.4576 99.0715C25.106 99.0715 31.3278 105.921 31.3278 114.339C31.3278 122.758 25.106 129.607 17.4576 129.607C17.2244 129.607 16.9931 129.601 16.7637 129.589C24.0945 129.192 29.9416 122.505 29.9416 114.342Z" fill="#253191"/>
<path d="M16.7639 129.591C24.0419 129.591 29.9418 122.764 29.9418 114.342C29.9418 105.92 24.0419 99.0923 16.7639 99.0923C9.48591 99.0923 3.58594 105.92 3.58594 114.342C3.58594 122.764 9.48591 129.591 16.7639 129.591Z" fill="white"/>
<path d="M17.2455 100.67H16.2832V103.202H17.2455V100.67Z" fill="#190163"/>
<path d="M21.0391 104.409L21.8724 104.98L22.9395 102.787L22.1061 102.216L21.0391 104.409Z" fill="#190163"/>
<path d="M24.6494 108.277L25.1306 109.267L26.9778 108L26.4966 107.01L24.6494 108.277Z" fill="#190163"/>
<path d="M28.2798 113.77H26.1465V114.913H28.2798V113.77Z" fill="#190163"/>
<path d="M25.1306 119.417L24.6494 120.406L26.4966 121.672L26.9778 120.683L25.1306 119.417Z" fill="#190163"/>
<path d="M21.8724 123.703L21.0391 124.275L22.1061 126.468L22.9395 125.897L21.8724 123.703Z" fill="#190163"/>
<path d="M17.2455 125.482H16.2832V128.014H17.2455V125.482Z" fill="#190163"/>
<path d="M12.4894 124.275L11.6561 123.703L10.5898 125.897L11.4232 126.468L12.4894 124.275Z" fill="#190163"/>
<path d="M8.87915 120.406L8.398 119.417L6.55078 120.683L7.03193 121.672L8.87915 120.406Z" fill="#190163"/>
<path d="M7.38235 113.77H5.24902V114.913H7.38235V113.77Z" fill="#190163"/>
<path d="M8.398 109.267L8.87915 108.277L7.03193 107.01L6.55078 108L8.398 109.267Z" fill="#190163"/>
<path d="M11.6561 104.98L12.4894 104.409L11.4232 102.216L10.5898 102.787L11.6561 104.98Z" fill="#190163"/>
<path d="M17.6418 115.206L17.0269 115.423L16.4111 115.64L19.3423 121.066L20.2482 121.388L20.573 120.632L17.6418 115.206Z" fill="#4060C3"/>
<path d="M16.7636 116.116C17.5893 116.116 18.2586 115.322 18.2586 114.342C18.2586 113.362 17.5893 112.567 16.7636 112.567C15.9379 112.567 15.2686 113.362 15.2686 114.342C15.2686 115.322 15.9379 116.116 16.7636 116.116Z" fill="#190163"/>
<path d="M16.4531 113.773L16.765 114.342L17.0777 114.912L24.7132 110.657L24.9316 109.792L24.0886 109.517L16.4531 113.773Z" fill="#190163"/>
<path d="M16.8511 113.469H17.2218V113.59C17.3353 113.679 17.4271 113.794 17.4902 113.924C17.5533 114.054 17.586 114.197 17.586 114.342C17.586 114.487 17.5533 114.63 17.4902 114.76C17.4271 114.89 17.3353 115.005 17.2218 115.094V115.215H16.8511C16.4481 115.215 16.1152 114.823 16.1152 114.342C16.1152 113.86 16.4457 113.469 16.8511 113.469Z" fill="#FF9168"/>
<path d="M17.2213 113.469C17.6243 113.469 17.9572 113.861 17.9572 114.342C17.9572 114.823 17.6267 115.215 17.2213 115.215C16.816 115.215 16.4863 114.823 16.4863 114.342C16.4863 113.86 16.816 113.469 17.2213 113.469Z" fill="#FFBF67"/>
<path d="M2.51497 133.658H4.46213C4.62488 133.658 4.78547 133.621 4.9316 133.549C5.07772 133.477 5.2055 133.373 5.30514 133.244L7.00971 131.042C7.19958 130.799 7.32246 130.511 7.36602 130.206C7.40959 129.901 7.37232 129.59 7.25794 129.304C6.18362 126.688 3.21373 126.665 2.89619 127.654L1.49788 132.283C1.44973 132.442 1.43943 132.61 1.4678 132.774C1.49616 132.938 1.56241 133.093 1.66124 133.226C1.76007 133.36 1.88875 133.469 2.03699 133.543C2.18523 133.618 2.34891 133.658 2.51497 133.658Z" fill="#190163"/>
<path d="M7.25419 129.304C7.03158 128.746 6.67834 128.249 6.2242 127.856C6.36569 128.072 6.48606 128.301 6.58364 128.54C6.69807 128.826 6.7353 129.137 6.69159 129.442C6.64787 129.747 6.52476 130.035 6.33461 130.278L4.63327 132.48C4.53362 132.609 4.40584 132.713 4.25972 132.785C4.11359 132.857 3.953 132.894 3.79025 132.894H1.84229C1.71724 132.894 1.59314 132.872 1.47559 132.829C1.52913 133.065 1.66103 133.275 1.84965 133.426C2.03827 133.576 2.2724 133.658 2.51364 133.658H4.4608C4.62355 133.658 4.78414 133.621 4.93026 133.549C5.07639 133.477 5.20416 133.373 5.30381 133.244L7.00837 131.042C7.19785 130.799 7.32029 130.511 7.36343 130.206C7.40657 129.901 7.3689 129.59 7.25419 129.304Z" fill="#120148"/>
<path d="M5.82409 98.329L3.87988 99.1477L4.32074 100.197L6.26494 99.3786L5.82409 98.329Z" fill="#253191"/>
<path d="M5.82409 98.3301L3.87988 99.1488L4.10016 99.6732L6.04436 98.8545L5.82409 98.3301Z" fill="#190163"/>
<path d="M11.2386 96.0552L-1.54284 101.437L-1.62907 100.767C-1.77101 99.6696 -1.54947 98.5559 -0.998441 97.5968C-0.447411 96.6377 0.402676 95.8861 1.42141 95.4573L4.89825 93.9935C5.91701 93.5648 7.04813 93.4826 8.11804 93.7595C9.18795 94.0365 10.1375 94.6573 10.8211 95.5267L11.2386 96.0552Z" fill="#C8E1FF"/>
<path d="M9.19182 96.2107C7.93214 94.3628 5.9882 93.5341 4.44241 94.1845L4.16113 94.3031C5.37004 93.7955 7.01255 94.7501 8.18198 96.6351L8.52934 97.1951L9.56578 96.7594L9.19182 96.2107Z" fill="#98BBFF"/>
<path d="M3.95827 94.3888L3.83496 94.4412C4.64735 94.0991 5.94814 95.1981 7.01359 97.1275L7.32952 97.7004L7.78407 97.5092L7.45605 96.9443C6.35192 95.0287 4.92057 93.9837 3.95827 94.3888Z" fill="#98BBFF"/>
<path d="M2.46457 95.0181L1.85125 95.2763C1.02355 95.6241 0.411839 96.3366 0.0781793 97.2525C0.0480021 97.339 0.0435695 97.4325 0.0654242 97.5216C0.0872788 97.6106 0.134482 97.6914 0.201299 97.7541C0.268115 97.8168 0.351674 97.8588 0.441837 97.8748C0.532 97.8909 0.624891 97.8805 0.709233 97.8447L1.14041 97.6632C1.31108 97.5916 1.45708 97.4715 1.56035 97.3178C1.66362 97.1641 1.71964 96.9834 1.7215 96.7982C1.72875 95.875 1.98181 95.2206 2.46457 95.0181Z" fill="white"/>
<path d="M-0.199842 99.1671C-0.199842 99.2204 -0.195008 99.2745 -0.191784 99.3285C-0.186978 99.4041 -0.164198 99.4774 -0.125347 99.5424C-0.0864957 99.6074 -0.0326946 99.6622 0.0315714 99.7021C0.0958375 99.7421 0.168706 99.7661 0.24411 99.7721C0.319514 99.7781 0.395269 99.7661 0.46506 99.7368L1.68929 99.2188C1.79333 99.1745 1.87817 99.0945 1.92855 98.9932C1.97893 98.8918 1.99154 98.7758 1.96411 98.666C1.95363 98.6241 1.94396 98.5853 1.93429 98.5393C1.91888 98.472 1.88893 98.4088 1.84654 98.3542C1.80415 98.2997 1.75035 98.255 1.68891 98.2235C1.62746 98.192 1.55988 98.1743 1.49088 98.1717C1.42189 98.1691 1.35317 98.1817 1.28954 98.2085L0.0886868 98.7136C0.000214541 98.7509 -0.0748138 98.8142 -0.12637 98.8952C-0.177927 98.9763 -0.203557 99.0711 -0.199842 99.1671Z" fill="white"/>
<path d="M-3.77356 99.3903H-3.79049C-3.97333 99.3867 -4.14725 99.3105 -4.27405 99.1786C-4.40084 99.0466 -4.47013 98.8697 -4.46667 98.6866C-4.4159 96.1045 -3.22472 94.6778 -2.23502 93.9371C-1.58677 93.4484 -0.838359 93.1096 -0.0436674 92.9453C0.136737 92.9156 0.321556 92.9588 0.47013 93.0655C0.618704 93.1722 0.718863 93.3336 0.748574 93.5142C0.778285 93.6948 0.735115 93.8799 0.628559 94.0286C0.522003 94.1774 0.360791 94.2777 0.180387 94.3074C0.0417648 94.3316 -3.01356 94.9126 -3.08771 98.7133C-3.09128 98.8934 -3.16498 99.0649 -3.29311 99.1914C-3.42124 99.3179 -3.59364 99.3893 -3.77356 99.3903Z" fill="#4060C3"/>
<path d="M30.7257 98.4623C30.5549 98.4622 30.3902 98.3985 30.2637 98.2837C30.1371 98.1689 30.0576 98.0111 30.0406 97.841C30.0253 97.699 29.6441 94.6133 25.8618 94.2905C25.6838 94.2697 25.5209 94.1803 25.4075 94.0413C25.2941 93.9024 25.2392 93.7247 25.2544 93.5459C25.2696 93.3671 25.3537 93.2012 25.4889 93.0834C25.6241 92.9656 25.7997 92.9051 25.9787 92.9147C28.5496 93.1334 29.8923 94.4156 30.5661 95.4533C31.0111 96.1327 31.3001 96.9024 31.4123 97.707C31.4299 97.8892 31.3744 98.071 31.2582 98.2123C31.142 98.3536 30.9745 98.4429 30.7926 98.4607C30.77 98.4607 30.7474 98.4623 30.7257 98.4623Z" fill="#4060C3"/>
<path d="M31.3915 94.8212C31.3271 94.4493 31.1711 94.0993 30.9377 93.8029C30.4066 93.1146 29.5297 92.716 28.3313 92.6183C28.2367 92.6173 28.1433 92.5969 28.0569 92.5582C27.9706 92.5194 27.8931 92.4633 27.8293 92.3933C27.7656 92.3233 27.7169 92.241 27.6863 92.1513C27.6558 92.0616 27.644 91.9666 27.6517 91.8722C27.6594 91.7778 27.6865 91.686 27.7312 91.6025C27.7759 91.519 27.8373 91.4456 27.9115 91.3869C27.9858 91.3282 28.0713 91.2855 28.1628 91.2613C28.2543 91.2372 28.3498 91.2321 28.4433 91.2466C30.4952 91.4136 31.5591 92.3165 32.0902 93.0452C32.4523 93.5294 32.6845 94.0983 32.7648 94.6978L31.3947 94.8172L31.3915 94.8212Z" fill="#4060C3"/>
<path d="M250.783 215.501C249.127 215.578 247.358 215.599 245.522 215.557C236.495 215.348 229.242 213.667 229.242 211.806C229.24 211.761 229.244 211.716 229.254 211.672H229.242L229.279 211.582C229.288 211.552 229.299 211.523 229.313 211.496L231.394 206.047L233.908 199.472L237.428 190.259L240.122 183.206L243.474 174.435C243.893 173.337 244.671 172.654 245.51 172.654C245.623 172.654 245.736 172.666 245.846 172.691C246.205 174.924 246.818 178.82 247.495 183.412C247.835 185.724 248.191 188.213 248.543 190.755C248.993 194.039 249.43 197.411 249.799 200.6C250.101 203.216 250.363 205.712 250.541 207.943C250.806 211.17 250.917 213.839 250.783 215.501Z" fill="#D61450"/>
<path d="M253.666 190.415C252.097 190.585 250.372 190.7 248.543 190.753C247.563 190.782 246.553 190.791 245.522 190.781C242.817 190.763 240.116 190.589 237.431 190.259L240.125 183.206C241.812 183.339 243.628 183.415 245.525 183.426C246.194 183.43 246.852 183.425 247.501 183.412C248.688 183.39 249.838 183.342 250.937 183.269L253.666 190.415Z" fill="white"/>
<path d="M129.255 211.611C126.119 215.211 117.988 216.711 110.57 217.744H110.563C106.619 218.29 102.875 218.706 100.191 219.237C97.1322 219.837 94.1741 220.871 91.4067 222.308C89.1283 223.5 87.8903 224.517 87.8903 224.517C87.8823 224.538 87.8734 224.559 87.8645 224.579C87.7034 224.95 86.6347 226.835 82.4994 225.455C80.5111 224.791 79.1886 222.329 78.1739 219.616C77.484 217.769 76.9376 215.806 76.4194 214.209C76.1518 213.381 75.8907 212.653 75.6223 212.093C75.4224 211.67 75.2193 211.342 74.9993 211.138C73.8178 210.029 71.292 210.642 69.581 210.573C68.5743 210.533 67.8506 210.259 67.8506 209.259C67.8495 209.023 67.8969 208.789 67.99 208.572C68.083 208.354 68.2196 208.159 68.3914 207.997C69.801 206.601 73.4769 206.677 73.4769 206.677C74.0405 206.13 74.6253 205.584 75.2314 205.041C78.9972 201.686 83.0974 198.727 87.4672 196.212C88.847 195.422 90.2074 194.715 91.5203 194.114C91.6009 194.075 91.6815 194.038 91.7621 194.003C91.8749 193.951 91.9869 193.901 92.1006 193.851C92.6416 193.61 93.1725 193.388 93.6931 193.187C93.897 193.107 94.0961 193.031 94.2976 192.959C95.2998 192.584 96.3276 192.282 97.373 192.054C97.8104 191.962 98.2322 191.893 98.6384 191.846C98.9116 191.815 99.1775 191.795 99.4338 191.786C101.116 191.727 102.8 191.813 104.468 192.043C109.605 192.743 114.846 194.811 117.656 198.59C119.947 201.671 123.11 204.008 125.226 205.361C126.575 206.222 127.499 206.685 127.499 206.685C127.499 206.685 127.673 206.669 127.944 206.668C128.453 206.659 128.962 206.71 129.459 206.822C130.903 207.167 132.172 208.268 129.255 211.611Z" fill="#989898"/>
<path d="M106.115 202.723C106.115 202.723 102.708 203.703 98.4735 207.803C98.4735 207.803 98.3929 206.899 97.6861 205.484C96.9036 203.91 95.3489 201.708 92.2726 199.423C90.7317 198.263 89.1273 197.191 87.4668 196.211C88.8466 195.422 90.207 194.714 91.5199 194.113C91.6005 194.074 91.6811 194.037 91.7617 194.003C91.8745 193.951 91.9865 193.9 92.1002 193.851C92.6412 193.609 93.1721 193.388 93.6927 193.187C93.8966 193.106 94.0957 193.031 94.2972 192.958C95.2994 192.584 96.3272 192.281 97.3726 192.054C97.81 191.962 98.2317 191.893 98.6379 191.846C99.4743 192.503 100.273 193.208 101.029 193.957C104.091 197.028 106.115 202.723 106.115 202.723Z" fill="#C4C4C4"/>
<path d="M106.116 202.723C106.116 202.723 102.709 203.702 98.4744 207.802C98.4744 207.802 98.3938 206.898 97.687 205.483C99.0394 204.322 102.079 202.812 103.516 202.028C105.289 201.06 103.856 198.678 101.493 195.555C100.644 194.431 99.1006 193.165 97.3711 192.051C97.8085 191.959 98.2302 191.89 98.6364 191.843C99.4728 192.501 100.271 193.205 101.028 193.954C104.092 197.027 106.116 202.723 106.116 202.723Z" fill="#9C9C9C"/>
<rect width="90.1849" height="4.19602" rx="2.09801" transform="matrix(0.999741 -0.0227593 0.0227037 0.999742 137.615 96.7568)" fill="#1F65BC"/>
<rect width="90.1849" height="11.0705" rx="5.53526" transform="matrix(0.999741 -0.0227593 0.0227037 0.999742 137.46 75.2747)" fill="#1F65BC"/>
<rect width="90.1849" height="4.19602" rx="2.09801" transform="matrix(0.999741 -0.0227593 0.0227037 0.999742 137.615 108.838)" fill="#1F65BC"/>
<rect width="90.1849" height="4.19602" rx="2.09801" transform="matrix(0.999741 -0.0227593 0.0227037 0.999742 137.615 122.313)" fill="#1F65BC"/>
<rect width="90.1849" height="4.19602" rx="2.09801" transform="matrix(0.999741 -0.0227593 0.0227037 0.999742 137.615 162.418)" fill="#1F65BC"/>
<rect width="90.1849" height="4.19602" rx="2.09801" transform="matrix(0.999741 -0.0227593 0.0227037 0.999742 137.615 135.466)" fill="#1F65BC"/>
<g opacity="0.45">
<path d="M18.7789 31.6019H-1.31327C-2.26532 31.6019 -3.03711 32.3747 -3.03711 33.3279V40.5062C-3.03711 41.4594 -2.26532 42.2321 -1.31327 42.2321H18.7789C19.731 42.2321 20.5028 41.4594 20.5028 40.5062V33.3279C20.5028 32.3747 19.731 31.6019 18.7789 31.6019Z" fill="#1F65BC"/>
<path d="M44.1412 31.6019H24.049C23.097 31.6019 22.3252 32.3747 22.3252 33.3279V40.5062C22.3252 41.4594 23.097 42.2321 24.049 42.2321H44.1412C45.0933 42.2321 45.8651 41.4594 45.8651 40.5062V33.3279C45.8651 32.3747 45.0933 31.6019 44.1412 31.6019Z" fill="#1F65BC"/>
<path d="M31.5182 44.1526H11.426C10.4739 44.1526 9.70215 44.9253 9.70215 45.8785V53.0568C9.70215 54.01 10.4739 54.7828 11.426 54.7828H31.5182C32.4702 54.7828 33.242 54.01 33.242 53.0568V45.8785C33.242 44.9253 32.4702 44.1526 31.5182 44.1526Z" fill="#1F65BC"/>
</g>
<rect width="90.1849" height="4.19602" rx="2.09801" transform="matrix(0.999741 -0.0227593 0.0227037 0.999742 137.615 175.57)" fill="#1F65BC"/>
<rect width="90.1849" height="4.19602" rx="2.09801" transform="matrix(0.999741 -0.0227593 0.0227037 0.999742 137.615 148.296)" fill="#1F65BC"/>
<rect width="90.1849" height="4.19602" rx="2.09801" transform="matrix(0.999741 -0.0227593 0.0227037 0.999742 137.615 190.921)" fill="#1F65BC"/>
<g opacity="0.45">
<path d="M229.101 13.3699H209.009C208.057 13.3699 207.285 14.1426 207.285 15.0958V22.2741C207.285 23.2273 208.057 24.0001 209.009 24.0001H229.101C230.053 24.0001 230.825 23.2273 230.825 22.2741V15.0958C230.825 14.1426 230.053 13.3699 229.101 13.3699Z" fill="#1F65BC"/>
<path d="M254.463 13.3699H234.371C233.419 13.3699 232.647 14.1426 232.647 15.0958V22.2741C232.647 23.2273 233.419 24.0001 234.371 24.0001H254.463C255.416 24.0001 256.187 23.2273 256.187 22.2741V15.0958C256.187 14.1426 255.416 13.3699 254.463 13.3699Z" fill="#1F65BC"/>
<path d="M241.84 25.9205H221.748C220.796 25.9205 220.024 26.6933 220.024 27.6465V34.8248C220.024 35.778 220.796 36.5507 221.748 36.5507H241.84C242.792 36.5507 243.564 35.778 243.564 34.8248V27.6465C243.564 26.6933 242.792 25.9205 241.84 25.9205Z" fill="#1F65BC"/>
</g>
</g>
</svg>
