<svg width="270" height="192" viewBox="0 0 270 192" fill="none" xmlns="http://www.w3.org/2000/svg">
<path d="M0.173978 91.3231C0.895153 102.562 3.92369 113.531 9.07034 123.545L22.77 150.143C28.853 161.957 37.5339 171.69 47.8071 178.786C58.0247 185.844 69.8255 190.298 82.2211 191.601C87.3122 192.134 92.445 192.13 97.5353 191.591L119.005 189.322L124.605 188.731L133.475 187.794L180.79 182.793L186.061 182.235L194.499 181.344C199.449 180.82 204.334 179.795 209.077 178.283C228.617 172.055 245.171 157.798 254.655 138.431L261.66 124.124C274.925 97.0367 272.204 64.4284 254.656 40.1398L248.512 31.6368C228.987 4.61141 195.198 -6.54839 164.324 3.8396L162.807 4.35718C154.624 7.11307 146.019 8.40061 137.388 8.1605L78.2231 6.49939C54.8249 5.84204 32.4342 16.4468 17.5044 35.2578C4.79717 51.2621 -1.11789 71.4091 0.173978 91.3231Z" fill="#D8EBFD"/>
<path d="M0.173978 91.3231C0.895153 102.562 3.92369 113.531 9.07034 123.545L22.77 150.143C28.853 161.957 37.5339 171.69 47.8071 178.786C58.0247 185.844 69.8255 190.298 82.2211 191.601C87.3122 192.134 92.445 192.13 97.5353 191.591L119.005 189.322L124.605 188.731L133.475 187.794L180.79 182.793L186.061 182.235L194.499 181.344C199.449 180.82 204.334 179.795 209.077 178.283C228.617 172.055 245.171 157.798 254.655 138.431L261.66 124.124C274.925 97.0367 272.204 64.4284 254.656 40.1398L248.512 31.6368C228.987 4.61141 195.198 -6.54839 164.324 3.8396L162.807 4.35718C154.624 7.11307 146.019 8.40061 137.388 8.1605L78.2231 6.49939C54.8249 5.84204 32.4342 16.4468 17.5044 35.2578C4.79717 51.2621 -1.11789 71.4091 0.173978 91.3231Z" fill="#D8EBFD"/>
<mask id="mask0_2886_4620" style="mask-type:alpha" maskUnits="userSpaceOnUse" x="0" y="0" width="270" height="192">
<path d="M0.173978 91.3231C0.895153 102.562 3.92369 113.531 9.07034 123.545L22.77 150.143C28.853 161.957 37.5339 171.69 47.8071 178.786C58.0247 185.844 69.8255 190.298 82.2211 191.601C87.3122 192.134 92.445 192.13 97.5353 191.591L119.005 189.322L124.605 188.731L133.475 187.794L180.79 182.793L186.061 182.235L194.499 181.344C199.449 180.82 204.334 179.795 209.077 178.283C228.617 172.055 245.171 157.798 254.655 138.431L261.66 124.124C274.925 97.0367 272.204 64.4284 254.656 40.1398L248.512 31.6368C228.987 4.61141 195.198 -6.54839 164.324 3.8396L162.807 4.35718C154.624 7.11307 146.019 8.40061 137.388 8.1605L78.2231 6.49939C54.8249 5.84204 32.4342 16.4468 17.5044 35.2578C4.79717 51.2621 -1.11789 71.4091 0.173978 91.3231Z" fill="#D8EBFD"/>
<path d="M0.173978 91.3231C0.895153 102.562 3.92369 113.531 9.07034 123.545L22.77 150.143C28.853 161.957 37.5339 171.69 47.8071 178.786C58.0247 185.844 69.8255 190.298 82.2211 191.601C87.3122 192.134 92.445 192.13 97.5353 191.591L119.005 189.322L124.605 188.731L133.475 187.794L180.79 182.793L186.061 182.235L194.499 181.344C199.449 180.82 204.334 179.795 209.077 178.283C228.617 172.055 245.171 157.798 254.655 138.431L261.66 124.124C274.925 97.0367 272.204 64.4284 254.656 40.1398L248.512 31.6368C228.987 4.61141 195.198 -6.54839 164.324 3.8396L162.807 4.35718C154.624 7.11307 146.019 8.40061 137.388 8.1605L78.2231 6.49939C54.8249 5.84204 32.4342 16.4468 17.5044 35.2578C4.79717 51.2621 -1.11789 71.4091 0.173978 91.3231Z" fill="#D8EBFD"/>
</mask>
<g mask="url(#mask0_2886_4620)">
<path d="M237.314 82.1981H232.239V54.29H205.019V82.1981H179.567V36.7205H151.486V66.244H145.081V31H116.999V97.082H81.4855V135.616H68.2186V118.458H37.7326V128.608H20.2331V83.1846H-1.38404V116.806H-23V240H259V98.4286H237.314V82.1981Z" fill="#C3DCF3"/>
<path d="M64.3137 82.1981H59.239V54.29H32.0188V82.1981H6.56664V36.7205H-21.5142V66.244H-27.9186V31H-56.0007V97.082H-91.5145V135.616H-104.781V118.458H-135.267V128.608H-152.767V83.1846H-174.384V116.806H-196V240H86V98.4286H64.3137V82.1981Z" fill="#C3DCF3"/>
<path d="M-6.62326 180.978C-6.94407 181.181 -6.84993 181.689 -6.45417 181.892C38.8373 204.773 54.4045 188.29 54.4045 188.29C27.8501 161.082 -1.71233 177.873 -6.62326 180.978Z" fill="#E0E7F3"/>
<path d="M48.3045 181.89L47.768 181.768L47.1236 181.62C46.8705 181.562 46.5798 181.493 46.2508 181.438C45.5936 181.312 44.7975 181.151 43.8744 181.014L43.1642 180.9C42.9192 180.862 42.6679 180.833 42.4092 180.797C41.8919 180.733 41.3499 180.646 40.7814 180.59C40.2129 180.535 39.6215 180.459 39.0082 180.408C38.3949 180.356 37.7606 180.294 37.108 180.247C36.4554 180.199 35.7855 180.155 35.0972 180.115C34.409 180.075 33.7107 180.039 32.995 180.015C31.5701 179.961 30.0967 179.923 28.6005 179.911C27.8519 179.904 27.097 179.898 26.3402 179.906C25.5834 179.913 24.8229 179.916 24.0634 179.93C22.5434 179.952 21.0244 180 19.5291 180.055C18.0338 180.11 16.564 180.185 15.1419 180.269C13.7197 180.353 12.3468 180.442 11.0444 180.543C9.74194 180.643 8.51261 180.741 7.37742 180.841C2.8385 181.243 -0.176788 181.634 -0.176788 181.634C-0.218967 181.639 -0.257348 181.661 -0.283488 181.695C-0.309627 181.728 -0.321385 181.771 -0.316173 181.813C-0.310961 181.855 -0.289208 181.893 -0.255698 181.92C-0.222187 181.946 -0.179666 181.957 -0.137487 181.952C-0.137487 181.952 2.87414 181.587 7.41033 181.228C8.5446 181.137 9.77302 181.046 11.0736 180.963C12.3743 180.881 13.7471 180.798 15.1665 180.729C16.586 180.661 18.0548 180.602 19.5464 180.556C21.0381 180.509 22.5535 180.48 24.0698 180.471C24.8275 180.464 25.5852 180.462 26.3402 180.471C27.0952 180.48 27.8465 180.483 28.5923 180.495C30.083 180.52 31.55 180.572 32.9685 180.639C33.6778 180.67 34.3733 180.719 35.0552 180.757C35.737 180.794 36.4024 180.857 37.0514 180.906C37.7003 180.954 38.331 181.025 38.9369 181.082C39.5429 181.139 40.1306 181.219 40.6937 181.282C41.2567 181.345 41.7905 181.433 42.305 181.502C42.561 181.539 42.8105 181.57 43.0518 181.61L43.7528 181.729C44.6668 181.873 45.4455 182.038 46.0917 182.168C46.4162 182.229 46.7023 182.3 46.9509 182.359L47.5834 182.509L48.1089 182.634H48.1236C48.2208 182.655 48.3225 182.637 48.4065 182.584C48.4905 182.53 48.55 182.446 48.5723 182.349C48.5945 182.252 48.5776 182.15 48.5253 182.065C48.473 181.981 48.3894 181.92 48.2927 181.896L48.3045 181.89Z" fill="white"/>
<path d="M6.50005 83.8025C6.36317 83.7281 6.20906 83.6913 6.05334 83.6957C5.89763 83.7 5.74584 83.7455 5.61334 83.8274C5.48085 83.9093 5.37236 84.0248 5.29887 84.1622C5.22538 84.2995 5.1895 84.4539 5.19486 84.6096C7.97342 162.629 47.7078 174.22 47.7078 174.22C68.0525 119.852 15.6995 88.7683 6.50005 83.8025Z" fill="#1F65BC"/>
<path d="M52.0469 160.765C51.9555 160.484 51.8449 160.138 51.7142 159.73C51.6484 159.526 51.578 159.307 51.503 159.074C51.419 158.844 51.3303 158.6 51.2371 158.343C51.0488 157.826 50.8407 157.255 50.6128 156.63C50.3816 156.009 50.1019 155.35 49.8195 154.637C49.675 154.283 49.5315 153.914 49.3734 153.54L48.8689 152.388C48.5252 151.602 48.1697 150.772 47.763 149.92C46.976 148.21 46.0766 146.38 45.0913 144.462C44.106 142.544 43.0275 140.544 41.874 138.495C41.2955 137.473 40.7114 136.43 40.0945 135.388L39.1805 133.817C38.8661 133.294 38.5495 132.768 38.2308 132.239L37.2611 130.65C36.9339 130.122 36.6061 129.593 36.2776 129.062C35.625 127.998 34.9459 126.945 34.276 125.887C33.606 124.828 32.9141 123.785 32.2377 122.734C31.5474 121.695 30.8613 120.661 30.1794 119.631C28.8011 117.586 27.4374 115.58 26.0865 113.657C24.7356 111.734 23.424 109.883 22.1664 108.137C20.9087 106.39 19.6986 104.75 18.5798 103.244C14.1012 97.2118 10.9488 93.3126 10.9488 93.3126C10.9222 93.28 10.8837 93.2592 10.8417 93.2548C10.7998 93.2504 10.7578 93.2627 10.7249 93.2891C10.692 93.3155 10.6709 93.3538 10.6661 93.3957C10.6613 93.4376 10.6732 93.4797 10.6993 93.5128C10.6993 93.5128 13.8206 97.4257 18.2672 103.475C19.3796 104.988 20.5742 106.633 21.8236 108.384C23.0731 110.134 24.3828 111.987 25.71 113.92C27.0371 115.853 28.3999 117.859 29.7645 119.908L31.8036 123.016C32.4736 124.066 33.1581 125.118 33.8217 126.174C34.4853 127.229 35.1571 128.289 35.8014 129.354L36.7748 130.945L37.7254 132.535L38.665 134.115L39.579 135.691C40.1886 136.732 40.7672 137.775 41.3357 138.799C42.4755 140.847 43.5366 142.849 44.51 144.763C45.4834 146.677 46.3664 148.505 47.1396 150.21C47.5409 151.056 47.8891 151.883 48.2263 152.666C48.3945 153.058 48.5587 153.44 48.719 153.811C48.8735 154.183 49.0133 154.55 49.155 154.903C49.4292 155.611 49.7034 156.267 49.931 156.884L50.5406 158.584L50.8002 159.315C50.8733 159.547 50.9415 159.764 51.0049 159.965C51.1329 160.368 51.2407 160.712 51.3285 160.99C51.5049 161.546 51.6027 161.843 51.6027 161.843L51.6082 161.858C51.6229 161.906 51.647 161.951 51.6791 161.989C51.7111 162.028 51.7505 162.059 51.795 162.082C51.8394 162.106 51.8881 162.12 51.938 162.124C51.9879 162.128 52.0382 162.122 52.0859 162.107C52.1336 162.092 52.1778 162.067 52.2159 162.034C52.254 162.002 52.2852 161.962 52.3077 161.917C52.3303 161.872 52.3437 161.824 52.3473 161.774C52.3508 161.724 52.3444 161.673 52.3284 161.626L52.0469 160.765Z" fill="white"/>
<path d="M-3.72328 128.754C-3.85278 128.735 -3.98491 128.751 -4.10629 128.8C-4.22766 128.849 -4.33396 128.929 -4.41441 129.032C-4.49486 129.135 -4.54661 129.258 -4.5644 129.387C-4.58219 129.517 -4.56539 129.649 -4.51571 129.77C20.453 190.418 55.1374 187.948 55.1374 187.948C55.2901 139.18 4.97344 129.979 -3.72328 128.754Z" fill="#76ACDE"/>
<path d="M54.6749 176.047L54.1091 175.328L53.7508 174.871L53.3267 174.37L52.3332 173.203C51.9676 172.781 51.5554 172.342 51.1249 171.864C50.9074 171.628 50.6871 171.379 50.4522 171.133L49.721 170.374C49.2201 169.855 48.6973 169.305 48.1279 168.756C47.0073 167.638 45.7634 166.459 44.4262 165.236C43.089 164.013 41.654 162.753 40.1459 161.477C39.3919 160.837 38.6259 160.189 37.8362 159.55L36.648 158.578C36.2465 158.258 35.8431 157.937 35.4379 157.613C34.6308 156.962 33.8064 156.322 32.9765 155.679C32.1466 155.037 31.3085 154.4 30.4712 153.76C29.634 153.12 28.784 152.501 27.944 151.873L25.415 150.031C23.7314 148.822 22.0688 147.642 20.4446 146.522C18.8205 145.401 17.2456 144.328 15.743 143.323C14.2404 142.317 12.8109 141.377 11.4874 140.518C6.19263 137.079 2.57228 134.927 2.57228 134.927C2.53598 134.906 2.49317 134.901 2.45293 134.912C2.41269 134.922 2.3782 134.948 2.35678 134.984C2.33536 135.02 2.3287 135.062 2.33822 135.103C2.34774 135.143 2.37269 135.179 2.40776 135.201C2.40776 135.201 6.00709 137.373 11.2736 140.842C12.5906 141.71 14.011 142.657 15.5063 143.676C17.0016 144.694 18.5709 145.769 20.1814 146.904C21.7919 148.039 23.449 149.224 25.1216 150.44L27.6342 152.296C28.4686 152.928 29.3132 153.553 30.1449 154.196C30.9767 154.838 31.8139 155.475 32.6319 156.123C33.4499 156.771 34.2771 157.415 35.075 158.068L36.2779 159.034L37.4542 160.01C38.2384 160.649 38.9961 161.305 39.7447 161.946C41.2391 163.225 42.6576 164.494 43.982 165.717C45.3064 166.94 46.5348 168.123 47.638 169.241C48.2001 169.789 48.7156 170.338 49.2091 170.859L49.9312 171.617C50.1615 171.864 50.3782 172.112 50.5929 172.348C51.0161 172.825 51.4238 173.262 51.7811 173.682L52.7555 174.843L53.1723 175.34L53.5232 175.792L54.0716 176.504L54.5286 177.097L54.5387 177.11C54.5694 177.149 54.6075 177.181 54.6509 177.206C54.6942 177.23 54.7419 177.246 54.7913 177.252C54.8406 177.257 54.8907 177.254 54.9385 177.24C54.9864 177.227 55.0311 177.204 55.0702 177.173C55.1092 177.142 55.1419 177.104 55.1662 177.061C55.1906 177.018 55.2061 176.97 55.212 176.921C55.2179 176.871 55.214 176.821 55.2006 176.773C55.1872 176.726 55.1644 176.681 55.1337 176.642L54.6749 176.047Z" fill="white"/>
<path d="M247.131 180.266C242.592 177.396 215.263 161.873 190.716 187.029C190.716 187.029 205.106 202.263 246.974 181.111C247.341 180.923 247.428 180.453 247.131 180.266Z" fill="#D0DAED"/>
<path d="M241.164 180.861C241.164 180.861 238.378 180.495 234.182 180.13C233.132 180.038 231.995 179.942 230.791 179.855C229.588 179.769 228.318 179.681 227.003 179.605C225.688 179.529 224.33 179.463 222.948 179.408C221.567 179.352 220.162 179.316 218.757 179.291C218.054 179.279 217.352 179.27 216.655 179.27C215.957 179.27 215.257 179.27 214.565 179.27C213.181 179.28 211.823 179.316 210.503 179.366C209.844 179.388 209.196 179.429 208.562 179.457C207.928 179.485 207.309 179.539 206.705 179.578C206.101 179.616 205.517 179.679 204.949 179.727C204.381 179.774 203.835 179.844 203.31 179.899C202.786 179.954 202.283 180.03 201.805 180.089C201.566 180.122 201.333 180.15 201.108 180.181L200.45 180.286C199.6 180.413 198.865 180.56 198.257 180.678C197.952 180.732 197.683 180.796 197.449 180.85L196.854 180.985L196.357 181.098C196.27 181.122 196.196 181.179 196.149 181.256C196.103 181.334 196.088 181.426 196.108 181.514C196.129 181.602 196.182 181.679 196.258 181.729C196.333 181.778 196.425 181.797 196.514 181.78H196.527L197.014 181.665L197.598 181.526C197.828 181.47 198.092 181.406 198.392 181.35C198.99 181.229 199.714 181.076 200.554 180.943L201.203 180.833C201.426 180.797 201.66 180.768 201.893 180.733C202.365 180.67 202.861 180.587 203.382 180.531C203.903 180.475 204.444 180.4 205.007 180.348C205.57 180.296 206.15 180.234 206.75 180.184C207.349 180.135 207.964 180.088 208.594 180.047C209.224 180.007 209.868 179.967 210.524 179.939C211.835 179.876 213.191 179.829 214.569 179.806C215.258 179.794 215.954 179.782 216.651 179.782C217.348 179.782 218.049 179.782 218.753 179.782C220.154 179.791 221.556 179.823 222.935 179.86C224.314 179.897 225.671 179.951 226.984 180.021C228.296 180.09 229.565 180.158 230.767 180.237C231.969 180.317 233.106 180.399 234.154 180.481C238.348 180.815 241.131 181.151 241.131 181.151C241.17 181.156 241.209 181.145 241.24 181.121C241.271 181.097 241.291 181.062 241.296 181.023C241.301 180.984 241.29 180.944 241.266 180.913C241.242 180.882 241.206 180.862 241.167 180.857L241.164 180.861Z" fill="white"/>
<path d="M220.106 99.2729C212.804 103.775 171.374 131.714 190.608 175.301C190.608 175.301 222.618 163.929 221.214 99.8725C221.211 99.7447 221.174 99.6199 221.108 99.5109C221.041 99.4019 220.947 99.3124 220.834 99.2516C220.722 99.1907 220.595 99.1606 220.467 99.1644C220.34 99.1681 220.215 99.2056 220.106 99.2729Z" fill="#93C1F2"/>
<path d="M217.1 107.227C217.084 107.215 217.066 107.207 217.047 107.203C217.028 107.199 217.009 107.198 216.989 107.201C216.97 107.204 216.952 107.211 216.935 107.222C216.919 107.232 216.905 107.246 216.893 107.261C216.893 107.261 214.497 110.606 211.106 115.762C210.258 117.049 209.348 118.451 208.397 119.94C207.445 121.428 206.452 123.004 205.444 124.647C204.436 126.289 203.403 127.994 202.37 129.734C201.86 130.609 201.346 131.489 200.829 132.374C200.323 133.265 199.805 134.153 199.306 135.053C198.807 135.952 198.301 136.846 197.815 137.749C197.328 138.652 196.838 139.545 196.369 140.443L195.665 141.781L194.985 143.115C194.528 143.997 194.097 144.878 193.672 145.744C192.822 147.48 192.034 149.168 191.315 150.785C190.596 152.402 189.944 153.945 189.382 155.384C189.088 156.098 188.834 156.796 188.59 157.457L188.233 158.422C188.121 158.736 188.021 159.045 187.919 159.343C187.72 159.94 187.522 160.494 187.362 161.014C187.202 161.534 187.061 162.015 186.931 162.447L186.748 163.061C186.697 163.256 186.65 163.438 186.605 163.61C186.514 163.95 186.443 164.239 186.381 164.473L186.194 165.193C186.181 165.238 186.177 165.285 186.182 165.332C186.187 165.379 186.202 165.424 186.226 165.465C186.249 165.506 186.28 165.542 186.318 165.57C186.355 165.599 186.398 165.619 186.444 165.631C186.489 165.642 186.537 165.645 186.583 165.637C186.63 165.63 186.675 165.614 186.715 165.589C186.755 165.564 186.789 165.531 186.816 165.493C186.843 165.454 186.862 165.411 186.872 165.364V165.35C186.872 165.35 186.934 165.102 187.055 164.639C187.113 164.407 187.186 164.12 187.272 163.784C187.314 163.616 187.363 163.435 187.409 163.243L187.586 162.634C187.713 162.205 187.852 161.731 188.005 161.213C188.16 160.697 188.354 160.146 188.547 159.553C188.645 159.258 188.742 158.951 188.852 158.639L189.201 157.679C189.44 157.021 189.686 156.328 189.974 155.615C190.523 154.182 191.162 152.643 191.87 151.028C192.577 149.413 193.351 147.724 194.187 145.993C194.605 145.128 195.029 144.246 195.479 143.364C195.701 142.922 195.924 142.477 196.149 142.03C196.374 141.583 196.606 141.136 196.844 140.691C197.305 139.793 197.785 138.894 198.27 137.994C198.754 137.093 199.249 136.194 199.741 135.294C200.234 134.394 200.747 133.503 201.245 132.611L202.767 129.966C203.788 128.222 204.802 126.511 205.805 124.868C206.807 123.224 207.787 121.641 208.73 120.147C209.672 118.653 210.57 117.249 211.41 115.957C214.766 110.79 217.138 107.437 217.138 107.437C217.15 107.421 217.158 107.402 217.162 107.383C217.166 107.363 217.167 107.343 217.163 107.324C217.16 107.304 217.152 107.286 217.141 107.269C217.13 107.252 217.116 107.238 217.1 107.227Z" fill="white"/>
<path d="M241.13 142.051C235.035 142.29 199.472 145.37 192.708 184.71C192.708 184.71 215.982 189.693 241.527 142.94C241.751 142.53 241.528 142.036 241.13 142.051Z" fill="#93C1F2"/>
<path d="M235.94 146.471C235.94 146.471 233.101 147.929 228.937 150.286C227.897 150.877 226.773 151.521 225.59 152.214C224.407 152.907 223.168 153.642 221.888 154.42C220.609 155.199 219.297 156.012 217.969 156.85C216.641 157.688 215.303 158.556 213.976 159.443C213.311 159.883 212.65 160.328 211.993 160.778C211.334 161.223 210.686 161.678 210.043 162.129C208.756 163.031 207.507 163.941 206.307 164.837C205.705 165.283 205.126 165.737 204.553 166.174C203.98 166.611 203.434 167.059 202.895 167.484C202.355 167.909 201.848 168.345 201.349 168.755C200.85 169.164 200.384 169.583 199.928 169.972C199.472 170.361 199.052 170.755 198.644 171.119C198.442 171.302 198.241 171.479 198.053 171.657L197.505 172.179C197.155 172.519 196.815 172.825 196.522 173.13L195.707 173.958C195.458 174.205 195.25 174.437 195.067 174.638L194.598 175.148C194.344 175.422 194.208 175.573 194.208 175.573C194.15 175.643 194.121 175.732 194.128 175.822C194.134 175.912 194.175 175.996 194.242 176.057C194.309 176.117 194.397 176.15 194.488 176.147C194.578 176.144 194.664 176.107 194.727 176.042L194.736 176.032L195.117 175.611L195.574 175.103C195.757 174.904 195.96 174.673 196.204 174.427L197.003 173.604C197.29 173.301 197.624 172.996 197.968 172.656L198.505 172.135C198.687 171.957 198.887 171.781 199.086 171.597C199.488 171.232 199.898 170.836 200.35 170.448C200.802 170.061 201.264 169.642 201.752 169.229C202.24 168.816 202.749 168.385 203.278 167.949C203.808 167.513 204.353 167.076 204.917 166.633C205.481 166.191 206.058 165.737 206.654 165.289C207.842 164.387 209.081 163.47 210.356 162.56C210.995 162.103 211.635 161.646 212.29 161.199C212.944 160.751 213.596 160.296 214.256 159.85C215.573 158.957 216.906 158.085 218.22 157.232C219.533 156.379 220.842 155.56 222.113 154.777C223.385 153.993 224.617 153.244 225.793 152.544C226.969 151.844 228.086 151.19 229.12 150.593C233.26 148.206 236.081 146.729 236.081 146.729C236.116 146.711 236.142 146.68 236.154 146.642C236.166 146.605 236.163 146.564 236.145 146.529C236.127 146.494 236.095 146.468 236.058 146.456C236.02 146.444 235.98 146.448 235.945 146.466L235.94 146.471Z" fill="white"/>
<path d="M345.637 185.145H-6.02958C-6.55106 185.145 -7.06744 185.247 -7.54921 185.447C-8.03098 185.646 -8.46872 185.939 -8.83742 186.308C-9.20612 186.677 -9.49855 187.114 -9.69803 187.596C-9.89751 188.078 -10.0001 188.594 -10 189.116C-10 190.169 -9.58172 191.179 -8.83715 191.924C-8.09258 192.668 -7.08269 193.087 -6.02958 193.087H345.637C346.69 193.087 347.7 192.668 348.444 191.924C349.189 191.179 349.607 190.169 349.607 189.116C349.607 188.594 349.505 188.078 349.305 187.596C349.106 187.114 348.813 186.677 348.444 186.308C348.076 185.939 347.638 185.646 347.156 185.447C346.674 185.247 346.158 185.145 345.637 185.145Z" fill="#FA6C07"/>
<path d="M37.9209 130.258L42.362 186.84H51.183L41.5467 130.258H37.9209Z" fill="#1A124C"/>
<path d="M37.9199 130.255H41.5467L84.863 127.121C57.7263 120.895 37.9199 130.255 37.9199 130.255Z" fill="#E0E7F3"/>
<path d="M41.5459 130.257L51.1822 187.382L109.442 187.022L95.4372 130.263C71.8925 119.998 41.5459 130.257 41.5459 130.257Z" fill="#34509C"/>
<path d="M120.143 118.255C115.233 115.003 110.551 113.228 105.735 111.526C98.9217 109.125 88.1676 112.184 81.4323 116.582C77.9536 118.854 75.8569 122.904 75.5928 127.069L75.7253 187.393H126.544V158.952L144.562 179.243C145.175 180.094 145.98 180.787 146.913 181.265C147.846 181.743 148.878 181.993 149.927 181.994L153.994 174.043C155.791 166.806 135.265 135.754 129.55 127.929C126.734 124.081 121.897 119.415 120.143 118.255Z" fill="#062E5C"/>
<path d="M106.183 110.218C106.049 110.194 105.909 110.175 105.777 110.154C103.54 109.81 105.868 184.794 105.868 184.794C105.868 184.794 124.345 168.363 125.096 143.482L121.007 139.171L125.269 135.382C124.822 130.094 123.89 113.31 106.183 110.218Z" fill="#356CAB"/>
<path d="M90.7381 116.343C93.8155 113.424 103.614 110.138 103.614 110.138C103.614 110.138 94.2533 109.596 84.128 117.061C84.128 117.061 79.473 139.608 102.059 183.229C98.1936 131.192 87.1022 119.787 90.7381 116.343Z" fill="#392D3B"/>
<path d="M90.333 120.767L109.118 184.157C111.849 177.285 113.57 161.518 114.668 155.591C118.85 133.028 116.163 122.248 116.163 122.248C116.163 122.248 109.945 110.014 90.333 120.767Z" fill="#FFFFF3"/>
<path d="M107.324 122.248C98.6822 119.872 98.9372 115.02 98.9372 115.02L90.5494 119.37C89.8447 131.954 102.257 135.829 102.257 135.829L107.42 125.425L113.784 133.879C113.784 133.879 118.219 129.48 116.161 122.248H107.324Z" fill="#C0A2AC"/>
<path d="M107.674 131.119C107.608 130.527 106.952 130.079 106.174 130.094L105.775 130.101C104.997 130.116 104.364 130.589 104.327 131.182L101.168 182.939C101.164 183.102 101.199 183.265 101.273 183.411C101.346 183.558 101.454 183.684 101.588 183.778L106.341 187.467C106.936 187.924 107.92 187.91 108.491 187.426L109.211 183.561C109.34 183.462 109.442 183.331 109.507 183.182C109.573 183.033 109.601 182.87 109.587 182.708L107.674 131.119Z" fill="#C0A2AC"/>
<path d="M111.073 124.213L107.326 122.249C106.804 121.899 106.35 123.048 105.897 123.363L103.732 124.869C102.878 125.463 102.774 127.013 103.516 128.119L106.273 132.232C107.067 133.415 108.398 133.465 108.947 132.333L110.858 128.396C111.37 127.336 112.06 124.876 111.073 124.213Z" fill="#F21C3B"/>
<path d="M94.5411 111.767C93.2505 112.271 92.0915 112.94 91.2415 114.04C90.4619 115.052 90.333 115.882 90.333 116.863C90.333 127.391 101.598 132.726 101.598 132.726L107.323 122.246C104.432 117.892 99.218 109.73 99.218 109.73L94.5411 111.767Z" fill="#FFFFF3"/>
<path d="M113.57 114.168L107.324 122.248L114.265 130.63C114.265 130.63 121.649 120.974 113.57 114.168Z" fill="#FFFFF3"/>
<path d="M107.664 131.098L107.317 131.108C106.64 131.129 106.094 131.59 106.066 132.163L103.675 171.1C103.67 171.253 103.701 171.406 103.766 171.546C103.83 171.686 103.926 171.809 104.045 171.906L108.201 182.387C108.722 182.828 109.481 183.515 110.07 182.331C112.319 177.944 113.407 162.89 113.407 162.89L108.974 132.075C108.913 131.505 108.339 131.078 107.664 131.098Z" fill="#F21C3B"/>
<path d="M85.2183 167.418C84.0216 167.176 82.9456 166.526 82.1737 165.58C81.4018 164.634 80.9816 163.45 80.9847 162.229V142L75.625 141.918L75.7255 188.047H107.716L95.4972 169.468L85.2183 167.418Z" fill="#062E5C"/>
<path d="M96.7266 110.685C98.7922 110.087 99.2181 109.73 99.2181 109.73C98.3706 110.002 97.5388 110.321 96.7266 110.685Z" fill="#272028"/>
<path d="M89.0002 116.652C90.745 113.727 94.3014 111.754 96.7271 110.688C95.9594 110.909 94.9668 111.164 93.6853 111.445C84.0097 113.575 77.821 123.154 79.8647 132.91C80.4057 135.429 81.1482 137.901 82.0848 140.301C82.0922 140.32 82.1038 140.337 82.1186 140.351C82.1335 140.366 82.1513 140.376 82.1707 140.382L88.8429 142.514C88.8628 142.52 88.8808 142.531 88.8957 142.546C88.9106 142.561 88.9219 142.579 88.9288 142.598C88.9357 142.618 88.938 142.639 88.9354 142.66C88.9329 142.68 88.9257 142.7 88.9142 142.718L84.8232 148.993C84.8102 149.013 84.8026 149.036 84.8014 149.06C84.8001 149.084 84.8051 149.107 84.8159 149.129L101.571 182.424C101.582 182.446 101.6 182.465 101.621 182.478C101.642 182.491 101.666 182.498 101.691 182.498L105.621 182.132C105.621 182.132 89.4754 118.038 88.9865 116.772C88.9792 116.752 88.9766 116.731 88.979 116.71C88.9814 116.69 88.9886 116.67 89.0002 116.652Z" fill="#012147"/>
<path d="M98.4295 110.951C101.33 109.735 103.845 108.891 103.845 108.891C103.845 108.891 100.212 108.891 95.4791 109.933C85.8026 112.061 79.613 121.643 81.6567 131.399C82.2035 133.939 82.9539 136.43 83.9005 138.85L90.8076 141.055L86.5758 147.545L106.097 184.158H109.119C103.926 155.466 94.8686 132.376 92.5817 122.463C91.484 117.703 93.95 112.829 98.4295 110.951Z" fill="#356CAB"/>
<path d="M139.703 165.492L126.523 142.434V158.95L137.683 179.24C138.773 180.749 147.291 181.721 149.108 181.942L146.604 171.066L139.703 165.492Z" fill="#062E5C"/>
<path d="M145.318 177.003C143.731 175.632 141.046 174.364 136.503 174.54C134.339 174.622 131.816 175.947 130.014 178.15C129.097 179.26 128.421 180.548 128.028 181.932C127.635 183.317 127.533 184.768 127.729 186.193C127.804 186.805 147.38 187.554 147.786 185.554C148.152 183.743 150.089 181.119 145.318 177.003Z" fill="#FFFFF3"/>
<path d="M143.429 179.894C141.699 178.523 140.138 178.284 137.009 177.776C136.435 177.684 135.805 177.58 135.113 177.458C131.336 176.801 129.059 177.127 127.596 178.149C126.014 179.253 125.385 181.172 124.835 183.542L124.055 186.154L125.31 186.193L145.253 186.833C145.289 186.65 145.323 186.453 145.345 186.24C145.57 184.338 145.27 181.355 143.429 179.894Z" fill="#FFA87D"/>
<path d="M143.429 179.896C141.699 178.525 140.138 178.286 137.009 177.777C137.229 177.862 137.455 177.934 137.683 177.993C141.085 178.907 141.157 180.885 139.724 181.265C138.292 181.645 136.852 181.418 137.074 184.842C137.222 187.095 142.054 186.745 145.338 186.246C145.57 184.34 145.27 181.357 143.429 179.896Z" fill="#FF855A"/>
<path d="M120.622 180.68C116.947 179.394 112.396 177.755 109.283 177.004C108.552 176.828 107.862 176.547 107.21 176.913L96.0594 180.849L88.8754 178.924L86.9688 187.046L97.7037 190.139C100.701 191.002 103.907 190.783 106.758 189.518L112.439 184.835L117.935 186.67C118.758 186.589 131.121 187.218 131.032 186.396C131.032 186.396 128.93 185.501 125.822 184.694C124.711 184.409 122.66 181.393 120.622 180.68Z" fill="#FFA87D"/>
<path d="M102.481 189.836C99.465 189.996 91.6823 184.1 88.0711 181.219L87.3828 184.153L88.3169 187.626L97.4131 190.247C100.41 191.111 103.616 190.891 106.467 189.626L112.014 186.114L117.933 187.13C118.482 187.077 121.948 184.747 122.156 184.271C117.931 184.129 111.873 183.136 111.873 183.136C111.873 183.136 106.467 189.628 102.481 189.836Z" fill="#FF855A"/>
<path d="M96.1029 179.437L95.0198 179.333L90.9617 178.676L88.918 190.255L96.5042 190.804C99.5953 190.125 98.9016 182.254 96.1029 179.437Z" fill="#FFFFF3"/>
<path d="M98.0682 190.908L96.5071 190.797C96.4236 190.815 96.339 190.828 96.2539 190.836L98.0682 190.908Z" fill="#FFFFF3"/>
<path d="M92.9727 177.664L72.6673 175.941C72.5138 175.908 72.3682 175.846 72.2388 175.757C72.1095 175.668 71.999 175.554 71.9136 175.422C71.8282 175.291 71.7696 175.144 71.7411 174.989C71.7127 174.835 71.7149 174.676 71.7478 174.523L81.5212 141.469C81.5858 141.158 81.5244 140.834 81.3503 140.568C80.3394 139.014 76.9412 133.141 77.8579 125.429C78.5891 119.242 82.6226 115.997 86.7365 114.048L88.8552 112.883C83.362 114.52 73.8656 118.001 69.3339 123.504C65.5865 128.058 54.1469 162.084 50.2962 175.407C47.8769 183.778 49.9937 187.888 53.6223 189.561C58.4975 191.81 92.0505 193.565 92.0505 193.565C95.6297 191.14 95.6279 184.832 93.8785 178.515C93.8208 178.304 93.7056 178.112 93.5457 177.962C93.3859 177.812 93.1875 177.709 92.9727 177.664Z" fill="#062E5C"/>
<path d="M71.735 174.941C71.6491 174.959 71.5632 174.976 71.4727 174.996C70.907 175.124 70.3497 175.287 69.8037 175.482C69.5067 175.588 69.2023 175.705 68.8998 175.834C68.5972 175.964 68.2929 176.109 67.9858 176.247C67.6787 176.385 67.388 176.546 67.1019 176.711C66.8158 176.875 66.5343 177.04 66.2674 177.209C65.7767 177.52 65.3057 177.861 64.8571 178.23C64.5291 178.498 64.2187 178.787 63.9276 179.095C63.8179 179.203 63.7384 179.305 63.6817 179.369L63.5977 179.471H63.7302C63.8143 179.465 63.9422 179.465 64.0958 179.446C64.5161 179.405 64.9334 179.337 65.3452 179.244C65.911 179.116 66.4684 178.954 67.0142 178.757C67.3112 178.65 67.6165 178.536 67.9181 178.405C68.2198 178.273 68.5241 178.13 68.8321 177.991C69.1402 177.852 69.429 177.69 69.716 177.525C70.003 177.361 70.2826 177.197 70.5486 177.026C71.0393 176.715 71.5106 176.374 71.9598 176.005C72.0604 175.922 72.1564 175.841 72.2468 175.761C72.1088 175.668 71.992 175.547 71.9038 175.406C71.8156 175.264 71.7581 175.106 71.735 174.941Z" fill="#012147"/>
<path d="M121.313 92.0346C120.613 88.545 117.2 86.2664 113.736 86.972L112.958 87.1301C109.491 87.8348 107.228 91.2669 107.931 94.7565L108.753 98.8531C109.453 102.343 112.866 104.621 116.33 103.916L117.108 103.758C120.575 103.053 122.838 99.6208 122.135 96.1312L121.313 92.0346Z" fill="#1A124C"/>
<path d="M96.0537 101.82C96.2592 103.095 96.3549 104.386 96.3398 105.677C96.3069 107.846 96.5089 112.51 96.0537 114.726L107.793 122.815C108.89 122.298 113.149 119.075 115.701 116.715C115.817 115.945 115.821 102.219 115.821 102.219L111.322 101.488L96.0537 101.82Z" fill="#F19A6D"/>
<path d="M110.278 114.595C112.181 114.598 114.06 114.177 115.78 113.364L115.821 102.222L96.0537 101.82C96.2749 103.238 103.261 114.606 110.278 114.595Z" fill="#EF7C59"/>
<path d="M118.881 83.8207C118.774 83.3829 118.673 82.946 118.544 82.5155C115.977 74.0062 110.786 71.4799 102.513 72.8445C92.406 74.5098 91.2708 86.166 93.5366 93.5155C93.7733 94.2805 97.8992 94.5639 98.1478 95.3033C98.1478 95.3033 97.0354 107.537 108.157 109.762C109.476 110.025 114.189 110.59 115.163 109.537C123.711 100.296 119.247 89.5679 119.247 89.5679C119.789 88.4017 119.384 85.879 118.881 83.8207Z" fill="#F19A6D"/>
<path d="M119.306 89.418C117.594 90.9983 116.495 93.4185 116.495 96.1368C116.495 98.855 117.586 101.255 119.287 102.84C121.831 95.7904 119.248 89.566 119.248 89.566C119.27 89.5194 119.287 89.4682 119.306 89.418Z" fill="#EF7C59"/>
<path d="M98.6997 91.9688C97.1852 91.9688 95.8298 92.8325 94.9121 94.1916C96.2146 94.5407 97.9831 94.8314 98.144 95.3049C98.144 95.3049 97.698 100.266 100.246 104.445C102.257 103.613 103.708 101.207 103.708 98.3631C103.708 94.8314 101.464 91.9688 98.6997 91.9688Z" fill="#EF7C59"/>
<path d="M105.795 98.4219L105.48 98.7875C107.777 100.763 109.904 101.118 111.303 101.062C112.294 101.021 112.92 100.775 112.979 100.75L112.796 100.303C112.763 100.316 109.487 101.595 105.795 98.4219Z" fill="#38261F"/>
<path d="M102.995 86.7435C101.928 87.3979 102.323 88.1218 102.486 88.3612C102.577 88.5002 102.977 88.2753 103.966 88.0057C106.077 87.4299 106.994 87.7114 107.376 87.0469C107.601 86.6548 107.558 86.0753 107.279 85.7956C106.576 85.0891 103.136 86.6575 102.995 86.7435Z" fill="#9E4C23"/>
<path d="M117.471 85.6535C117.351 85.5969 114.689 84.8062 114.296 85.5301C114.139 85.818 114.215 86.339 114.455 86.6562C114.862 87.1936 115.492 86.8161 117.167 87.0337C117.953 87.136 118.29 87.2804 118.334 87.1433C118.41 86.9084 118.385 86.0868 117.471 85.6535Z" fill="#9E4C23"/>
<path d="M105.61 90.6195C105.262 90.7109 105.095 91.2282 105.237 91.7757C105.38 92.3232 105.779 92.6897 106.129 92.5983C106.478 92.5069 106.645 91.9886 106.501 91.4412C106.358 90.8937 105.959 90.5281 105.61 90.6195Z" fill="#38261F"/>
<path d="M115.705 89.3358C115.387 89.4189 115.248 89.9289 115.387 90.4746C115.526 91.0203 115.903 91.3959 116.221 91.3127C116.539 91.2296 116.678 90.7196 116.538 90.1739C116.399 89.6282 116.023 89.2526 115.705 89.3358Z" fill="#38261F"/>
<path d="M111.862 91.9023L111.771 92.3767C112.928 92.5933 114.653 93.1079 114.865 93.5649C114.876 93.584 114.88 93.6056 114.879 93.6272C114.878 93.6488 114.87 93.6697 114.858 93.6874C114.356 94.5712 113.059 95.3518 113.046 95.3591L113.293 95.7731C113.351 95.7393 114.712 94.9213 115.278 93.925C115.328 93.8405 115.357 93.7447 115.362 93.6463C115.366 93.5478 115.346 93.4498 115.303 93.3611C114.913 92.512 112.368 91.9974 111.862 91.9023Z" fill="#38261F"/>
<path d="M110.251 68.92C105.028 66.6432 98.4452 69.1695 96.3092 70.3075C96.3851 69.8426 96.5624 69.4002 96.8283 69.0114C96.8283 69.0114 95.8695 69.6978 95.7315 70.6566C95.6337 70.7306 95.5889 70.7809 95.6145 70.7983C95.6145 70.7983 94.5259 70.599 93.8276 70.9171C93.8276 70.9171 94.3166 70.8458 94.4921 71.1621C94.512 71.1962 94.5388 71.2257 94.5707 71.2489C86.4361 75.223 87.7102 88.3288 90.3352 91.3222C93.494 94.9242 95.2772 102.892 95.2772 102.892C95.2772 102.892 96.6537 100.972 96.0752 97.7979C95.4966 94.6235 95.7425 94.0651 99.1828 92.6173C102.623 91.1695 98.298 85.3967 101.304 82.9353C104.31 80.4739 114.201 84.0321 119.127 82.3257C124.054 80.6192 122.143 72.5623 122.143 72.14C122.142 72.1391 116.687 71.7251 110.251 68.92Z" fill="#52261F"/>
<path d="M100.006 92.3549C99.3059 88.8653 95.893 86.5867 92.4289 87.2923L91.6511 87.4504C88.1843 88.156 85.9212 91.5881 86.6241 95.0777L87.4467 99.1743C88.1468 102.663 91.5597 104.942 95.0229 104.237L95.8016 104.079C99.2684 103.373 101.531 99.9411 100.829 96.4515L100.006 92.3549Z" fill="#1A124C"/>
<path d="M99.9723 68.6261C97.9313 69.7558 96.3044 71.4284 95.2981 74.3624C93.216 80.4331 93.981 88.0577 94.502 89.0056L96.5841 87.8457C96.605 87.882 96.6224 87.9203 96.6362 87.9599C96.1106 86.3147 97.6763 70.9129 104.433 68.0347L102.381 68C101.538 68.0015 100.709 68.2169 99.9723 68.6261Z" fill="#1A124C"/>
<path d="M94.4043 96.0791L94.9125 95.7665L94.9116 95.7656L94.4043 96.0791Z" fill="#1A124C"/>
<path d="M110.929 104.317C100.269 104.317 94.9769 95.8698 94.9129 95.7656L93.8975 96.3908C93.9532 96.4822 99.5734 105.514 110.928 105.514H111.156L111.143 104.316L110.929 104.317Z" fill="#1A124C"/>
<path d="M96.0647 94.2274C95.8976 93.3929 95.4064 92.6587 94.6987 92.186C93.991 91.7132 93.1247 91.5405 92.2898 91.7057L91.9023 91.7843C91.0679 91.9594 90.3365 92.457 89.8672 93.1687C89.3978 93.8805 89.2285 94.7487 89.3961 95.5847L89.8056 97.6256C89.9727 98.4602 90.4639 99.1944 91.1715 99.6673C91.8791 100.14 92.7454 100.313 93.5804 100.148L93.9689 100.069C94.803 99.8936 95.5343 99.3961 96.0036 98.6846C96.4729 97.9731 96.6424 97.105 96.475 96.2693L96.0647 94.2274Z" fill="#34509C"/>
<path d="M112.339 103.918H111.268C111.003 103.918 110.749 104.023 110.562 104.21C110.375 104.397 110.27 104.651 110.27 104.916C110.27 105.181 110.375 105.435 110.562 105.622C110.749 105.809 111.003 105.914 111.268 105.914H112.339C112.604 105.914 112.857 105.809 113.045 105.622C113.232 105.435 113.337 105.181 113.337 104.916C113.337 104.651 113.232 104.397 113.045 104.21C112.857 104.023 112.604 103.918 112.339 103.918Z" fill="#1A124C"/>
<path d="M116.972 187.376H152.252V184.543H119.785C119.414 184.544 119.047 184.618 118.705 184.761C118.363 184.905 118.053 185.114 117.791 185.377C117.53 185.64 117.323 185.952 117.183 186.295C117.042 186.638 116.97 187.006 116.972 187.376Z" fill="#F1A953"/>
<path d="M138.716 187.376H193.619L206.704 148.695H152.153L138.716 187.376Z" fill="#C17552"/>
<path d="M139.519 187.377H194.423L207.506 148.695H152.957L139.519 187.377Z" fill="#FDC535"/>
</g>
<path d="M137.392 39.0457L136.261 39.0009L136.229 39L137.392 39.0457Z" fill="#34509C"/>
<path d="M203.349 55H229.921C237.845 55 244.27 61.4243 244.27 69.349V69.5413C244.27 77.466 237.845 83.8903 229.921 83.8903H203.349C195.424 83.8903 189 77.466 189 69.5413V69.349C189 61.4243 195.424 55 203.349 55Z" fill="#FDC535"/>
<path d="M232.929 80.2773L222.316 81.1719L238.937 100.046C238.967 100.076 239.007 100.095 239.049 100.1C239.092 100.105 239.135 100.097 239.172 100.075C239.209 100.054 239.238 100.021 239.254 99.9814C239.27 99.942 239.273 99.8983 239.263 99.8569L232.929 80.2773Z" fill="#FDC535"/>
<g opacity="0.9">
<path opacity="0.84" d="M231.047 67.2695C231.612 67.2695 232.165 67.4372 232.635 67.7512C233.105 68.0653 233.471 68.5116 233.688 69.0339C233.904 69.5561 233.961 70.1308 233.85 70.6852C233.74 71.2396 233.468 71.7489 233.068 72.1486C232.668 72.5483 232.159 72.8205 231.605 72.9308C231.05 73.041 230.476 72.9844 229.953 72.7681C229.431 72.5518 228.985 72.1855 228.671 71.7155C228.357 71.2455 228.189 70.6929 228.189 70.1276C228.189 69.3696 228.49 68.6426 229.026 68.1066C229.562 67.5707 230.289 67.2695 231.047 67.2695Z" fill="white"/>
<path opacity="0.84" d="M216.698 67.2695C217.263 67.2695 217.815 67.4372 218.285 67.7512C218.755 68.0653 219.122 68.5116 219.338 69.0339C219.554 69.5561 219.611 70.1308 219.501 70.6852C219.39 71.2396 219.118 71.7489 218.719 72.1486C218.319 72.5483 217.81 72.8205 217.255 72.9308C216.701 73.041 216.126 72.9844 215.604 72.7681C215.082 72.5518 214.635 72.1855 214.321 71.7155C214.007 71.2455 213.84 70.6929 213.84 70.1276C213.84 69.3696 214.141 68.6426 214.677 68.1066C215.213 67.5707 215.94 67.2695 216.698 67.2695Z" fill="white"/>
<path opacity="0.84" d="M202.343 67.2695C202.908 67.2695 203.461 67.4372 203.931 67.7512C204.401 68.0653 204.767 68.5116 204.984 69.0339C205.2 69.5561 205.257 70.1308 205.146 70.6852C205.036 71.2396 204.764 71.7489 204.364 72.1486C203.964 72.5483 203.455 72.8205 202.901 72.9308C202.346 73.041 201.772 72.9844 201.249 72.7681C200.727 72.5518 200.281 72.1855 199.967 71.7155C199.653 71.2455 199.485 70.6929 199.485 70.1276C199.485 69.3696 199.786 68.6426 200.322 68.1066C200.858 67.5707 201.585 67.2695 202.343 67.2695Z" fill="white"/>
</g>
<path d="M163.611 48H190.551C198.62 48 205.162 53.7601 205.162 60.9803C205.162 68.2004 198.62 73.9605 190.551 73.9605H163.611C155.54 73.9605 149 68.2004 149 60.9803C149 53.7601 155.54 48 163.611 48Z" fill="#34509C"/>
<path d="M154.903 88.8504C154.89 88.8905 154.892 88.934 154.909 88.9728C154.926 89.0115 154.956 89.0427 154.994 89.0606C155.034 89.081 155.08 89.0883 155.124 89.0816C155.169 89.0749 155.21 89.0544 155.242 89.0231L172.162 71.8225L161.356 71.0078L154.903 88.8504Z" fill="#34509C"/>
<path opacity="0.84" d="M162.696 64.3679C161.089 64.3679 159.786 63.2021 159.786 61.764C159.786 60.3259 161.089 59.1602 162.696 59.1602C164.304 59.1602 165.606 60.3259 165.606 61.764C165.606 63.2021 164.304 64.3679 162.696 64.3679Z" fill="white"/>
<path opacity="0.84" d="M177.309 64.3679C175.701 64.3679 174.398 63.2021 174.398 61.764C174.398 60.3259 175.701 59.1602 177.309 59.1602C178.916 59.1602 180.219 60.3259 180.219 61.764C180.219 63.2021 178.916 64.3679 177.309 64.3679Z" fill="white"/>
<path opacity="0.84" d="M191.921 59.1602C193.529 59.1602 194.831 60.3268 194.831 61.7673C194.831 63.2077 193.527 64.3744 191.921 64.3744C190.314 64.3744 189.012 63.2077 189.012 61.7673C189.012 60.3268 190.314 59.1602 191.921 59.1602Z" fill="white"/>
</svg>
