<svg width="270" height="192" viewBox="0 0 270 192" fill="none" xmlns="http://www.w3.org/2000/svg">
<path d="M0.173978 91.3241C0.895153 102.563 3.92369 113.532 9.07035 123.546L22.77 150.145C28.853 161.958 37.5339 171.692 47.8071 178.788C58.0247 185.846 69.8255 190.3 82.2211 191.603C87.3122 192.136 92.445 192.132 97.5353 191.593L119.005 189.324L124.605 188.733L133.475 187.796L180.79 182.795L186.061 182.237L194.499 181.346C199.449 180.822 204.334 179.796 209.077 178.285C228.617 172.057 245.171 157.799 254.655 138.432L261.66 124.125C274.925 97.0377 272.204 64.4291 254.656 40.1402L248.512 31.6371C228.987 4.61146 195.198 -6.54845 164.324 3.83964L162.807 4.35722C154.624 7.11315 146.019 8.4007 137.388 8.16058L78.2231 6.49946C54.8249 5.8421 32.4342 16.447 17.5044 35.2582C4.79717 51.2627 -1.11789 71.4098 0.173978 91.3241Z" fill="#D8EBFD"/>
<mask id="mask0_2106_3792" style="mask-type:luminance" maskUnits="userSpaceOnUse" x="0" y="0" width="270" height="192">
<path d="M0.173978 91.3241C0.895153 102.563 3.92369 113.532 9.07035 123.546L22.77 150.145C28.853 161.958 37.5339 171.692 47.8071 178.788C58.0247 185.846 69.8255 190.3 82.2211 191.603C87.3122 192.136 92.445 192.132 97.5353 191.593L119.005 189.324L124.605 188.733L133.475 187.796L180.79 182.795L186.061 182.237L194.499 181.346C199.449 180.822 204.334 179.796 209.077 178.285C228.617 172.057 245.171 157.799 254.655 138.432L261.66 124.125C274.925 97.0377 272.204 64.4291 254.656 40.1402L248.512 31.6371C228.987 4.61146 195.198 -6.54845 164.324 3.83964L162.807 4.35722C154.624 7.11315 146.019 8.4007 137.388 8.16058L78.2231 6.49946C54.8249 5.8421 32.4342 16.447 17.5044 35.2582C4.79717 51.2627 -1.11789 71.4098 0.173978 91.3241Z" fill="white"/>
</mask>
<g mask="url(#mask0_2106_3792)">
<path d="M231.782 -8.70288H228.543V51.527H231.782V-8.70288Z" fill="#1F65BC"/>
<path d="M153.116 -8.70288H149.877V51.527H153.116V-8.70288Z" fill="#1F65BC"/>
<path d="M38.3555 -8.70288H35.1162V51.527H38.3555V-8.70288Z" fill="#1F65BC"/>
<path d="M182.11 35.562H-6.5166V153.399H182.11V35.562Z" fill="#76ACDE"/>
<path d="M233.836 35.562H156.447V153.399H233.836V35.562Z" fill="#417EC8"/>
<path d="M163.257 32.3654H-8.62109V38.8518H163.257V32.3654Z" fill="#1F65BC"/>
<path d="M238.657 32.3654H159.066V38.8518H238.657V32.3654Z" fill="#1F65BC"/>
<path d="M161.743 92.7056H-10.1348V99.1921H161.743V92.7056Z" fill="#1F65BC"/>
<path d="M236.808 92.7056H157.217V99.1921H236.808V92.7056Z" fill="#1F65BC"/>
<g opacity="0.6">
<path d="M143.065 54.585H124.805V78.0098H143.065V54.585Z" fill="#A6CFFF"/>
<path d="M103.077 54.585H84.8164V78.0098H103.077V54.585Z" fill="#A6CFFF"/>
<path d="M63.9359 54.585H45.6758V78.0098H63.9359V54.585Z" fill="#A6CFFF"/>
<path d="M22.8832 54.585H4.62305V78.0098H22.8832V54.585Z" fill="#A6CFFF"/>
</g>
<path d="M222.841 54.5848H206.932V78.0097H222.841V54.5848Z" fill="#1F65BC"/>
<path d="M187.044 54.5848H171.135V78.0097H187.044V54.5848Z" fill="#1F65BC"/>
<path d="M222.841 112.452H206.932V135.877H222.841V112.452Z" fill="#1F65BC"/>
<path d="M187.044 112.452H171.135V135.877H187.044V112.452Z" fill="#1F65BC"/>
<g opacity="0.6">
<path d="M143.065 112.452H124.805V135.877H143.065V112.452Z" fill="#A6CFFF"/>
<path d="M103.077 112.452H84.8164V135.877H103.077V112.452Z" fill="#A6CFFF"/>
<path d="M77.8194 112.452H31.5449V153.398H77.8194V112.452Z" fill="#A6CFFF"/>
<path d="M22.8832 112.452H4.62305V135.877H22.8832V112.452Z" fill="#A6CFFF"/>
</g>
<path d="M-0.00012207 192.343L254.965 192.343V150.267L-0.00012207 150.267V192.343Z" fill="#83ACDE"/>
<path d="M23.5175 97.694H20.5705L8.53809 191.861H11.485L23.5175 97.694Z" fill="#D1D1D1"/>
<path d="M21.1084 97.694H24.0553L36.0878 191.861H33.1409L21.1084 97.694Z" fill="#E2E2E2"/>
<path d="M26.5308 97.6939C26.5308 98.5293 26.2834 99.3459 25.8199 100.04C25.3564 100.735 24.6975 101.276 23.9267 101.596C23.1558 101.916 22.3076 101.999 21.4893 101.836C20.671 101.674 19.9193 101.271 19.3293 100.681C18.7394 100.09 18.3376 99.3372 18.1748 98.5179C18.012 97.6986 18.0956 96.8494 18.4149 96.0776C18.7342 95.3058 19.2749 94.6461 19.9686 94.182C20.6623 93.7179 21.4779 93.4702 22.3123 93.4702C22.8663 93.4702 23.4148 93.5795 23.9267 93.7917C24.4385 94.004 24.9035 94.3151 25.2952 94.7073C25.687 95.0995 25.9977 95.5651 26.2097 96.0776C26.4217 96.59 26.5308 97.1393 26.5308 97.6939Z" fill="#1F65BC"/>
<path d="M112.931 97.694H109.984L97.9502 191.861H100.897L112.931 97.694Z" fill="#D1D1D1"/>
<path d="M110.521 97.694H113.467L125.501 191.861H122.554L110.521 97.694Z" fill="#E2E2E2"/>
<path d="M115.944 97.6939C115.944 98.5293 115.697 99.3459 115.233 100.04C114.769 100.735 114.111 101.276 113.34 101.596C112.569 101.916 111.721 101.999 110.902 101.836C110.084 101.674 109.332 101.271 108.742 100.681C108.152 100.09 107.751 99.3372 107.588 98.5179C107.425 97.6986 107.509 96.8494 107.828 96.0776C108.147 95.3058 108.688 94.6461 109.382 94.182C110.075 93.7179 110.891 93.4702 111.725 93.4702C112.844 93.4702 113.917 93.9152 114.708 94.7073C115.499 95.4994 115.944 96.5737 115.944 97.6939Z" fill="#1F65BC"/>
<path d="M122.559 102.892H11.4814V119.937H122.559V102.892Z" fill="#F7CA17"/>
<path d="M24.5662 119.937H16.6875L27.1651 102.892H35.0437L24.5662 119.937Z" fill="#382E1C"/>
<path d="M45.1423 119.937H37.2637L47.7412 102.892H55.6209L45.1423 119.937Z" fill="#382E1C"/>
<path d="M65.7195 119.937H57.8398L68.3184 102.892H76.1971L65.7195 119.937Z" fill="#382E1C"/>
<path d="M86.2966 119.937H78.418L88.8955 102.892H96.7752L86.2966 119.937Z" fill="#382E1C"/>
<path d="M106.875 119.937H98.9951L109.474 102.892H117.352L106.875 119.937Z" fill="#382E1C"/>
<path d="M122.559 125.544H11.4814V142.589H122.559V125.544Z" fill="#F7CA17"/>
<path d="M24.5662 142.589H16.6875L27.1651 125.544H35.0437L24.5662 142.589Z" fill="#382E1C"/>
<path d="M45.1423 142.589H37.2637L47.7412 125.544H55.6209L45.1423 142.589Z" fill="#382E1C"/>
<path d="M65.7195 142.589H57.8398L68.3184 125.544H76.1971L65.7195 142.589Z" fill="#382E1C"/>
<path d="M86.2966 142.589H78.418L88.8955 125.544H96.7752L86.2966 142.589Z" fill="#382E1C"/>
<path d="M106.875 142.589H98.9951L109.474 125.544H117.352L106.875 142.589Z" fill="#382E1C"/>
</g>
<mask id="mask1_2106_3792" style="mask-type:alpha" maskUnits="userSpaceOnUse" x="0" y="0" width="270" height="192">
<path d="M0.173978 91.3241C0.895153 102.563 3.92369 113.532 9.07035 123.546L22.77 150.145C28.853 161.958 37.5339 171.692 47.8071 178.788C58.0247 185.846 69.8255 190.3 82.2211 191.603C87.3122 192.136 92.445 192.132 97.5353 191.593L119.005 189.324L124.605 188.733L133.475 187.796L180.79 182.795L186.061 182.237L194.499 181.346C199.449 180.822 204.334 179.796 209.077 178.285C228.617 172.057 245.171 157.799 254.655 138.432L261.66 124.125C274.925 97.0377 272.204 64.4291 254.656 40.1402L248.512 31.6371C228.987 4.61146 195.198 -6.54845 164.324 3.83964L162.807 4.35722C154.624 7.11315 146.019 8.4007 137.388 8.16058L78.2231 6.49946C54.8249 5.8421 32.4342 16.447 17.5044 35.2582C4.79717 51.2627 -1.11789 71.4098 0.173978 91.3241Z" fill="#D8EBFD"/>
</mask>
<g mask="url(#mask1_2106_3792)">
<path d="M266.386 211.466H238.667L251.26 158.063C251.329 157.779 251.492 157.528 251.721 157.348C251.95 157.167 252.233 157.07 252.524 157.07C252.816 157.07 253.099 157.167 253.328 157.348C253.557 157.528 253.72 157.779 253.789 158.063L266.386 211.466Z" fill="#14437C"/>
<path d="M252.526 157.06V211.466H238.666L251.259 158.063C251.321 157.774 251.481 157.517 251.712 157.334C251.943 157.151 252.231 157.054 252.526 157.06Z" fill="#00234E"/>
<path d="M248.138 171.295L247.054 175.896H257.998L256.913 171.295H248.138Z" fill="white"/>
<path d="M245.624 181.963L244.539 186.563H260.514L259.429 181.963H245.624Z" fill="white"/>
<path d="M261.674 63.5304L234.363 36.6691L231.336 39.7544L258.647 66.6158L261.674 63.5304Z" fill="#C9C9C9"/>
<path d="M239.896 85.7244L212.586 58.863L209.559 61.9484L236.869 88.8097L239.896 85.7244Z" fill="#C9C9C9"/>
<path d="M218.119 107.919L190.809 81.0577L187.781 84.1431L215.092 111.004L218.119 107.919Z" fill="#C9C9C9"/>
<path d="M196.344 130.113L169.033 103.252L166.006 106.337L193.316 133.198L196.344 130.113Z" fill="#C9C9C9"/>
<path d="M174.567 152.308L147.257 125.446L144.23 128.532L171.54 155.393L174.567 152.308Z" fill="#C9C9C9"/>
<path d="M246.579 27.6001L243.2 24.2767L128.429 141.253L131.808 144.576L246.579 27.6001Z" fill="#C9C9C9"/>
<path d="M273.89 54.4624L270.511 51.139L155.739 168.115L159.118 171.438L273.89 54.4624Z" fill="#C9C9C9"/>
<path d="M204.776 89.0928C204.776 89.0928 198.337 105.005 193.633 108.903C188.929 112.8 184.339 111.991 184.339 111.991C184.339 111.991 182.721 112.154 180.123 115.239C177.525 118.324 178.244 120.881 180.677 120.783C183.11 120.684 181.809 120.83 182.872 122.942C184.73 126.634 188.74 128.033 189.09 126.246C189.44 124.459 193.743 119.144 194.396 117.11C195.048 115.076 205.065 112.917 209.732 101.062C214.4 89.2072 204.776 89.0928 204.776 89.0928Z" fill="#FEC0AF"/>
<path d="M266.185 64.7451L238.875 37.8838L235.848 40.9691L263.158 67.8305L266.185 64.7451Z" fill="#E8E8E8"/>
<path d="M246.039 87.0784L218.729 60.217L215.701 63.3024L243.012 90.1637L246.039 87.0784Z" fill="#E8E8E8"/>
<path d="M224.262 109.272L196.951 82.4105L193.924 85.4959L221.234 112.357L224.262 109.272Z" fill="#E8E8E8"/>
<path d="M202.484 131.467L175.174 104.606L172.147 107.691L199.457 134.552L202.484 131.467Z" fill="#E8E8E8"/>
<path d="M180.709 153.662L153.398 126.8L150.371 129.886L177.682 156.747L180.709 153.662Z" fill="#E8E8E8"/>
<path d="M252.72 28.9536L249.341 25.6302L134.569 142.606L137.948 145.93L252.72 28.9536Z" fill="#E8E8E8"/>
<path d="M280.031 55.8171L276.652 52.4938L161.881 169.47L165.26 172.793L280.031 55.8171Z" fill="#E8E8E8"/>
<path d="M187.864 121.662C187.813 120.926 185.364 121.352 184.184 121.602C184.159 121.613 184.131 121.613 184.106 121.602C184.081 121.592 184.061 121.572 184.051 121.547C184.04 121.522 184.04 121.493 184.051 121.468C184.061 121.443 184.081 121.423 184.106 121.413C184.886 120.906 186.185 119.888 185.787 119.003C185.227 117.763 180.677 118.923 180.677 118.923L185.854 123.574C186.101 123.458 187.928 122.569 187.864 121.662Z" fill="#FEC0AF"/>
<path d="M187.681 124.912C187.661 124.916 187.64 124.912 187.623 124.901C187.606 124.89 187.593 124.873 187.587 124.854C187.581 124.834 187.582 124.813 187.59 124.794C187.598 124.775 187.613 124.76 187.632 124.751C188.304 124.429 189.271 123.874 189.219 123.368C189.144 122.642 186.194 123.48 185.858 123.579L189.09 126.481C189.09 126.481 190.787 125.587 190.744 124.962C190.713 124.511 188.748 124.749 187.681 124.912Z" fill="#FEC0AF"/>
<path d="M189.09 126.481C189.292 126.361 189.495 126.229 189.697 126.091C189.892 125.954 190.078 125.806 190.255 125.646C190.342 125.568 190.423 125.482 190.496 125.391C190.57 125.307 190.626 125.208 190.662 125.102C190.678 125.056 190.682 125.007 190.675 124.96C190.669 124.93 190.64 124.903 190.595 124.881C190.494 124.838 190.386 124.814 190.276 124.809C190.042 124.792 189.807 124.792 189.573 124.809C189.336 124.824 189.1 124.847 188.864 124.876C188.629 124.904 188.392 124.937 188.156 124.977L187.803 125.035L187.715 125.049C187.701 125.05 187.686 125.05 187.672 125.049C187.652 125.049 187.632 125.047 187.613 125.042C187.574 125.031 187.539 125.009 187.512 124.979C187.491 124.957 187.475 124.932 187.464 124.904C187.454 124.876 187.449 124.846 187.449 124.816C187.45 124.786 187.457 124.757 187.469 124.729C187.482 124.702 187.499 124.677 187.521 124.657C187.535 124.644 187.551 124.633 187.567 124.623L187.594 124.61C187.804 124.509 188.012 124.392 188.211 124.269C188.408 124.152 188.593 124.016 188.764 123.864C188.844 123.793 188.915 123.713 188.975 123.625C189.026 123.559 189.054 123.477 189.054 123.394C189.055 123.391 189.056 123.388 189.056 123.385C189.056 123.382 189.055 123.378 189.054 123.376C189.052 123.372 189.052 123.367 189.054 123.363C189.043 123.363 189.054 123.351 189.036 123.345L189.025 123.333L189.003 123.321C188.986 123.311 188.968 123.303 188.949 123.298C188.851 123.268 188.749 123.253 188.646 123.252C188.417 123.249 188.188 123.265 187.961 123.3C187.73 123.333 187.499 123.376 187.267 123.425C186.807 123.527 186.342 123.64 185.891 123.773L185.755 123.405C186.039 123.27 186.315 123.116 186.58 122.946C186.843 122.782 187.087 122.59 187.308 122.373C187.411 122.27 187.501 122.156 187.576 122.032C187.642 121.926 187.677 121.803 187.677 121.678C187.676 121.663 187.672 121.648 187.666 121.635C187.659 121.622 187.649 121.61 187.637 121.601C187.595 121.566 187.547 121.541 187.495 121.525C187.356 121.482 187.213 121.458 187.068 121.452C186.754 121.437 186.439 121.447 186.127 121.482C185.809 121.512 185.492 121.554 185.174 121.604C185.015 121.63 184.856 121.657 184.697 121.686L184.208 121.778C184.152 121.786 184.095 121.777 184.045 121.751C183.995 121.725 183.955 121.685 183.928 121.635C183.901 121.587 183.888 121.532 183.893 121.476C183.897 121.421 183.917 121.368 183.951 121.325C183.967 121.304 183.987 121.285 184.009 121.27L184.029 121.256L184.041 121.248L184.091 121.215L184.193 121.149C184.324 121.06 184.454 120.968 184.58 120.871C184.832 120.683 185.067 120.473 185.281 120.243C185.483 120.013 185.665 119.753 185.718 119.476C185.745 119.342 185.732 119.203 185.682 119.076C185.629 118.952 185.536 118.851 185.418 118.787C185.288 118.712 185.147 118.658 185 118.626C184.847 118.59 184.692 118.565 184.536 118.551C183.894 118.509 183.251 118.529 182.613 118.61C182.292 118.646 181.971 118.693 181.651 118.746C181.332 118.798 181.011 118.853 180.693 118.92C181.319 118.741 181.955 118.598 182.596 118.489C182.918 118.436 183.242 118.388 183.567 118.36C183.895 118.326 184.225 118.317 184.555 118.332C184.723 118.341 184.89 118.361 185.055 118.393C185.227 118.424 185.393 118.481 185.548 118.563C185.72 118.651 185.858 118.793 185.94 118.969C185.978 119.056 186.002 119.148 186.014 119.242C186.023 119.336 186.021 119.43 186.007 119.524C185.943 119.893 185.738 120.191 185.523 120.45C185.302 120.703 185.058 120.934 184.794 121.141C184.663 121.242 184.53 121.344 184.389 121.438L184.288 121.509L184.237 121.543L184.224 121.552C184.229 121.549 184.233 121.545 184.237 121.54C184.246 121.529 184.252 121.515 184.254 121.5C184.255 121.485 184.253 121.471 184.246 121.457C184.239 121.444 184.228 121.433 184.214 121.427C184.2 121.42 184.185 121.417 184.169 121.418L184.395 121.369L184.635 121.319C184.796 121.288 184.956 121.258 185.118 121.229C185.441 121.173 185.766 121.122 186.095 121.09C186.428 121.052 186.764 121.04 187.099 121.054C187.279 121.061 187.458 121.091 187.63 121.145C187.733 121.177 187.829 121.23 187.91 121.301C187.961 121.345 188.002 121.398 188.031 121.458C188.061 121.518 188.078 121.583 188.081 121.65C188.089 121.852 188.038 122.051 187.935 122.225C187.841 122.385 187.726 122.532 187.593 122.662C187.35 122.9 187.081 123.11 186.792 123.288C186.509 123.467 186.215 123.628 185.911 123.77L185.775 123.402C186.243 123.268 186.71 123.15 187.191 123.058C187.43 123.011 187.67 122.97 187.913 122.94C188.161 122.907 188.412 122.894 188.662 122.902C188.8 122.906 188.936 122.931 189.067 122.973C189.105 122.986 189.142 123.004 189.176 123.025L189.231 123.06C189.249 123.075 189.267 123.092 189.284 123.109C189.32 123.146 189.349 123.189 189.37 123.236C189.378 123.26 189.385 123.285 189.39 123.311C189.398 123.334 189.401 123.358 189.4 123.382C189.401 123.424 189.398 123.466 189.391 123.508C189.382 123.548 189.373 123.588 189.361 123.626L189.313 123.727C189.295 123.76 189.274 123.788 189.255 123.818C189.177 123.927 189.086 124.025 188.985 124.112C188.794 124.273 188.588 124.416 188.37 124.538C188.157 124.661 187.94 124.771 187.719 124.875H187.709C187.709 124.875 187.709 124.875 187.719 124.868C187.727 124.859 187.733 124.849 187.735 124.838C187.738 124.829 187.738 124.82 187.736 124.811C187.734 124.802 187.729 124.794 187.722 124.788C187.714 124.78 187.705 124.774 187.694 124.771H187.68L187.77 124.759L188.128 124.716C188.367 124.687 188.606 124.663 188.847 124.644C189.331 124.592 189.819 124.59 190.303 124.638C190.432 124.652 190.558 124.688 190.674 124.746C190.711 124.764 190.743 124.789 190.768 124.821C190.793 124.853 190.812 124.89 190.821 124.929C190.83 125.001 190.821 125.074 190.795 125.141C190.748 125.26 190.679 125.369 190.592 125.462C190.51 125.553 190.421 125.637 190.326 125.714C189.944 126.016 189.53 126.273 189.09 126.481Z" fill="#FE8753"/>
<path d="M185.044 113.15C185.044 113.15 183.994 113.834 183.128 115.993C182.262 118.153 180.443 119.118 181.601 119.663C182.758 120.208 185.724 116.68 185.724 116.68C185.724 116.68 188.036 119.076 190.195 116.293L185.044 113.15Z" fill="#FEC0AF"/>
<path d="M185.044 113.15C184.623 113.502 184.308 113.953 184.023 114.412C183.747 114.878 183.511 115.366 183.315 115.872L183.164 116.256L183.08 116.449L182.99 116.638C182.866 116.888 182.729 117.131 182.58 117.367C182.286 117.839 181.931 118.272 181.639 118.711C181.569 118.813 181.509 118.923 181.461 119.037C181.441 119.083 181.428 119.132 181.42 119.182C181.417 119.216 181.422 119.251 181.434 119.283C181.482 119.362 181.553 119.423 181.637 119.46L181.675 119.479C181.686 119.484 181.697 119.488 181.709 119.491C181.73 119.5 181.752 119.506 181.774 119.51L181.846 119.518H181.926C182.168 119.479 182.399 119.393 182.607 119.264C182.835 119.13 183.053 118.982 183.261 118.82C183.684 118.486 184.088 118.129 184.469 117.748C184.856 117.371 185.233 116.976 185.588 116.57L185.713 116.429L185.841 116.561C185.985 116.707 186.142 116.84 186.31 116.957C186.48 117.076 186.66 117.18 186.848 117.268C187.221 117.449 187.632 117.536 188.045 117.523C188.252 117.513 188.456 117.475 188.652 117.408C188.752 117.376 188.85 117.337 188.945 117.293C189.038 117.242 189.134 117.198 189.222 117.139C189.584 116.907 189.91 116.622 190.188 116.294C189.944 116.658 189.641 116.978 189.292 117.243C189.203 117.309 189.11 117.37 189.015 117.425C188.917 117.48 188.815 117.529 188.711 117.571C188.503 117.66 188.283 117.716 188.059 117.739C187.606 117.783 187.149 117.714 186.729 117.537C186.521 117.449 186.321 117.344 186.131 117.223C185.939 117.1 185.759 116.959 185.592 116.803L185.845 116.794C185.132 117.64 184.379 118.444 183.501 119.14C183.28 119.317 183.046 119.477 182.801 119.619C182.674 119.691 182.541 119.754 182.405 119.808C182.26 119.866 182.108 119.904 181.952 119.918H181.827C181.783 119.918 181.739 119.908 181.695 119.902C181.651 119.894 181.608 119.882 181.566 119.864L181.502 119.84L181.45 119.813C181.415 119.794 181.381 119.774 181.348 119.751L181.296 119.715L181.245 119.672C181.17 119.609 181.111 119.529 181.071 119.44C181.032 119.344 181.018 119.239 181.031 119.136C181.042 119.05 181.065 118.967 181.101 118.888C181.162 118.751 181.236 118.621 181.323 118.499C181.485 118.265 181.657 118.052 181.822 117.835C181.987 117.619 182.148 117.403 182.301 117.182C182.454 116.962 182.596 116.734 182.725 116.498L182.818 116.321L182.906 116.141L183.076 115.769C183.3 115.264 183.571 114.78 183.886 114.326C184.046 114.101 184.221 113.886 184.409 113.684C184.598 113.481 184.812 113.302 185.044 113.15Z" fill="#FE8753"/>
<path d="M196.588 105.233L195.989 108.239L196.311 108.3L230.214 114.715C230.214 114.715 231.106 111.19 231.423 109.144C232.039 105.169 233.691 98.1979 234.63 91.1999C235.569 84.2019 236.831 74.4418 234.607 70.3619C232.242 66.0278 228.651 66.3104 226.487 64.9075C225.48 64.245 224.381 63.7332 223.226 63.3882C222.035 63.0428 221.295 63.0661 221.295 63.0661C217.457 62.3986 214.061 62.4776 211.068 63.058C209.775 63.3082 208.529 63.5786 207.413 64.0709C190.786 71.391 198.972 87.5231 198.972 87.5231L199.894 88.7112L196.679 104.797L196.588 105.233Z" fill="#F7C317"/>
<mask id="mask2_2106_3792" style="mask-type:luminance" maskUnits="userSpaceOnUse" x="195" y="62" width="41" height="53">
<path d="M196.588 105.233L195.989 108.239L196.311 108.3L230.214 114.715C230.214 114.715 231.106 111.19 231.423 109.144C232.039 105.169 233.691 98.1979 234.63 91.1999C235.569 84.2019 236.831 74.4418 234.607 70.3619C232.242 66.0278 228.651 66.3104 226.487 64.9075C225.48 64.245 224.381 63.7332 223.226 63.3882C222.035 63.0428 221.295 63.0661 221.295 63.0661C217.457 62.3986 214.061 62.4776 211.068 63.058C209.775 63.3082 208.529 63.5786 207.413 64.0709C190.786 71.391 198.972 87.5231 198.972 87.5231L199.894 88.7112L196.679 104.797L196.588 105.233Z" fill="white"/>
</mask>
<g mask="url(#mask2_2106_3792)">
<path d="M207.027 62.122C206.732 65.2548 206.414 68.4667 205.023 71.2886C204.298 72.7593 203.303 74.077 202.417 75.4586C199.302 80.3204 197.587 85.9277 195.938 91.4621C200.981 91.108 206.049 91.3938 211.021 92.3129C211.506 92.4031 212.002 92.4983 212.489 92.4142C213.322 92.2724 213.972 91.6383 214.724 91.2504C217.173 89.9884 220.046 91.4864 222.667 92.3362C223.164 92.4973 223.687 92.6401 224.205 92.5651C225.39 92.402 226.184 91.216 227.322 90.8432C225.937 82.6298 236.388 79.5912 239.181 71.7444C239.383 71.1691 230.967 65.0594 230.568 64.6005C230.395 64.398 230.142 64.2906 229.898 64.1883L224.526 61.9265C222.604 66.5392 219.791 70.9412 218.1 75.7017C217.998 76.0005 212.726 77.4145 209.616 77.4773C209.077 77.4874 208.441 77.4489 208.149 76.9962C207.954 76.6923 207.987 76.2983 208.028 75.9387C208.567 71.241 209.208 66.5574 209.95 61.888C209.992 61.6267 210.015 61.3127 209.811 61.1446C209.686 61.0433 209.508 61.0301 209.35 61.023L207.104 60.9218L207.027 62.122Z" fill="#EAAF0C"/>
</g>
<path d="M195.042 142.03C197.039 154.682 199.999 211.245 199.392 212.49C198.785 213.735 219.501 215.67 219.501 215.67L219.653 170.367L212.192 135.162C212.584 136.732 220.965 170.271 222.448 176.213C223.965 182.297 230.946 215.757 230.946 215.757L252.52 212.313C252.52 212.313 241.392 170.2 240.778 162.265C240.164 154.33 238.068 138.563 236.388 128.263C234.709 117.963 234.622 91.1919 234.622 91.1919C233.355 91.3134 225.793 93.1234 223.335 88.4905C221.396 84.8381 224.906 70.7124 226.479 64.8995C225.472 64.237 224.373 63.7251 223.218 63.3802L218.505 78.6362L207.028 76.4453L211.063 63.048C209.82 63.2879 208.597 63.6266 207.408 64.0609C205.62 68.558 201.216 79.8435 198.967 87.5131C198.12 90.3947 197.578 92.7679 197.595 94.0755C197.617 95.8227 197.203 99.777 196.674 104.787C196.558 105.91 196.433 107.085 196.306 108.301C195.143 119.494 193.789 134.091 195.042 142.03Z" fill="#062E5C"/>
<path d="M221.765 78.7746C222.022 78.0743 221.869 77.3733 221.423 77.2088C220.977 77.0444 220.406 77.4788 220.149 78.179C219.891 78.8793 220.044 79.5803 220.491 79.7448C220.937 79.9093 221.507 79.4749 221.765 78.7746Z" fill="#396991"/>
<path d="M205.887 76.3445C206.144 75.6442 205.991 74.9432 205.545 74.7787C205.099 74.6143 204.528 75.0487 204.271 75.749C204.013 76.4493 204.166 77.1503 204.613 77.3147C205.059 77.4792 205.629 77.0448 205.887 76.3445Z" fill="#396991"/>
<path d="M205.203 82.168L211.359 82.9438L214.472 83.349L217.596 83.7643L217.787 83.7896L217.738 83.979L216.376 89.0961C215.915 90.8007 215.465 92.5064 214.995 94.2091L214.943 94.3975L214.754 94.3509C212.997 93.9164 211.238 93.4859 209.483 93.0433L206.852 92.3819L204.222 91.7133L204.098 91.6809L204.112 91.5564L204.38 89.1862L204.656 86.8292L205.203 82.168ZM205.203 82.168L204.799 86.9103L204.596 89.2521L204.388 91.5817L204.278 91.4257L206.921 92.0486L209.563 92.6807C211.325 93.099 213.083 93.5305 214.842 93.9579L214.602 94.0997C215.058 92.394 215.528 90.6934 215.992 88.9897L217.4 83.8858L217.54 84.0995L214.48 83.6346L211.409 83.1545L205.203 82.168Z" fill="#396991"/>
<mask id="mask3_2106_3792" style="mask-type:luminance" maskUnits="userSpaceOnUse" x="194" y="63" width="59" height="153">
<path d="M195.041 142.03C197.038 154.682 199.998 211.245 199.391 212.49C198.784 213.735 219.5 215.67 219.5 215.67L219.652 170.367L212.191 135.162C212.583 136.732 220.964 170.271 222.447 176.213C223.964 182.297 230.945 215.757 230.945 215.757L252.519 212.313C252.519 212.313 241.391 170.199 240.777 162.264C240.163 154.33 238.067 138.563 236.387 128.263C234.708 117.963 234.621 91.1917 234.621 91.1917C233.354 91.3133 225.792 93.1233 223.334 88.4904C221.395 84.8379 224.905 70.7123 226.478 64.8994C225.471 64.2368 224.372 63.725 223.217 63.3801L218.504 78.6361L207.027 76.4452L211.062 63.0479C209.819 63.2878 208.596 63.6265 207.407 64.0607C205.619 68.5579 201.215 79.8434 198.966 87.5129C198.119 90.3946 197.577 92.7678 197.594 94.0754C197.616 95.8226 197.202 99.7769 196.673 104.787C196.557 105.91 196.432 107.085 196.305 108.301C195.142 119.494 193.788 134.091 195.041 142.03Z" fill="white"/>
</mask>
<g mask="url(#mask3_2106_3792)">
<path d="M231.144 97.495C234.198 97.0108 236.871 94.978 238.585 92.4012C239.669 90.7715 240.418 88.688 239.698 86.8689C238.88 84.8056 236.562 83.8707 234.803 82.5196C233.195 81.2782 231.985 79.5922 231.323 77.6699C229.665 72.8243 231.728 67.3071 230.129 62.4423L225.48 63.4754C223.939 70.7888 222.791 78.1795 222.041 85.6159C221.75 88.4955 221.57 91.6091 223.086 94.0735C224.709 96.71 228.09 97.9791 231.144 97.495Z" fill="#00224A"/>
<path d="M212.114 63.2434C212.142 62.8565 212.142 62.4493 211.963 62.1059C211.784 61.7626 211.375 61.5104 211.007 61.6309L209.569 61.6582C209.039 66.7095 207.841 71.6645 206.646 76.6012C208.444 73.7178 209.933 70.6515 211.087 67.4539C211.578 66.0906 212.011 64.6888 212.114 63.2434Z" fill="#00224A"/>
<path d="M236.897 134.648C238.527 138.452 239.362 142.67 241.824 145.993C240.433 131.88 239.516 117.729 239.073 103.542L234.454 99.548C234.422 104.689 234.39 109.829 234.358 114.969C234.353 115.808 234.334 116.691 233.891 117.405C233.471 118.078 232.74 118.48 232.038 118.846C229.231 120.314 226.376 121.684 223.474 122.957L231.575 124.722L228.112 126.806C232.237 127.069 235.268 130.844 236.897 134.648Z" fill="#00224A"/>
<path d="M244.004 154.178L239.501 148.911C239.575 152.962 239.65 157.01 239.724 161.055C239.735 161.696 239.744 162.352 239.535 162.957C239.293 163.655 238.782 164.221 238.276 164.758C236.596 166.536 234.817 168.219 232.949 169.797L240.083 170.137L236.745 172.917C238.566 172.861 240.253 174.047 241.291 175.551C242.329 177.054 242.839 178.851 243.339 180.61C246.035 190.095 248.925 199.531 252.32 208.789C250.542 190.448 247.766 172.217 244.004 154.178Z" fill="#00224A"/>
<path d="M220.9 176.192C217.883 162.335 214.865 148.478 211.846 134.621L202.229 134.247C204.588 135.113 206.376 137.137 207.499 139.389C208.622 141.64 209.154 144.132 209.678 146.592C210.876 152.212 212.073 157.831 213.271 163.451C213.49 164.478 213.709 165.546 213.464 166.567C212.787 169.395 209.168 170.306 207.43 172.635C209.816 173.03 212.076 173.978 214.029 175.406C213.44 176.493 212.654 177.462 211.712 178.262C213.851 179.989 214.904 182.705 215.714 185.336C218.811 195.407 219.639 206.016 220.447 216.524C221.421 205.842 221.656 195.107 221.149 184.393L220.9 176.192Z" fill="#00224A"/>
<g opacity="0.7">
<path d="M198.145 121.221C199.998 120.981 201.865 120.872 203.733 120.897L198.055 115.983C197.531 115.529 196.991 115.054 196.707 114.421C196.444 113.832 196.432 113.166 196.424 112.521L196.239 97.9143L194.418 114.621C193.412 120.424 192.182 126.182 190.727 131.895C193.403 128.416 196.711 125.472 200.477 123.219C199.943 123.131 199.443 122.898 199.032 122.546C198.621 122.194 198.314 121.735 198.145 121.221Z" fill="#3A6F9B"/>
</g>
</g>
<path d="M201.684 118.969C201.684 118.969 202.317 132.44 191.355 132.486L191.3 118.906L201.684 118.969Z" fill="#14437C"/>
<path d="M194.638 122.105L196.573 122.098L196.548 115.842L194.613 115.85L194.638 122.105Z" fill="#1D456B"/>
<path d="M224.619 41.4582C224.619 41.4582 223.484 39.0536 222.316 39.2075C221.149 39.3615 221.579 40.1698 221.579 40.1698C221.579 40.1698 219.353 38.0589 217.408 37.6538C215.462 37.2486 215.726 39.1275 215.726 39.1275C215.726 39.1275 212.317 38.6444 212.558 39.6542L212.799 40.6671C212.799 40.6671 208.777 40.424 207.514 42.7941C206.25 45.1643 207.274 47.2508 208.599 48.7438C209.925 50.2368 221.078 56.5531 221.078 56.5531C221.078 56.5531 227.019 56.5035 228.806 51.7409C230.592 46.9784 226.563 45.8257 226.563 45.8257C226.563 45.8257 227.195 41.3366 224.619 41.4582Z" fill="#704516"/>
<path d="M207.057 53.4893L207.967 46.5885C208.278 46.3069 208.547 45.9814 208.765 45.6222C208.765 45.6222 209.636 46.1054 210.269 45.9099C210.903 45.7144 211.84 44.6337 211.84 44.6337C211.84 44.6337 212.192 45.9828 212.899 45.9575C213.606 45.9322 214.294 45.5746 214.294 45.5746C214.294 45.5746 214.46 46.5794 215.279 46.6452C216.099 46.7111 215.851 45.7012 215.851 45.7012C215.851 45.7012 216.815 47.8394 217.802 47.4677L218.789 47.095C218.789 47.095 219.515 51.7684 220.257 51.0452C221 50.322 220.856 51.0938 220.856 51.0938C220.878 51.5949 220.953 52.0923 221.079 52.5777C222.994 51.9031 225.036 52.5878 225.773 54.2145C226.559 55.9506 225.559 58.0999 223.541 59.0166C222.917 59.3015 222.237 59.44 221.551 59.4217L221.445 59.4561C221.354 60.9268 222.037 63.4925 222.077 64.2298C222.134 65.267 217.642 65.5192 215.978 67.6969C214.314 69.8746 214.461 71.1823 214.461 71.1823L214 66.4855L213.129 64.6958L214.112 61.0808C213.635 61.1031 213.35 61.096 213.35 61.096C212.594 61.0848 211.846 60.9458 211.136 60.6848C210.211 60.3353 209.384 59.7663 208.726 59.0267C207.37 57.5337 206.792 55.4917 207.057 53.4893Z" fill="#FEC0AF"/>
<mask id="mask4_2106_3792" style="mask-type:luminance" maskUnits="userSpaceOnUse" x="206" y="44" width="21" height="28">
<path d="M207.057 53.4894L207.967 46.5886C208.278 46.307 208.547 45.9815 208.765 45.6224C208.765 45.6224 209.636 46.1055 210.269 45.91C210.903 45.7145 211.84 44.6338 211.84 44.6338C211.84 44.6338 212.192 45.9829 212.899 45.9576C213.606 45.9323 214.294 45.5748 214.294 45.5748C214.294 45.5748 214.46 46.5795 215.279 46.6454C216.099 46.7112 215.851 45.7014 215.851 45.7014C215.851 45.7014 216.815 47.8396 217.802 47.4678L218.789 47.0951C218.789 47.0951 219.515 51.7685 220.257 51.0453C221 50.3221 220.856 51.0939 220.856 51.0939C220.878 51.595 220.953 52.0924 221.079 52.5778C222.994 51.9032 225.036 52.5879 225.773 54.2146C226.559 55.9507 225.559 58.1 223.541 59.0167C222.917 59.3016 222.237 59.4402 221.551 59.4218L221.445 59.4563C221.354 60.927 222.037 63.4926 222.077 64.23C222.134 65.2672 217.642 65.5194 215.978 67.6971C214.314 69.8747 214.461 71.1824 214.461 71.1824L214 66.4857L213.129 64.6959L214.112 61.0809C213.635 61.1032 213.35 61.0961 213.35 61.0961C212.594 61.0849 211.846 60.9459 211.136 60.6849C210.211 60.3354 209.384 59.7665 208.726 59.0268C207.37 57.5338 206.792 55.4919 207.057 53.4894Z" fill="white"/>
</mask>
<g mask="url(#mask4_2106_3792)">
<path d="M216.786 40.7128C213.233 38.4176 208.514 38.288 204.625 39.9491C203.748 40.3239 202.882 40.803 202.291 41.5505L207.521 45.8248C208.454 46.7273 210.074 46.7891 211.072 45.9616C211.552 46.7273 212.506 47.019 213.378 47.251L216.429 48.0613C216.833 48.1676 217.251 48.2871 217.542 48.5869C217.76 48.8159 217.872 49.1207 218 49.4104C218.48 50.4992 219.229 51.448 220.176 52.1675C220.385 52.3265 220.638 52.4794 220.892 52.4166C221.206 52.3386 221.347 51.9791 221.425 51.6651C222.434 47.5609 220.339 43.007 216.786 40.7128Z" fill="#FE8753"/>
<path d="M211.286 61.0697L211.195 63.1421C211.013 63.7498 211.387 64.4183 211.935 64.7292C212.484 65.0402 213.156 65.0503 213.775 64.9318C216.131 64.4831 217.859 62.3773 218.732 60.1399C216.374 61.097 213.806 61.4176 211.286 61.0697Z" fill="#FE8753"/>
<path d="M227.94 52.7114C227.477 51.9436 226.581 51.4017 225.697 51.5354L222.975 52.4075C223.514 52.4867 224.019 52.7177 224.431 53.0736C224.843 53.4294 225.145 53.8955 225.302 54.4171C225.524 55.196 225.397 56.0377 225.137 56.8054C224.985 57.2904 224.751 57.7459 224.446 58.1526C223.954 58.7756 223.253 59.1993 222.473 59.3458C223.724 59.9423 225.289 59.6891 226.4 58.8586C227.511 58.028 228.181 56.689 228.363 55.3135C228.485 54.4252 228.401 53.4822 227.94 52.7114Z" fill="#FE8753"/>
</g>
<path d="M210.003 56.9726C209.989 56.894 209.996 56.8133 210.023 56.7381C210.05 56.663 210.095 56.5961 210.155 56.5438C210.215 56.4915 210.288 56.4557 210.366 56.4398C210.444 56.4239 210.525 56.4284 210.601 56.453C211.26 56.6667 212.321 56.8389 213.152 56.1562C214.451 55.0876 214.316 58.7401 211.975 58.6124C210.542 58.5334 210.117 57.6482 210.003 56.9726Z" fill="white"/>
<path d="M223.803 54.6104C223.419 54.617 223.04 54.7028 222.69 54.8626C222.366 55.0167 222.091 55.2597 221.899 55.5635C221.799 55.7159 221.715 55.8785 221.648 56.0487C221.609 56.1327 221.585 56.2239 221.547 56.311C221.51 56.3981 221.492 56.4923 221.466 56.5835C221.365 56.9532 221.302 57.3391 221.223 57.7361C221.133 57.3377 221.109 56.9269 221.154 56.5207C221.176 56.3141 221.22 56.1104 221.285 55.9129C221.35 55.7096 221.441 55.516 221.558 55.3376C221.789 54.9753 222.139 54.7045 222.547 54.5714C222.955 54.4382 223.397 54.4509 223.797 54.6073L223.803 54.6104Z" fill="#FE8753"/>
<path d="M223.115 57.1953C223.069 56.9766 223.032 56.776 222.98 56.5876C222.938 56.4152 222.865 56.2517 222.766 56.1045C222.668 55.9681 222.535 55.8609 222.381 55.7945C222.194 55.7165 222.001 55.6532 221.804 55.6051C222.007 55.4967 222.239 55.4556 222.467 55.4876C222.593 55.5046 222.713 55.5471 222.821 55.6126C222.929 55.6781 223.023 55.7652 223.096 55.8685C223.234 56.0685 223.305 56.3078 223.298 56.5512C223.296 56.7785 223.233 57.0011 223.115 57.1953Z" fill="#FE8753"/>
<path d="M218.683 49.3292C218.744 49.2816 215.699 47.9061 213.981 48.215C213.964 48.2464 213.799 46.6663 216.207 47.1677C218.549 47.7653 218.667 49.3545 218.683 49.3292Z" fill="#4C1508"/>
<path d="M208.709 47.2416C208.709 47.2021 210.494 47.2527 210.957 47.8493C210.948 47.8696 211.799 47.0846 210.684 46.7351C209.538 46.4576 208.701 47.2608 208.709 47.2416Z" fill="#4C1508"/>
<path d="M215.529 51.0234C215.601 50.4141 215.325 49.8801 214.912 49.8307C214.499 49.7812 214.105 50.2351 214.032 50.8445C213.959 51.4538 214.235 51.9878 214.649 52.0372C215.062 52.0866 215.456 51.6328 215.529 51.0234Z" fill="#4C1508"/>
<path d="M210.538 50.4269C210.61 49.8175 210.403 49.2918 210.076 49.2526C209.748 49.2134 209.423 49.6756 209.35 50.2849C209.278 50.8942 209.485 51.42 209.812 51.4592C210.14 51.4984 210.465 51.0362 210.538 50.4269Z" fill="#4C1508"/>
<path d="M217.611 56.1986C218.723 56.1986 219.625 55.2957 219.625 54.1819C219.625 53.0682 218.723 52.1653 217.611 52.1653C216.498 52.1653 215.597 53.0682 215.597 54.1819C215.597 55.2957 216.498 56.1986 217.611 56.1986Z" fill="#FEA381"/>
<path d="M211.973 49.9481C211.912 50.2196 211.833 50.4839 211.752 50.7473C211.71 50.8779 211.67 51.0096 211.626 51.1393L211.49 51.5282C211.306 52.0448 211.102 52.5532 210.883 53.0556L210.851 53.1316L210.775 53.164C210.524 53.2688 210.287 53.4024 210.067 53.5621C209.855 53.7181 209.662 53.9217 209.687 54.1181C209.706 54.2336 209.762 54.34 209.845 54.422C209.941 54.5203 210.047 54.6073 210.163 54.6813C210.407 54.8359 210.662 54.9736 210.925 55.0935C210.632 55.043 210.348 54.9576 210.076 54.8393C209.933 54.7782 209.8 54.6977 209.679 54.6003C209.538 54.4932 209.438 54.3404 209.396 54.1678C209.365 53.9831 209.406 53.7934 209.51 53.638C209.6 53.501 209.711 53.3787 209.838 53.2754C210.078 53.0801 210.343 52.9185 210.627 52.7953L210.519 52.9027C210.726 52.3963 210.946 51.8898 211.186 51.3996L211.369 51.0309C211.43 50.9083 211.496 50.7878 211.56 50.6663C211.689 50.4222 211.822 50.1811 211.973 49.9481Z" fill="#FE8753"/>
<g opacity="0.5">
<path d="M194 107.973L201.609 108.566L195.064 104.631L194 107.973Z" fill="black"/>
</g>
<g opacity="0.5">
<path d="M213.543 118.195L193.35 110.01L192.375 113.071C200.03 115.1 213.543 118.195 213.543 118.195Z" fill="black"/>
</g>
<g opacity="0.5">
<path d="M250.938 116.422L197.726 96.2913L197.154 98.0851C210.499 102.626 250.938 116.422 250.938 116.422Z" fill="black"/>
</g>
<g opacity="0.5">
<path d="M258.075 139.552L258.217 139.104C250.555 135.742 235.522 129.161 234.88 128.957C234.451 128.819 226.948 128.013 219.503 127.235L258.075 139.552Z" fill="black"/>
</g>
<g opacity="0.5">
<path d="M244.967 127.19C245.837 127.837 210.814 112.307 210.814 112.307C210.814 112.307 234.185 119.176 244.967 127.19Z" fill="black"/>
</g>
<path d="M263.563 117.219L195.983 95.6384L188.924 117.798L256.503 139.379L263.563 117.219Z" fill="#99642E"/>
<path d="M190.627 118.337L215.012 126.123L229.949 130.893L258.207 139.918L265.266 117.757L243.92 110.942L231.546 106.989L197.686 96.1788L190.627 118.337Z" fill="#BA8449"/>
<path d="M193.855 108.202L201.497 108.797L194.925 104.846L193.855 108.202Z" fill="#99642E"/>
<path d="M213.484 118.469L193.204 110.248L192.225 113.322C199.913 115.36 213.484 118.469 213.484 118.469Z" fill="#99642E"/>
<path d="M251.039 116.686L197.593 96.4678L197.019 98.2697C210.426 102.833 251.039 116.686 251.039 116.686Z" fill="#99642E"/>
<path d="M258.205 139.917L258.349 139.466C250.654 136.091 235.556 129.481 234.91 129.276C234.479 129.138 226.944 128.329 219.47 127.548L258.205 139.917Z" fill="#99642E"/>
<path d="M245.044 127.502C245.917 128.152 210.744 112.555 210.744 112.555C210.744 112.555 234.215 119.454 245.044 127.502Z" fill="#99642E"/>
<path d="M260.795 131.796L261.803 128.635L241.922 121.288L260.795 131.796Z" fill="#99642E"/>
<path d="M263.196 124.259L263.93 121.958L256.949 123.165L263.196 124.259Z" fill="#99642E"/>
<g opacity="0.4">
<path d="M205.626 121.488C204.805 121.74 203.928 121.885 203.157 122.235L218.094 127.005C219.94 124.987 221.781 122.942 223.195 120.601C224.062 119.167 224.761 117.631 225.732 116.262C226.922 114.588 228.481 113.218 229.789 111.632C230.888 110.302 231.824 108.736 232.065 107.054L219.69 103.104C217.178 107.438 214.767 113.246 210.969 114.778C210.5 114.956 210.059 115.204 209.663 115.514C208.357 116.578 205.073 116.455 203.552 117.06C202.906 117.317 202.928 118.242 203.573 118.502C204.994 119.078 206.513 119.37 208.046 119.362C207.834 120.472 206.704 121.154 205.626 121.488Z" fill="#724217"/>
</g>
<path d="M217.256 119.273C217.256 119.273 211.884 115.8 210.398 118.178C208.912 120.555 204.421 119.2 204.925 120.445C205.429 121.691 207.922 122.304 209.041 121.676C210.16 121.048 204.691 125.311 205.57 126.181C206.449 127.051 208.808 125.42 209.064 127.04C209.32 128.661 210.569 129.655 212.063 129.399C213.557 129.144 214.869 129.963 216.269 129.421C217.67 128.878 221.135 123.445 221.135 123.445L224.116 120.864L218.49 116.27L217.256 119.273Z" fill="#FEC0AF"/>
<mask id="mask5_2106_3792" style="mask-type:luminance" maskUnits="userSpaceOnUse" x="204" y="116" width="21" height="14">
<path d="M217.256 119.272C217.256 119.272 211.884 115.8 210.398 118.178C208.912 120.555 204.421 119.2 204.925 120.445C205.429 121.691 207.922 122.304 209.041 121.676C210.16 121.048 204.691 125.311 205.57 126.181C206.449 127.051 208.808 125.42 209.064 127.04C209.32 128.661 210.569 129.654 212.063 129.399C213.557 129.144 214.869 129.963 216.269 129.42C217.67 128.878 221.135 123.444 221.135 123.444L224.116 120.864L218.49 116.27L217.256 119.272Z" fill="white"/>
</mask>
<g mask="url(#mask5_2106_3792)">
<path d="M205.106 122.757C205.112 122.819 205.131 122.879 205.164 122.932C205.197 122.984 205.242 123.029 205.295 123.061C205.349 123.093 205.409 123.112 205.471 123.116C205.533 123.121 205.595 123.11 205.653 123.086C207.15 122.826 208.55 122.17 209.708 121.186C209.809 121.103 209.911 120.972 209.844 120.863C209.792 120.777 209.672 120.771 209.572 120.778C207.894 120.879 206.145 120.996 204.598 120.341C204.319 120.223 204.006 119.995 204.064 119.697L203.817 120.311C204.232 120.539 204.51 120.96 204.689 121.398C204.868 121.837 204.963 122.305 205.106 122.757Z" fill="#FE8753"/>
<path d="M217.755 129.743C217.445 129.025 216.482 128.924 215.702 128.973C214.844 129.027 213.983 129.132 213.126 129.046C212.269 128.96 211.401 128.66 210.815 128.033C210.38 127.565 210.1 126.919 209.529 126.632C209.085 126.407 208.556 126.451 208.073 126.328C207.091 126.082 206.415 124.91 206.718 123.998L203.218 126.482C203.247 127.07 204.979 129.419 205.509 129.672C208.746 131.222 212.34 132.508 215.86 131.82C216.389 131.719 216.93 131.558 217.334 131.2C217.739 130.842 217.97 130.239 217.755 129.743Z" fill="#FE8753"/>
<path d="M206.718 123.997L206.929 123.6C206.836 123.719 206.765 123.853 206.718 123.997Z" fill="#FE8753"/>
</g>
<path d="M230.638 68.4728C232.186 68.3715 233.673 69.119 234.605 70.3618C239.77 77.2565 241.967 90.5363 240.687 100.553C239.316 111.281 222.122 125.252 222.122 125.252C222.122 125.252 216.286 124.536 213.919 116.428C222.89 108.195 225.503 102.466 226.126 93.3602C226.691 85.1022 222.811 68.9589 230.638 68.4728Z" fill="#F7C317"/>
<mask id="mask6_2106_3792" style="mask-type:luminance" maskUnits="userSpaceOnUse" x="213" y="68" width="29" height="58">
<path d="M230.638 68.4728C232.186 68.3715 233.673 69.119 234.605 70.3618C239.77 77.2565 241.967 90.5363 240.687 100.553C239.316 111.281 222.122 125.252 222.122 125.252C222.122 125.252 216.286 124.536 213.919 116.428C222.89 108.195 225.503 102.466 226.126 93.3602C226.691 85.1022 222.811 68.9589 230.638 68.4728Z" fill="white"/>
</mask>
<g mask="url(#mask6_2106_3792)">
<path d="M228.324 97.2152C230.01 96.1631 231.739 95.184 233.51 94.2778C231.844 94.4744 230.164 94.5228 228.49 94.4226C228.457 93.3085 228.297 92.1943 228.135 91.0953L227.022 83.4987C226.617 80.7265 226.207 77.9127 226.554 75.1313C226.901 72.35 228.102 69.5605 230.353 67.8933C227.838 68.1972 225.724 70.07 224.493 72.2882C223.262 74.5064 222.778 77.0487 222.369 79.5546C221.507 84.8216 220.9 90.1223 220.548 95.4568C220.402 97.6699 220.288 99.9408 219.41 101.977C218.728 103.556 217.622 104.907 216.508 106.217C214.403 108.694 212.221 111.104 209.965 113.447L212.809 116.261C218.893 112.711 224.022 107.731 227.755 101.752C228.205 101.027 228.681 100.246 229.457 99.8922C230.749 99.3037 232.377 100.119 233.641 99.4749C231.99 98.463 230.198 97.7015 228.324 97.2152Z" fill="#EAAF0C"/>
</g>
<path d="M229.735 53.556L223.842 50.5954L208.085 42.6757C208.224 42.3242 213.529 31.4266 222.814 35.3607C224.679 36.1514 226.239 37.0906 227.496 38.1785C231.564 41.7074 232.382 46.8062 229.735 53.556Z" fill="white"/>
<path d="M229.736 53.5561L223.843 50.5955C224.854 50.0729 225.737 49.1299 226.363 48.1474C227.678 46.0943 228.409 43.6421 228.234 41.2132C228.159 40.1663 227.91 39.1392 227.497 38.1746C231.565 41.7075 232.382 46.8063 229.736 53.5561Z" fill="#E1E1E1"/>
<path d="M220.084 48.7522C220.084 48.7522 203.336 42.7762 203.594 41.5608C203.596 41.535 203.608 41.5111 203.627 41.4939C204.595 40.4598 209.342 39.299 211.654 40.4608C213.558 41.42 216.401 44.4495 218.249 46.5684C219.339 47.8214 220.084 48.7522 220.084 48.7522Z" fill="white"/>
<path d="M220.084 48.7521C220.084 48.7521 203.336 42.7761 203.594 41.5607C205.936 42.8497 208.356 43.9898 210.841 44.9741C212.608 45.6709 214.421 46.2908 216.309 46.5106C216.953 46.5859 217.602 46.6066 218.249 46.5724C219.339 47.8213 220.084 48.7521 220.084 48.7521Z" fill="#B5B5B5"/>
<path d="M86.7102 46.9714C86.2166 45.8633 86.777 44.5071 87.7391 43.7474C88.7011 42.9877 89.9647 42.7163 91.1948 42.6008C92.425 42.4854 96.166 45.5686 96.7518 45.842C97.3375 46.1155 98.0062 46.1125 98.6476 46.1864C99.8181 46.3211 101.45 51.3521 101.433 51.6944C101.41 52.1158 101.823 52.4166 102.033 52.7843C102.149 52.9954 102.202 53.236 102.184 53.4765C102.166 53.7171 102.078 53.9471 101.931 54.1385C101.777 54.334 101.556 54.493 101.483 54.7301C101.42 54.9326 101.483 55.1534 101.483 55.3682C101.477 55.9759 100.936 56.4763 100.347 56.6728C99.7584 56.8693 99.12 56.8379 98.4989 56.8591C96.8196 56.9158 95.1827 57.3656 93.5641 57.8143C92.2378 58.1819 90.9025 58.5516 89.6642 59.1462C88.3683 59.7681 87.1948 60.628 85.8615 61.172C84.5281 61.7159 82.9277 61.9023 81.6935 61.172C81.0137 60.7668 80.517 60.1317 80.0374 59.5098C79.0258 58.1992 78.0081 56.8662 77.3981 55.3358C76.788 53.8053 76.6312 52.0257 77.3515 50.5398C77.6237 50.008 77.9675 49.5162 78.3733 49.0782C79.4932 47.8182 80.9257 46.7891 82.5625 46.3272C83.8649 45.9611 85.2429 45.9611 86.5453 46.3272L86.7102 46.9714Z" fill="#0A2033"/>
<path d="M82.761 64.0069L80.6709 68.5649C80.6709 68.5649 86.0478 74.3728 88.1328 76.6568C90.2178 78.9408 89.8526 74.708 89.8526 74.708C89.8526 74.708 89.8101 73.6334 89.9295 71.953C89.9912 71.0657 90.0994 70.0052 90.2835 68.8465C96.8238 71.6917 97.0332 64.3797 97.536 63.9847C100.541 64.8821 98.1308 61.8718 98.5982 60.6108C99.0029 59.5229 99.2052 56.2736 99.2548 55.3924C99.2564 55.3705 99.2531 55.3485 99.245 55.328C99.237 55.3075 99.2244 55.2892 99.2082 55.2743C99.1921 55.2594 99.1728 55.2483 99.1517 55.2419C99.1307 55.2355 99.1085 55.234 99.0868 55.2374C98.8693 55.2749 98.4293 55.2567 97.6301 54.8809C96.3524 54.2813 96.0114 54.9315 94.2087 53.5976C92.406 52.2636 93.2213 53.5631 92.1065 53.9014C90.9917 54.2398 90.0559 51.9861 88.6163 54.7816C87.1768 57.5772 85.3649 57.719 85.3649 57.719L85.3154 57.8375C83.7099 56.6919 81.6876 56.6737 80.5748 57.8821C79.3406 59.2211 79.6886 61.5497 81.3497 63.0852C81.7636 63.4715 82.2411 63.7834 82.761 64.0069Z" fill="#FEC0AF"/>
<mask id="mask7_2106_3792" style="mask-type:luminance" maskUnits="userSpaceOnUse" x="79" y="53" width="21" height="25">
<path d="M82.76 64.0072L80.6699 68.5652C80.6699 68.5652 86.0468 74.373 88.1318 76.6571C90.2168 78.9411 89.8516 74.7083 89.8516 74.7083C89.8516 74.7083 89.8091 73.6336 89.9285 71.9532C89.9902 71.0659 90.0984 70.0055 90.2826 68.8467C96.8228 71.6919 97.0322 64.3799 97.535 63.9849C100.54 64.8823 98.1299 61.872 98.5972 60.611C99.0019 59.5232 99.2042 56.2739 99.2538 55.3926C99.2554 55.3707 99.2521 55.3487 99.244 55.3282C99.236 55.3078 99.2234 55.2894 99.2072 55.2745C99.1911 55.2596 99.1718 55.2485 99.1508 55.2422C99.1297 55.2358 99.1076 55.2343 99.0859 55.2377C98.8684 55.2752 98.4283 55.2569 97.6291 54.8811C96.3514 54.2815 96.0105 54.9318 94.2077 53.5978C92.405 52.2639 93.2204 53.5634 92.1055 53.9017C90.9907 54.24 90.0549 51.9863 88.6154 54.7819C87.1758 57.5774 85.364 57.7192 85.364 57.7192L85.3144 57.8377C83.7089 56.6922 81.6866 56.6739 80.5738 57.8823C79.3396 59.2213 79.6876 61.5499 81.3488 63.0855C81.7626 63.4718 82.2401 63.7836 82.76 64.0072Z" fill="white"/>
</mask>
<g mask="url(#mask7_2106_3792)">
<path d="M85.8467 57.6493C86.0611 54.4972 87.004 50.9643 89.7921 49.4986C90.8705 48.9314 92.1077 48.7471 93.3247 48.6883C97.2591 48.4897 101.165 49.456 104.554 51.4666C105.305 51.9133 106.083 52.4897 106.28 53.3415L99.9065 55.584C98.4163 56.6931 96.1745 56.6445 94.7329 55.4716C94.5306 55.3105 94.3394 55.1252 94.0895 55.0755C93.5362 54.9641 93.1012 55.5465 92.562 55.7147C91.7142 55.98 90.7491 55.1829 89.9529 55.5769C89.6343 55.7339 89.4299 56.0479 89.2013 56.3204C88.7903 56.7959 88.2707 57.1651 87.6866 57.3964C87.1026 57.6278 86.4714 57.7145 85.8467 57.6493Z" fill="#FE8753"/>
<path d="M80.7263 58.7745C80.2842 59.5565 80.2559 60.5197 80.4572 61.3949C80.6642 62.2889 81.0912 63.1169 81.6995 63.8035C80.3145 63.5857 79.1137 62.5597 78.5634 61.2713C78.013 59.9829 78.1031 58.4585 78.6787 57.1782C79.0146 56.4317 79.5275 55.742 80.2326 55.3267C80.9377 54.9114 81.8512 54.8051 82.5806 55.1748L84.3803 56.9179C82.966 57.0344 81.4263 57.5338 80.7263 58.7745Z" fill="#FFC0C0"/>
<path d="M79.5493 66.2627L82.6773 64.3383C82.5154 66.2344 82.3637 68.2085 83.0435 69.9861C83.347 70.765 83.7901 71.476 84.2079 72.1972C85.3511 74.1713 86.2838 76.2588 87.2145 78.3423C85.2398 76.1862 83.2654 74.0302 81.2913 71.8741C80.3606 70.8612 79.4279 69.8392 78.6287 68.718C78.4405 68.4536 78.2534 68.168 78.2241 67.8449C78.1745 67.1186 78.9099 66.6091 79.5493 66.2627Z" fill="#FFC0C0"/>
</g>
<path d="M84.304 61.6225C84.2559 61.3556 84.1778 61.095 84.0713 60.8457C83.9701 60.6117 83.8403 60.3913 83.6848 60.1893L83.5614 60.0455C83.5216 59.9953 83.4776 59.9485 83.4299 59.9057C83.3834 59.8611 83.3429 59.8105 83.2923 59.769C83.2417 59.7274 83.1912 59.6839 83.1436 59.6403C83.0952 59.5947 83.0435 59.5527 82.9888 59.5147C82.9362 59.4732 82.8877 59.4307 82.83 59.3861C82.7197 59.3051 82.6044 59.2291 82.4941 59.1309C82.6375 59.1464 82.7795 59.1724 82.919 59.2088C82.9868 59.2321 83.0546 59.2575 83.1214 59.2838C83.1913 59.3084 83.2589 59.3389 83.3237 59.375C83.3874 59.4114 83.4501 59.4489 83.5139 59.4874C83.5759 59.5281 83.6351 59.5731 83.6909 59.6221C83.8063 59.7175 83.912 59.824 84.0066 59.9401C84.1905 60.1782 84.3172 60.4554 84.3768 60.7505C84.4399 61.0419 84.4146 61.3456 84.304 61.6225Z" fill="#FE8753"/>
<path d="M81.8984 60.7163C82.0167 60.5264 82.1837 60.3718 82.382 60.2686C82.582 60.1586 82.8045 60.0959 83.0325 60.0852C83.1477 60.0806 83.2631 60.0891 83.3764 60.1106C83.4888 60.1358 83.5975 60.1749 83.7002 60.227C83.9016 60.3269 84.0704 60.4822 84.1868 60.6747C84.0735 60.6535 83.9844 60.6129 83.8833 60.5907C83.7893 60.5648 83.6941 60.5439 83.598 60.5279C83.507 60.5056 83.4139 60.5046 83.3248 60.4904C83.2358 60.4762 83.1438 60.4813 83.0527 60.4904C82.8664 60.4986 82.6813 60.5233 82.4994 60.5643C82.3031 60.6038 82.1109 60.6565 81.8984 60.7163Z" fill="#FE8753"/>
<path d="M94.7501 60.2762C95.1797 60.2705 95.522 59.8111 95.5145 59.25C95.5071 58.689 95.1528 58.2388 94.7232 58.2446C94.2936 58.2503 93.9513 58.7097 93.9588 59.2707C93.9662 59.8317 94.3205 60.2819 94.7501 60.2762Z" fill="#4C1508"/>
<path d="M89.9517 62.826C91.2669 62.826 92.3331 61.7585 92.3331 60.4417C92.3331 59.1249 91.2669 58.0574 89.9517 58.0574C88.6365 58.0574 87.5703 59.1249 87.5703 60.4417C87.5703 61.7585 88.6365 62.826 89.9517 62.826Z" fill="#FEA381"/>
<path d="M92.2533 56.1601C92.2169 56.1074 94.9969 55.7296 96.3069 56.388C96.314 56.4173 96.8239 55.1837 94.7672 55.0115C92.7318 54.9345 92.2594 56.1864 92.2533 56.1601Z" fill="#4C1508"/>
<path d="M86.6914 65.7379C87.0953 68.0351 88.2009 70.1503 89.8558 71.7919C89.9135 70.9664 90.0147 69.9799 90.1866 68.9011C88.8821 68.0123 87.706 66.9479 86.6914 65.7379Z" fill="#FE8753"/>
<path d="M76.5141 56.1351L83.1192 55.2691L100.779 52.9465C100.764 52.5647 99.3135 40.403 89.1455 41.0726C87.1054 41.2076 85.305 41.5854 83.7443 42.206C78.6932 44.2216 76.2238 48.815 76.5141 56.1351Z" fill="white"/>
<path d="M76.5141 56.1351L83.1192 55.269C82.325 54.4334 81.7969 53.2433 81.5248 52.0957C80.9563 49.7012 81.0655 47.1164 82.0377 44.8566C82.4562 43.8839 83.034 42.988 83.7474 42.2059C78.6932 44.2216 76.2238 48.815 76.5141 56.1351Z" fill="#E1E1E1"/>
<path d="M87.3145 54.7583C87.3145 54.7583 105.278 54.6145 105.431 53.3778C105.437 53.3525 105.434 53.326 105.422 53.3028C104.84 51.9952 100.695 49.3101 98.1046 49.6504C95.969 49.932 92.2523 51.8787 89.7869 53.2877C88.3332 54.1172 87.3145 54.7583 87.3145 54.7583Z" fill="white"/>
<path d="M87.3145 54.7582C87.3145 54.7582 105.278 54.6143 105.431 53.3776C102.769 53.8278 100.082 54.1103 97.3853 54.2234C95.4693 54.3014 93.531 54.2953 91.6584 53.8729C91.0193 53.7306 90.3933 53.5347 89.7869 53.2875C88.3332 54.117 87.3145 54.7582 87.3145 54.7582Z" fill="#E1E1E1"/>
<path d="M96.3841 66.042C96.3496 66.0417 96.3154 66.0355 96.2829 66.0237L93.1306 64.8984C93.0914 64.8865 93.0549 64.8668 93.0234 64.8403C92.992 64.8139 92.9662 64.7814 92.9477 64.7447C92.9292 64.7081 92.9183 64.668 92.9157 64.627C92.913 64.586 92.9187 64.5449 92.9324 64.5062C92.9461 64.4674 92.9675 64.4319 92.9953 64.4017C93.0231 64.3714 93.0568 64.3472 93.0942 64.3304C93.1317 64.3135 93.1721 64.3045 93.2132 64.3038C93.2542 64.303 93.295 64.3106 93.333 64.3261L96.4852 65.4514C96.5529 65.4753 96.6099 65.5223 96.6462 65.5841C96.6825 65.646 96.6958 65.7187 96.6837 65.7895C96.6715 65.8602 96.6348 65.9243 96.58 65.9706C96.5251 66.0168 96.4558 66.0421 96.3841 66.042Z" fill="#FEA381"/>
<path d="M106.701 183.992C106.028 191.432 105.706 205.194 105.557 214.818C105.461 220.996 105.437 225.465 105.437 225.465L85.1318 226.867C85.1318 226.867 85.2725 222.504 85.4738 216.048C86.0484 197.834 87.1197 162.962 86.9407 162.432C86.6938 161.713 90.1536 126.982 90.1536 126.982L105.437 122.588C105.437 122.588 106.172 143.985 106.672 157.16C107.171 170.336 107.809 171.775 106.701 183.992Z" fill="#062E5C"/>
<mask id="mask8_2106_3792" style="mask-type:luminance" maskUnits="userSpaceOnUse" x="85" y="122" width="23" height="105">
<path d="M106.7 183.992C106.027 191.432 105.705 205.194 105.556 214.818C105.46 220.996 105.437 225.465 105.437 225.465L85.1309 226.867C85.1309 226.867 85.2715 222.504 85.4728 216.048C86.0474 197.834 87.1187 162.962 86.9397 162.432C86.6928 161.713 90.1526 126.982 90.1526 126.982L105.437 122.588C105.437 122.588 106.171 143.985 106.671 157.16C107.17 170.336 107.808 171.775 106.7 183.992Z" fill="white"/>
</mask>
<g mask="url(#mask8_2106_3792)">
<path d="M88.8955 125.545L112.17 137.39L113.702 122.59L94.2926 114.798L88.8955 125.545Z" fill="#00224A"/>
<path d="M96.7749 125.545L94.7739 172.045L102.452 176.239H94.3956L99.2565 180.32L93.1887 181.771V210.902L112.507 219.866L110.348 226.086L80.2842 226.935L88.1659 134.262L96.7749 125.545Z" fill="#00224A"/>
</g>
<path d="M91.0826 52.4691C88.4354 49.6499 82.0284 44.913 77.5771 48.5188" stroke="#14437C" stroke-width="0.303208" stroke-linecap="round"/>
<path d="M97.8092 49.6332C97.0842 46.4427 93.5704 40.416 85.3154 41.8341" stroke="#14437C" stroke-width="0.303208" stroke-linecap="round"/>
<path d="M100.086 49.8357C99.7825 48.8059 98.9631 46.4729 98.1133 45.379" stroke="#14437C" stroke-width="0.303208" stroke-linecap="round"/>
<path d="M100.085 49.8864C99.1243 49.2449 95.2194 49.3293 87.2881 54.7989" stroke="#14437C" stroke-width="0.303208" stroke-linecap="round"/>
<path d="M96.5033 143.508C96.2635 145.185 93.1537 160.037 92.2918 169.14C91.6626 175.782 89.1031 204.711 87.7627 219.87C87.268 225.487 86.9402 229.215 86.9402 229.215L64.9785 231.139C64.9785 231.139 65.4469 226.269 65.7878 220.918C66.0316 217.09 66.2137 213.018 66.1136 210.296C65.8738 203.778 69.2234 177.768 69.4631 165.311C69.7029 152.855 71.7899 125.735 71.7899 125.735L99.1497 121.021C99.1497 121.021 96.7471 141.831 96.5033 143.508Z" fill="#062E5C"/>
<mask id="mask9_2106_3792" style="mask-type:luminance" maskUnits="userSpaceOnUse" x="64" y="121" width="36" height="111">
<path d="M96.5033 143.508C96.2635 145.185 93.1537 160.037 92.2918 169.14C91.6626 175.782 89.1031 204.711 87.7627 219.87C87.268 225.487 86.9402 229.215 86.9402 229.215L64.9785 231.139C64.9785 231.139 65.4469 226.269 65.7878 220.918C66.0316 217.09 66.2137 213.018 66.1136 210.296C65.8738 203.778 69.2234 177.768 69.4631 165.311C69.7029 152.855 71.7899 125.735 71.7899 125.735L99.1497 121.021C99.1497 121.021 96.7471 141.831 96.5033 143.508Z" fill="white"/>
</mask>
<g mask="url(#mask9_2106_3792)">
<path d="M92.6456 118.906L89.5975 135.275L68.2812 138.42L69.8827 122.942L92.6456 118.906Z" fill="#00224A"/>
<path d="M72.46 133.63L73.3988 174.729L80.3538 177.269L72.46 179.367L77.069 183.683L72.46 184.898L70.5874 214.031L90.1526 221.986L65.2075 232.564L62.6025 155.249L72.46 133.63Z" fill="#00224A"/>
</g>
<path d="M112.171 110.811C112.294 110.692 120.669 111.41 120.669 111.41L121.864 101.686L112.171 103.051V110.811Z" fill="#FE8753"/>
<path d="M163.096 95.5974C163.071 95.6237 162.934 95.7554 162.701 95.9712C161.195 97.3649 155.62 102.287 149.223 104.986C144.705 106.892 139.894 110.924 135.319 114.672C134.624 115.24 133.934 115.802 133.257 116.347L133.235 116.367C133.001 116.554 132.768 116.74 132.536 116.924C130.513 118.523 128.565 119.962 126.735 121.017C120.036 124.878 114.393 126.261 114.393 126.261L116.254 104.991L116.364 103.743C116.364 103.743 120.178 100.761 124.344 97.9696C126.997 96.195 129.789 94.4964 131.836 93.6881C137.097 91.6107 158.312 71.7522 158.312 71.7522C158.312 71.7522 158.155 76.1207 156.878 81.7108C155.602 87.3009 163.096 95.5974 163.096 95.5974Z" fill="white"/>
<g opacity="0.8">
<path d="M122.758 105.763C128.365 102.331 134.223 99.2488 139.108 94.782C140.641 93.3702 142.09 91.8706 143.448 90.2909C143.608 90.1076 143.34 89.8381 143.18 90.0225C140.877 92.6783 138.354 95.1315 135.55 97.2534C133.082 99.1212 130.438 100.732 127.782 102.312C126.04 103.348 124.295 104.377 122.566 105.434C122.359 105.562 122.549 105.89 122.758 105.763Z" fill="#0296D2"/>
</g>
<g opacity="0.8">
<path d="M126.142 115.08L146.528 100.357C146.724 100.215 146.535 99.8851 146.336 100.029L125.951 114.753C125.755 114.894 125.944 115.224 126.142 115.08Z" fill="#0296D2"/>
</g>
<g opacity="0.8">
<path d="M143.378 89.9213L144.438 94.8581L144.944 97.2282C145.045 97.6992 145.056 98.4356 145.551 98.6878C145.767 98.8002 145.955 98.472 145.742 98.3606C145.453 98.2107 145.438 97.6992 145.378 97.4237L145.144 96.3369L144.679 94.1653L143.746 89.821C143.694 89.582 143.329 89.6833 143.38 89.9223L143.378 89.9213Z" fill="#0296D2"/>
</g>
<g opacity="0.8">
<path d="M139.91 94.1321L141.801 101.971C141.858 102.208 142.224 102.108 142.166 101.869L140.276 94.0308C140.219 93.7938 139.854 93.8941 139.91 94.1321Z" fill="#0296D2"/>
</g>
<g opacity="0.8">
<path d="M135.102 99.5823L136.349 106.071C136.396 106.311 136.761 106.21 136.715 105.97L135.467 99.481C135.421 99.241 135.055 99.3433 135.102 99.5823Z" fill="#34ABDB"/>
</g>
<g opacity="0.8">
<path d="M132.518 104.517C134.961 102.797 137.49 101.203 140.094 99.7412C140.307 99.6206 140.115 99.2925 139.902 99.413C137.298 100.876 134.769 102.47 132.326 104.189C132.123 104.329 132.318 104.658 132.518 104.517Z" fill="#0296D2"/>
</g>
<g opacity="0.8">
<path d="M127.268 105.389C127.566 106.519 127.795 107.665 127.955 108.823C128.034 109.397 128.094 109.974 128.137 110.552C128.163 110.909 128.071 111.42 128.36 111.681C128.383 111.705 128.413 111.722 128.445 111.73C128.477 111.739 128.511 111.739 128.544 111.73C128.593 111.721 128.64 111.699 128.679 111.666C128.717 111.634 128.747 111.592 128.764 111.544C128.781 111.515 128.79 111.482 128.79 111.449C128.79 111.415 128.781 111.382 128.764 111.353L128.725 111.301C128.578 111.11 128.248 111.301 128.397 111.493C128.463 111.419 128.51 111.331 128.535 111.235C128.56 111.14 128.562 111.039 128.542 110.943C128.535 110.812 128.525 110.681 128.516 110.552C128.497 110.29 128.474 110.03 128.448 109.77C128.399 109.297 128.34 108.827 128.269 108.358C128.112 107.324 127.9 106.3 127.633 105.289C127.571 105.052 127.205 105.152 127.268 105.39V105.389Z" fill="#0296D2"/>
</g>
<g opacity="0.8">
<path d="M124.163 109.368L124.77 113.553L125.062 115.546C125.129 116.014 125.082 116.735 125.466 117.074C125.65 117.233 125.92 116.965 125.735 116.805C125.507 116.603 125.521 116.119 125.482 115.843L125.35 114.947L125.074 113.053L124.521 109.266C124.487 109.025 124.117 109.128 124.156 109.368H124.163Z" fill="#0296D2"/>
</g>
<g opacity="0.8">
<path d="M125.288 111.548L127.335 110.474C127.552 110.36 127.36 110.032 127.143 110.146L125.095 111.219C124.88 111.333 125.071 111.661 125.288 111.548Z" fill="#0296D2"/>
</g>
<g opacity="0.8">
<path d="M143.727 90.1323C143.675 89.2636 143.551 88.4007 143.357 87.5525L143.078 87.7673C145.106 88.962 147.283 89.8817 149.553 90.502L149.42 90.2691C148.03 93.6239 147.146 97.1673 146.798 100.783C146.775 101.026 147.154 101.025 147.177 100.783C147.527 97.2013 148.406 93.6917 149.787 90.3694C149.799 90.3209 149.793 90.2693 149.768 90.2258C149.743 90.1822 149.702 90.1501 149.654 90.1364C147.416 89.5254 145.269 88.6194 143.27 87.4421C143.237 87.4239 143.2 87.4157 143.162 87.4185C143.125 87.4213 143.089 87.4349 143.06 87.4578C143.03 87.4806 143.008 87.5117 142.996 87.5471C142.984 87.5824 142.982 87.6206 142.991 87.6569C143.178 88.4718 143.297 89.3008 143.347 90.1354C143.362 90.3785 143.741 90.3805 143.727 90.1354V90.1323Z" fill="#0296D2"/>
</g>
<g opacity="0.5">
<path d="M163.095 95.5976C162.902 95.787 156.604 101.871 149.223 104.981C144.703 106.885 139.892 110.919 135.317 114.666C141.359 109.429 151.924 98.0791 154.329 93.193C157.034 97.0359 163.095 95.5976 163.095 95.5976Z" fill="#B5B5B5"/>
</g>
<path d="M113.611 102.185L119.233 99.3737C119.233 99.3737 122.482 99.3159 124.206 99.3737C125.931 99.4314 122.104 102.545 120.31 102.185C119.127 105.599 118.877 108.302 114.39 108.119C109.902 107.936 113.611 102.185 113.611 102.185Z" fill="#FEC0AF"/>
<path d="M113.611 102.185L116.412 100.767L119.22 99.3492H119.226H119.232C120.135 99.333 121.039 99.3229 121.942 99.3188C122.394 99.3188 122.846 99.3188 123.298 99.3188L123.975 99.33C124.089 99.33 124.199 99.33 124.318 99.3452C124.377 99.3517 124.436 99.3659 124.492 99.3877C124.553 99.4104 124.605 99.4514 124.642 99.5052C124.676 99.5618 124.689 99.6282 124.681 99.6936C124.673 99.7541 124.657 99.8131 124.632 99.8688C124.584 99.9747 124.523 100.074 124.45 100.166C124.308 100.345 124.15 100.511 123.979 100.662C123.638 100.965 123.27 101.236 122.88 101.472C122.493 101.711 122.082 101.909 121.654 102.065C121.439 102.143 121.217 102.201 120.992 102.239C120.763 102.279 120.529 102.279 120.3 102.239L120.357 102.206C120.125 102.874 119.917 103.552 119.69 104.223C119.462 104.895 119.213 105.566 118.848 106.181C118.667 106.49 118.448 106.775 118.196 107.03C117.942 107.283 117.65 107.495 117.33 107.659C116.691 107.986 115.973 108.115 115.266 108.152C114.911 108.169 114.555 108.166 114.2 108.142C113.843 108.12 113.492 108.036 113.163 107.894C112.831 107.75 112.555 107.501 112.377 107.185C112.214 106.864 112.134 106.506 112.147 106.146C112.155 105.789 112.206 105.435 112.299 105.09C112.388 104.745 112.501 104.407 112.636 104.077C112.906 103.42 113.232 102.787 113.611 102.185ZM113.611 102.185C113.24 102.789 112.921 103.424 112.66 104.082C112.529 104.412 112.42 104.751 112.334 105.095C112.246 105.437 112.2 105.789 112.196 106.142C112.186 106.493 112.265 106.842 112.426 107.154C112.597 107.461 112.865 107.702 113.188 107.84C113.511 107.978 113.855 108.059 114.205 108.079C114.558 108.1 114.911 108.1 115.263 108.079C115.964 108.04 116.672 107.909 117.296 107.587C117.608 107.426 117.892 107.217 118.14 106.968C118.386 106.718 118.599 106.437 118.775 106.133C119.133 105.526 119.376 104.858 119.602 104.189C119.827 103.519 120.03 102.839 120.262 102.163L120.276 102.12L120.32 102.13C120.537 102.168 120.759 102.168 120.976 102.13C121.196 102.093 121.413 102.037 121.623 101.962C122.046 101.811 122.453 101.616 122.837 101.382C123.223 101.152 123.587 100.887 123.924 100.591C124.093 100.444 124.248 100.283 124.388 100.108C124.456 100.022 124.514 99.9288 124.561 99.8293C124.586 99.7862 124.601 99.7376 124.604 99.6876C124.607 99.6376 124.598 99.5875 124.578 99.5417C124.545 99.5031 124.504 99.4721 124.458 99.4504C124.412 99.4288 124.362 99.4171 124.311 99.4161C124.21 99.4029 124.088 99.4049 123.977 99.3999L123.3 99.3867C122.848 99.3806 122.396 99.3776 121.946 99.3776C121.042 99.3776 120.139 99.384 119.236 99.3968H119.249L116.435 100.793L113.611 102.185Z" fill="#FE8753"/>
<path d="M98.0576 98.7123L115.284 100.868L113.848 112.486L98.0576 111.887V98.7123Z" fill="#063369"/>
<path d="M110.16 119.853C110.16 119.853 113.498 114.122 115.98 115.619C118.461 117.116 121.98 113.754 122.098 115.141C122.216 116.528 120.2 118.268 118.873 118.213C117.546 118.158 124.592 119.53 124.19 120.745C123.788 121.961 120.844 121.563 121.368 123.176C121.892 124.79 121.202 126.298 119.702 126.764C118.203 127.23 117.376 128.603 115.828 128.76C114.28 128.917 108.534 125.531 108.534 125.531L104.571 124.548L107.614 117.66L110.16 119.853Z" fill="#FEC0AF"/>
<mask id="mask10_2106_3792" style="mask-type:luminance" maskUnits="userSpaceOnUse" x="104" y="114" width="21" height="15">
<path d="M110.159 119.853C110.159 119.853 113.497 114.122 115.979 115.619C118.46 117.116 121.979 113.754 122.097 115.141C122.215 116.528 120.199 118.268 118.872 118.213C117.545 118.158 124.591 119.53 124.189 120.745C123.787 121.961 120.843 121.563 121.367 123.176C121.891 124.79 121.201 126.298 119.701 126.764C118.202 127.23 117.375 128.603 115.827 128.76C114.279 128.917 108.533 125.531 108.533 125.531L104.57 124.548L107.613 117.66L110.159 119.853Z" fill="white"/>
</mask>
<g mask="url(#mask10_2106_3792)">
<path d="M117.793 118.128C118.6 118.319 119.435 118.362 120.258 118.256C120.597 118.216 120.929 118.137 121.25 118.02C121.99 117.735 122.595 117.181 122.945 116.468C123.294 115.756 123.362 114.937 123.133 114.177L122.115 114.299C122.13 114.954 121.642 115.515 121.124 115.91C120.132 116.676 118.942 117.125 117.791 117.626C117.652 117.685 117.487 117.797 117.524 117.944C117.552 118.055 117.687 118.104 117.793 118.128Z" fill="#FE8753"/>
<path d="M124.74 118.306L121.699 119.164C122.12 119.265 122.371 119.735 122.371 120.169C122.371 120.602 122.179 121.013 121.978 121.398C121.87 121.6 121.755 121.829 121.788 122.061C121.844 122.449 122.279 122.659 122.666 122.714C123.759 122.872 124.934 122.285 125.418 121.296C125.902 120.308 125.619 118.97 124.74 118.306Z" fill="#FE8753"/>
<path d="M120.716 123.361C120.622 123.738 120.703 124.145 120.606 124.521C120.428 125.218 119.714 125.622 119.05 125.898C118.385 126.173 117.65 126.444 117.281 127.063C117.148 127.287 117.073 127.544 116.929 127.762C116.357 128.626 115.033 128.503 114.185 129.098C114.101 129.146 114.036 129.223 114.003 129.314C113.951 129.517 114.173 129.677 114.364 129.761C115.806 130.391 117.427 130.475 118.926 129.998C120.426 129.521 121.701 128.516 122.516 127.168L121.563 122.813C121.228 122.625 120.81 122.983 120.716 123.361Z" fill="#FE8753"/>
<path d="M101.63 124.628C101.541 125.282 101.469 125.985 101.77 126.572C102.01 127.041 102.457 127.368 102.918 127.623C105.075 128.817 107.739 128.766 109.932 129.893C110.757 125.046 111.269 120.152 111.465 115.239L102.792 118.13C102.314 120.279 101.927 122.445 101.63 124.628Z" fill="#FE8753"/>
</g>
<path d="M108.067 128.974L92.2782 129.743L72.0201 130.732L70.6473 100.806L70.5825 99.3726C70.5825 99.3726 63.6447 82.6358 72.6331 73.0033C73.7195 71.8449 74.9648 70.847 76.3317 70.0396C76.5087 69.9322 76.6888 69.8289 76.8729 69.7266C76.8729 69.7266 76.708 67.4912 79.4668 68.1283C82.2255 68.7654 86.7739 72.6012 89.2797 74.0384C91.7855 75.4757 92.1275 77.6028 92.1275 77.6028C92.1275 77.6028 96.9267 81.8639 99.1452 87.453C101.364 93.0421 108.067 128.974 108.067 128.974Z" fill="#14437C"/>
<mask id="mask11_2106_3792" style="mask-type:luminance" maskUnits="userSpaceOnUse" x="68" y="68" width="41" height="63">
<path d="M108.067 128.974L92.2782 129.743L72.0201 130.732L70.6473 100.806L70.5825 99.3726C70.5825 99.3726 63.6447 82.6358 72.6331 73.0033C73.7195 71.8449 74.9648 70.847 76.3317 70.0396C76.5087 69.9322 76.6888 69.8289 76.8729 69.7266C76.8729 69.7266 76.708 67.4912 79.4668 68.1283C82.2255 68.7654 86.7739 72.6012 89.2797 74.0384C91.7855 75.4757 92.1275 77.6028 92.1275 77.6028C92.1275 77.6028 96.9267 81.8639 99.1452 87.453C101.364 93.0421 108.067 128.974 108.067 128.974Z" fill="white"/>
</mask>
<g mask="url(#mask11_2106_3792)">
<path d="M94.117 77.5937L85.1377 76.0562C88.0027 77.3767 91.0084 78.3669 94.0968 79.0077L94.117 77.5937Z" fill="#042D5F"/>
<path d="M113.868 126.544C113.696 125.193 112.351 124.355 111.129 123.75C107.827 122.105 104.322 120.631 101.746 117.988C100.206 116.408 99.0718 114.481 98.05 112.524C95.0155 106.708 92.8469 100.48 91.6129 94.0357C91.1537 91.6342 90.8218 89.1951 90.0591 86.8726C89.3165 84.6149 88.1804 82.5101 87.0322 80.4307C84.4101 75.6823 78.6923 72.5302 74.4757 69.1199L72.6163 70.1793C71.0362 70.9623 70.5283 73.0569 70.8966 74.7829C71.2648 76.5088 72.2805 78.0119 73.0524 79.5991C75.2102 84.0365 75.4439 89.1202 76.1267 94.0073C77.6816 105.142 81.7312 115.822 83.1394 126.977C83.2406 127.756 83.3316 128.564 83.7221 129.246C84.6589 130.886 86.8582 131.191 88.7399 131.266C95.6197 131.554 102.511 131.176 109.319 130.139C110.381 129.975 111.471 129.782 112.385 129.214C113.298 128.646 114.004 127.612 113.868 126.544Z" fill="#042D5F"/>
</g>
<path d="M92.4269 124.744C92.4047 125.565 92.3814 126.365 92.3571 127.134C92.3328 127.904 92.3146 128.612 92.2924 129.3C92.2924 129.451 92.2832 129.597 92.2782 129.743C92.2539 130.435 92.2327 131.087 92.2135 131.688C92.1204 134.359 92.0506 136.06 92.0506 136.06L66.1182 134.68L67.0195 130.857L67.584 128.454L68.2831 125.492L68.8385 123.132L70.5846 115.719C70.5846 115.719 70.5006 109.089 70.6493 100.806C70.8263 91.1559 71.319 79.2647 72.6352 73.0031C73.7215 71.8448 74.9668 70.8469 76.3337 70.0394C79.1956 72.4876 85.048 77.6451 86.7728 80.2695C89.0865 83.7832 90.7091 95.1669 92.0506 99.3755C92.867 101.934 92.6899 114.938 92.4269 124.744Z" fill="#FDC535"/>
<path d="M92.2961 129.3C92.2961 129.451 92.287 129.597 92.282 129.743C92.2577 130.436 92.2364 131.087 92.2172 131.689C83.8354 131.03 75.4388 130.752 67.0273 130.857L67.5918 128.455C75.8334 128.369 84.0681 128.651 92.2961 129.3Z" fill="#CC960D"/>
<path d="M92.4262 124.744C92.4039 125.566 92.3806 126.365 92.3564 127.135C84.3307 126.586 76.305 126.038 68.2793 125.492L68.8347 123.132C76.6985 123.671 84.5623 124.208 92.4262 124.744Z" fill="#CC960D"/>
<path d="M70.5833 99.3728C70.5833 99.3728 73.9814 115.082 84.0068 119.712C94.0321 124.343 107.679 126.912 107.679 126.912L110.779 115.876L90.3144 106.362C90.3144 106.362 83.6486 70.9878 72.0117 73.7094C62.9272 76.7531 70.5833 99.3728 70.5833 99.3728Z" fill="#14437C"/>
<mask id="mask12_2106_3792" style="mask-type:luminance" maskUnits="userSpaceOnUse" x="67" y="72" width="44" height="54">
<path d="M70.6272 98.1342C70.6272 98.1342 74.0254 113.843 84.0507 118.474C94.0761 123.105 107.723 125.673 107.723 125.673L110.823 114.637L90.3583 105.123C90.3583 105.123 83.6926 69.7493 72.0557 72.4709C62.9711 75.5146 70.6272 98.1342 70.6272 98.1342Z" fill="white"/>
</mask>
<g mask="url(#mask12_2106_3792)">
<path d="M96.4244 97.3939C95.0081 96.1956 93.5524 94.9761 92.649 93.3576C92.0329 92.2535 91.7061 91.0168 91.3399 89.8064C88.8189 81.4795 83.8244 73.5335 76.1865 69.3827L78.1086 73.7654C83.324 82.7843 86.5754 92.8055 87.6494 103.171C87.6869 103.533 87.7192 103.908 87.5989 104.25C87.4714 104.612 87.1942 104.892 86.915 105.162L82.1765 109.784C84.5878 109.205 86.9566 108.461 89.266 107.556C89.2786 109.648 89.4538 111.735 89.7901 113.799L91.3429 110.327C91.4704 110.044 91.6181 109.737 91.8993 109.602C92.1806 109.467 92.5164 109.547 92.8189 109.63L115.834 115.91C109.728 109.367 103.247 103.185 96.4244 97.3939Z" fill="#042D5F"/>
<path d="M73.6572 109.628L77.4742 118.853C78.159 119.745 79.1332 120.473 80.2481 120.606C81.3629 120.739 82.5981 120.137 82.9643 119.074C83.287 118.136 82.9026 117.105 82.4272 116.237C81.5091 114.582 80.2541 113.139 78.7433 112C77.2326 110.862 75.4998 110.054 73.6572 109.628Z" fill="#042D5F"/>
</g>
<path d="M144.032 211.795H118.76L130.241 163.107C130.302 162.847 130.45 162.615 130.659 162.449C130.869 162.283 131.128 162.193 131.396 162.193C131.663 162.193 131.922 162.283 132.132 162.449C132.341 162.615 132.489 162.847 132.55 163.107L144.032 211.795Z" fill="#14437C"/>
<path d="M131.394 162.194V211.795H118.76L130.241 163.107C130.297 162.845 130.443 162.61 130.654 162.443C130.864 162.276 131.126 162.188 131.394 162.194Z" fill="#00234E"/>
<path d="M127.397 175.172L126.407 179.367H136.385L135.397 175.172H127.397Z" fill="white"/>
<path d="M125.102 184.898L124.112 189.092H138.677L137.689 184.898H125.102Z" fill="white"/>
<path d="M217.009 45.6011C216.935 45.6416 216.909 45.7339 216.949 45.8071C216.99 45.8804 217.082 45.9069 217.155 45.8664L217.009 45.6011ZM231.067 45.6484C229.745 43.7067 225.106 41.1195 217.009 45.6011L217.155 45.8664C225.163 41.4346 229.609 44.0468 230.816 45.819L231.067 45.6484Z" fill="#062E5C"/>
<path d="M211.84 40.7996C211.8 40.8733 211.828 40.9653 211.902 41.0051C211.975 41.0449 212.067 41.0174 212.107 40.9437L211.84 40.7996ZM226.194 36.6798C224.539 36.0052 221.841 35.4012 219.113 35.7799C216.377 36.1596 213.607 37.5285 211.84 40.7996L212.107 40.9437C213.82 37.7729 216.496 36.4493 219.154 36.0803C221.819 35.7103 224.463 36.3015 226.079 36.9605L226.194 36.6798Z" fill="#062E5C"/>
<path d="M209.811 40.1541C209.778 40.2311 209.814 40.3201 209.891 40.3529C209.968 40.3856 210.057 40.3497 210.09 40.2727L209.811 40.1541ZM213.11 36.3859C212.351 36.835 210.637 38.2105 209.811 40.1541L210.09 40.2727C210.882 38.4078 212.54 37.0755 213.265 36.6468L213.11 36.3859Z" fill="#062E5C"/>
<path d="M208.623 39.9106C208.539 39.9172 208.477 39.9902 208.484 40.0737C208.49 40.1572 208.563 40.2194 208.647 40.2128L208.623 39.9106ZM220.087 48.5814C218.815 46.8496 216.771 44.6247 214.643 42.8632C213.579 41.9823 212.49 41.214 211.464 40.6811C210.44 40.1501 209.461 39.8438 208.623 39.9106L208.647 40.2128C209.401 40.1528 210.319 40.4289 211.324 40.9503C212.325 41.4698 213.396 42.224 214.45 43.0967C216.558 44.8423 218.586 47.049 219.843 48.7609L220.087 48.5814Z" fill="#062E5C"/>
</g>
</svg>
