<svg width="22" height="22" viewBox="0 0 22 22" fill="none" xmlns="http://www.w3.org/2000/svg">
<circle cx="11" cy="11" r="11" fill="#FFC928"/>
<path d="M15.6126 7.70687C15.5487 7.64243 15.4726 7.59129 15.3888 7.55638C15.3051 7.52148 15.2152 7.50351 15.1244 7.50351C15.0337 7.50351 14.9438 7.52148 14.8601 7.55638C14.7763 7.59129 14.7002 7.64243 14.6363 7.70687L9.51445 12.8356L7.36257 10.6769C7.29621 10.6128 7.21788 10.5624 7.13204 10.5285C7.0462 10.4947 6.95454 10.4781 6.86229 10.4797C6.77004 10.4813 6.67901 10.5011 6.5944 10.5378C6.50978 10.5746 6.43324 10.6277 6.36913 10.6941C6.30503 10.7604 6.25463 10.8388 6.2208 10.9246C6.18697 11.0104 6.17038 11.1021 6.17198 11.1943C6.17358 11.2866 6.19333 11.3776 6.2301 11.4622C6.26688 11.5469 6.31996 11.6234 6.38632 11.6875L9.02632 14.3275C9.09023 14.3919 9.16627 14.4431 9.25005 14.478C9.33383 14.5129 9.42369 14.5309 9.51445 14.5309C9.60521 14.5309 9.69507 14.5129 9.77884 14.478C9.86262 14.4431 9.93866 14.3919 10.0026 14.3275L15.6126 8.7175C15.6824 8.65312 15.738 8.57498 15.7761 8.48801C15.8142 8.40104 15.8339 8.30713 15.8339 8.21218C15.8339 8.11724 15.8142 8.02332 15.7761 7.93635C15.738 7.84939 15.6824 7.77125 15.6126 7.70687Z" fill="#204D84"/>
</svg>
