<svg width="90" height="90" viewBox="0 0 90 90" fill="none" xmlns="http://www.w3.org/2000/svg">
<rect width="90" height="90" rx="20" fill="#1EA6F2"/>
<path d="M64.5 22.5H42C41.337 22.5 40.7011 22.7634 40.2322 23.2322C39.7634 23.7011 39.5 24.337 39.5 25V30H64.5V22.5ZM34.1313 51.4862C35.2963 50.955 38.1438 51.4862 38.1438 51.4862L46.4263 53.3438C46.4263 53.3438 48.4975 54.0075 50.4387 54.0075C52.38 54.0075 51.2188 56.665 49.92 57.5925C48.6225 58.52 47.6775 58.47 47.6775 58.47L40.99 58.3887C40.99 58.3887 46.815 59.4512 49.015 59.5837C50.1287 59.6512 52.04 58.8662 54.1775 57.99C56.2588 57.135 58.5525 56.1938 60.5325 55.8662C64.545 55.2038 65.1925 58.7875 63.8975 60.115C62.6038 61.4425 52.25 66.4863 50.4387 67.15C49.0187 67.67 47.3025 67.4975 45.3663 67.3025C44.83 67.2487 44.2763 67.1925 43.7088 67.15C41.4463 66.9788 39.7188 66.4287 38.0087 65.885C36.1737 65.3025 34.36 64.7262 31.9312 64.6275C31.1163 64.595 29.2087 64.6962 28.25 64.7525V53.675C29.9075 53.085 33.2638 51.8812 34.1313 51.4862ZM20.75 51.25C20.4185 51.25 20.1005 51.3817 19.8661 51.6161C19.6317 51.8505 19.5 52.1685 19.5 52.5V66.245C19.5 66.5765 19.6317 66.8945 19.8661 67.1289C20.1005 67.3633 20.4185 67.495 20.75 67.495H24.5C24.8315 67.495 25.1495 67.3633 25.3839 67.1289C25.6183 66.8945 25.75 66.5765 25.75 66.245V52.5012C25.75 52.1697 25.6183 51.8518 25.3839 51.6174C25.1495 51.3829 24.8315 51.2512 24.5 51.2512L20.75 51.25ZM40.75 32.5C40.4185 32.5 40.1005 32.6317 39.8661 32.8661C39.6317 33.1005 39.5 33.4185 39.5 33.75C39.5 34.0815 39.6317 34.3995 39.8661 34.6339C40.1005 34.8683 40.4185 35 40.75 35H48.25C48.5815 35 48.8995 34.8683 49.1339 34.6339C49.3683 34.3995 49.5 34.0815 49.5 33.75C49.5 33.4185 49.3683 33.1005 49.1339 32.8661C48.8995 32.6317 48.5815 32.5 48.25 32.5H40.75ZM44.5 37.715C44.8315 37.715 45.1495 37.8467 45.3839 38.0811C45.6183 38.3155 45.75 38.6335 45.75 38.965V41.465C45.75 41.7965 45.6183 42.1145 45.3839 42.3489C45.1495 42.5833 44.8315 42.715 44.5 42.715C44.1685 42.715 43.8505 42.5833 43.6161 42.3489C43.3817 42.1145 43.25 41.7965 43.25 41.465V38.965C43.25 38.6335 43.3817 38.3155 43.6161 38.0811C43.8505 37.8467 44.1685 37.715 44.5 37.715ZM49.6513 37.8662C49.4155 37.6386 49.0997 37.5126 48.772 37.5154C48.4443 37.5183 48.1307 37.6497 47.899 37.8815C47.6672 38.1132 47.5358 38.4268 47.5329 38.7545C47.5301 39.0822 47.6561 39.398 47.8838 39.6338L49.6513 41.4013C49.7673 41.5174 49.9051 41.6095 50.0568 41.6724C50.2084 41.7353 50.371 41.7677 50.5352 41.7678C50.6994 41.7678 50.862 41.7355 51.0137 41.6728C51.1654 41.61 51.3032 41.5179 51.4194 41.4019C51.5355 41.2858 51.6277 41.148 51.6905 40.9964C51.7534 40.8447 51.7858 40.6821 51.7859 40.5179C51.7859 40.3538 51.7537 40.1912 51.6909 40.0395C51.6281 39.8877 51.5361 39.7499 51.42 39.6338L49.6513 37.8662ZM37.3662 41.6162C37.1319 41.3818 37.0003 41.064 37.0003 40.7325C37.0003 40.401 37.1319 40.0832 37.3662 39.8487L39.1338 38.08C39.3683 37.8456 39.6864 37.714 40.0179 37.7141C40.3495 37.7142 40.6675 37.8461 40.9019 38.0806C41.1363 38.3152 41.2679 38.6332 41.2678 38.9648C41.2676 39.2964 41.1358 39.6144 40.9013 39.8487L39.1338 41.6162C38.8993 41.8506 38.5815 41.9822 38.25 41.9822C37.9185 41.9822 37.6007 41.8506 37.3662 41.6162ZM45.75 45.215C45.75 44.8835 45.6183 44.5655 45.3839 44.3311C45.1495 44.0967 44.8315 43.965 44.5 43.965C44.1685 43.965 43.8505 44.0967 43.6161 44.3311C43.3817 44.5655 43.25 44.8835 43.25 45.215V47.715C43.25 48.0465 43.3817 48.3645 43.6161 48.5989C43.8505 48.8333 44.1685 48.965 44.5 48.965C44.8315 48.965 45.1495 48.8333 45.3839 48.5989C45.6183 48.3645 45.75 48.0465 45.75 47.715V45.215ZM52.2588 42.2412C52.4932 42.0069 52.811 41.8753 53.1425 41.8753C53.474 41.8753 53.7918 42.0069 54.0262 42.2412L55.7938 44.0088C56.0214 44.2445 56.1474 44.5603 56.1446 44.888C56.1417 45.2157 56.0103 45.5293 55.7785 45.761C55.5468 45.9928 55.2332 46.1242 54.9055 46.1271C54.5778 46.1299 54.262 46.0039 54.0262 45.7763L52.2588 44.0088C52.0244 43.7743 51.8928 43.4565 51.8928 43.125C51.8928 42.7935 52.0244 42.4757 52.2588 42.2412ZM32.9912 43.9112C32.7636 44.147 32.6376 44.4628 32.6404 44.7905C32.6433 45.1182 32.7747 45.4318 33.0065 45.6635C33.2382 45.8953 33.5518 46.0267 33.8795 46.0296C34.2072 46.0324 34.523 45.9064 34.7588 45.6787L36.5263 43.9112C36.6424 43.7952 36.7345 43.6574 36.7974 43.5057C36.8603 43.3541 36.8927 43.1915 36.8928 43.0273C36.8928 42.8631 36.8605 42.7005 36.7978 42.5488C36.735 42.3971 36.6429 42.2593 36.5269 42.1431C36.4108 42.027 36.273 41.9348 36.1214 41.872C35.9697 41.8091 35.8071 41.7767 35.6429 41.7766C35.4788 41.7766 35.3162 41.8088 35.1645 41.8716C35.0127 41.9344 34.8749 42.0264 34.7588 42.1425L32.9912 43.9112Z" fill="white"/>
</svg>
