<svg width="80" height="80" viewBox="0 0 80 80" fill="none" xmlns="http://www.w3.org/2000/svg">
<circle cx="39.9999" cy="39.9999" r="34.0741" fill="#CBEDFF"/>
<path d="M32 28C30.2227 28 20 38.7246 20 46C20 49.1826 21.2643 52.2348 23.5147 54.4853C25.7652 56.7357 28.8174 58 32 58C35.1826 58 38.2348 56.7357 40.4853 54.4853C42.7357 52.2348 44 49.1826 44 46C44 38.7246 33.7773 28 32 28ZM37 46C37.2652 46 37.5196 46.1054 37.7071 46.2929C37.8946 46.4804 38 46.7348 38 47C37.9354 48.3052 37.3879 49.5398 36.4639 50.4639C35.5398 51.3879 34.3052 51.9354 33 52C32.7348 52 32.4804 51.8946 32.2929 51.7071C32.1054 51.5196 32 51.2652 32 51C32 50.7348 32.1054 50.4804 32.2929 50.2929C32.4804 50.1054 32.7348 50 33 50C33.7731 49.9328 34.4977 49.5951 35.0464 49.0464C35.5951 48.4977 35.9328 47.7731 36 47C36 46.7348 36.1054 46.4804 36.2929 46.2929C36.4804 46.1054 36.7348 46 37 46Z" fill="#204D84"/>
<path d="M52 22C50.1543 22 44 28.6641 44 34C44 36.1217 44.8429 38.1566 46.3431 39.6569C47.8434 41.1571 49.8783 42 52 42C54.1217 42 56.1566 41.1571 57.6569 39.6569C59.1571 38.1566 60 36.1217 60 34C60 28.6641 53.8457 22 52 22ZM53 38C52.7348 38 52.4804 37.8946 52.2929 37.7071C52.1054 37.5196 52 37.2652 52 37C52 36.7348 52.1054 36.4804 52.2929 36.2929C52.4804 36.1054 52.7348 36 53 36C53.2531 35.9655 53.4879 35.8491 53.6685 35.6685C53.8491 35.4879 53.9655 35.2531 54 35C54 34.7348 54.1054 34.4804 54.2929 34.2929C54.4804 34.1054 54.7348 34 55 34C55.2652 34 55.5196 34.1054 55.7071 34.2929C55.8946 34.4804 56 34.7348 56 35C55.9615 35.7832 55.6331 36.5241 55.0786 37.0786C54.5241 37.6331 53.7832 37.9615 53 38Z" fill="#204D84"/>
<circle cx="40" cy="40" r="39.5" stroke="#CBEDFF"/>
</svg>
