<svg width="80" height="80" viewBox="0 0 80 80" fill="none" xmlns="http://www.w3.org/2000/svg">
<circle cx="39.9999" cy="39.9999" r="34.0741" fill="#CBEDFF"/>
<path d="M24 37.8107V57.9999C23.9999 58.1312 24.0257 58.2613 24.076 58.3827C24.1262 58.504 24.1998 58.6143 24.2927 58.7072C24.3856 58.8001 24.4959 58.8737 24.6172 58.9239C24.7386 58.9742 24.8687 59 25 58.9999H33C33.1646 58.9999 33.3267 58.9592 33.4718 58.8815C33.617 58.8039 33.7407 58.6916 33.8321 58.5546L37.8321 52.5546C37.9298 52.4079 37.9871 52.238 37.9981 52.062C38.009 51.8861 37.9733 51.7104 37.8946 51.5527L36.2168 48.1971L41.1543 43.2596L40.0303 47.7577C39.9882 47.9251 39.9903 48.1006 40.0363 48.267C40.0824 48.4334 40.1708 48.585 40.2929 48.7069L43.8554 52.2704L42.0508 57.6835C42.0009 57.8339 41.9875 57.9939 42.0115 58.1505C42.0355 58.3071 42.0964 58.4558 42.189 58.5843C42.2817 58.7128 42.4035 58.8174 42.5445 58.8897C42.6855 58.9619 42.8416 58.9997 43 58.9999H55C55.1313 59 55.2614 58.9742 55.3828 58.9239C55.5041 58.8737 55.6144 58.8001 55.7073 58.7072C55.8002 58.6143 55.8738 58.504 55.924 58.3827C55.9743 58.2613 56.0001 58.1312 56 57.9999V37.8104L40 29.3896L24 37.8107Z" fill="#204D84"/>
<path d="M59.465 31.1152L40.466 21.1152C40.3224 21.0392 40.1625 20.9995 40.0002 20.9995C39.8378 20.9995 39.6779 21.0392 39.5343 21.1152L20.5344 31.1152C20.3732 31.2001 20.2383 31.3274 20.1441 31.4833C20.0499 31.6392 20.0001 31.8178 20 32V36C19.9999 36.1723 20.0443 36.3416 20.1289 36.4917C20.2135 36.6418 20.3355 36.7674 20.483 36.8564C20.6304 36.9455 20.7984 36.9949 20.9706 36.9999C21.1428 37.0049 21.3134 36.9653 21.4658 36.885L40 27.1297L58.535 36.8847C58.6782 36.9607 58.8379 37.0002 59 36.9997C59.1314 37 59.2615 36.9743 59.383 36.9241C59.5044 36.874 59.6148 36.8003 59.7077 36.7074C59.8006 36.6145 59.8742 36.5042 59.9244 36.3827C59.9746 36.2613 60.0003 36.1311 60 35.9997V31.9997C60.0001 31.8175 59.9503 31.6387 59.856 31.4828C59.7616 31.3269 59.6264 31.1998 59.465 31.1152Z" fill="#204D84"/>
<circle cx="40" cy="40" r="39.5" stroke="#CBEDFF"/>
</svg>
