<svg width="80" height="80" viewBox="0 0 80 80" fill="none" xmlns="http://www.w3.org/2000/svg">
<circle cx="39.9999" cy="39.9999" r="34.0741" fill="#CBEDFF"/>
<path d="M23.5469 20.002C23.2023 20.0002 22.863 20.04 22.5352 20.1153C20.5681 20.5669 19 22.3337 19 24.502V55.4981C19 58.3897 21.7863 60.5654 24.5918 59.8633C24.6768 59.842 24.7598 59.8132 24.8398 59.7774L28.8184 58.0001H38.5V38.0001H27V55.5274L23.8262 56.9454C22.8607 57.1615 22 56.4961 22 55.4981V24.502C22 23.5062 22.8614 22.8405 23.8262 23.0547L27 24.4727V35.0001H38.5V22.0001H28.8184L24.8398 20.2208C24.7598 20.1849 24.6768 20.1562 24.5918 20.1348C24.2411 20.0473 23.8914 20.0038 23.5469 20.002ZM56.4531 20.004C56.1086 20.0062 55.7589 20.049 55.4082 20.1368C55.3232 20.1575 55.2402 20.1856 55.1602 20.2208L51.1816 22.0001H41.5V35.0001H53V24.4727L56.1758 23.0547C57.1404 22.8401 58 23.5048 58 24.502V55.4981C58 56.4934 57.1371 57.1593 56.1738 56.9454L53 55.5274V38.0001H41.5V58.0001H51.1816L55.1602 59.7794C55.2402 59.8152 55.3232 59.8439 55.4082 59.8653C58.2132 60.5662 61 58.3896 61 55.4981V24.502C61 22.3334 59.4322 20.5665 57.4648 20.1153C57.137 20.0401 56.7976 20.0017 56.4531 20.004Z" fill="#204D84"/>
<circle cx="40" cy="40" r="39.5" stroke="#CBEDFF"/>
</svg>
