<svg width="90" height="90" viewBox="0 0 90 90" fill="none" xmlns="http://www.w3.org/2000/svg">
<rect width="90" height="90" rx="20" fill="#F88B65"/>
<path d="M51.75 22.5V27.4219C49.146 28.3609 47.25 30.8404 47.25 33.75C47.25 37.4513 50.2987 40.5 54 40.5C57.7013 40.5 60.75 37.4513 60.75 33.75C60.75 30.8404 58.854 28.3609 56.25 27.4219V22.5H51.75ZM24.75 24.9741L24.7544 67.5H42.75V47.25H49.4956L24.75 24.9741ZM41.625 31.5C41.3266 31.5 41.0405 31.6185 40.8295 31.8295C40.6185 32.0405 40.5 32.3266 40.5 32.625C40.5 32.9234 40.6185 33.2095 40.8295 33.4205C41.0405 33.6315 41.3266 33.75 41.625 33.75C41.9234 33.75 42.2095 33.6315 42.4205 33.4205C42.6315 33.2095 42.75 32.9234 42.75 32.625C42.75 32.3266 42.6315 32.0405 42.4205 31.8295C42.2095 31.6185 41.9234 31.5 41.625 31.5ZM54 31.5C55.2693 31.5 56.25 32.4807 56.25 33.75C56.25 35.0193 55.2693 36 54 36C52.7307 36 51.75 35.0193 51.75 33.75C51.75 32.4807 52.7307 31.5 54 31.5ZM66.375 31.5C66.0766 31.5 65.7905 31.6185 65.5795 31.8295C65.3685 32.0405 65.25 32.3266 65.25 32.625C65.25 32.9234 65.3685 33.2095 65.5795 33.4205C65.7905 33.6315 66.0766 33.75 66.375 33.75C66.6734 33.75 66.9595 33.6315 67.1705 33.4205C67.3815 33.2095 67.5 32.9234 67.5 32.625C67.5 32.3266 67.3815 32.0405 67.1705 31.8295C66.9595 31.6185 66.6734 31.5 66.375 31.5ZM64.125 38.25C63.8266 38.25 63.5405 38.3685 63.3295 38.5795C63.1185 38.7905 63 39.0766 63 39.375C63 39.6734 63.1185 39.9595 63.3295 40.1705C63.5405 40.3815 63.8266 40.5 64.125 40.5C64.4234 40.5 64.7095 40.3815 64.9205 40.1705C65.1315 39.9595 65.25 39.6734 65.25 39.375C65.25 39.0766 65.1315 38.7905 64.9205 38.5795C64.7095 38.3685 64.4234 38.25 64.125 38.25ZM47.25 58.5C47.25 67.5 56.25 67.5 56.25 67.5C56.25 67.5 56.25 58.5 47.25 58.5ZM56.25 67.5C56.25 67.5 65.25 67.5 65.25 58.5C56.25 58.5 56.25 67.5 56.25 67.5Z" fill="white"/>
</svg>
