<svg width="80" height="80" viewBox="0 0 80 80" fill="none" xmlns="http://www.w3.org/2000/svg">
<circle cx="39.9999" cy="39.9999" r="34.0741" fill="#CBEDFF"/>
<path d="M45 20C41.1524 20 38 23.1524 38 27H42C42 25.2476 43.2476 24 45 24C46.7524 24 48 25.2476 48 27C48 28.7524 46.7524 30 45 30H20V34H45C48.8476 34 52 30.8476 52 27C52 23.1524 48.8476 20 45 20ZM20 38V42H52C54.3804 42 56 43.6196 56 46C56 48.3804 54.3804 50 52 50C49.6196 50 48 48.3804 48 46H44C44 50.4196 47.5804 54 52 54C56.4196 54 60 50.4196 60 46C60 41.5804 56.4196 38 52 38H20ZM20 46V50H33C34.7524 50 36 51.2476 36 53C36 54.7524 34.7524 56 33 56C31.2476 56 30 54.7524 30 53H26C26 56.8476 29.1524 60 33 60C36.8476 60 40 56.8476 40 53C40 49.1524 36.8476 46 33 46H20Z" fill="#204D84"/>
<circle cx="40" cy="40" r="39.5" stroke="#CBEDFF"/>
</svg>
