<svg width="80" height="80" viewBox="0 0 80 80" fill="none" xmlns="http://www.w3.org/2000/svg">
<circle cx="39.9999" cy="39.9999" r="34.0741" fill="#CBEDFF"/>
<path d="M58 24.9998H30.1825C29.9887 23.8929 29.3877 22.8985 28.4977 22.2123C27.6078 21.526 26.4933 21.1976 25.3734 21.2917C24.2536 21.3857 23.2094 21.8953 22.4463 22.7204C21.6833 23.5454 21.2565 24.626 21.25 25.7498V54.2498C21.25 55.4433 21.7241 56.5879 22.568 57.4318C23.4119 58.2757 24.5565 58.7498 25.75 58.7498H58C58.1989 58.7498 58.3897 58.6708 58.5303 58.5302C58.671 58.3895 58.75 58.1987 58.75 57.9998V25.7498C58.75 25.5509 58.671 25.3601 58.5303 25.2195C58.3897 25.0788 58.1989 24.9998 58 24.9998ZM49.6975 41.0198C49.4875 41.5973 48.9475 41.4998 48.25 41.4998V49.7498C48.25 49.9487 48.171 50.1395 48.0303 50.2802C47.8897 50.4208 47.6989 50.4998 47.5 50.4998H35.5C35.3011 50.4998 35.1103 50.4208 34.9697 50.2802C34.829 50.1395 34.75 49.9487 34.75 49.7498V41.4998H34C33.8488 41.4994 33.7012 41.4533 33.5767 41.3676C33.4521 41.2818 33.3564 41.1604 33.302 41.0193C33.2477 40.8782 33.2373 40.724 33.2722 40.5768C33.3071 40.4297 33.3856 40.2965 33.4975 40.1948L40.9975 33.4448C41.1353 33.3204 41.3144 33.2516 41.5 33.2516C41.6856 33.2516 41.8647 33.3204 42.0025 33.4448L49.5025 40.1948C49.6144 40.2966 49.6929 40.4299 49.7277 40.5771C49.7625 40.7244 49.752 40.8787 49.6975 41.0198ZM49.75 52.7498V54.2498C49.75 54.4487 49.671 54.6395 49.5303 54.7802C49.3897 54.9208 49.1989 54.9998 49 54.9998C48.8011 54.9998 48.6103 54.9208 48.4697 54.7802C48.329 54.6395 48.25 54.4487 48.25 54.2498H34.75C34.75 54.4487 34.671 54.6395 34.5303 54.7802C34.3897 54.9208 34.1989 54.9998 34 54.9998C33.8011 54.9998 33.6103 54.9208 33.4697 54.7802C33.329 54.6395 33.25 54.4487 33.25 54.2498V52.7498C33.25 52.5509 33.329 52.3601 33.4697 52.2195C33.6103 52.0788 33.8011 51.9998 34 51.9998C34.1989 51.9998 34.3897 52.0788 34.5303 52.2195C34.671 52.3601 34.75 52.5509 34.75 52.7498H48.25C48.25 52.5509 48.329 52.3601 48.4697 52.2195C48.6103 52.0788 48.8011 51.9998 49 51.9998C49.1989 51.9998 49.3897 52.0788 49.5303 52.2195C49.671 52.3601 49.75 52.5509 49.75 52.7498ZM32.5 32.4998H37C37.1989 32.4998 37.3897 32.5788 37.5303 32.7195C37.671 32.8601 37.75 33.0509 37.75 33.2498C37.75 33.4487 37.671 33.6395 37.5303 33.7802C37.3897 33.9208 37.1989 33.9998 37 33.9998H32.5C32.3011 33.9998 32.1103 33.9208 31.9697 33.7802C31.829 33.6395 31.75 33.4487 31.75 33.2498C31.75 33.0509 31.829 32.8601 31.9697 32.7195C32.1103 32.5788 32.3011 32.4998 32.5 32.4998ZM32.5 28.7498H37C37.1989 28.7498 37.3897 28.8288 37.5303 28.9695C37.671 29.1101 37.75 29.3009 37.75 29.4998C37.75 29.6987 37.671 29.8895 37.5303 30.0302C37.3897 30.1708 37.1989 30.2498 37 30.2498H32.5C32.3011 30.2498 32.1103 30.1708 31.9697 30.0302C31.829 29.8895 31.75 29.6987 31.75 29.4998C31.75 29.3009 31.829 29.1101 31.9697 28.9695C32.1103 28.8288 32.3011 28.7498 32.5 28.7498ZM53.5 50.4998H52C51.8011 50.4998 51.6103 50.4208 51.4697 50.2802C51.329 50.1395 51.25 49.9487 51.25 49.7498C51.25 49.5509 51.329 49.3601 51.4697 49.2195C51.6103 49.0788 51.8011 48.9998 52 48.9998V34.7498C51.8011 34.7498 51.6103 34.6708 51.4697 34.5302C51.329 34.3895 51.25 34.1987 51.25 33.9998C51.25 33.8009 51.329 33.6101 51.4697 33.4695C51.6103 33.3288 51.8011 33.2498 52 33.2498H53.5C53.6989 33.2498 53.8897 33.3288 54.0303 33.4695C54.171 33.6101 54.25 33.8009 54.25 33.9998C54.25 34.1987 54.171 34.3895 54.0303 34.5302C53.8897 34.6708 53.6989 34.7498 53.5 34.7498V48.9998C53.6989 48.9998 53.8897 49.0788 54.0303 49.2195C54.171 49.3601 54.25 49.5509 54.25 49.7498C54.25 49.9487 54.171 50.1395 54.0303 50.2802C53.8897 50.4208 53.6989 50.4998 53.5 50.4998ZM22.75 25.7498C22.75 24.9542 23.0661 24.1911 23.6287 23.6285C24.1913 23.0659 24.9544 22.7498 25.75 22.7498C26.5456 22.7498 27.3087 23.0659 27.8713 23.6285C28.4339 24.1911 28.75 24.9542 28.75 25.7498V50.8898C27.9493 50.1757 26.9198 49.7712 25.8472 49.7492C24.7745 49.7272 23.7293 50.0892 22.9 50.7698C22.6825 50.9273 22.75 53.7248 22.75 25.7498Z" fill="#204D84"/>
<path d="M46.75 41.5H36.25V49H46.75V41.5Z" fill="#204D84"/>
<path d="M35.957 39.9997H47.042L41.4995 35.0122L35.957 39.9997Z" fill="#204D84"/>
<circle cx="40" cy="40" r="39.5" stroke="#CBEDFF"/>
</svg>
