<svg width="81" height="80" viewBox="0 0 81 80" fill="none" xmlns="http://www.w3.org/2000/svg">
<circle cx="40.4999" cy="39.9999" r="34.0741" fill="#CBEDFF"/>
<circle cx="40.5" cy="40" r="39.5" stroke="#CBEDFF"/>
<path d="M59 41.5H53C52.6022 41.5 52.2206 41.342 51.9393 41.0607C51.658 40.7794 51.5 40.3978 51.5 40V37H60.5V40C60.5 40.3978 60.342 40.7794 60.0607 41.0607C59.7794 41.342 59.3978 41.5 59 41.5Z" fill="#204D84"/>
<path d="M18.5 34V49H33.5V41.35C33.4981 40.9768 33.6354 40.6164 33.885 40.339C34.1347 40.0617 34.4787 39.8873 34.85 39.85L60.65 37.12C61.0213 37.0827 61.3653 36.9083 61.615 36.631C61.8646 36.3536 62.0019 35.9932 62 35.62V32.5C62 32.1022 61.842 31.7206 61.5607 31.4393C61.2794 31.158 60.8978 31 60.5 31H21.5C20.7044 31 19.9413 31.3161 19.3787 31.8787C18.8161 32.4413 18.5 33.2044 18.5 34Z" fill="#204D84"/>
<path d="M50.0696 42.517L48.5703 47.0137L51.4163 47.9626L52.9156 43.466L50.0696 42.517Z" fill="#204D84"/>
<path d="M61.9262 42.5325L59.0801 43.481L60.5786 47.9778L63.4247 47.0294L61.9262 42.5325Z" fill="#204D84"/>
<path d="M51.5 50.5H48.5V55H51.5V50.5Z" fill="#204D84"/>
<path d="M63.5 50.5H60.5V55H63.5V50.5Z" fill="#204D84"/>
<path d="M57.5 46H54.5V50.5H57.5V46Z" fill="#204D84"/>
<path d="M57.5 53.5H54.5V58H57.5V53.5Z" fill="#204D84"/>
<path d="M21.5 31H30.5V26.5H21.5V31Z" fill="#204D84"/>
<path d="M20 26.5L38 26.5C38.8284 26.5 39.5 25.8284 39.5 25V23.5C39.5 22.6716 38.8284 22 38 22L20 22C19.1716 22 18.5 22.6716 18.5 23.5V25C18.5 25.8284 19.1716 26.5 20 26.5Z" fill="#204D84"/>
</svg>
