<svg width="525" height="46" viewBox="0 0 525 46" fill="none" xmlns="http://www.w3.org/2000/svg">
<path fill-rule="evenodd" clip-rule="evenodd" d="M25.389 0.301864C30.5119 0.300926 35.6348 0.301864 40.7578 0.29905C42.2189 0.298112 43.6801 0.301864 45.1393 0.259659C45.6386 0.244653 45.7484 0.397529 45.7474 0.879605C45.7371 8.18015 45.7474 15.4807 45.754 22.7822C45.7559 25.3511 45.7653 27.9199 45.7709 30.4888C45.3186 30.8124 44.8034 30.6426 44.3173 30.6605C43.4924 30.6905 43.5374 30.6745 43.467 31.4971C43.1611 35.0714 41.3527 37.6656 38.1095 39.1277C32.5915 41.616 26.2298 38.0163 25.4725 31.9923C25.4143 31.5318 25.3805 31.0741 25.3805 30.6117C25.3815 25.6756 25.4781 20.7385 25.3543 15.8061C25.2323 10.9263 25.3336 6.04926 25.2726 1.17129C25.2689 0.875854 25.2294 0.573853 25.389 0.301864Z" fill="#FCB717"/>
<path fill-rule="evenodd" clip-rule="evenodd" d="M25.3837 0.302002C25.4034 2.14965 25.4297 3.99729 25.44 5.84588C25.456 8.63704 25.4354 11.4291 25.4738 14.2203C25.5517 19.8214 25.533 25.4215 25.5583 31.0226C25.578 35.4354 29.2013 39.338 33.4881 39.7169C38.7612 40.183 42.5947 36.4052 43.215 32.3244C43.291 31.8283 43.3314 31.3331 43.3276 30.836C43.3257 30.5452 43.429 30.4486 43.7161 30.459C44.4002 30.4815 45.0844 30.4796 45.7675 30.488C45.7713 35.2544 45.7704 40.0198 45.7901 44.7862C45.7919 45.2139 45.5564 45.151 45.303 45.152C40.0168 45.1613 34.7315 45.1698 29.4462 45.1838C28.1906 45.1867 26.935 45.2139 25.6784 45.2298C25.4569 45.0507 25.4138 44.8003 25.3988 44.5358C25.2083 41.1275 23.6955 38.4066 20.9853 36.3874C16.9237 33.3599 11.5671 33.4827 7.65196 36.6003C5.06281 38.6618 3.67486 41.407 3.47685 44.729C3.46559 44.9109 3.4853 45.1041 3.31732 45.2373C2.65197 45.2411 1.98662 45.2289 1.32314 45.257C0.969349 45.2729 0.84266 45.1792 0.852044 44.8021C0.876444 43.6767 0.86049 42.5493 0.86049 41.4229C0.86049 37.6188 0.86049 33.8138 0.861428 30.0097C0.861428 29.8071 0.875505 29.6045 0.882074 29.402C1.11293 29.1834 1.40385 29.2444 1.67505 29.2435C3.87663 29.2388 6.07914 29.2613 8.28165 29.2369C11.6131 29.1994 14.5354 28.0898 17.0401 25.8699C19.6752 23.5345 21.1589 20.5952 21.4611 17.1296C21.7811 13.4531 20.7281 10.1508 18.292 7.32118C16.2321 4.92862 13.6401 3.47676 10.5527 2.88871C9.95395 2.77428 9.34678 2.70488 8.73492 2.68331C8.19063 2.66361 8.06581 2.55857 8.07801 2.02022C8.09115 1.45748 7.93162 0.875991 8.20846 0.332952C13.9339 0.321698 19.6593 0.311381 25.3837 0.302002Z" fill="#223468"/>
<path fill-rule="evenodd" clip-rule="evenodd" d="M8.21141 0.330999C8.21048 0.921871 8.22737 1.51368 8.20203 2.10455C8.18795 2.43 8.26397 2.53411 8.62057 2.5463C14.5046 2.73669 19.4905 6.60455 21.1356 12.2347C23.4122 20.0277 18.1429 28.1892 10.1399 29.2678C8.61213 29.4732 7.07591 29.3747 5.54344 29.3887C3.99032 29.4047 2.43721 29.3981 0.885033 29.4009C0.871895 28.3852 0.848434 27.3685 0.848434 26.3519C0.84468 21.4139 0.883156 16.4768 0.834357 11.5397C0.798697 8.00858 0.831542 4.47742 0.789312 0.946256C0.783681 0.480124 0.870018 0.314117 1.38522 0.320682C3.65999 0.351632 5.9357 0.331937 8.21141 0.330999Z" fill="#FBB717"/>
<path fill-rule="evenodd" clip-rule="evenodd" d="M3.32031 45.2353C3.45451 40.8741 5.38675 37.5568 9.18742 35.4109C15.7358 31.7128 24.3188 35.9389 25.4487 43.367C25.5435 43.9869 25.4749 44.6238 25.6805 45.2278C25.4224 45.2175 25.1643 45.1978 24.9063 45.1968C19.6341 45.1959 14.361 45.1734 9.08983 45.2071C7.16603 45.2203 5.24317 45.2362 3.32031 45.2353Z" fill="#FCB717"/>
<path d="M56.3169 13.3265V2.03235H58.8472V7.0259H58.8807C59.132 6.59022 59.4002 6.18805 59.6683 5.78589L62.2153 2.03235H65.3656L61.6288 6.84157L65.5499 13.3265H62.584L59.8023 8.45023L58.8472 9.63997V13.3265H56.3169ZM73.5688 6.47292V8.55077H69.4131V11.2319H74.0548V13.3265H66.8661V2.03235H73.8202V4.12696H69.4131V6.47292H73.5688ZM85.7756 13.3265L85.5913 9.00321C85.541 7.6459 85.4907 6.00373 85.4907 4.36156H85.4572C85.0886 5.80265 84.6194 7.41131 84.1837 8.7351L82.8096 13.1422H80.8156L79.6091 8.78537C79.2404 7.44482 78.8718 5.83616 78.5869 4.36156H78.5534C78.5031 5.88643 78.4361 7.62914 78.3691 9.03672L78.1512 13.3265H75.7885L76.5091 2.03235H79.9107L81.0167 5.80265C81.3853 7.10968 81.7204 8.51726 81.9718 9.84105H82.0388C82.3404 8.53402 82.7259 7.04265 83.1113 5.78589L84.301 2.03235H87.6524L88.2556 13.3265H85.7756ZM97.1701 6.47292V8.55077H93.0144V11.2319H97.656V13.3265H90.4673V2.03235H97.4214V4.12696H93.0144V6.47292H97.1701ZM101.987 13.3265H99.6411V2.03235H102.624L104.97 6.1713C105.64 7.36104 106.294 8.76861 106.813 10.0421H106.847C106.696 8.55077 106.645 7.0259 106.645 5.3167V2.03235H108.991V13.3265H106.31L103.897 8.96969C103.227 7.7632 102.473 6.30535 101.937 4.98156H101.87C101.954 6.48968 101.987 8.08158 101.987 9.92483V13.3265ZM113.645 13.3265V4.17723H110.595V2.03235H119.275V4.17723H116.192V13.3265H113.645ZM127.589 6.47292V8.55077H123.433V11.2319H128.075V13.3265H120.886V2.03235H127.84V4.12696H123.433V6.47292H127.589ZM130.06 13.3265V2.18317C130.881 2.04911 132.088 1.94857 133.462 1.94857C135.137 1.94857 136.31 2.19992 137.115 2.83668C137.802 3.3729 138.17 4.17723 138.17 5.21616C138.17 6.64049 137.148 7.62914 136.176 7.98104V8.03131C136.964 8.34969 137.4 9.08699 137.685 10.1259C138.036 11.4162 138.372 12.8908 138.589 13.3265H135.975C135.808 12.9913 135.523 12.0865 135.205 10.6957C134.886 9.27132 134.4 8.90267 133.345 8.88591H132.59V13.3265H130.06ZM132.59 3.94264V7.04265H133.596C134.869 7.04265 135.623 6.40589 135.623 5.41724C135.623 4.39507 134.92 3.85885 133.747 3.85885C133.127 3.85885 132.775 3.89237 132.59 3.94264ZM140.249 2.03235H142.796V13.3265H140.249V2.03235ZM151.115 10.4275H147.881L147.077 13.3265H144.446L147.881 2.03235H151.232L154.751 13.3265H151.987L151.115 10.4275ZM148.25 8.51726H150.747L150.043 6.12103C149.842 5.45075 149.641 4.61291 149.473 3.94264H149.439C149.272 4.61291 149.104 5.46751 148.92 6.12103L148.25 8.51726ZM158.832 13.3265H156.486V2.03235H159.469L161.815 6.1713C162.485 7.36104 163.139 8.76861 163.658 10.0421H163.692C163.541 8.55077 163.491 7.0259 163.491 5.3167V2.03235H165.837V13.3265H163.156L160.743 8.96969C160.072 7.7632 159.318 6.30535 158.782 4.98156H158.715C158.799 6.48968 158.832 8.08158 158.832 9.92483V13.3265ZM171.922 13.3265V2.18317C172.709 2.04911 173.815 1.94857 175.374 1.94857C176.949 1.94857 178.072 2.25019 178.826 2.85344C179.563 3.42317 180.032 4.36156 180.032 5.46751C180.032 6.57346 179.68 7.5286 178.993 8.14861C178.122 8.95294 176.832 9.33834 175.324 9.33834C174.988 9.33834 174.687 9.32159 174.452 9.27132V13.3265H171.922ZM174.452 3.97615V7.31076C174.67 7.36104 174.921 7.37779 175.307 7.37779C176.664 7.37779 177.502 6.69076 177.502 5.55129C177.502 4.51237 176.781 3.89237 175.491 3.89237C174.988 3.89237 174.637 3.92588 174.452 3.97615ZM188.617 6.47292V8.55077H184.462V11.2319H189.103V13.3265H181.915V2.03235H188.869V4.12696H184.462V6.47292H188.617ZM191.089 13.3265V2.03235H193.619V7.0259H193.652C193.904 6.59022 194.172 6.18805 194.44 5.78589L196.987 2.03235H200.137L196.4 6.84157L200.322 13.3265H197.356L194.574 8.45023L193.619 9.63997V13.3265H191.089ZM208.34 6.47292V8.55077H204.185V11.2319H208.826V13.3265H201.638V2.03235H208.592V4.12696H204.185V6.47292H208.34ZM210.811 13.3265V2.18317C211.633 2.04911 212.839 1.94857 214.213 1.94857C215.889 1.94857 217.062 2.19992 217.866 2.83668C218.553 3.3729 218.922 4.17723 218.922 5.21616C218.922 6.64049 217.9 7.62914 216.928 7.98104V8.03131C217.715 8.34969 218.151 9.08699 218.436 10.1259C218.788 11.4162 219.123 12.8908 219.341 13.3265H216.727C216.559 12.9913 216.274 12.0865 215.956 10.6957C215.637 9.27132 215.152 8.90267 214.096 8.88591H213.342V13.3265H210.811ZM213.342 3.94264V7.04265H214.347C215.621 7.04265 216.375 6.40589 216.375 5.41724C216.375 4.39507 215.671 3.85885 214.498 3.85885C213.878 3.85885 213.526 3.89237 213.342 3.94264ZM223.294 9.15402V2.03235H225.841V9.17078C225.841 12.3881 224.299 13.5108 221.836 13.5108C221.233 13.5108 220.462 13.4103 219.959 13.2427L220.244 11.1816C220.596 11.2989 221.049 11.3827 221.551 11.3827C222.624 11.3827 223.294 10.8967 223.294 9.15402ZM234.076 10.4275H230.842L230.037 13.3265H227.406L230.842 2.03235H234.193L237.712 13.3265H234.947L234.076 10.4275ZM231.21 8.51726H233.707L233.003 6.12103C232.802 5.45075 232.601 4.61291 232.433 3.94264H232.4C232.232 4.61291 232.065 5.46751 231.881 6.12103L231.21 8.51726ZM245.312 10.4275H242.078L241.273 13.3265H238.642L242.078 2.03235H245.429L248.948 13.3265H246.183L245.312 10.4275ZM242.446 8.51726H244.943L244.239 6.12103C244.038 5.45075 243.837 4.61291 243.67 3.94264H243.636C243.468 4.61291 243.301 5.46751 243.117 6.12103L242.446 8.51726ZM253.029 13.3265H250.683V2.03235H253.666L256.012 6.1713C256.682 7.36104 257.335 8.76861 257.855 10.0421H257.888C257.738 8.55077 257.687 7.0259 257.687 5.3167V2.03235H260.033V13.3265H257.352L254.939 8.96969C254.269 7.7632 253.515 6.30535 252.979 4.98156H252.912C252.995 6.48968 253.029 8.08158 253.029 9.92483V13.3265ZM266.118 2.03235H268.666V8.51726C268.666 10.4778 269.42 11.4665 270.71 11.4665C272.05 11.4665 272.788 10.5281 272.788 8.51726V2.03235H275.335V8.36645C275.335 11.8519 273.575 13.5108 270.626 13.5108C267.777 13.5108 266.118 11.9189 266.118 8.33293V2.03235ZM287.516 13.3265L287.331 9.00321C287.281 7.6459 287.231 6.00373 287.231 4.36156H287.197C286.829 5.80265 286.36 7.41131 285.924 8.7351L284.55 13.1422H282.556L281.349 8.78537C280.981 7.44482 280.612 5.83616 280.327 4.36156H280.294C280.243 5.88643 280.176 7.62914 280.109 9.03672L279.891 13.3265H277.529L278.249 2.03235H281.651L282.757 5.80265C283.125 7.10968 283.461 8.51726 283.712 9.84105H283.779C284.081 8.53402 284.466 7.04265 284.851 5.78589L286.041 2.03235H289.393L289.996 13.3265H287.516ZM292.191 2.03235H294.738V8.51726C294.738 10.4778 295.492 11.4665 296.782 11.4665C298.123 11.4665 298.86 10.5281 298.86 8.51726V2.03235H301.407V8.36645C301.407 11.8519 299.648 13.5108 296.698 13.5108C293.85 13.5108 292.191 11.9189 292.191 8.33293V2.03235ZM313.588 13.3265L313.404 9.00321C313.353 7.6459 313.303 6.00373 313.303 4.36156H313.27C312.901 5.80265 312.432 7.41131 311.996 8.7351L310.622 13.1422H308.628L307.421 8.78537C307.053 7.44482 306.684 5.83616 306.399 4.36156H306.366C306.316 5.88643 306.248 7.62914 306.181 9.03672L305.964 13.3265H303.601L304.321 2.03235H307.723L308.829 5.80265C309.198 7.10968 309.533 8.51726 309.784 9.84105H309.851C310.153 8.53402 310.538 7.04265 310.924 5.78589L312.113 2.03235H315.465L316.068 13.3265H313.588ZM321.89 13.2762V2.19992C322.828 2.04911 324.051 1.94857 325.325 1.94857C327.487 1.94857 328.894 2.35073 329.967 3.15506C331.14 4.02642 331.877 5.41724 331.877 7.41131C331.877 9.57294 331.089 11.0643 330.017 11.9859C328.827 12.9746 327.001 13.4438 324.789 13.4438C323.465 13.4438 322.51 13.36 321.89 13.2762ZM324.437 4.00966V11.3994C324.655 11.4497 325.023 11.4497 325.325 11.4497C327.654 11.4665 329.179 10.1929 329.179 7.49509C329.179 5.14913 327.805 3.90912 325.593 3.90912C325.04 3.90912 324.655 3.95939 324.437 4.00966ZM339.4 10.4275H336.166L335.361 13.3265H332.731L336.166 2.03235H339.517L343.036 13.3265H340.271L339.4 10.4275ZM336.534 8.51726H339.031L338.327 6.12103C338.126 5.45075 337.925 4.61291 337.758 3.94264H337.724C337.557 4.61291 337.389 5.46751 337.205 6.12103L336.534 8.51726ZM347.117 13.3265H344.771V2.03235H347.754L350.1 6.1713C350.77 7.36104 351.423 8.76861 351.943 10.0421H351.976C351.826 8.55077 351.775 7.0259 351.775 5.3167V2.03235H354.121V13.3265H351.44L349.027 8.96969C348.357 7.7632 347.603 6.30535 347.067 4.98156H347C347.083 6.48968 347.117 8.08158 347.117 9.92483V13.3265ZM360.207 13.3265V2.18317C360.994 2.04911 362.1 1.94857 363.658 1.94857C365.234 1.94857 366.356 2.25019 367.11 2.85344C367.848 3.42317 368.317 4.36156 368.317 5.46751C368.317 6.57346 367.965 7.5286 367.278 8.14861C366.407 8.95294 365.116 9.33834 363.608 9.33834C363.273 9.33834 362.971 9.32159 362.737 9.27132V13.3265H360.207ZM362.737 3.97615V7.31076C362.955 7.36104 363.206 7.37779 363.591 7.37779C364.949 7.37779 365.787 6.69076 365.787 5.55129C365.787 4.51237 365.066 3.89237 363.776 3.89237C363.273 3.89237 362.921 3.92588 362.737 3.97615ZM376.902 6.47292V8.55077H372.746V11.2319H377.388V13.3265H370.199V2.03235H377.153V4.12696H372.746V6.47292H376.902ZM379.373 13.3265V2.18317C380.194 2.04911 381.401 1.94857 382.775 1.94857C384.45 1.94857 385.623 2.19992 386.428 2.83668C387.115 3.3729 387.483 4.17723 387.483 5.21616C387.483 6.64049 386.461 7.62914 385.489 7.98104V8.03131C386.277 8.34969 386.713 9.08699 386.998 10.1259C387.349 11.4162 387.685 12.8908 387.902 13.3265H385.288C385.121 12.9913 384.836 12.0865 384.517 10.6957C384.199 9.27132 383.713 8.90267 382.657 8.88591H381.903V13.3265H379.373ZM381.903 3.94264V7.04265H382.909C384.182 7.04265 384.936 6.40589 384.936 5.41724C384.936 4.39507 384.233 3.85885 383.06 3.85885C382.44 3.85885 382.088 3.89237 381.903 3.94264ZM389.464 2.03235H392.011V8.51726C392.011 10.4778 392.765 11.4665 394.055 11.4665C395.396 11.4665 396.133 10.5281 396.133 8.51726V2.03235H398.68V8.36645C398.68 11.8519 396.921 13.5108 393.971 13.5108C391.123 13.5108 389.464 11.9189 389.464 8.33293V2.03235ZM410.861 13.3265L410.677 9.00321C410.626 7.6459 410.576 6.00373 410.576 4.36156H410.543C410.174 5.80265 409.705 7.41131 409.269 8.7351L407.895 13.1422H405.901L404.694 8.78537C404.326 7.44482 403.957 5.83616 403.672 4.36156H403.639C403.589 5.88643 403.522 7.62914 403.454 9.03672L403.237 13.3265H400.874L401.594 2.03235H404.996L406.102 5.80265C406.471 7.10968 406.806 8.51726 407.057 9.84105H407.124C407.426 8.53402 407.811 7.04265 408.197 5.78589L409.386 2.03235H412.738L413.341 13.3265H410.861ZM421.352 10.4275H418.118L417.313 13.3265H414.683L418.118 2.03235H421.469L424.988 13.3265H422.223L421.352 10.4275ZM418.486 8.51726H420.983L420.279 6.12103C420.078 5.45075 419.877 4.61291 419.71 3.94264H419.676C419.509 4.61291 419.341 5.46751 419.157 6.12103L418.486 8.51726ZM426.74 2.03235H429.287V6.37238H433.493V2.03235H436.04V13.3265H433.493V8.60104H429.287V13.3265H426.74V2.03235ZM444.38 10.4275H441.146L440.342 13.3265H437.711L441.146 2.03235H444.498L448.017 13.3265H445.252L444.38 10.4275ZM441.515 8.51726H444.012L443.308 6.12103C443.107 5.45075 442.906 4.61291 442.738 3.94264H442.705C442.537 4.61291 442.369 5.46751 442.185 6.12103L441.515 8.51726ZM452.097 13.3265H449.751V2.03235H452.734L455.08 6.1713C455.75 7.36104 456.404 8.76861 456.923 10.0421H456.957C456.806 8.55077 456.756 7.0259 456.756 5.3167V2.03235H459.102V13.3265H456.421L454.008 8.96969C453.337 7.7632 452.583 6.30535 452.047 4.98156H451.98C452.064 6.48968 452.097 8.08158 452.097 9.92483V13.3265ZM465.187 13.3265V2.18317C466.008 2.04911 467.215 1.94857 468.589 1.94857C470.264 1.94857 471.437 2.19992 472.242 2.83668C472.929 3.3729 473.297 4.17723 473.297 5.21616C473.297 6.64049 472.275 7.62914 471.303 7.98104V8.03131C472.091 8.34969 472.527 9.08699 472.811 10.1259C473.163 11.4162 473.498 12.8908 473.716 13.3265H471.102C470.935 12.9913 470.65 12.0865 470.331 10.6957C470.013 9.27132 469.527 8.90267 468.471 8.88591H467.717V13.3265H465.187ZM467.717 3.94264V7.04265H468.723C469.996 7.04265 470.75 6.40589 470.75 5.41724C470.75 4.39507 470.047 3.85885 468.874 3.85885C468.254 3.85885 467.902 3.89237 467.717 3.94264ZM481.372 10.4275H478.138L477.333 13.3265H474.702L478.138 2.03235H481.489L485.008 13.3265H482.243L481.372 10.4275ZM478.506 8.51726H481.003L480.299 6.12103C480.098 5.45075 479.897 4.61291 479.729 3.94264H479.696C479.528 4.61291 479.361 5.46751 479.176 6.12103L478.506 8.51726ZM486.743 13.3265V2.03235H489.273V7.0259H489.307C489.558 6.59022 489.826 6.18805 490.094 5.78589L492.641 2.03235H495.791L492.055 6.84157L495.976 13.3265H493.01L490.228 8.45023L489.273 9.63997V13.3265H486.743ZM502.191 13.3265H499.644V8.70158L496.075 2.03235H499.007L500.147 4.74696C500.498 5.56805 500.75 6.1713 501.018 6.9086H501.051C501.303 6.20481 501.571 5.55129 501.906 4.74696L503.045 2.03235H505.911L502.191 8.6178V13.3265ZM511.692 10.4275H508.458L507.654 13.3265H505.023L508.458 2.03235H511.81L515.329 13.3265H512.564L511.692 10.4275ZM508.827 8.51726H511.324L510.62 6.12103C510.419 5.45075 510.218 4.61291 510.05 3.94264H510.017C509.849 4.61291 509.682 5.46751 509.497 6.12103L508.827 8.51726ZM517.868 13.3265V4.17723H514.818V2.03235H523.498V4.17723H520.415V13.3265H517.868Z" fill="white"/>
<path d="M56.5974 43.1087V24.9975C58.1318 24.7509 60.132 24.5865 62.2144 24.5865C65.7489 24.5865 68.0505 25.2441 69.8041 26.5592C71.7221 27.984 72.9277 30.2582 72.9277 33.5188C72.9277 37.0533 71.6399 39.4919 69.8863 40.9989C67.9409 42.6155 64.9543 43.3827 61.3376 43.3827C59.173 43.3827 57.6112 43.2457 56.5974 43.1087ZM60.7622 27.9566V40.0399C61.1184 40.1221 61.7212 40.1221 62.2144 40.1221C66.0229 40.1495 68.5163 38.0671 68.5163 33.6558C68.5163 29.8198 66.2695 27.7922 62.6528 27.7922C61.7486 27.7922 61.1184 27.8744 60.7622 27.9566ZM76.0944 24.7235H80.2591V43.1909H76.0944V24.7235ZM84.2716 43.1909V24.9701C85.6142 24.7509 87.5869 24.5865 89.8337 24.5865C92.5737 24.5865 94.4917 24.9975 95.8069 26.0387C96.9302 26.9154 97.533 28.2306 97.533 29.9294C97.533 32.2584 95.8617 33.875 94.2725 34.4504V34.5326C95.5603 35.0531 96.2726 36.2587 96.7384 37.9575C97.3138 40.0673 97.8618 42.4785 98.218 43.1909H93.9437C93.6697 42.6429 93.2039 41.1633 92.6833 38.8891C92.1627 36.5601 91.3681 35.9573 89.6419 35.9299H88.4089V43.1909H84.2716ZM88.4089 27.847V32.916H90.0529C92.1353 32.916 93.3683 31.8748 93.3683 30.2582C93.3683 28.5868 92.2175 27.71 90.2995 27.71C89.2857 27.71 88.7103 27.7648 88.4089 27.847ZM111.892 31.9844V35.3819H105.097V39.7659H112.687V43.1909H100.932V24.7235H112.303V28.1484H105.097V31.9844H111.892ZM115.933 43.1909V24.7235H120.07V32.8886H120.125C120.536 32.1762 120.974 31.5186 121.413 30.861L125.577 24.7235H130.728L124.618 32.5872L131.03 43.1909H126.18L121.632 35.2175L120.07 37.1629V43.1909H115.933ZM136.904 43.1909V28.2306H131.918V24.7235H146.111V28.2306H141.069V43.1909H136.904ZM156.052 24.3947C161.724 24.3947 164.82 28.6416 164.82 33.7654C164.82 39.8481 161.176 43.4923 155.751 43.4923C150.298 43.4923 147.065 39.3549 147.065 34.0668C147.065 28.532 150.627 24.3947 156.052 24.3947ZM155.97 27.71C153.121 27.71 151.477 30.3952 151.477 33.9846C151.477 37.6287 153.175 40.1769 155.97 40.1769C158.792 40.1769 160.409 37.4917 160.409 33.9024C160.409 30.5596 158.847 27.71 155.97 27.71ZM167.946 43.1909V24.9701C169.289 24.7509 171.261 24.5865 173.508 24.5865C176.248 24.5865 178.166 24.9975 179.481 26.0387C180.605 26.9154 181.208 28.2306 181.208 29.9294C181.208 32.2584 179.536 33.875 177.947 34.4504V34.5326C179.235 35.0531 179.947 36.2587 180.413 37.9575C180.988 40.0673 181.536 42.4785 181.893 43.1909H177.618C177.344 42.6429 176.878 41.1633 176.358 38.8891C175.837 36.5601 175.043 35.9573 173.316 35.9299H172.083V43.1909H167.946ZM172.083 27.847V32.916H173.727C175.81 32.916 177.043 31.8748 177.043 30.2582C177.043 28.5868 175.892 27.71 173.974 27.71C172.96 27.71 172.385 27.7648 172.083 27.847ZM194.41 38.4507H189.122L187.807 43.1909H183.505L189.122 24.7235H194.602L200.356 43.1909H195.835L194.41 38.4507ZM189.725 35.3271H193.807L192.656 31.409C192.328 30.313 191.999 28.943 191.725 27.847H191.67C191.396 28.943 191.122 30.3404 190.821 31.409L189.725 35.3271ZM204.508 43.1909V28.2306H199.521V24.7235H213.714V28.2306H208.672V43.1909H204.508ZM225.868 36.3683V24.7235H230.032V36.3957C230.032 41.6565 227.512 43.4923 223.484 43.4923C222.497 43.4923 221.237 43.3279 220.415 43.0539L220.881 39.6837C221.456 39.8755 222.196 40.0125 223.018 40.0125C224.772 40.0125 225.868 39.2179 225.868 36.3683ZM244.894 31.9844V35.3819H238.099V39.7659H245.689V43.1909H233.935V24.7235H245.305V28.1484H238.099V31.9844H244.894ZM252.771 43.1909H248.935V24.7235H253.812L257.648 31.4912C258.744 33.4366 259.813 35.7381 260.662 37.8205H260.717C260.47 35.3819 260.388 32.8886 260.388 30.0938V24.7235H264.224V43.1909H259.84L255.895 36.0669C254.799 34.0942 253.566 31.7104 252.689 29.5458H252.579C252.716 32.0118 252.771 34.6148 252.771 37.6287V43.1909ZM268.244 43.1087V24.9975C269.778 24.7509 271.779 24.5865 273.861 24.5865C277.395 24.5865 279.697 25.2441 281.451 26.5592C283.369 27.984 284.574 30.2582 284.574 33.5188C284.574 37.0533 283.286 39.4919 281.533 40.9989C279.587 42.6155 276.601 43.3827 272.984 43.3827C270.82 43.3827 269.258 43.2457 268.244 43.1087ZM272.409 27.9566V40.0399C272.765 40.1221 273.368 40.1221 273.861 40.1221C277.669 40.1495 280.163 38.0671 280.163 33.6558C280.163 29.8198 277.916 27.7922 274.299 27.7922C273.395 27.7922 272.765 27.8744 272.409 27.9566ZM298.701 31.9844V35.3819H291.906V39.7659H299.495V43.1909H287.741V24.7235H299.112V28.1484H291.906V31.9844H298.701ZM302.741 43.1909V24.9701C304.084 24.7509 306.057 24.5865 308.303 24.5865C311.043 24.5865 312.961 24.9975 314.277 26.0387C315.4 26.9154 316.003 28.2306 316.003 29.9294C316.003 32.2584 314.331 33.875 312.742 34.4504V34.5326C314.03 35.0531 314.742 36.2587 315.208 37.9575C315.784 40.0673 316.332 42.4785 316.688 43.1909H312.413C312.139 42.6429 311.674 41.1633 311.153 38.8891C310.632 36.5601 309.838 35.9573 308.112 35.9299H306.879V43.1909H302.741ZM306.879 27.847V32.916H308.523C310.605 32.916 311.838 31.8748 311.838 30.2582C311.838 28.5868 310.687 27.71 308.769 27.71C307.755 27.71 307.18 27.7648 306.879 27.847ZM329.205 38.4507H323.917L322.602 43.1909H318.3L323.917 24.7235H329.397L335.151 43.1909H330.63L329.205 38.4507ZM324.52 35.3271H328.602L327.452 31.409C327.123 30.313 326.794 28.943 326.52 27.847H326.465C326.191 28.943 325.917 30.3404 325.616 31.409L324.52 35.3271ZM338.015 43.1909V24.7235H342.18V39.6837H349.523V43.1909H338.015ZM358.304 43.1909V24.9701C359.591 24.7509 361.4 24.5865 363.948 24.5865C366.524 24.5865 368.359 25.0797 369.592 26.0661C370.798 26.9976 371.565 28.532 371.565 30.3404C371.565 32.1488 370.99 33.7106 369.866 34.7244C368.442 36.0395 366.332 36.6697 363.866 36.6697C363.318 36.6697 362.825 36.6423 362.441 36.5601V43.1909H358.304ZM362.441 27.9018V33.3544C362.797 33.4366 363.208 33.464 363.838 33.464C366.058 33.464 367.428 32.3406 367.428 30.4774C367.428 28.7786 366.25 27.7648 364.14 27.7648C363.318 27.7648 362.742 27.8196 362.441 27.9018ZM385.603 31.9844V35.3819H378.808V39.7659H386.398V43.1909H374.643V24.7235H386.014V28.1484H378.808V31.9844H385.603ZM389.644 43.1909V24.9701C390.986 24.7509 392.959 24.5865 395.206 24.5865C397.946 24.5865 399.864 24.9975 401.179 26.0387C402.302 26.9154 402.905 28.2306 402.905 29.9294C402.905 32.2584 401.234 33.875 399.644 34.4504V34.5326C400.932 35.0531 401.645 36.2587 402.11 37.9575C402.686 40.0673 403.234 42.4785 403.59 43.1909H399.316C399.042 42.6429 398.576 41.1633 398.055 38.8891C397.535 36.5601 396.74 35.9573 395.014 35.9299H393.781V43.1909H389.644ZM393.781 27.847V32.916H395.425C397.507 32.916 398.74 31.8748 398.74 30.2582C398.74 28.5868 397.589 27.71 395.671 27.71C394.658 27.71 394.082 27.7648 393.781 27.847ZM406.143 24.7235H410.308V35.3271C410.308 38.5329 411.541 40.1495 413.65 40.1495C415.842 40.1495 417.048 38.6151 417.048 35.3271V24.7235H421.213V35.0805C421.213 40.7797 418.336 43.4923 413.513 43.4923C408.856 43.4923 406.143 40.8893 406.143 35.0258V24.7235ZM441.13 43.1909L440.829 36.1217C440.747 33.9024 440.665 31.2172 440.665 28.532H440.61C440.007 30.8884 439.24 33.5188 438.527 35.6833L436.281 42.8895H433.02L431.047 35.7655C430.444 33.5736 429.842 30.9432 429.376 28.532H429.321C429.239 31.0254 429.129 33.875 429.02 36.1765L428.664 43.1909H424.8L425.978 24.7235H431.54L433.349 30.8884C433.952 33.0256 434.5 35.3271 434.911 37.4917H435.02C435.513 35.3545 436.144 32.916 436.774 30.861L438.719 24.7235H444.199L445.186 43.1909H441.13ZM458.284 38.4507H452.996L451.681 43.1909H447.379L452.996 24.7235H458.476L464.23 43.1909H459.709L458.284 38.4507ZM453.599 35.3271H457.681L456.531 31.409C456.202 30.313 455.873 28.943 455.599 27.847H455.544C455.27 28.943 454.996 30.3404 454.695 31.409L453.599 35.3271ZM467.094 24.7235H471.259V31.82H478.136V24.7235H482.301V43.1909H478.136V35.4641H471.259V43.1909H467.094V24.7235ZM495.939 38.4507H490.651L489.336 43.1909H485.034L490.651 24.7235H496.131L501.885 43.1909H497.364L495.939 38.4507ZM491.254 35.3271H495.336L494.185 31.409C493.857 30.313 493.528 28.943 493.254 27.847H493.199C492.925 28.943 492.651 30.3404 492.35 31.409L491.254 35.3271ZM508.557 43.1909H504.721V24.7235H509.599L513.435 31.4912C514.531 33.4366 515.599 35.7381 516.449 37.8205H516.503C516.257 35.3819 516.175 32.8886 516.175 30.0938V24.7235H520.01V43.1909H515.627L511.681 36.0669C510.585 34.0942 509.352 31.7104 508.475 29.5458H508.366C508.503 32.0118 508.557 34.6148 508.557 37.6287V43.1909Z" fill="white"/>
</svg>
