<svg width="421" height="47" viewBox="0 0 421 47" fill="none" xmlns="http://www.w3.org/2000/svg">
<path fill-rule="evenodd" clip-rule="evenodd" d="M25.1647 4.33645C29.5726 4.33565 33.9805 4.33645 38.3884 4.33405C39.6456 4.33325 40.9029 4.33645 42.1584 4.30044C42.588 4.28763 42.6825 4.41809 42.6817 4.82947C42.6728 11.0594 42.6817 17.2893 42.6873 23.52C42.6889 25.7122 42.697 27.9043 42.7019 30.0965C42.3127 30.3726 41.8694 30.2277 41.4511 30.243C40.7414 30.2686 40.7801 30.255 40.7196 30.9569C40.4563 34.007 38.9004 36.2208 36.1098 37.4685C31.362 39.5918 25.8882 36.5201 25.2366 31.3794C25.1865 30.9865 25.1575 30.5959 25.1575 30.2013C25.1583 25.9891 25.2414 21.7761 25.1349 17.567C25.0299 13.4028 25.1171 9.24099 25.0646 5.07838C25.0614 4.82627 25.0275 4.56855 25.1647 4.33645Z" fill="#FCB717"/>
<path fill-rule="evenodd" clip-rule="evenodd" d="M25.1648 4.33667C25.1817 5.91336 25.2043 7.49004 25.2132 9.06753C25.2269 11.4494 25.2092 13.832 25.2423 16.2138C25.3093 20.9935 25.2931 25.7724 25.3149 30.5521C25.3319 34.3177 28.4495 37.648 32.1379 37.9713C36.675 38.3691 39.9735 35.1453 40.5072 31.663C40.5726 31.2396 40.6074 30.817 40.6041 30.3928C40.6025 30.1447 40.6913 30.0623 40.9384 30.0711C41.527 30.0903 42.1157 30.0887 42.7035 30.0959C42.7067 34.1633 42.7059 38.2298 42.7229 42.2972C42.7245 42.6622 42.5218 42.6086 42.3038 42.6094C37.7554 42.6174 33.2078 42.6246 28.6602 42.6366C27.5799 42.639 26.4995 42.6622 25.4183 42.6758C25.2277 42.5229 25.1906 42.3092 25.1777 42.0835C25.0138 39.1751 23.7121 36.8532 21.3802 35.1301C17.8855 32.5466 13.2766 32.6514 9.90788 35.3118C7.68011 37.0709 6.48588 39.4136 6.31551 42.2484C6.30582 42.4037 6.32278 42.5685 6.17824 42.6822C5.60576 42.6854 5.03327 42.675 4.4624 42.699C4.15799 42.7126 4.04898 42.6326 4.05706 42.3108C4.07805 41.3504 4.06432 40.3884 4.06432 39.4272C4.06432 36.181 4.06432 32.9339 4.06513 29.6877C4.06513 29.5148 4.07724 29.342 4.08289 29.1691C4.28153 28.9826 4.53184 29.0346 4.76519 29.0338C6.65949 29.0298 8.55458 29.049 10.4497 29.0282C13.3162 28.9962 15.8306 28.0494 17.9857 26.155C20.253 24.1621 21.5296 21.6538 21.7896 18.6965C22.0649 15.5592 21.159 12.7411 19.0628 10.3265C17.2904 8.28479 15.0603 7.04585 12.4037 6.54403C11.8886 6.44639 11.3661 6.38716 10.8397 6.36876C10.3714 6.35195 10.264 6.26231 10.2745 5.80291C10.2858 5.3227 10.1485 4.82648 10.3867 4.36308C15.313 4.35348 20.2393 4.34467 25.1648 4.33667Z" fill="#223468"/>
<path fill-rule="evenodd" clip-rule="evenodd" d="M10.3864 4.36147C10.3856 4.86569 10.4001 5.37071 10.3783 5.87493C10.3662 6.15265 10.4316 6.24149 10.7384 6.2519C15.8012 6.41437 20.0912 9.71501 21.5067 14.5195C23.4656 21.1696 18.9317 28.1342 12.0457 29.0546C10.7312 29.2299 9.40936 29.1459 8.09079 29.1579C6.75445 29.1715 5.41811 29.1659 4.08258 29.1683C4.07127 28.3015 4.05108 27.4339 4.05108 26.5664C4.04785 22.3525 4.08096 18.1395 4.03897 13.9264C4.00829 10.9131 4.03655 7.89982 4.00021 4.8865C3.99537 4.48873 4.06966 4.34707 4.51295 4.35267C6.47022 4.37908 8.4283 4.36227 10.3864 4.36147Z" fill="#FBB717"/>
<path fill-rule="evenodd" clip-rule="evenodd" d="M6.17773 42.6804C6.2932 38.9588 7.95575 36.1279 11.2259 34.2967C16.8604 31.1409 24.2454 34.7473 25.2175 41.0861C25.2991 41.6151 25.2402 42.1586 25.417 42.674C25.1949 42.6652 24.9729 42.6484 24.7508 42.6476C20.2146 42.6468 15.6775 42.6276 11.142 42.6564C9.48669 42.6676 7.83221 42.6812 6.17773 42.6804Z" fill="#FCB717"/>
<path d="M52.5834 17.1828V8.39235H54.5528V12.2789H54.5919C54.7876 11.9398 54.9962 11.6268 55.1919 11.3138L57.1873 8.39235H59.6262L56.7178 12.1354L59.7827 17.1828H57.4612L55.3093 13.3875L54.5528 14.3135V17.1828H52.5834ZM66.0109 11.8485V13.4658H62.7765V15.5525H66.3891V17.1828H60.781V8.39235H66.2066V10.0226H62.7765V11.8485H66.0109ZM75.4987 17.1828L75.3682 13.8179C75.3291 12.7615 75.29 11.4833 75.29 10.2052H75.2509C74.977 11.3268 74.6118 12.5789 74.2727 13.6092L73.2032 17.0393H71.6512L70.7122 13.6353C70.4252 12.605 70.1253 11.3529 69.9166 10.2052H69.8905C69.8383 11.392 69.7992 12.7484 69.734 13.844L69.5775 17.1828H67.7386L68.2994 8.39235H70.9469L71.8077 11.3268C72.0816 12.3441 72.3555 13.4397 72.5511 14.47H72.5902C72.838 13.4527 73.138 12.292 73.4249 11.3138L74.364 8.39235H76.9594L77.4419 17.1828H75.4987ZM84.3802 11.8485V13.4658H81.1458V15.5525H84.7584V17.1828H79.1503V8.39235H84.5759V10.0226H81.1458V11.8485H84.3802ZM88.1294 17.1828H86.3035V8.39235H88.625L90.4509 11.6138C90.9726 12.5398 91.4943 13.6353 91.8855 14.6265H91.9247C91.7942 13.4658 91.7551 12.2789 91.7551 10.9617V8.39235H93.581V17.1828H91.4943L89.6162 13.7918C89.0945 12.8528 88.5207 11.7181 88.0903 10.6878L88.0511 10.7008C88.1033 11.8616 88.1294 13.1006 88.1294 14.5352V17.1828ZM97.19 17.1828V10.0617H94.8294V8.39235H101.585V10.0617H99.1854V17.1828H97.19ZM108.056 11.8485V13.4658H104.821V15.5525H108.434V17.1828H102.826V8.39235H108.252V10.0226H104.821V11.8485H108.056ZM109.979 17.1828V8.50973C110.618 8.40539 111.57 8.32714 112.627 8.32714C113.931 8.32714 114.844 8.52277 115.47 9.01837C115.992 9.43572 116.279 10.0487 116.279 10.8573C116.279 11.9789 115.483 12.7484 114.727 13.0223V13.0614C115.34 13.3092 115.679 13.8961 115.9 14.7048C116.174 15.696 116.448 16.8437 116.618 17.1828H114.583C114.44 16.935 114.231 16.2176 113.97 15.1351C113.735 14.0396 113.357 13.7396 112.548 13.7266H111.949V17.1828H109.979ZM111.949 9.86611V12.292H112.731C113.722 12.292 114.309 11.7964 114.309 11.0269C114.309 10.2182 113.761 9.81394 112.848 9.8009C112.366 9.8009 112.092 9.84003 111.949 9.86611ZM117.897 8.39235H119.892V17.1828H117.897V8.39235ZM126.367 14.9265H123.85L123.224 17.1828H121.163L123.85 8.39235H126.458L129.184 17.1828H127.045L126.367 14.9265ZM124.136 13.4397H126.08L125.532 11.5746C125.375 11.0529 125.219 10.4008 125.089 9.87915H125.062C124.932 10.4008 124.802 11.066 124.658 11.5746L124.136 13.4397ZM132.373 17.1828H130.547V8.39235H132.869L134.695 11.6138C135.216 12.5398 135.738 13.6353 136.129 14.6265H136.168C136.038 13.4658 135.999 12.2789 135.999 10.9617V8.39235H137.825V17.1828H135.738L133.86 13.7918C133.338 12.8528 132.764 11.7181 132.334 10.6878L132.295 10.7008C132.347 11.8616 132.373 13.1006 132.373 14.5352V17.1828ZM142.561 17.1828V8.50973C143.174 8.40539 144.035 8.32714 145.248 8.32714C146.474 8.32714 147.347 8.56189 147.934 9.03141C148.495 9.47485 148.873 10.2052 148.873 11.066C148.873 11.9268 148.586 12.6571 148.065 13.1527C147.387 13.7918 146.382 14.0787 145.209 14.0787C144.948 14.0787 144.713 14.0657 144.53 14.0396V17.1828H142.561ZM144.53 9.90524V12.5006C144.7 12.5398 144.909 12.5528 145.195 12.5528C146.252 12.5528 146.904 12.0181 146.904 11.1182C146.904 10.3095 146.343 9.82698 145.352 9.82698C144.948 9.82698 144.674 9.86611 144.53 9.90524ZM155.555 11.8485V13.4658H152.321V15.5525H155.934V17.1828H150.325V8.39235H155.751V10.0226H152.321V11.8485H155.555ZM157.479 17.1828V8.39235H159.448V12.2789H159.487C159.683 11.9398 159.891 11.6268 160.087 11.3138L162.083 8.39235H164.521L161.613 12.1354L164.678 17.1828H162.356L160.204 13.3875L159.448 14.3135V17.1828H157.479ZM170.906 11.8485V13.4658H167.672V15.5525H171.284V17.1828H165.676V8.39235H171.102V10.0226H167.672V11.8485H170.906ZM172.829 17.1828V8.50973C173.468 8.40539 174.421 8.32714 175.477 8.32714C176.781 8.32714 177.694 8.52277 178.32 9.01837C178.842 9.43572 179.129 10.0487 179.129 10.8573C179.129 11.9789 178.333 12.7484 177.577 13.0223V13.0614C178.19 13.3092 178.529 13.8961 178.751 14.7048C179.024 15.696 179.298 16.8437 179.468 17.1828H177.433C177.29 16.935 177.081 16.2176 176.82 15.1351C176.586 14.0396 176.207 13.7396 175.399 13.7266H174.799V17.1828H172.829ZM174.799 9.86611V12.292H175.581C176.573 12.292 177.159 11.7964 177.159 11.0269C177.159 10.2182 176.612 9.81394 175.699 9.8009C175.216 9.8009 174.942 9.84003 174.799 9.86611ZM182.545 13.9222V8.39235H184.527V13.9483C184.527 16.4524 183.327 17.3262 181.397 17.3262C180.941 17.3262 180.341 17.248 179.949 17.1176L180.171 15.5134C180.445 15.6047 180.797 15.6699 181.188 15.6699C182.023 15.6699 182.545 15.2917 182.545 13.9222ZM190.936 14.9265H188.419L187.793 17.1828H185.733L188.419 8.39235H191.028L193.753 17.1828H191.615L190.936 14.9265ZM188.706 13.4397H190.649L190.102 11.5746C189.945 11.0529 189.789 10.4008 189.658 9.87915H189.632C189.502 10.4008 189.371 11.066 189.228 11.5746L188.706 13.4397ZM199.682 14.9265H197.164L196.538 17.1828H194.478L197.164 8.39235H199.773L202.499 17.1828H200.36L199.682 14.9265ZM197.451 13.4397H199.395L198.847 11.5746C198.69 11.0529 198.534 10.4008 198.403 9.87915H198.377C198.247 10.4008 198.117 11.066 197.973 11.5746L197.451 13.4397ZM205.688 17.1828H203.862V8.39235H206.184L208.009 11.6138C208.531 12.5398 209.053 13.6353 209.444 14.6265H209.483C209.353 13.4658 209.314 12.2789 209.314 10.9617V8.39235H211.14V17.1828H209.053L207.175 13.7918C206.653 12.8528 206.079 11.7181 205.649 10.6878L205.61 10.7008C205.662 11.8616 205.688 13.1006 205.688 14.5352V17.1828ZM215.863 8.39235H217.858V13.4527C217.858 14.9656 218.432 15.7351 219.449 15.7351C220.493 15.7351 221.067 15.0047 221.067 13.4527V8.39235H223.049V13.3223C223.049 16.0351 221.68 17.3262 219.384 17.3262C217.167 17.3262 215.863 16.1003 215.863 13.2962V8.39235ZM232.517 17.1828L232.386 13.8179C232.347 12.7615 232.308 11.4833 232.308 10.2052H232.269C231.995 11.3268 231.63 12.5789 231.291 13.6092L230.221 17.0393H228.669L227.73 13.6353C227.443 12.605 227.143 11.3529 226.935 10.2052H226.909C226.856 11.392 226.817 12.7484 226.752 13.844L226.596 17.1828H224.757L225.317 8.39235H227.965L228.826 11.3268C229.1 12.3441 229.374 13.4397 229.569 14.47H229.608C229.856 13.4527 230.156 12.292 230.443 11.3138L231.382 8.39235H233.977L234.46 17.1828H232.517ZM236.155 8.39235H238.151V13.4527C238.151 14.9656 238.725 15.7351 239.742 15.7351C240.785 15.7351 241.359 15.0047 241.359 13.4527V8.39235H243.342V13.3223C243.342 16.0351 241.972 17.3262 239.677 17.3262C237.46 17.3262 236.155 16.1003 236.155 13.2962V8.39235ZM252.809 17.1828L252.679 13.8179C252.64 12.7615 252.601 11.4833 252.601 10.2052H252.561C252.288 11.3268 251.922 12.5789 251.583 13.6092L250.514 17.0393H248.962L248.023 13.6353C247.736 12.605 247.436 11.3529 247.227 10.2052H247.201C247.149 11.392 247.11 12.7484 247.045 13.844L246.888 17.1828H245.049L245.61 8.39235H248.258L249.118 11.3268C249.392 12.3441 249.666 13.4397 249.862 14.47H249.901C250.149 13.4527 250.449 12.292 250.736 11.3138L251.675 8.39235H254.27L254.753 17.1828H252.809ZM259.284 17.1436V8.50973C260.014 8.39235 260.966 8.32714 261.97 8.32714C263.64 8.32714 264.722 8.62711 265.57 9.26617C266.483 9.94436 267.057 11.0269 267.057 12.5789C267.057 14.2613 266.444 15.4221 265.596 16.1394C264.67 16.9089 263.262 17.2741 261.54 17.2741C260.51 17.2741 259.779 17.2089 259.284 17.1436ZM261.279 9.93132V15.6829C261.449 15.722 261.723 15.722 261.97 15.722C263.77 15.7351 264.944 14.7439 264.944 12.6441C264.957 10.8182 263.888 9.85307 262.179 9.85307C261.736 9.85307 261.449 9.8922 261.279 9.93132ZM272.912 14.9265H270.395L269.769 17.1828H267.708L270.395 8.39235H273.003L275.729 17.1828H273.59L272.912 14.9265ZM270.682 13.4397H272.625L272.077 11.5746C271.921 11.0529 271.764 10.4008 271.634 9.87915H271.608C271.477 10.4008 271.347 11.066 271.204 11.5746L270.682 13.4397ZM278.918 17.1828H277.093V8.39235H279.414L281.24 11.6138C281.762 12.5398 282.283 13.6353 282.675 14.6265H282.714C282.583 13.4658 282.544 12.2789 282.544 10.9617V8.39235H284.37V17.1828H282.283L280.405 13.7918C279.884 12.8528 279.31 11.7181 278.879 10.6878L278.84 10.7008C278.892 11.8616 278.918 13.1006 278.918 14.5352V17.1828ZM289.106 17.1828V8.50973C289.719 8.40539 290.58 8.32714 291.793 8.32714C293.019 8.32714 293.893 8.56189 294.48 9.03141C295.041 9.47485 295.419 10.2052 295.419 11.066C295.419 11.9268 295.132 12.6571 294.61 13.1527C293.932 13.7918 292.928 14.0787 291.754 14.0787C291.493 14.0787 291.258 14.0657 291.076 14.0396V17.1828H289.106ZM291.076 9.90524V12.5006C291.245 12.5398 291.454 12.5528 291.741 12.5528C292.797 12.5528 293.449 12.0181 293.449 11.1182C293.449 10.3095 292.889 9.82698 291.897 9.82698C291.493 9.82698 291.219 9.86611 291.076 9.90524ZM302.101 11.8485V13.4658H298.866V15.5525H302.479V17.1828H296.871V8.39235H302.296V10.0226H298.866V11.8485H302.101ZM304.024 17.1828V8.50973C304.663 8.40539 305.615 8.32714 306.672 8.32714C307.976 8.32714 308.889 8.52277 309.515 9.01837C310.036 9.43572 310.323 10.0487 310.323 10.8573C310.323 11.9789 309.528 12.7484 308.771 13.0223V13.0614C309.384 13.3092 309.723 13.8961 309.945 14.7048C310.219 15.696 310.493 16.8437 310.663 17.1828H308.628C308.484 16.935 308.276 16.2176 308.015 15.1351C307.78 14.0396 307.402 13.7396 306.593 13.7266H305.993V17.1828H304.024ZM305.993 9.86611V12.292H306.776C307.767 12.292 308.354 11.7964 308.354 11.0269C308.354 10.2182 307.806 9.81394 306.893 9.8009C306.411 9.8009 306.137 9.84003 305.993 9.86611ZM311.865 8.39235H313.86V13.4527C313.86 14.9656 314.434 15.7351 315.451 15.7351C316.495 15.7351 317.069 15.0047 317.069 13.4527V8.39235H319.051V13.3223C319.051 16.0351 317.682 17.3262 315.386 17.3262C313.169 17.3262 311.865 16.1003 311.865 13.2962V8.39235ZM328.519 17.1828L328.388 13.8179C328.349 12.7615 328.31 11.4833 328.31 10.2052H328.271C327.997 11.3268 327.632 12.5789 327.293 13.6092L326.223 17.0393H324.671L323.732 13.6353C323.445 12.605 323.145 11.3529 322.937 10.2052H322.91C322.858 11.392 322.819 12.7484 322.754 13.844L322.597 17.1828H320.759L321.319 8.39235H323.967L324.828 11.3268C325.102 12.3441 325.375 13.4397 325.571 14.47H325.61C325.858 13.4527 326.158 12.292 326.445 11.3138L327.384 8.39235H329.979L330.462 17.1828H328.519ZM336.697 14.9265H334.18L333.554 17.1828H331.493L334.18 8.39235H336.788L339.514 17.1828H337.375L336.697 14.9265ZM334.467 13.4397H336.41L335.862 11.5746C335.706 11.0529 335.549 10.4008 335.419 9.87915H335.393C335.262 10.4008 335.132 11.066 334.988 11.5746L334.467 13.4397ZM340.877 8.39235H342.873V11.7703H346.146V8.39235H348.129V17.1828H346.146V13.5049H342.873V17.1828H340.877V8.39235ZM354.62 14.9265H352.103L351.477 17.1828H349.417L352.103 8.39235H354.712L357.437 17.1828H355.299L354.62 14.9265ZM352.39 13.4397H354.333L353.786 11.5746C353.629 11.0529 353.473 10.4008 353.342 9.87915H353.316C353.186 10.4008 353.055 11.066 352.912 11.5746L352.39 13.4397ZM360.627 17.1828H358.801V8.39235H361.122L362.948 11.6138C363.47 12.5398 363.992 13.6353 364.383 14.6265H364.422C364.292 13.4658 364.252 12.2789 364.252 10.9617V8.39235H366.078V17.1828H363.992L362.114 13.7918C361.592 12.8528 361.018 11.7181 360.588 10.6878L360.548 10.7008C360.601 11.8616 360.627 13.1006 360.627 14.5352V17.1828ZM370.815 17.1828V8.50973C371.454 8.40539 372.406 8.32714 373.462 8.32714C374.766 8.32714 375.679 8.52277 376.305 9.01837C376.827 9.43572 377.114 10.0487 377.114 10.8573C377.114 11.9789 376.318 12.7484 375.562 13.0223V13.0614C376.175 13.3092 376.514 13.8961 376.736 14.7048C377.01 15.696 377.284 16.8437 377.453 17.1828H375.418C375.275 16.935 375.066 16.2176 374.806 15.1351C374.571 14.0396 374.193 13.7396 373.384 13.7266H372.784V17.1828H370.815ZM372.784 9.86611V12.292H373.567C374.558 12.292 375.145 11.7964 375.145 11.0269C375.145 10.2182 374.597 9.81394 373.684 9.8009C373.201 9.8009 372.927 9.84003 372.784 9.86611ZM383.411 14.9265H380.894L380.268 17.1828H378.208L380.894 8.39235H383.503L386.228 17.1828H384.09L383.411 14.9265ZM381.181 13.4397H383.124L382.577 11.5746C382.42 11.0529 382.264 10.4008 382.133 9.87915H382.107C381.977 10.4008 381.846 11.066 381.703 11.5746L381.181 13.4397ZM387.592 17.1828V8.39235H389.561V12.2789H389.6C389.796 11.9398 390.005 11.6268 390.2 11.3138L392.196 8.39235H394.635L391.726 12.1354L394.791 17.1828H392.47L390.318 13.3875L389.561 14.3135V17.1828H387.592ZM399.615 17.1828H397.633V13.5831L394.855 8.39235H397.124L398.024 10.5052C398.298 11.1442 398.481 11.6138 398.702 12.1876H398.728C398.924 11.6398 399.133 11.1312 399.394 10.5052L400.281 8.39235H402.511L399.615 13.5179V17.1828ZM407.011 14.9265H404.493L403.867 17.1828H401.807L404.493 8.39235H407.102L409.828 17.1828H407.689L407.011 14.9265ZM404.78 13.4397H406.724L406.176 11.5746C406.019 11.0529 405.863 10.4008 405.732 9.87915H405.706C405.576 10.4008 405.446 11.066 405.302 11.5746L404.78 13.4397ZM411.804 17.1828V10.0617H409.443V8.39235H416.199V10.0617H413.799V17.1828H411.804Z" fill="#202020"/>
<path d="M53.1337 39.1186V24.9658C54.3309 24.7734 55.8915 24.6665 57.5377 24.6665C60.2742 24.6665 62.0486 25.1583 63.4383 26.2058C64.9348 27.3175 65.8754 29.092 65.8754 31.636C65.8754 34.3939 64.8706 36.2966 63.481 37.4725C61.9631 38.7338 59.6542 39.3324 56.8322 39.3324C55.1433 39.3324 53.9461 39.2255 53.1337 39.1186ZM56.4046 27.2961V36.7242C56.6825 36.7883 57.1315 36.7883 57.5377 36.7883C60.488 36.8097 62.4121 35.1849 62.4121 31.7429C62.4334 28.7499 60.6804 27.1679 57.8798 27.1679C57.1529 27.1679 56.6825 27.232 56.4046 27.2961ZM68.3249 24.7734H71.5959V39.1828H68.3249V24.7734ZM74.7266 39.1828V24.9658C75.7742 24.7948 77.3348 24.6665 79.0665 24.6665C81.2044 24.6665 82.7009 24.9872 83.7271 25.7996C84.5823 26.4837 85.0526 27.4886 85.0526 28.814C85.0526 30.6526 83.7485 31.914 82.5085 32.3629V32.4271C83.5133 32.8333 84.0692 33.7953 84.4326 35.1208C84.8816 36.7456 85.3305 38.6269 85.6085 39.1828H82.2734C82.0382 38.7766 81.6961 37.6007 81.2686 35.8263C80.8837 34.0305 80.2637 33.5388 78.9383 33.5174H77.9548V39.1828H74.7266ZM77.9548 27.1892V31.1657H79.2376C80.8624 31.1657 81.8244 30.3533 81.8244 29.092C81.8244 27.7665 80.9265 27.1037 79.43 27.0824C78.639 27.0824 78.19 27.1465 77.9548 27.1892ZM96.2778 30.4388V33.0898H90.9758V36.5104H96.8977V39.1828H87.7048V24.7734H96.5984V27.4458H90.9758V30.4388H96.2778ZM99.4304 39.1828V24.7734H102.659V31.1443H102.723C103.043 30.5885 103.385 30.0754 103.706 29.5623L106.977 24.7734H110.975L106.207 30.9092L111.232 39.1828H107.426L103.899 32.9615L102.659 34.4794V39.1828H99.4304ZM115.772 39.1828V27.5099H111.903V24.7734H122.977V27.5099H119.043V39.1828H115.772ZM130.734 24.5383C135.16 24.5383 137.575 27.852 137.575 31.8285C137.575 36.5532 134.711 39.4179 130.499 39.4179C126.223 39.4179 123.722 36.1897 123.722 32.085C123.722 27.7665 126.48 24.5383 130.734 24.5383ZM130.649 27.1251C128.447 27.1251 127.164 29.2202 127.164 32.0209C127.164 34.8429 128.489 36.8311 130.67 36.8311C132.872 36.8311 134.133 34.736 134.133 31.9353C134.133 29.3485 132.893 27.1251 130.649 27.1251ZM140.014 39.1828V24.9658C141.062 24.7948 142.623 24.6665 144.354 24.6665C146.492 24.6665 147.989 24.9872 149.015 25.7996C149.87 26.4837 150.34 27.4886 150.34 28.814C150.34 30.6526 149.036 31.914 147.796 32.3629V32.4271C148.801 32.8333 149.357 33.7953 149.72 35.1208C150.169 36.7456 150.618 38.6269 150.896 39.1828H147.561C147.326 38.7766 146.984 37.6007 146.556 35.8263C146.171 34.0305 145.551 33.5388 144.226 33.5174H143.243V39.1828H140.014ZM143.243 27.1892V31.1657H144.525C146.15 31.1657 147.112 30.3533 147.112 29.092C147.112 27.7665 146.214 27.1037 144.718 27.0824C143.927 27.0824 143.478 27.1465 143.243 27.1892ZM160.663 35.4842H156.537L155.511 39.1828H152.133L156.537 24.7734H160.813L165.281 39.1828H161.775L160.663 35.4842ZM157.007 33.047H160.193L159.295 29.9899C159.038 29.1347 158.782 28.0658 158.568 27.2106H158.525C158.311 28.0658 158.098 29.1561 157.862 29.9899L157.007 33.047ZM168.52 39.1828V27.5099H164.651V24.7734H175.725V27.5099H171.791V39.1828H168.52ZM185.208 33.8381V24.7734H188.458V33.8808C188.458 37.9856 186.491 39.4179 183.327 39.4179C182.578 39.4179 181.595 39.2897 180.954 39.0759L181.317 36.4463C181.766 36.5959 182.343 36.7028 182.985 36.7028C184.353 36.7028 185.208 36.0828 185.208 33.8381ZM200.054 30.4388V33.0898H194.752V36.5104H200.674V39.1828H191.481V24.7734H200.375V27.4458H194.752V30.4388H200.054ZM206.2 39.1828H203.207V24.7734H207.012L210.005 30.054C210.86 31.5719 211.715 33.3677 212.357 34.9925H212.421C212.207 33.0898 212.143 31.1443 212.143 28.9851V24.7734H215.136V39.1828H211.715L208.637 33.6243C207.782 32.085 206.841 30.225 206.135 28.5361L206.071 28.5575C206.157 30.4602 206.2 32.4912 206.2 34.8429V39.1828ZM218.273 39.1186V24.9658C219.47 24.7734 221.03 24.6665 222.677 24.6665C225.413 24.6665 227.188 25.1583 228.577 26.2058C230.074 27.3175 231.014 29.092 231.014 31.636C231.014 34.3939 230.01 36.2966 228.62 37.4725C227.102 38.7338 224.793 39.3324 221.971 39.3324C220.282 39.3324 219.085 39.2255 218.273 39.1186ZM221.544 27.2961V36.7242C221.821 36.7883 222.27 36.7883 222.677 36.7883C225.627 36.8097 227.551 35.1849 227.551 31.7429C227.572 28.7499 225.819 27.1679 223.019 27.1679C222.292 27.1679 221.821 27.232 221.544 27.2961ZM242.037 30.4388V33.0898H236.735V36.5104H242.657V39.1828H233.464V24.7734H242.357V27.4458H236.735V30.4388H242.037ZM245.189 39.1828V24.9658C246.237 24.7948 247.798 24.6665 249.529 24.6665C251.667 24.6665 253.164 24.9872 254.19 25.7996C255.045 26.4837 255.515 27.4886 255.515 28.814C255.515 30.6526 254.211 31.914 252.971 32.3629V32.4271C253.976 32.8333 254.532 33.7953 254.895 35.1208C255.344 36.7456 255.793 38.6269 256.071 39.1828H252.736C252.501 38.7766 252.159 37.6007 251.731 35.8263C251.346 34.0305 250.726 33.5388 249.401 33.5174H248.418V39.1828H245.189ZM248.418 27.1892V31.1657H249.7C251.325 31.1657 252.287 30.3533 252.287 29.092C252.287 27.7665 251.389 27.1037 249.893 27.0824C249.102 27.0824 248.653 27.1465 248.418 27.1892ZM265.838 35.4842H261.712L260.686 39.1828H257.308L261.712 24.7734H265.988L270.456 39.1828H266.95L265.838 35.4842ZM262.182 33.047H265.368L264.47 29.9899C264.213 29.1347 263.957 28.0658 263.743 27.2106H263.7C263.486 28.0658 263.273 29.1561 263.037 29.9899L262.182 33.047ZM272.691 39.1828V24.7734H275.962V36.4463H281.691V39.1828H272.691ZM288.542 39.1828V24.9658C289.547 24.7948 290.958 24.6665 292.946 24.6665C294.956 24.6665 296.388 25.0514 297.35 25.821C298.27 26.5479 298.89 27.7451 298.89 29.1561C298.89 30.5671 298.419 31.7643 297.564 32.5767C296.453 33.6243 294.806 34.0946 292.882 34.0946C292.455 34.0946 292.07 34.0732 291.771 34.0305V39.1828H288.542ZM291.771 27.2534V31.5078C292.048 31.5719 292.391 31.5933 292.861 31.5933C294.593 31.5933 295.661 30.7168 295.661 29.2416C295.661 27.9161 294.742 27.1251 293.117 27.1251C292.455 27.1251 292.006 27.1892 291.771 27.2534ZM309.843 30.4388V33.0898H304.541V36.5104H310.463V39.1828H301.27V24.7734H310.164V27.4458H304.541V30.4388H309.843ZM312.996 39.1828V24.9658C314.043 24.7948 315.604 24.6665 317.335 24.6665C319.473 24.6665 320.97 24.9872 321.996 25.7996C322.851 26.4837 323.322 27.4886 323.322 28.814C323.322 30.6526 322.017 31.914 320.777 32.3629V32.4271C321.782 32.8333 322.338 33.7953 322.702 35.1208C323.151 36.7456 323.599 38.6269 323.877 39.1828H320.542C320.307 38.7766 319.965 37.6007 319.537 35.8263C319.153 34.0305 318.533 33.5388 317.207 33.5174H316.224V39.1828H312.996ZM316.224 27.1892V31.1657H317.506C319.131 31.1657 320.093 30.3533 320.093 29.092C320.093 27.7665 319.195 27.1037 317.699 27.0824C316.908 27.0824 316.459 27.1465 316.224 27.1892ZM325.848 24.7734H329.119V33.0684C329.119 35.5484 330.06 36.8097 331.727 36.8097C333.437 36.8097 334.378 35.6125 334.378 33.0684V24.7734H337.628V32.8546C337.628 37.3014 335.383 39.4179 331.62 39.4179C327.986 39.4179 325.848 37.4083 325.848 32.8119V24.7734ZM353.147 39.1828L352.933 33.667C352.869 31.9353 352.805 29.8402 352.805 27.7451H352.741C352.292 29.5837 351.693 31.636 351.138 33.325L349.385 38.9476H346.84L345.301 33.3677C344.831 31.6788 344.339 29.6264 343.997 27.7451H343.954C343.869 29.6906 343.805 31.914 343.698 33.7098L343.441 39.1828H340.427L341.346 24.7734H345.686L347.097 29.5837C347.546 31.2512 347.995 33.047 348.316 34.736H348.38C348.786 33.0684 349.278 31.1657 349.748 29.5623L351.287 24.7734H355.542L356.333 39.1828H353.147ZM366.553 35.4842H362.427L361.401 39.1828H358.023L362.427 24.7734H366.703L371.171 39.1828H367.665L366.553 35.4842ZM362.897 33.047H366.083L365.185 29.9899C364.928 29.1347 364.672 28.0658 364.458 27.2106H364.415C364.201 28.0658 363.988 29.1561 363.752 29.9899L362.897 33.047ZM373.406 24.7734H376.677V30.3106H382.043V24.7734H385.292V39.1828H382.043V33.1539H376.677V39.1828H373.406V24.7734ZM395.933 35.4842H391.807L390.781 39.1828H387.403L391.807 24.7734H396.083L400.551 39.1828H397.045L395.933 35.4842ZM392.278 33.047H395.463L394.565 29.9899C394.309 29.1347 394.052 28.0658 393.838 27.2106H393.795C393.582 28.0658 393.368 29.1561 393.133 29.9899L392.278 33.047ZM405.779 39.1828H402.786V24.7734H406.591L409.584 30.054C410.44 31.5719 411.295 33.3677 411.936 34.9925H412C411.787 33.0898 411.722 31.1443 411.722 28.9851V24.7734H414.715V39.1828H411.295L408.216 33.6243C407.361 32.085 406.42 30.225 405.715 28.5361L405.651 28.5575C405.736 30.4602 405.779 32.4912 405.779 34.8429V39.1828Z" fill="#202020"/>
</svg>
