<svg width="41" height="40" viewBox="0 0 41 40" fill="none" xmlns="http://www.w3.org/2000/svg">
<g clip-path="url(#clip0_3823_2571)">
<circle cx="32.166" cy="31.6667" r="7.5" fill="#FDC535"/>
<path d="M13.3333 15H26.6667M13.3333 21.6667H23.3333M24.1667 30.8333L20 35L15 30H10C8.67392 30 7.40215 29.4732 6.46447 28.5355C5.52678 27.5979 5 26.3261 5 25V11.6667C5 10.3406 5.52678 9.06882 6.46447 8.13114C7.40215 7.19346 8.67392 6.66667 10 6.66667H30C31.3261 6.66667 32.5979 7.19346 33.5355 8.13114C34.4732 9.06882 35 10.3406 35 11.6667V19.1667M31.6667 36.6667V36.6833M31.6667 31.6667C32.4138 31.6643 33.1386 31.4113 33.725 30.9483C34.3113 30.4852 34.7254 29.8388 34.9009 29.1126C35.0764 28.3863 35.0032 27.6222 34.6931 26.9424C34.3829 26.2627 33.8536 25.7067 33.19 25.3633C32.527 25.0237 31.7685 24.9184 31.038 25.0645C30.3075 25.2107 29.648 25.5997 29.1667 26.1683" stroke="#0B3467" stroke-width="2.83333" stroke-linecap="round" stroke-linejoin="round"/>
</g>
<defs>
<clipPath id="clip0_3823_2571">
<rect width="40" height="40" fill="white" transform="translate(0.5)"/>
</clipPath>
</defs>
</svg>
