<svg width="41" height="40" viewBox="0 0 41 40" fill="none" xmlns="http://www.w3.org/2000/svg">
<g clip-path="url(#clip0_3343_3642)">
<circle cx="32.166" cy="31.6667" r="7.5" fill="#FDC535"/>
<path d="M13.5088 13.6296C15.4429 13.6296 17.009 15.0974 17.009 16.9102V34.7194C17.009 35.5894 16.6402 36.4239 15.9838 37.0391C15.3274 37.6544 14.4371 38 13.5088 38H4.50021C3.5719 38 2.68161 37.6544 2.02519 37.0391C1.36877 36.4239 1 35.5894 1 34.7194V16.9102C1 15.0974 2.5681 13.6296 4.50021 13.6296H13.5088ZM13.5088 16.4415H4.50021C4.3676 16.4415 4.24041 16.4909 4.14664 16.5788C4.05287 16.6667 4.00018 16.7859 4.00018 16.9102V34.7194C4.00018 34.9781 4.2242 35.188 4.50021 35.188H13.5088C13.6414 35.188 13.7686 35.1387 13.8623 35.0508C13.9561 34.9629 14.0088 34.8437 14.0088 34.7194V16.9102C14.0088 16.7859 13.9561 16.6667 13.8623 16.5788C13.7686 16.4909 13.6414 16.4415 13.5088 16.4415ZM9.50452 30.4958C9.88459 30.4959 10.2504 30.6312 10.5282 30.8744C10.8059 31.1176 10.9748 31.4505 11.0007 31.8059C11.0266 32.1613 10.9076 32.5127 10.6677 32.789C10.4279 33.0654 10.0851 33.2461 9.70854 33.2946L9.50452 33.3078H8.50446C8.12168 33.3114 7.7519 33.1778 7.47083 32.9342C7.18976 32.6906 7.01867 32.3556 6.9926 31.9976C6.96652 31.6397 7.08744 31.2859 7.33058 31.0088C7.57372 30.7317 7.92069 30.5522 8.30045 30.507L8.50446 30.4958H9.50452ZM39.5004 29.5585C39.8804 29.5586 40.2463 29.6939 40.524 29.9371C40.8017 30.1803 40.9706 30.5132 40.9965 30.8686C41.0224 31.224 40.9034 31.5754 40.6636 31.8517C40.4237 32.128 40.0809 32.3088 39.7044 32.3573L39.5024 32.3704L19.0011 32.3667V29.5547H39.5024L39.5004 29.5585ZM33.502 8C35.4341 8 37.0022 9.46972 37.0022 11.2806V25.3405C37.0022 26.2106 36.6334 27.045 35.977 27.6603C35.3206 28.2755 34.4303 28.6211 33.502 28.6211H19.0011V25.8092H33.502C33.6346 25.8092 33.7618 25.7598 33.8556 25.6719C33.9493 25.584 34.002 25.4648 34.002 25.3405V11.2806C34.002 11.1563 33.9493 11.0371 33.8556 10.9492C33.7618 10.8613 33.6346 10.812 33.502 10.812H8.50046C8.36784 10.812 8.24066 10.8613 8.14688 10.9492C8.05311 11.0371 8.00043 11.1563 8.00043 11.2806L7.99843 11.7474H5.00025V11.2806C5.00025 9.46972 6.56834 8 8.50046 8H33.502Z" fill="#0B3467"/>
</g>
<defs>
<clipPath id="clip0_3343_3642">
<rect width="40" height="40" fill="white" transform="translate(0.5)"/>
</clipPath>
</defs>
</svg>
