<svg width="40" height="40" viewBox="0 0 40 40" fill="none" xmlns="http://www.w3.org/2000/svg">
<g clip-path="url(#clip0_3836_4015)">
<circle cx="31.666" cy="31.6666" r="7.5" fill="#FDC535"/>
<path d="M24.7659 16.6927C19.5058 16.6927 15.704 21.7164 15.5448 21.9303L15.0234 22.6302L15.5448 23.3302C15.704 23.544 19.5058 28.5677 24.7659 28.5677C30.0259 28.5677 33.8277 23.5441 33.987 23.3302L34.5083 22.6302L33.987 21.9303C33.8277 21.7164 30.0259 16.6927 24.7659 16.6927ZM24.7659 26.224C21.7209 26.224 19.1436 23.8481 18.0227 22.6302C19.1437 21.4124 21.721 19.0365 24.7659 19.0365C27.8112 19.0365 30.389 21.4132 31.5091 22.6302C30.3882 23.848 27.8108 26.224 24.7659 26.224Z" fill="#0B3467"/>
<path d="M23.5938 21.4584H25.9375V23.8021H23.5938V21.4584Z" fill="#0B3467"/>
<path d="M33.7388 10.9896H30.3125V7.09462C30.3125 3.6422 27.5037 0.833374 24.0512 0.833374H6.26133C2.80883 0.833374 0 3.64212 0 7.09462L7.8125e-05 17.8014C7.8125e-05 21.2538 2.80883 24.0627 6.26133 24.0627H9.6875V39.1606H12.4612L18.1769 34.2189H33.7388C37.1912 34.2189 40 31.4101 40 27.9577V17.2509C40 13.7984 37.1912 10.9896 33.7388 10.9896ZM6.26133 21.7189C4.10125 21.7189 2.34383 19.9615 2.34383 17.8014L2.34375 7.09462C2.34375 4.93447 4.10117 3.17712 6.26133 3.17712H24.0512C26.2113 3.17712 27.9688 4.93447 27.9688 7.09462V10.9896H6.40625V13.3334H11.0696C10.5227 14.0132 10.1138 14.8084 9.88805 15.6771H6.40625V18.0209H9.6875V21.7189H6.26133ZM37.6562 27.9577C37.6562 30.1177 35.8989 31.8752 33.7388 31.8752H17.3042L12.0312 36.4341V17.2509C12.0312 15.0908 13.7887 13.3334 15.9488 13.3334H33.7388C35.8989 13.3334 37.6563 15.0908 37.6563 17.2509V27.9577H37.6562Z" fill="#0B3467"/>
<path d="M6.40625 6.30212H23.9062V8.64587H6.40625V6.30212Z" fill="#0B3467"/>
</g>
<defs>
<clipPath id="clip0_3836_4015">
<rect width="40" height="40" fill="white"/>
</clipPath>
</defs>
</svg>
