<svg width="40" height="48" viewBox="0 0 40 48" fill="none" xmlns="http://www.w3.org/2000/svg">
<g clip-path="url(#clip0_3348_3914)">
<circle cx="31.5" cy="36.5" r="7.5" fill="#FDC535"/>
<path d="M4.58203 7.58342H39.4154M10.9154 7.58342V15.5001C10.9154 20.2501 18.832 20.6222 18.832 25.0001C18.832 29.378 10.9154 29.7501 10.9154 34.5001V42.4168M33.082 7.58342V15.5001C33.082 20.2501 25.1654 20.6222 25.1654 25.0001C25.1654 29.378 33.082 29.7501 33.082 34.5001V42.4168M4.58203 42.4168H39.4154M18.832 13.1251H25.1654V15.5001C25.1654 17.0834 21.9987 18.6668 21.9987 18.6668C21.9987 18.6668 18.832 17.0834 18.832 15.5001V13.1251ZM15.6654 39.2501C15.6654 36.0834 21.9987 32.9168 21.9987 32.9168C21.9987 32.9168 28.332 36.0834 28.332 39.2501V42.4168H15.6654V39.2501Z" stroke="#0B3467" stroke-width="2.53333"/>
</g>
<defs>
<clipPath id="clip0_3348_3914">
<rect width="40" height="48" fill="white"/>
</clipPath>
</defs>
</svg>
