<svg width="41" height="40" viewBox="0 0 41 40" fill="none" xmlns="http://www.w3.org/2000/svg">
<rect width="40" height="40" transform="translate(0.5)" fill="white"/>
<g clip-path="url(#clip0_3836_3864)">
<circle cx="32.166" cy="31.6667" r="7.5" fill="#FDC535"/>
<g clip-path="url(#clip1_3836_3864)">
<path d="M9.5 22C11.28 22 13.0201 21.4722 14.5001 20.4832C15.9802 19.4943 17.1337 18.0887 17.8149 16.4442C18.4961 14.7996 18.6743 12.99 18.3271 11.2442C17.9798 9.49836 17.1226 7.89471 15.864 6.63604C14.6053 5.37737 13.0016 4.5202 11.2558 4.17294C9.50998 3.82567 7.70038 4.0039 6.05585 4.68509C4.41131 5.36628 3.00571 6.51983 2.01677 7.99987C1.02784 9.47991 0.5 11.22 0.5 13C0.502647 15.3861 1.45171 17.6738 3.13896 19.361C4.82622 21.0483 7.11386 21.9974 9.5 22ZM9.5 6C10.8845 6 12.2378 6.41055 13.389 7.17972C14.5401 7.94888 15.4373 9.04214 15.9672 10.3212C16.497 11.6003 16.6356 13.0078 16.3655 14.3656C16.0954 15.7235 15.4287 16.9708 14.4497 17.9497C13.4708 18.9287 12.2235 19.5954 10.8656 19.8655C9.50776 20.1356 8.1003 19.997 6.82121 19.4672C5.54213 18.9373 4.44888 18.0401 3.67971 16.889C2.91054 15.7378 2.5 14.3845 2.5 13C2.50225 11.1442 3.24047 9.36501 4.55274 8.05274C5.865 6.74047 7.64417 6.00225 9.5 6Z" fill="#0B3467"/>
<path d="M7.5 12C7.63134 12.0001 7.76142 11.9743 7.88278 11.924C8.00414 11.8738 8.11441 11.8002 8.20728 11.7073C8.30016 11.6144 8.37381 11.5041 8.42404 11.3828C8.47427 11.2614 8.50008 11.1313 8.5 11V10C8.5 9.73478 8.39464 9.48043 8.20711 9.29289C8.01957 9.10536 7.76522 9 7.5 9C7.23478 9 6.98043 9.10536 6.79289 9.29289C6.60536 9.48043 6.5 9.73478 6.5 10V11C6.49992 11.1313 6.52573 11.2614 6.57596 11.3828C6.62619 11.5041 6.69984 11.6144 6.79272 11.7073C6.88559 11.8002 6.99586 11.8738 7.11722 11.924C7.23858 11.9743 7.36866 12.0001 7.5 12Z" fill="#0B3467"/>
<path d="M11.5 12C11.6313 12.0001 11.7614 11.9743 11.8828 11.924C12.0041 11.8738 12.1144 11.8002 12.2073 11.7073C12.3002 11.6144 12.3738 11.5041 12.424 11.3828C12.4743 11.2614 12.5001 11.1313 12.5 11V10C12.5 9.73478 12.3946 9.48043 12.2071 9.29289C12.0196 9.10536 11.7652 9 11.5 9C11.2348 9 10.9804 9.10536 10.7929 9.29289C10.6054 9.48043 10.5 9.73478 10.5 10V11C10.4999 11.1313 10.5257 11.2614 10.576 11.3828C10.6262 11.5041 10.6998 11.6144 10.7927 11.7073C10.8856 11.8002 10.9959 11.8738 11.1172 11.924C11.2386 11.9743 11.3687 12.0001 11.5 12Z" fill="#0B3467"/>
<path d="M9.50063 17.5214C10.8088 17.5169 12.0783 17.0771 13.109 16.2714C13.2141 16.1919 13.3024 16.0923 13.3688 15.9785C13.4353 15.8647 13.4786 15.7389 13.4962 15.6083C13.5138 15.4777 13.5054 15.3449 13.4715 15.2175C13.4376 15.0901 13.3789 14.9707 13.2987 14.8662C13.2184 14.7616 13.1183 14.674 13.0041 14.6082C12.8899 14.5425 12.7638 14.5 12.633 14.4832C12.5023 14.4665 12.3696 14.4757 12.2424 14.5104C12.1153 14.5451 11.9963 14.6046 11.8922 14.6855C11.2084 15.2172 10.3669 15.5058 9.50063 15.5058C8.63441 15.5058 7.79289 15.2172 7.10903 14.6855C7.00498 14.6046 6.88596 14.5451 6.75883 14.5104C6.63169 14.4757 6.49894 14.4665 6.36823 14.4832C6.23751 14.5 6.11141 14.5425 5.99717 14.6082C5.88294 14.674 5.78283 14.7616 5.7026 14.8662C5.62238 14.9707 5.56363 15.0901 5.52973 15.2175C5.49583 15.3449 5.48745 15.4777 5.50507 15.6083C5.5227 15.7389 5.56598 15.8647 5.63242 15.9785C5.69887 16.0923 5.78716 16.1919 5.89223 16.2714C6.92292 17.0771 8.19242 17.5169 9.50063 17.5214Z" fill="#0B3467"/>
<path d="M31.5 22C33.28 22 35.0201 21.4722 36.5001 20.4832C37.9802 19.4943 39.1337 18.0887 39.8149 16.4442C40.4961 14.7996 40.6743 12.99 40.3271 11.2442C39.9798 9.49836 39.1226 7.89471 37.864 6.63604C36.6053 5.37737 35.0016 4.5202 33.2558 4.17294C31.51 3.82567 29.7004 4.0039 28.0558 4.68509C26.4113 5.36628 25.0057 6.51983 24.0168 7.99987C23.0278 9.47991 22.5 11.22 22.5 13C22.5026 15.3861 23.4517 17.6738 25.139 19.361C26.8262 21.0483 29.1139 21.9974 31.5 22ZM31.5 6C32.8845 6 34.2378 6.41055 35.389 7.17972C36.5401 7.94888 37.4373 9.04214 37.9672 10.3212C38.497 11.6003 38.6356 13.0078 38.3655 14.3656C38.0954 15.7235 37.4287 16.9708 36.4497 17.9497C35.4708 18.9287 34.2235 19.5954 32.8656 19.8655C31.5078 20.1356 30.1003 19.997 28.8212 19.4672C27.5421 18.9373 26.4489 18.0401 25.6797 16.889C24.9105 15.7378 24.5 14.3845 24.5 13C24.5022 11.1442 25.2405 9.36501 26.5527 8.05274C27.865 6.74047 29.6442 6.00225 31.5 6Z" fill="#0B3467"/>
<path d="M29.5 12C29.6313 12.0001 29.7614 11.9743 29.8828 11.924C30.0041 11.8738 30.1144 11.8002 30.2073 11.7073C30.3002 11.6144 30.3738 11.5041 30.424 11.3828C30.4743 11.2614 30.5001 11.1313 30.5 11V10C30.5 9.73478 30.3946 9.48043 30.2071 9.29289C30.0196 9.10536 29.7652 9 29.5 9C29.2348 9 28.9804 9.10536 28.7929 9.29289C28.6054 9.48043 28.5 9.73478 28.5 10V11C28.4999 11.1313 28.5257 11.2614 28.576 11.3828C28.6262 11.5041 28.6998 11.6144 28.7927 11.7073C28.8856 11.8002 28.9959 11.8738 29.1172 11.924C29.2386 11.9743 29.3687 12.0001 29.5 12Z" fill="#0B3467"/>
<path d="M33.5 12C33.6313 12.0001 33.7614 11.9743 33.8828 11.924C34.0041 11.8738 34.1144 11.8002 34.2073 11.7073C34.3002 11.6144 34.3738 11.5041 34.424 11.3828C34.4743 11.2614 34.5001 11.1313 34.5 11V10C34.5 9.73478 34.3946 9.48043 34.2071 9.29289C34.0196 9.10536 33.7652 9 33.5 9C33.2348 9 32.9804 9.10536 32.7929 9.29289C32.6054 9.48043 32.5 9.73478 32.5 10V11C32.4999 11.1313 32.5257 11.2614 32.576 11.3828C32.6262 11.5041 32.6998 11.6144 32.7927 11.7073C32.8856 11.8002 32.9959 11.8738 33.1172 11.924C33.2386 11.9743 33.3687 12.0001 33.5 12Z" fill="#0B3467"/>
<path d="M29.109 16.8144C29.7929 16.2828 30.6344 15.9941 31.5006 15.9941C32.3669 15.9941 33.2084 16.2828 33.8922 16.8144C34.066 16.9492 34.2798 17.0221 34.4996 17.0215C34.7085 17.0215 34.9122 16.9561 35.0821 16.8345C35.2519 16.7129 35.3794 16.5411 35.4466 16.3433C35.5138 16.1455 35.5174 15.9316 35.4569 15.7317C35.3963 15.5317 35.2747 15.3558 35.109 15.2285C34.0745 14.4325 32.8059 14.001 31.5006 14.001C30.1954 14.001 28.9267 14.4325 27.8922 15.2285C27.7872 15.3081 27.6989 15.4076 27.6324 15.5214C27.566 15.6352 27.5227 15.7611 27.5051 15.8917C27.4874 16.0223 27.4958 16.1551 27.5297 16.2824C27.5636 16.4098 27.6224 16.5292 27.7026 16.6338C27.7828 16.7383 27.8829 16.826 27.9972 16.8917C28.1114 16.9574 28.2375 16.9999 28.3682 17.0167C28.4989 17.0335 28.6317 17.0243 28.7588 16.9896C28.886 16.9548 29.005 16.8953 29.109 16.8144Z" fill="#0B3467"/>
<path d="M36.5 28H4.5C3.43913 28 2.42172 28.4214 1.67157 29.1716C0.921427 29.9217 0.5 30.9391 0.5 32C0.5 33.0609 0.921427 34.0783 1.67157 34.8284C2.42172 35.5786 3.43913 36 4.5 36H36.5C37.5609 36 38.5783 35.5786 39.3284 34.8284C40.0786 34.0783 40.5 33.0609 40.5 32C40.5 30.9391 40.0786 29.9217 39.3284 29.1716C38.5783 28.4214 37.5609 28 36.5 28ZM2.5 32C2.50053 31.4697 2.71141 30.9613 3.08637 30.5864C3.46133 30.2114 3.96973 30.0005 4.5 30H22.5V34H4.5C3.96973 33.9995 3.46133 33.7886 3.08637 33.4136C2.71141 33.0387 2.50053 32.5303 2.5 32ZM36.5 34H24.5V30H36.5C37.0304 30 37.5391 30.2107 37.9142 30.5858C38.2893 30.9609 38.5 31.4696 38.5 32C38.5 32.5304 38.2893 33.0391 37.9142 33.4142C37.5391 33.7893 37.0304 34 36.5 34Z" fill="#0B3467"/>
</g>
</g>
<defs>
<clipPath id="clip0_3836_3864">
<rect width="40" height="40" fill="white" transform="translate(0.5)"/>
</clipPath>
<clipPath id="clip1_3836_3864">
<rect width="40" height="40" fill="white" transform="translate(0.5)"/>
</clipPath>
</defs>
</svg>
