<svg width="40" height="40" viewBox="0 0 40 40" fill="none" xmlns="http://www.w3.org/2000/svg">
<g clip-path="url(#clip0_3836_3961)">
<circle cx="31.666" cy="31.6666" r="7.5" fill="#FDC535"/>
<path d="M23.6353 24.5454C23.6353 24.0436 23.228 23.6364 22.7262 23.6364H9.99893C9.49712 23.6364 9.08984 24.0436 9.08984 24.5454C9.08984 25.0473 9.49712 25.4545 9.99893 25.4545H22.7262C23.228 25.4545 23.6353 25.0473 23.6353 24.5454Z" fill="#0B3467"/>
<path d="M23.6353 20C23.6353 19.4982 23.228 19.0909 22.7262 19.0909H9.99893C9.49712 19.0909 9.08984 19.4982 9.08984 20C9.08984 20.5019 9.49712 20.9091 9.99893 20.9091H22.7262C23.228 20.9091 23.6353 20.5019 23.6353 20Z" fill="#0B3467"/>
<path d="M23.6353 15.4545C23.6353 14.9527 23.228 14.5454 22.7262 14.5454H9.99893C9.49712 14.5454 9.08984 14.9527 9.08984 15.4545C9.08984 15.9563 9.49712 16.3636 9.99893 16.3636H22.7262C23.228 16.3636 23.6353 15.9563 23.6353 15.4545Z" fill="#0B3467"/>
<path d="M23.6353 10.9091C23.6353 10.4073 23.228 10 22.7262 10H9.99893C9.49712 10 9.08984 10.4073 9.08984 10.9091C9.08984 11.4109 9.49712 11.8182 9.99893 11.8182H22.7262C23.228 11.8182 23.6353 11.4109 23.6353 10.9091Z" fill="#0B3467"/>
<path d="M29.9986 23.6364H26.3622C25.8604 23.6364 25.4531 24.0436 25.4531 24.5454C25.4531 25.0473 25.8604 25.4545 26.3622 25.4545H29.9986C30.5004 25.4545 30.9077 25.0473 30.9077 24.5454C30.9077 24.0436 30.5004 23.6364 29.9986 23.6364Z" fill="#0B3467"/>
<path d="M9.99893 28.1818C9.49712 28.1818 9.08984 28.589 9.08984 29.0909C9.08984 29.5927 9.49712 29.9999 9.99893 29.9999H18.1808C18.6826 29.9999 19.0898 29.5927 19.0898 29.0909C19.0898 28.589 18.6826 28.1818 18.1808 28.1818H9.99893Z" fill="#0B3467"/>
<path d="M29.9986 19.0909H26.3622C25.8604 19.0909 25.4531 19.4982 25.4531 20C25.4531 20.5019 25.8604 20.9091 26.3622 20.9091H29.9986C30.5004 20.9091 30.9077 20.5019 30.9077 20C30.9077 19.4982 30.5004 19.0909 29.9986 19.0909Z" fill="#0B3467"/>
<path d="M29.9986 14.5454H26.3622C25.8604 14.5454 25.4531 14.9527 25.4531 15.4545C25.4531 15.9563 25.8604 16.3636 26.3622 16.3636H29.9986C30.5004 16.3636 30.9077 15.9563 30.9077 15.4545C30.9077 14.9527 30.5004 14.5454 29.9986 14.5454Z" fill="#0B3467"/>
<path d="M21.8173 29.9999H24.5446C25.0464 29.9999 25.4537 29.5927 25.4537 29.0909C25.4537 28.589 25.0464 28.1818 24.5446 28.1818H21.8173C21.3155 28.1818 20.9082 28.589 20.9082 29.0909C20.9082 29.5927 21.3155 29.9999 21.8173 29.9999Z" fill="#0B3467"/>
<path d="M34.5449 9.09091H28.1813C27.6804 9.09091 27.2722 8.68273 27.2722 8.18182V4.54545C27.2722 4.04364 26.8649 3.63636 26.3631 3.63636C25.8613 3.63636 25.454 4.04364 25.454 4.54545V8.18182C25.454 9.68546 26.6776 10.9091 28.1813 10.9091H33.6358V37.2727C33.6358 37.7736 33.2276 38.1818 32.7267 38.1818H7.27219C6.77129 38.1818 6.3631 37.7736 6.3631 37.2727V2.72727C6.3631 2.22636 6.77129 1.81818 7.27219 1.81818H26.9304L33.9458 7.95636C34.3249 8.28727 34.8986 8.24909 35.2286 7.87091C35.5595 7.49273 35.5213 6.91909 35.1431 6.58818L27.8704 0.224545C27.7049 0.08 27.4922 0 27.2722 0H7.27219C5.76856 0 4.54492 1.22364 4.54492 2.72727V37.2727C4.54492 38.7764 5.76856 40 7.27219 40H32.7267C34.2304 40 35.454 38.7764 35.454 37.2727V10C35.454 9.49818 35.0467 9.09091 34.5449 9.09091Z" fill="#0B3467"/>
</g>
<defs>
<clipPath id="clip0_3836_3961">
<rect width="40" height="40" fill="white"/>
</clipPath>
</defs>
</svg>
