<svg width="41" height="40" viewBox="0 0 41 40" fill="none" xmlns="http://www.w3.org/2000/svg">
<g clip-path="url(#clip0_3836_3898)">
<circle cx="32.166" cy="31.6666" r="7.5" fill="#FDC535"/>
<path d="M17.7731 20.909H8.68217C8.18036 20.909 7.77308 21.3163 7.77308 21.8181V37.2726H5.9549V16.3636C5.9549 15.8617 5.54763 15.4545 5.04581 15.4545C4.54399 15.4545 4.13672 15.8617 4.13672 16.3636V38.1817C4.13672 38.6836 4.54399 39.0908 5.04581 39.0908H17.7731C18.2749 39.0908 18.6822 38.6836 18.6822 38.1817V21.8181C18.6822 21.3163 18.2749 20.909 17.7731 20.909ZM9.59126 22.7272H16.864V37.2726H9.59126V22.7272Z" fill="#0B3467"/>
<path d="M15.0458 30.909C15.5479 30.909 15.9549 30.502 15.9549 29.9999C15.9549 29.4978 15.5479 29.0908 15.0458 29.0908C14.5437 29.0908 14.1367 29.4978 14.1367 29.9999C14.1367 30.502 14.5437 30.909 15.0458 30.909Z" fill="#0B3467"/>
<path d="M25.046 11.8182C25.046 9.3118 23.0069 7.27271 20.5005 7.27271C17.9942 7.27271 15.9551 9.3118 15.9551 11.8182C15.9551 14.3245 17.9942 16.3636 20.5005 16.3636C23.0069 16.3636 25.046 14.3245 25.046 11.8182ZM20.5005 9.09089C21.6842 9.09089 22.6842 9.85361 23.0605 10.9091H17.9414C18.3169 9.85361 19.3169 9.09089 20.5005 9.09089ZM17.9405 12.7273H23.0596C22.6833 13.7827 21.6833 14.5454 20.4996 14.5454C19.316 14.5454 18.3169 13.7827 17.9405 12.7273Z" fill="#0B3467"/>
<path d="M21.4091 33.6363H26.8636H32.3182C32.82 33.6363 33.2273 33.2291 33.2273 32.7272V21.8181C33.2273 21.3163 32.82 20.9091 32.3182 20.9091H21.4091C20.9073 20.9091 20.5 21.3163 20.5 21.8181V32.7272C20.5 33.2291 20.9073 33.6363 21.4091 33.6363ZM31.4091 22.7272V31.8181H27.7727V25.4545C27.7727 24.9527 27.3655 24.5454 26.8636 24.5454C26.3618 24.5454 25.9545 24.9527 25.9545 25.4545V31.8181H22.3182V22.7272H31.4091Z" fill="#0B3467"/>
<path d="M38.4318 11.7991L35.9209 10.1672C35.9318 10.1109 35.9545 10.0591 35.9545 9.99997V2.72724C36.4564 2.72724 36.8636 2.31997 36.8636 1.81815C36.8636 1.31633 36.4564 0.909058 35.9545 0.909058H35.0455H31.4091H30.5C29.9982 0.909058 29.5909 1.31633 29.5909 1.81815C29.5909 2.31997 29.9982 2.72724 30.5 2.72724V5.45451C30.5 5.95633 30.9073 6.3636 31.4091 6.3636C31.9109 6.3636 32.3182 5.95633 32.3182 5.45451V2.72724H34.1364V9.00633L22.6664 1.55088C21.3727 0.710876 19.6282 0.710876 18.3336 1.55088L2.56818 11.7991C1.27364 12.6409 0.5 14.0654 0.5 15.61V16.3636C0.5 16.8654 0.907273 17.2727 1.40909 17.2727C1.91091 17.2727 2.31818 16.8654 2.31818 16.3636V15.61C2.31818 14.6827 2.78182 13.8281 3.55909 13.3227L19.3236 3.07633C20.0264 2.61997 20.9736 2.62088 21.6755 3.07633L37.4409 13.3236C38.1745 13.8 38.6282 14.5891 38.6773 15.4554H35.9545C35.4527 15.4554 35.0455 15.8627 35.0455 16.3645V37.2736H21.4091C20.9073 37.2736 20.5 37.6809 20.5 38.1827C20.5 38.6845 20.9073 39.0918 21.4091 39.0918H35.9545C36.4564 39.0918 36.8636 38.6845 36.8636 38.1827V17.2727H39.5909C40.0927 17.2727 40.5 16.8654 40.5 16.3636V15.61C40.5 14.0654 39.7264 12.6409 38.4318 11.7991Z" fill="#0B3467"/>
</g>
<defs>
<clipPath id="clip0_3836_3898">
<rect width="40" height="40" fill="white" transform="translate(0.5)"/>
</clipPath>
</defs>
</svg>
