<svg width="41" height="40" viewBox="0 0 41 40" fill="none" xmlns="http://www.w3.org/2000/svg">
<rect width="40" height="40" transform="translate(0.5)" fill="white"/>
<g clip-path="url(#clip0_3343_3693)">
<circle cx="32.166" cy="31.6667" r="7.5" fill="#FDC535"/>
<path d="M28.8333 26.6667V30C28.8333 30.8841 28.4821 31.7319 27.857 32.357C27.2319 32.9821 26.3841 33.3333 25.5 33.3333H8.83333C7.94928 33.3333 7.10143 32.9821 6.47631 32.357C5.85119 31.7319 5.5 30.8841 5.5 30V18.3333C5.5 17.4493 5.85119 16.6014 6.47631 15.9763C7.10143 15.3512 7.94928 15 8.83333 15H12.1667M17.1667 8.33333H15.5C14.6159 8.33333 13.7681 8.68452 13.143 9.30964C12.5179 9.93477 12.1667 10.7826 12.1667 11.6667V23.3333C12.1667 24.2174 12.5179 25.0652 13.143 25.6904C13.7681 26.3155 14.6159 26.6667 15.5 26.6667H32.1667C33.0507 26.6667 33.8986 26.3155 34.5237 25.6904C35.1488 25.0652 35.5 24.2174 35.5 23.3333V11.6667C35.5 10.7826 35.1488 9.93477 34.5237 9.30964C33.8986 8.68452 33.0507 8.33333 32.1667 8.33333H30.5M28.8333 15L23.8333 20M23.8333 20L18.8333 15M23.8333 20V5" stroke="#0B3467" stroke-width="3" stroke-linecap="round" stroke-linejoin="round"/>
</g>
<defs>
<clipPath id="clip0_3343_3693">
<rect width="40" height="40" fill="white" transform="translate(0.5)"/>
</clipPath>
</defs>
</svg>
