<svg width="16" height="17" viewBox="0 0 16 17" fill="none" xmlns="http://www.w3.org/2000/svg">
<path d="M5.87877 9.71499L5.87878 9.71501L5.88167 9.7121C5.89716 9.69647 5.91559 9.68408 5.9359 9.67561C5.95621 9.66715 5.978 9.6628 6 9.6628C6.022 9.6628 6.04379 9.66715 6.0641 9.67561C6.08441 9.68408 6.10284 9.69647 6.11833 9.7121L6.11842 9.71218L6.97842 10.5788L7.83333 11.4404V10.2267V2.49999C7.83333 2.45579 7.85089 2.4134 7.88215 2.38214C7.91341 2.35089 7.9558 2.33333 8 2.33333C8.0442 2.33333 8.0866 2.35089 8.11785 2.38214C8.14911 2.4134 8.16667 2.45579 8.16667 2.49999V10.2267V11.4404L9.02158 10.5788L9.88022 9.71355C9.88036 9.71341 9.88051 9.71326 9.88065 9.71312C9.91237 9.68162 9.95528 9.66393 10 9.66393C10.0449 9.66393 10.088 9.68178 10.1198 9.71355C10.1515 9.74532 10.1694 9.7884 10.1694 9.83333C10.1694 9.87825 10.1515 9.92134 10.1198 9.95311L8.11978 11.9531L8.11833 11.9546C8.10284 11.9702 8.0844 11.9826 8.0641 11.991C8.04379 11.9995 8.022 12.0039 8 12.0039C7.978 12.0039 7.95621 11.9995 7.9359 11.991C7.9156 11.9826 7.89716 11.9702 7.88167 11.9546L7.88022 11.9531L5.88022 9.9531L5.87877 9.95166C5.86315 9.93617 5.85075 9.91774 5.84229 9.89742C5.83382 9.87711 5.82947 9.85533 5.82947 9.83333C5.82947 9.81133 5.83382 9.78954 5.84229 9.76923C5.85075 9.74892 5.86315 9.73049 5.87877 9.71499ZM10.6667 7H12C12.3978 7 12.7794 7.15803 13.0607 7.43933C13.342 7.72064 13.5 8.10217 13.5 8.5V13.1667C13.5 13.5645 13.342 13.946 13.0607 14.2273C12.7794 14.5086 12.3978 14.6667 12 14.6667H4C3.60218 14.6667 3.22064 14.5086 2.93934 14.2273C2.65804 13.946 2.5 13.5645 2.5 13.1667V8.5C2.5 8.10217 2.65804 7.72064 2.93934 7.43933C3.22064 7.15803 3.60218 7 4 7H5.33333C5.37754 7 5.41993 7.01755 5.45118 7.04881C5.48244 7.08007 5.5 7.12246 5.5 7.16666C5.5 7.21086 5.48244 7.25326 5.45118 7.28451C5.41993 7.31577 5.37754 7.33333 5.33333 7.33333H4C3.69058 7.33333 3.39383 7.45624 3.17504 7.67504C2.95625 7.89383 2.83333 8.19058 2.83333 8.5V13.1667C2.83333 13.4761 2.95625 13.7728 3.17504 13.9916C3.39384 14.2104 3.69058 14.3333 4 14.3333H12C12.3094 14.3333 12.6062 14.2104 12.825 13.9916C13.0438 13.7728 13.1667 13.4761 13.1667 13.1667V8.5C13.1667 8.19058 13.0438 7.89383 12.825 7.67504C12.6062 7.45624 12.3094 7.33333 12 7.33333H10.6667C10.6225 7.33333 10.5801 7.31577 10.5488 7.28451C10.5176 7.25326 10.5 7.21086 10.5 7.16666C10.5 7.12246 10.5176 7.08007 10.5488 7.04881C10.5801 7.01755 10.6225 7 10.6667 7Z" fill="white" stroke="white"/>
</svg>
