<svg width="65" height="65" viewBox="0 0 65 65" fill="none" xmlns="http://www.w3.org/2000/svg">
<g filter="url(#filter0_d_1704_3090)">
<circle cx="32.3058" cy="29.6906" r="17.3058" fill="white"/>
</g>
<circle cx="32.114" cy="29.4988" r="14.2293" fill="#204D84"/>
<path d="M29.6097 34.3164L29.1814 33.2521L31.8681 30.2798C32.0152 30.1241 32.171 29.9424 32.3354 29.7347C32.5085 29.527 32.6729 29.315 32.8286 29.0987C32.993 28.8737 33.1228 28.6574 33.218 28.4497C33.3132 28.2334 33.3608 28.0387 33.3608 27.8657C33.3608 27.6666 33.3175 27.4936 33.231 27.3465C33.1444 27.1907 33.019 27.0696 32.8546 26.9831C32.6902 26.8965 32.4868 26.8533 32.2445 26.8533C32.0196 26.8533 31.8076 26.9138 31.6086 27.035C31.4095 27.1475 31.2235 27.3162 31.0504 27.5412C30.8774 27.7661 30.726 28.0387 30.5962 28.3589L29.1425 27.5412C29.3155 27.0393 29.5621 26.6023 29.8823 26.2303C30.2025 25.8582 30.5832 25.5683 31.0245 25.3606C31.4658 25.153 31.9374 25.0491 32.4392 25.0491C32.9671 25.0578 33.443 25.1703 33.867 25.3866C34.291 25.6029 34.6241 25.9058 34.8664 26.2951C35.1087 26.6845 35.2298 27.1345 35.2298 27.645C35.2298 27.8354 35.2082 28.0301 35.1649 28.2291C35.1303 28.4281 35.0654 28.6358 34.9702 28.8521C34.8837 29.0684 34.7669 29.2977 34.6198 29.54C34.4813 29.7736 34.3083 30.0246 34.1006 30.2928C33.9016 30.5524 33.6723 30.825 33.4127 31.1105L31.349 33.3559L31.0894 32.5642H35.6062V34.3164H29.6097Z" fill="white"/>
<defs>
<filter id="filter0_d_1704_3090" x="0.578464" y="0.847537" width="63.4544" height="63.4544" filterUnits="userSpaceOnUse" color-interpolation-filters="sRGB">
<feFlood flood-opacity="0" result="BackgroundImageFix"/>
<feColorMatrix in="SourceAlpha" type="matrix" values="0 0 0 0 0 0 0 0 0 0 0 0 0 0 0 0 0 0 127 0" result="hardAlpha"/>
<feOffset dy="2.88431"/>
<feGaussianBlur stdDeviation="7.21077"/>
<feComposite in2="hardAlpha" operator="out"/>
<feColorMatrix type="matrix" values="0 0 0 0 0.803542 0 0 0 0 0.869448 0 0 0 0 0.95 0 0 0 1 0"/>
<feBlend mode="normal" in2="BackgroundImageFix" result="effect1_dropShadow_1704_3090"/>
<feBlend mode="normal" in="SourceGraphic" in2="effect1_dropShadow_1704_3090" result="shape"/>
</filter>
</defs>
</svg>
