<svg width="65" height="65" viewBox="0 0 65 65" fill="none" xmlns="http://www.w3.org/2000/svg">
<g filter="url(#filter0_d_1704_3099)">
<circle cx="32.5012" cy="29.632" r="17.3058" fill="white"/>
</g>
<circle cx="32.3093" cy="29.4421" r="14.2293" fill="#204D84"/>
<path d="M32.5693 34.79C31.8684 34.79 31.2541 34.6385 30.7263 34.3357C30.2071 34.0328 29.7268 33.5136 29.2855 32.7781L30.7133 31.8696C30.9123 32.1724 31.1113 32.419 31.3103 32.6094C31.518 32.7998 31.7343 32.9382 31.9593 33.0248C32.1843 33.1113 32.4179 33.1545 32.6602 33.1545C32.9198 33.1545 33.1621 33.094 33.387 32.9728C33.612 32.8517 33.7894 32.683 33.9192 32.4666C34.0576 32.2417 34.1269 31.9864 34.1269 31.7009C34.1269 31.4067 34.0706 31.16 33.9581 30.961C33.8456 30.762 33.6812 30.6106 33.4649 30.5068C33.2486 30.4029 32.9933 30.351 32.6991 30.351C32.5693 30.351 32.4266 30.364 32.2708 30.3899C32.1151 30.4159 31.955 30.4592 31.7906 30.5197C31.6262 30.5717 31.4488 30.6365 31.2584 30.7144L30.8041 29.5203L33.2053 26.8985L33.6985 27.2489L29.8826 27.197V25.5227H35.3469L35.6974 26.2365L32.6991 29.4814L32.2448 28.9492C32.3141 28.9146 32.4266 28.8843 32.5823 28.8584C32.7467 28.8238 32.8981 28.8065 33.0366 28.8065C33.4346 28.8065 33.8067 28.88 34.1528 29.0271C34.4989 29.1742 34.8061 29.3775 35.0744 29.6371C35.3426 29.8967 35.5503 30.1996 35.6974 30.5457C35.8531 30.8918 35.931 31.2639 35.931 31.6619C35.931 32.259 35.7796 32.7955 35.4767 33.2714C35.1825 33.7386 34.7802 34.1107 34.2696 34.3876C33.7678 34.6558 33.201 34.79 32.5693 34.79Z" fill="white"/>
<defs>
<filter id="filter0_d_1704_3099" x="0.773776" y="0.788943" width="63.4544" height="63.4544" filterUnits="userSpaceOnUse" color-interpolation-filters="sRGB">
<feFlood flood-opacity="0" result="BackgroundImageFix"/>
<feColorMatrix in="SourceAlpha" type="matrix" values="0 0 0 0 0 0 0 0 0 0 0 0 0 0 0 0 0 0 127 0" result="hardAlpha"/>
<feOffset dy="2.88431"/>
<feGaussianBlur stdDeviation="7.21077"/>
<feComposite in2="hardAlpha" operator="out"/>
<feColorMatrix type="matrix" values="0 0 0 0 0.803542 0 0 0 0 0.869448 0 0 0 0 0.95 0 0 0 1 0"/>
<feBlend mode="normal" in2="BackgroundImageFix" result="effect1_dropShadow_1704_3099"/>
<feBlend mode="normal" in="SourceGraphic" in2="effect1_dropShadow_1704_3099" result="shape"/>
</filter>
</defs>
</svg>
